M48
; DRILL file {KiCad 7.0.10-7.0.10~ubuntu23.10.1} date Sun 07 Jan 2024 08:04:19 PM EST
; FORMAT={-:-/ absolute / metric / decimal}
; #@! TF.CreationDate,2024-01-07T20:04:19-05:00
; #@! TF.GenerationSoftware,Kicad,Pcbnew,7.0.10-7.0.10~ubuntu23.10.1
; #@! TF.FileFunction,Plated,1,2,PTH
FMAT,2
METRIC
; #@! TA.AperFunction,Plated,PTH,ViaDrill
T1C0.400
; #@! TA.AperFunction,Plated,PTH,ComponentDrill
T2C0.762
; #@! TA.AperFunction,Plated,PTH,ComponentDrill
T3C3.000
%
G90
G05
T1
X50.1Y-107.0
X51.9Y-124.3
X70.9Y-112.2
X71.6Y-116.7
X71.9Y-110.6
X73.7Y-100.1
X75.8Y-114.9
X78.9Y-105.0
X79.4Y-84.3
X99.5Y-108.9
X105.6Y-106.9
T2
X58.1Y-109.85
X61.7Y-102.85
X61.7Y-117.35
X64.2Y-117.35
X66.7Y-102.85
X66.7Y-117.35
X69.3Y-109.85
T3
X53.32Y-141.196
X59.606Y-138.502
X70.96Y-126.671
X77.73Y-125.695
X84.96Y-93.82
X84.98Y-74.82
X85.0Y-55.76
X91.31Y-96.36
X91.33Y-77.36
X91.35Y-58.3
X91.832Y-117.35
X98.623Y-118.16
X104.04Y-53.52
X104.06Y-72.52
X104.08Y-91.62
X110.39Y-56.06
X110.41Y-75.06
X110.43Y-94.16
X114.28Y-113.72
X120.63Y-116.26
X123.14Y-48.42
X123.16Y-67.52
X123.16Y-86.62
X129.49Y-50.96
X129.51Y-70.06
X129.51Y-89.16
X142.14Y-53.72
X142.18Y-72.82
X142.26Y-91.92
X148.49Y-56.26
X148.53Y-75.36
X148.61Y-94.46
X161.14Y-58.72
X161.26Y-77.82
X161.26Y-96.82
X167.49Y-61.26
X167.61Y-80.36
X167.61Y-99.36
X180.26Y-44.62
X180.26Y-63.62
X180.26Y-82.62
X180.36Y-101.62
X186.61Y-47.16
X186.61Y-66.16
X186.61Y-85.16
X186.71Y-104.16
M30
