%TF.GenerationSoftware,KiCad,Pcbnew,7.0.10-7.0.10~ubuntu23.10.1*%
%TF.CreationDate,2024-01-07T20:04:24-05:00*%
%TF.ProjectId,Right PCB,52696768-7420-4504-9342-2e6b69636164,rev?*%
%TF.SameCoordinates,Original*%
%TF.FileFunction,Drillmap*%
%TF.FilePolarity,Positive*%
%FSLAX45Y45*%
G04 Gerber Fmt 4.5, Leading zero omitted, Abs format (unit mm)*
G04 Created by KiCad (PCBNEW 7.0.10-7.0.10~ubuntu23.10.1) date 2024-01-07 20:04:24*
%MOMM*%
%LPD*%
G01*
G04 APERTURE LIST*
%ADD10C,0.100000*%
%ADD11C,0.200000*%
%ADD12C,0.175000*%
%ADD13C,0.398780*%
G04 APERTURE END LIST*
D10*
X7660000Y-7030000D02*
X7660000Y-5050000D01*
X3920000Y-10770000D02*
X7660000Y-7030000D01*
X3920000Y-13760000D02*
X3920000Y-10770000D01*
X9670000Y-5050000D02*
X7660000Y-5050000D01*
X17280000Y-11170000D02*
X17280000Y-11670000D01*
X17260000Y-3990000D02*
X17260000Y-5120000D01*
X15440000Y-4900000D02*
X13540000Y-4900000D01*
X12730000Y-10690000D02*
X15370000Y-10690000D01*
X19310000Y-4070000D02*
X19310000Y-3990000D01*
X13540000Y-4360000D02*
X11580000Y-4360000D01*
X11580000Y-4880000D02*
X9680000Y-4880000D01*
X17260000Y-5400000D02*
X15440000Y-5400000D01*
X19310000Y-4070000D02*
X19310000Y-11660000D01*
X11585825Y-12893208D02*
G75*
G03*
X5899824Y-15739824I1434175J-9966792D01*
G01*
X15440000Y-5400000D02*
X15440000Y-4900000D01*
X9670000Y-4880000D02*
X9670000Y-5050000D01*
X11585825Y-12893208D02*
X12730000Y-12870000D01*
X12730000Y-12870000D02*
X12730000Y-10690000D01*
X13540000Y-4900000D02*
X13540000Y-4360000D01*
X17260000Y-5120000D02*
X17260000Y-5400000D01*
X15370000Y-11170000D02*
X17280000Y-11170000D01*
X17280000Y-11670000D02*
X19310000Y-11660000D01*
X9670000Y-4880000D02*
X9680000Y-4880000D01*
X11580000Y-4360000D02*
X11580000Y-4880000D01*
X5899824Y-15739824D02*
X3920000Y-13760000D01*
X15370000Y-10690000D02*
X15370000Y-11170000D01*
X19310000Y-3990000D02*
X17260000Y-3990000D01*
D11*
D12*
X5424080Y-14570920D02*
X5599080Y-14745920D01*
X5599080Y-14570920D02*
X5424080Y-14745920D01*
X6142500Y-13852500D02*
X6317500Y-14027500D01*
X6317500Y-13852500D02*
X6142500Y-14027500D01*
X7042559Y-13146500D02*
X7217559Y-13321500D01*
X7217559Y-13146500D02*
X7042559Y-13321500D01*
X7922441Y-12638500D02*
X8097441Y-12813500D01*
X8097441Y-12638500D02*
X7922441Y-12813500D01*
X8154500Y-9802500D02*
X8329500Y-9977500D01*
X8329500Y-9802500D02*
X8154500Y-9977500D01*
X8156500Y-7902500D02*
X8331500Y-8077500D01*
X8331500Y-7902500D02*
X8156500Y-8077500D01*
X8158500Y-5996500D02*
X8333500Y-6171500D01*
X8333500Y-5996500D02*
X8158500Y-6171500D01*
X8981810Y-12203980D02*
X9156810Y-12378980D01*
X9156810Y-12203980D02*
X8981810Y-12378980D01*
X9170500Y-9802500D02*
X9345500Y-9977500D01*
X9345500Y-9802500D02*
X9170500Y-9977500D01*
X9172500Y-7902500D02*
X9347500Y-8077500D01*
X9347500Y-7902500D02*
X9172500Y-8077500D01*
X9174500Y-5996500D02*
X9349500Y-6171500D01*
X9349500Y-5996500D02*
X9174500Y-6171500D01*
X9963190Y-11941020D02*
X10138190Y-12116020D01*
X10138190Y-11941020D02*
X9963190Y-12116020D01*
X10062500Y-5772500D02*
X10237500Y-5947500D01*
X10237500Y-5772500D02*
X10062500Y-5947500D01*
X10064500Y-7672500D02*
X10239500Y-7847500D01*
X10239500Y-7672500D02*
X10064500Y-7847500D01*
X10066500Y-9582500D02*
X10241500Y-9757500D01*
X10241500Y-9582500D02*
X10066500Y-9757500D01*
X11078500Y-5772500D02*
X11253500Y-5947500D01*
X11253500Y-5772500D02*
X11078500Y-5947500D01*
X11080500Y-7672500D02*
X11255500Y-7847500D01*
X11255500Y-7672500D02*
X11080500Y-7847500D01*
X11082500Y-9582500D02*
X11257500Y-9757500D01*
X11257500Y-9582500D02*
X11082500Y-9757500D01*
X11086500Y-11792500D02*
X11261500Y-11967500D01*
X11261500Y-11792500D02*
X11086500Y-11967500D01*
X11972500Y-5262500D02*
X12147500Y-5437500D01*
X12147500Y-5262500D02*
X11972500Y-5437500D01*
X11974500Y-7172500D02*
X12149500Y-7347500D01*
X12149500Y-7172500D02*
X11974500Y-7347500D01*
X11974500Y-9082500D02*
X12149500Y-9257500D01*
X12149500Y-9082500D02*
X11974500Y-9257500D01*
X12102500Y-11792500D02*
X12277500Y-11967500D01*
X12277500Y-11792500D02*
X12102500Y-11967500D01*
X12988500Y-5262500D02*
X13163500Y-5437500D01*
X13163500Y-5262500D02*
X12988500Y-5437500D01*
X12990500Y-7172500D02*
X13165500Y-7347500D01*
X13165500Y-7172500D02*
X12990500Y-7347500D01*
X12990500Y-9082500D02*
X13165500Y-9257500D01*
X13165500Y-9082500D02*
X12990500Y-9257500D01*
X13872500Y-5792500D02*
X14047500Y-5967500D01*
X14047500Y-5792500D02*
X13872500Y-5967500D01*
X13876500Y-7702500D02*
X14051500Y-7877500D01*
X14051500Y-7702500D02*
X13876500Y-7877500D01*
X13884500Y-9612500D02*
X14059500Y-9787500D01*
X14059500Y-9612500D02*
X13884500Y-9787500D01*
X14888500Y-5792500D02*
X15063500Y-5967500D01*
X15063500Y-5792500D02*
X14888500Y-5967500D01*
X14892500Y-7702500D02*
X15067500Y-7877500D01*
X15067500Y-7702500D02*
X14892500Y-7877500D01*
X14900500Y-9612500D02*
X15075500Y-9787500D01*
X15075500Y-9612500D02*
X14900500Y-9787500D01*
X15772500Y-6292500D02*
X15947500Y-6467500D01*
X15947500Y-6292500D02*
X15772500Y-6467500D01*
X15784500Y-8202500D02*
X15959500Y-8377500D01*
X15959500Y-8202500D02*
X15784500Y-8377500D01*
X15784500Y-10102500D02*
X15959500Y-10277500D01*
X15959500Y-10102500D02*
X15784500Y-10277500D01*
X16788500Y-6292500D02*
X16963500Y-6467500D01*
X16963500Y-6292500D02*
X16788500Y-6467500D01*
X16800500Y-8202500D02*
X16975500Y-8377500D01*
X16975500Y-8202500D02*
X16800500Y-8377500D01*
X16800500Y-10102500D02*
X16975500Y-10277500D01*
X16975500Y-10102500D02*
X16800500Y-10277500D01*
X17684500Y-4882500D02*
X17859500Y-5057500D01*
X17859500Y-4882500D02*
X17684500Y-5057500D01*
X17684500Y-6782500D02*
X17859500Y-6957500D01*
X17859500Y-6782500D02*
X17684500Y-6957500D01*
X17684500Y-8682500D02*
X17859500Y-8857500D01*
X17859500Y-8682500D02*
X17684500Y-8857500D01*
X17694500Y-10582500D02*
X17869500Y-10757500D01*
X17869500Y-10582500D02*
X17694500Y-10757500D01*
X18700500Y-4882500D02*
X18875500Y-5057500D01*
X18875500Y-4882500D02*
X18700500Y-5057500D01*
X18700500Y-6782500D02*
X18875500Y-6957500D01*
X18875500Y-6782500D02*
X18700500Y-6957500D01*
X18700500Y-8682500D02*
X18875500Y-8857500D01*
X18875500Y-8682500D02*
X18700500Y-8857500D01*
X18710500Y-10582500D02*
X18885500Y-10757500D01*
X18885500Y-10582500D02*
X18710500Y-10757500D01*
D13*
X6070180Y-14299210D02*
G75*
G03*
X5671400Y-14299210I-199390J0D01*
G01*
X5671400Y-14299210D02*
G75*
G03*
X6070180Y-14299210I199390J0D01*
G01*
X7769390Y-12980000D02*
G75*
G03*
X7370610Y-12980000I-199390J0D01*
G01*
X7370610Y-12980000D02*
G75*
G03*
X7769390Y-12980000I199390J0D01*
G01*
X8949390Y-9890000D02*
G75*
G03*
X8550610Y-9890000I-199390J0D01*
G01*
X8550610Y-9890000D02*
G75*
G03*
X8949390Y-9890000I199390J0D01*
G01*
X8951390Y-7990000D02*
G75*
G03*
X8552610Y-7990000I-199390J0D01*
G01*
X8552610Y-7990000D02*
G75*
G03*
X8951390Y-7990000I199390J0D01*
G01*
X8953390Y-6084000D02*
G75*
G03*
X8554610Y-6084000I-199390J0D01*
G01*
X8554610Y-6084000D02*
G75*
G03*
X8953390Y-6084000I199390J0D01*
G01*
X9759390Y-12160000D02*
G75*
G03*
X9360610Y-12160000I-199390J0D01*
G01*
X9360610Y-12160000D02*
G75*
G03*
X9759390Y-12160000I199390J0D01*
G01*
X10857390Y-5860000D02*
G75*
G03*
X10458610Y-5860000I-199390J0D01*
G01*
X10458610Y-5860000D02*
G75*
G03*
X10857390Y-5860000I199390J0D01*
G01*
X10859390Y-7760000D02*
G75*
G03*
X10460610Y-7760000I-199390J0D01*
G01*
X10460610Y-7760000D02*
G75*
G03*
X10859390Y-7760000I199390J0D01*
G01*
X10861390Y-9670000D02*
G75*
G03*
X10462610Y-9670000I-199390J0D01*
G01*
X10462610Y-9670000D02*
G75*
G03*
X10861390Y-9670000I199390J0D01*
G01*
X11881390Y-11880000D02*
G75*
G03*
X11482610Y-11880000I-199390J0D01*
G01*
X11482610Y-11880000D02*
G75*
G03*
X11881390Y-11880000I199390J0D01*
G01*
X12767390Y-5350000D02*
G75*
G03*
X12368610Y-5350000I-199390J0D01*
G01*
X12368610Y-5350000D02*
G75*
G03*
X12767390Y-5350000I199390J0D01*
G01*
X12769390Y-7260000D02*
G75*
G03*
X12370610Y-7260000I-199390J0D01*
G01*
X12370610Y-7260000D02*
G75*
G03*
X12769390Y-7260000I199390J0D01*
G01*
X12769390Y-9170000D02*
G75*
G03*
X12370610Y-9170000I-199390J0D01*
G01*
X12370610Y-9170000D02*
G75*
G03*
X12769390Y-9170000I199390J0D01*
G01*
X14667390Y-5880000D02*
G75*
G03*
X14268610Y-5880000I-199390J0D01*
G01*
X14268610Y-5880000D02*
G75*
G03*
X14667390Y-5880000I199390J0D01*
G01*
X14671390Y-7790000D02*
G75*
G03*
X14272610Y-7790000I-199390J0D01*
G01*
X14272610Y-7790000D02*
G75*
G03*
X14671390Y-7790000I199390J0D01*
G01*
X14679390Y-9700000D02*
G75*
G03*
X14280610Y-9700000I-199390J0D01*
G01*
X14280610Y-9700000D02*
G75*
G03*
X14679390Y-9700000I199390J0D01*
G01*
X16567390Y-6380000D02*
G75*
G03*
X16168610Y-6380000I-199390J0D01*
G01*
X16168610Y-6380000D02*
G75*
G03*
X16567390Y-6380000I199390J0D01*
G01*
X16579390Y-8290000D02*
G75*
G03*
X16180610Y-8290000I-199390J0D01*
G01*
X16180610Y-8290000D02*
G75*
G03*
X16579390Y-8290000I199390J0D01*
G01*
X16579390Y-10190000D02*
G75*
G03*
X16180610Y-10190000I-199390J0D01*
G01*
X16180610Y-10190000D02*
G75*
G03*
X16579390Y-10190000I199390J0D01*
G01*
X18479390Y-4970000D02*
G75*
G03*
X18080610Y-4970000I-199390J0D01*
G01*
X18080610Y-4970000D02*
G75*
G03*
X18479390Y-4970000I199390J0D01*
G01*
X18479390Y-6870000D02*
G75*
G03*
X18080610Y-6870000I-199390J0D01*
G01*
X18080610Y-6870000D02*
G75*
G03*
X18479390Y-6870000I199390J0D01*
G01*
X18479390Y-8770000D02*
G75*
G03*
X18080610Y-8770000I-199390J0D01*
G01*
X18080610Y-8770000D02*
G75*
G03*
X18479390Y-8770000I199390J0D01*
G01*
X18489390Y-10670000D02*
G75*
G03*
X18090610Y-10670000I-199390J0D01*
G01*
X18090610Y-10670000D02*
G75*
G03*
X18489390Y-10670000I199390J0D01*
G01*
D11*
X4175777Y-16056308D02*
X4175777Y-15856308D01*
X4175777Y-15856308D02*
X4223396Y-15856308D01*
X4223396Y-15856308D02*
X4251967Y-15865832D01*
X4251967Y-15865832D02*
X4271015Y-15884880D01*
X4271015Y-15884880D02*
X4280539Y-15903927D01*
X4280539Y-15903927D02*
X4290063Y-15942022D01*
X4290063Y-15942022D02*
X4290063Y-15970594D01*
X4290063Y-15970594D02*
X4280539Y-16008689D01*
X4280539Y-16008689D02*
X4271015Y-16027737D01*
X4271015Y-16027737D02*
X4251967Y-16046784D01*
X4251967Y-16046784D02*
X4223396Y-16056308D01*
X4223396Y-16056308D02*
X4175777Y-16056308D01*
X4375777Y-16056308D02*
X4375777Y-15922975D01*
X4375777Y-15961070D02*
X4385301Y-15942022D01*
X4385301Y-15942022D02*
X4394824Y-15932499D01*
X4394824Y-15932499D02*
X4413872Y-15922975D01*
X4413872Y-15922975D02*
X4432920Y-15922975D01*
X4499586Y-16056308D02*
X4499586Y-15922975D01*
X4499586Y-15856308D02*
X4490063Y-15865832D01*
X4490063Y-15865832D02*
X4499586Y-15875356D01*
X4499586Y-15875356D02*
X4509110Y-15865832D01*
X4509110Y-15865832D02*
X4499586Y-15856308D01*
X4499586Y-15856308D02*
X4499586Y-15875356D01*
X4623396Y-16056308D02*
X4604348Y-16046784D01*
X4604348Y-16046784D02*
X4594824Y-16027737D01*
X4594824Y-16027737D02*
X4594824Y-15856308D01*
X4728158Y-16056308D02*
X4709110Y-16046784D01*
X4709110Y-16046784D02*
X4699586Y-16027737D01*
X4699586Y-16027737D02*
X4699586Y-15856308D01*
X4956729Y-16056308D02*
X4956729Y-15856308D01*
X4956729Y-15856308D02*
X5023396Y-15999165D01*
X5023396Y-15999165D02*
X5090063Y-15856308D01*
X5090063Y-15856308D02*
X5090063Y-16056308D01*
X5271015Y-16056308D02*
X5271015Y-15951546D01*
X5271015Y-15951546D02*
X5261491Y-15932499D01*
X5261491Y-15932499D02*
X5242444Y-15922975D01*
X5242444Y-15922975D02*
X5204348Y-15922975D01*
X5204348Y-15922975D02*
X5185301Y-15932499D01*
X5271015Y-16046784D02*
X5251967Y-16056308D01*
X5251967Y-16056308D02*
X5204348Y-16056308D01*
X5204348Y-16056308D02*
X5185301Y-16046784D01*
X5185301Y-16046784D02*
X5175777Y-16027737D01*
X5175777Y-16027737D02*
X5175777Y-16008689D01*
X5175777Y-16008689D02*
X5185301Y-15989642D01*
X5185301Y-15989642D02*
X5204348Y-15980118D01*
X5204348Y-15980118D02*
X5251967Y-15980118D01*
X5251967Y-15980118D02*
X5271015Y-15970594D01*
X5366253Y-15922975D02*
X5366253Y-16122975D01*
X5366253Y-15932499D02*
X5385301Y-15922975D01*
X5385301Y-15922975D02*
X5423396Y-15922975D01*
X5423396Y-15922975D02*
X5442444Y-15932499D01*
X5442444Y-15932499D02*
X5451967Y-15942022D01*
X5451967Y-15942022D02*
X5461491Y-15961070D01*
X5461491Y-15961070D02*
X5461491Y-16018213D01*
X5461491Y-16018213D02*
X5451967Y-16037261D01*
X5451967Y-16037261D02*
X5442444Y-16046784D01*
X5442444Y-16046784D02*
X5423396Y-16056308D01*
X5423396Y-16056308D02*
X5385301Y-16056308D01*
X5385301Y-16056308D02*
X5366253Y-16046784D01*
X5547205Y-16037261D02*
X5556729Y-16046784D01*
X5556729Y-16046784D02*
X5547205Y-16056308D01*
X5547205Y-16056308D02*
X5537682Y-16046784D01*
X5537682Y-16046784D02*
X5547205Y-16037261D01*
X5547205Y-16037261D02*
X5547205Y-16056308D01*
X5547205Y-15932499D02*
X5556729Y-15942022D01*
X5556729Y-15942022D02*
X5547205Y-15951546D01*
X5547205Y-15951546D02*
X5537682Y-15942022D01*
X5537682Y-15942022D02*
X5547205Y-15932499D01*
X5547205Y-15932499D02*
X5547205Y-15951546D01*
D12*
X3740000Y-16297324D02*
X3915000Y-16472324D01*
X3915000Y-16297324D02*
X3740000Y-16472324D01*
D11*
X4280539Y-16476308D02*
X4166253Y-16476308D01*
X4223396Y-16476308D02*
X4223396Y-16276308D01*
X4223396Y-16276308D02*
X4204348Y-16304880D01*
X4204348Y-16304880D02*
X4185301Y-16323927D01*
X4185301Y-16323927D02*
X4166253Y-16333451D01*
X4366253Y-16457261D02*
X4375777Y-16466784D01*
X4375777Y-16466784D02*
X4366253Y-16476308D01*
X4366253Y-16476308D02*
X4356729Y-16466784D01*
X4356729Y-16466784D02*
X4366253Y-16457261D01*
X4366253Y-16457261D02*
X4366253Y-16476308D01*
X4442444Y-16276308D02*
X4575777Y-16276308D01*
X4575777Y-16276308D02*
X4490063Y-16476308D01*
X4747205Y-16276308D02*
X4651967Y-16276308D01*
X4651967Y-16276308D02*
X4642444Y-16371546D01*
X4642444Y-16371546D02*
X4651967Y-16362022D01*
X4651967Y-16362022D02*
X4671015Y-16352499D01*
X4671015Y-16352499D02*
X4718634Y-16352499D01*
X4718634Y-16352499D02*
X4737682Y-16362022D01*
X4737682Y-16362022D02*
X4747205Y-16371546D01*
X4747205Y-16371546D02*
X4756729Y-16390594D01*
X4756729Y-16390594D02*
X4756729Y-16438213D01*
X4756729Y-16438213D02*
X4747205Y-16457261D01*
X4747205Y-16457261D02*
X4737682Y-16466784D01*
X4737682Y-16466784D02*
X4718634Y-16476308D01*
X4718634Y-16476308D02*
X4671015Y-16476308D01*
X4671015Y-16476308D02*
X4651967Y-16466784D01*
X4651967Y-16466784D02*
X4642444Y-16457261D01*
X4880539Y-16276308D02*
X4899586Y-16276308D01*
X4899586Y-16276308D02*
X4918634Y-16285832D01*
X4918634Y-16285832D02*
X4928158Y-16295356D01*
X4928158Y-16295356D02*
X4937682Y-16314403D01*
X4937682Y-16314403D02*
X4947205Y-16352499D01*
X4947205Y-16352499D02*
X4947205Y-16400118D01*
X4947205Y-16400118D02*
X4937682Y-16438213D01*
X4937682Y-16438213D02*
X4928158Y-16457261D01*
X4928158Y-16457261D02*
X4918634Y-16466784D01*
X4918634Y-16466784D02*
X4899586Y-16476308D01*
X4899586Y-16476308D02*
X4880539Y-16476308D01*
X4880539Y-16476308D02*
X4861491Y-16466784D01*
X4861491Y-16466784D02*
X4851967Y-16457261D01*
X4851967Y-16457261D02*
X4842444Y-16438213D01*
X4842444Y-16438213D02*
X4832920Y-16400118D01*
X4832920Y-16400118D02*
X4832920Y-16352499D01*
X4832920Y-16352499D02*
X4842444Y-16314403D01*
X4842444Y-16314403D02*
X4851967Y-16295356D01*
X4851967Y-16295356D02*
X4861491Y-16285832D01*
X4861491Y-16285832D02*
X4880539Y-16276308D01*
X5032920Y-16476308D02*
X5032920Y-16342975D01*
X5032920Y-16362022D02*
X5042444Y-16352499D01*
X5042444Y-16352499D02*
X5061491Y-16342975D01*
X5061491Y-16342975D02*
X5090063Y-16342975D01*
X5090063Y-16342975D02*
X5109110Y-16352499D01*
X5109110Y-16352499D02*
X5118634Y-16371546D01*
X5118634Y-16371546D02*
X5118634Y-16476308D01*
X5118634Y-16371546D02*
X5128158Y-16352499D01*
X5128158Y-16352499D02*
X5147205Y-16342975D01*
X5147205Y-16342975D02*
X5175777Y-16342975D01*
X5175777Y-16342975D02*
X5194825Y-16352499D01*
X5194825Y-16352499D02*
X5204348Y-16371546D01*
X5204348Y-16371546D02*
X5204348Y-16476308D01*
X5299586Y-16476308D02*
X5299586Y-16342975D01*
X5299586Y-16362022D02*
X5309110Y-16352499D01*
X5309110Y-16352499D02*
X5328158Y-16342975D01*
X5328158Y-16342975D02*
X5356729Y-16342975D01*
X5356729Y-16342975D02*
X5375777Y-16352499D01*
X5375777Y-16352499D02*
X5385301Y-16371546D01*
X5385301Y-16371546D02*
X5385301Y-16476308D01*
X5385301Y-16371546D02*
X5394825Y-16352499D01*
X5394825Y-16352499D02*
X5413872Y-16342975D01*
X5413872Y-16342975D02*
X5442444Y-16342975D01*
X5442444Y-16342975D02*
X5461491Y-16352499D01*
X5461491Y-16352499D02*
X5471015Y-16371546D01*
X5471015Y-16371546D02*
X5471015Y-16476308D01*
X5861491Y-16266784D02*
X5690063Y-16523927D01*
X6118634Y-16276308D02*
X6137682Y-16276308D01*
X6137682Y-16276308D02*
X6156729Y-16285832D01*
X6156729Y-16285832D02*
X6166253Y-16295356D01*
X6166253Y-16295356D02*
X6175777Y-16314403D01*
X6175777Y-16314403D02*
X6185301Y-16352499D01*
X6185301Y-16352499D02*
X6185301Y-16400118D01*
X6185301Y-16400118D02*
X6175777Y-16438213D01*
X6175777Y-16438213D02*
X6166253Y-16457261D01*
X6166253Y-16457261D02*
X6156729Y-16466784D01*
X6156729Y-16466784D02*
X6137682Y-16476308D01*
X6137682Y-16476308D02*
X6118634Y-16476308D01*
X6118634Y-16476308D02*
X6099586Y-16466784D01*
X6099586Y-16466784D02*
X6090063Y-16457261D01*
X6090063Y-16457261D02*
X6080539Y-16438213D01*
X6080539Y-16438213D02*
X6071015Y-16400118D01*
X6071015Y-16400118D02*
X6071015Y-16352499D01*
X6071015Y-16352499D02*
X6080539Y-16314403D01*
X6080539Y-16314403D02*
X6090063Y-16295356D01*
X6090063Y-16295356D02*
X6099586Y-16285832D01*
X6099586Y-16285832D02*
X6118634Y-16276308D01*
X6271015Y-16457261D02*
X6280539Y-16466784D01*
X6280539Y-16466784D02*
X6271015Y-16476308D01*
X6271015Y-16476308D02*
X6261491Y-16466784D01*
X6261491Y-16466784D02*
X6271015Y-16457261D01*
X6271015Y-16457261D02*
X6271015Y-16476308D01*
X6404348Y-16276308D02*
X6423396Y-16276308D01*
X6423396Y-16276308D02*
X6442444Y-16285832D01*
X6442444Y-16285832D02*
X6451967Y-16295356D01*
X6451967Y-16295356D02*
X6461491Y-16314403D01*
X6461491Y-16314403D02*
X6471015Y-16352499D01*
X6471015Y-16352499D02*
X6471015Y-16400118D01*
X6471015Y-16400118D02*
X6461491Y-16438213D01*
X6461491Y-16438213D02*
X6451967Y-16457261D01*
X6451967Y-16457261D02*
X6442444Y-16466784D01*
X6442444Y-16466784D02*
X6423396Y-16476308D01*
X6423396Y-16476308D02*
X6404348Y-16476308D01*
X6404348Y-16476308D02*
X6385301Y-16466784D01*
X6385301Y-16466784D02*
X6375777Y-16457261D01*
X6375777Y-16457261D02*
X6366253Y-16438213D01*
X6366253Y-16438213D02*
X6356729Y-16400118D01*
X6356729Y-16400118D02*
X6356729Y-16352499D01*
X6356729Y-16352499D02*
X6366253Y-16314403D01*
X6366253Y-16314403D02*
X6375777Y-16295356D01*
X6375777Y-16295356D02*
X6385301Y-16285832D01*
X6385301Y-16285832D02*
X6404348Y-16276308D01*
X6642444Y-16276308D02*
X6604348Y-16276308D01*
X6604348Y-16276308D02*
X6585301Y-16285832D01*
X6585301Y-16285832D02*
X6575777Y-16295356D01*
X6575777Y-16295356D02*
X6556729Y-16323927D01*
X6556729Y-16323927D02*
X6547206Y-16362022D01*
X6547206Y-16362022D02*
X6547206Y-16438213D01*
X6547206Y-16438213D02*
X6556729Y-16457261D01*
X6556729Y-16457261D02*
X6566253Y-16466784D01*
X6566253Y-16466784D02*
X6585301Y-16476308D01*
X6585301Y-16476308D02*
X6623396Y-16476308D01*
X6623396Y-16476308D02*
X6642444Y-16466784D01*
X6642444Y-16466784D02*
X6651967Y-16457261D01*
X6651967Y-16457261D02*
X6661491Y-16438213D01*
X6661491Y-16438213D02*
X6661491Y-16390594D01*
X6661491Y-16390594D02*
X6651967Y-16371546D01*
X6651967Y-16371546D02*
X6642444Y-16362022D01*
X6642444Y-16362022D02*
X6623396Y-16352499D01*
X6623396Y-16352499D02*
X6585301Y-16352499D01*
X6585301Y-16352499D02*
X6566253Y-16362022D01*
X6566253Y-16362022D02*
X6556729Y-16371546D01*
X6556729Y-16371546D02*
X6547206Y-16390594D01*
X6775777Y-16362022D02*
X6756729Y-16352499D01*
X6756729Y-16352499D02*
X6747206Y-16342975D01*
X6747206Y-16342975D02*
X6737682Y-16323927D01*
X6737682Y-16323927D02*
X6737682Y-16314403D01*
X6737682Y-16314403D02*
X6747206Y-16295356D01*
X6747206Y-16295356D02*
X6756729Y-16285832D01*
X6756729Y-16285832D02*
X6775777Y-16276308D01*
X6775777Y-16276308D02*
X6813872Y-16276308D01*
X6813872Y-16276308D02*
X6832920Y-16285832D01*
X6832920Y-16285832D02*
X6842444Y-16295356D01*
X6842444Y-16295356D02*
X6851967Y-16314403D01*
X6851967Y-16314403D02*
X6851967Y-16323927D01*
X6851967Y-16323927D02*
X6842444Y-16342975D01*
X6842444Y-16342975D02*
X6832920Y-16352499D01*
X6832920Y-16352499D02*
X6813872Y-16362022D01*
X6813872Y-16362022D02*
X6775777Y-16362022D01*
X6775777Y-16362022D02*
X6756729Y-16371546D01*
X6756729Y-16371546D02*
X6747206Y-16381070D01*
X6747206Y-16381070D02*
X6737682Y-16400118D01*
X6737682Y-16400118D02*
X6737682Y-16438213D01*
X6737682Y-16438213D02*
X6747206Y-16457261D01*
X6747206Y-16457261D02*
X6756729Y-16466784D01*
X6756729Y-16466784D02*
X6775777Y-16476308D01*
X6775777Y-16476308D02*
X6813872Y-16476308D01*
X6813872Y-16476308D02*
X6832920Y-16466784D01*
X6832920Y-16466784D02*
X6842444Y-16457261D01*
X6842444Y-16457261D02*
X6851967Y-16438213D01*
X6851967Y-16438213D02*
X6851967Y-16400118D01*
X6851967Y-16400118D02*
X6842444Y-16381070D01*
X6842444Y-16381070D02*
X6832920Y-16371546D01*
X6832920Y-16371546D02*
X6813872Y-16362022D01*
X6947206Y-16476308D02*
X6985301Y-16476308D01*
X6985301Y-16476308D02*
X7004348Y-16466784D01*
X7004348Y-16466784D02*
X7013872Y-16457261D01*
X7013872Y-16457261D02*
X7032920Y-16428689D01*
X7032920Y-16428689D02*
X7042444Y-16390594D01*
X7042444Y-16390594D02*
X7042444Y-16314403D01*
X7042444Y-16314403D02*
X7032920Y-16295356D01*
X7032920Y-16295356D02*
X7023396Y-16285832D01*
X7023396Y-16285832D02*
X7004348Y-16276308D01*
X7004348Y-16276308D02*
X6966253Y-16276308D01*
X6966253Y-16276308D02*
X6947206Y-16285832D01*
X6947206Y-16285832D02*
X6937682Y-16295356D01*
X6937682Y-16295356D02*
X6928158Y-16314403D01*
X6928158Y-16314403D02*
X6928158Y-16362022D01*
X6928158Y-16362022D02*
X6937682Y-16381070D01*
X6937682Y-16381070D02*
X6947206Y-16390594D01*
X6947206Y-16390594D02*
X6966253Y-16400118D01*
X6966253Y-16400118D02*
X7004348Y-16400118D01*
X7004348Y-16400118D02*
X7023396Y-16390594D01*
X7023396Y-16390594D02*
X7032920Y-16381070D01*
X7032920Y-16381070D02*
X7042444Y-16362022D01*
X7118634Y-16276308D02*
X7118634Y-16314403D01*
X7194825Y-16276308D02*
X7194825Y-16314403D01*
X7490063Y-16552499D02*
X7480539Y-16542975D01*
X7480539Y-16542975D02*
X7461491Y-16514403D01*
X7461491Y-16514403D02*
X7451968Y-16495356D01*
X7451968Y-16495356D02*
X7442444Y-16466784D01*
X7442444Y-16466784D02*
X7432920Y-16419165D01*
X7432920Y-16419165D02*
X7432920Y-16381070D01*
X7432920Y-16381070D02*
X7442444Y-16333451D01*
X7442444Y-16333451D02*
X7451968Y-16304880D01*
X7451968Y-16304880D02*
X7461491Y-16285832D01*
X7461491Y-16285832D02*
X7480539Y-16257261D01*
X7480539Y-16257261D02*
X7490063Y-16247737D01*
X7651968Y-16342975D02*
X7651968Y-16476308D01*
X7604348Y-16266784D02*
X7556729Y-16409642D01*
X7556729Y-16409642D02*
X7680539Y-16409642D01*
X7842444Y-16276308D02*
X7804348Y-16276308D01*
X7804348Y-16276308D02*
X7785301Y-16285832D01*
X7785301Y-16285832D02*
X7775777Y-16295356D01*
X7775777Y-16295356D02*
X7756729Y-16323927D01*
X7756729Y-16323927D02*
X7747206Y-16362022D01*
X7747206Y-16362022D02*
X7747206Y-16438213D01*
X7747206Y-16438213D02*
X7756729Y-16457261D01*
X7756729Y-16457261D02*
X7766253Y-16466784D01*
X7766253Y-16466784D02*
X7785301Y-16476308D01*
X7785301Y-16476308D02*
X7823396Y-16476308D01*
X7823396Y-16476308D02*
X7842444Y-16466784D01*
X7842444Y-16466784D02*
X7851968Y-16457261D01*
X7851968Y-16457261D02*
X7861491Y-16438213D01*
X7861491Y-16438213D02*
X7861491Y-16390594D01*
X7861491Y-16390594D02*
X7851968Y-16371546D01*
X7851968Y-16371546D02*
X7842444Y-16362022D01*
X7842444Y-16362022D02*
X7823396Y-16352499D01*
X7823396Y-16352499D02*
X7785301Y-16352499D01*
X7785301Y-16352499D02*
X7766253Y-16362022D01*
X7766253Y-16362022D02*
X7756729Y-16371546D01*
X7756729Y-16371546D02*
X7747206Y-16390594D01*
X8099587Y-16476308D02*
X8099587Y-16276308D01*
X8185301Y-16476308D02*
X8185301Y-16371546D01*
X8185301Y-16371546D02*
X8175777Y-16352499D01*
X8175777Y-16352499D02*
X8156730Y-16342975D01*
X8156730Y-16342975D02*
X8128158Y-16342975D01*
X8128158Y-16342975D02*
X8109110Y-16352499D01*
X8109110Y-16352499D02*
X8099587Y-16362022D01*
X8309110Y-16476308D02*
X8290063Y-16466784D01*
X8290063Y-16466784D02*
X8280539Y-16457261D01*
X8280539Y-16457261D02*
X8271015Y-16438213D01*
X8271015Y-16438213D02*
X8271015Y-16381070D01*
X8271015Y-16381070D02*
X8280539Y-16362022D01*
X8280539Y-16362022D02*
X8290063Y-16352499D01*
X8290063Y-16352499D02*
X8309110Y-16342975D01*
X8309110Y-16342975D02*
X8337682Y-16342975D01*
X8337682Y-16342975D02*
X8356730Y-16352499D01*
X8356730Y-16352499D02*
X8366253Y-16362022D01*
X8366253Y-16362022D02*
X8375777Y-16381070D01*
X8375777Y-16381070D02*
X8375777Y-16438213D01*
X8375777Y-16438213D02*
X8366253Y-16457261D01*
X8366253Y-16457261D02*
X8356730Y-16466784D01*
X8356730Y-16466784D02*
X8337682Y-16476308D01*
X8337682Y-16476308D02*
X8309110Y-16476308D01*
X8490063Y-16476308D02*
X8471015Y-16466784D01*
X8471015Y-16466784D02*
X8461492Y-16447737D01*
X8461492Y-16447737D02*
X8461492Y-16276308D01*
X8642444Y-16466784D02*
X8623396Y-16476308D01*
X8623396Y-16476308D02*
X8585301Y-16476308D01*
X8585301Y-16476308D02*
X8566253Y-16466784D01*
X8566253Y-16466784D02*
X8556730Y-16447737D01*
X8556730Y-16447737D02*
X8556730Y-16371546D01*
X8556730Y-16371546D02*
X8566253Y-16352499D01*
X8566253Y-16352499D02*
X8585301Y-16342975D01*
X8585301Y-16342975D02*
X8623396Y-16342975D01*
X8623396Y-16342975D02*
X8642444Y-16352499D01*
X8642444Y-16352499D02*
X8651968Y-16371546D01*
X8651968Y-16371546D02*
X8651968Y-16390594D01*
X8651968Y-16390594D02*
X8556730Y-16409642D01*
X8728158Y-16466784D02*
X8747206Y-16476308D01*
X8747206Y-16476308D02*
X8785301Y-16476308D01*
X8785301Y-16476308D02*
X8804349Y-16466784D01*
X8804349Y-16466784D02*
X8813873Y-16447737D01*
X8813873Y-16447737D02*
X8813873Y-16438213D01*
X8813873Y-16438213D02*
X8804349Y-16419165D01*
X8804349Y-16419165D02*
X8785301Y-16409642D01*
X8785301Y-16409642D02*
X8756730Y-16409642D01*
X8756730Y-16409642D02*
X8737682Y-16400118D01*
X8737682Y-16400118D02*
X8728158Y-16381070D01*
X8728158Y-16381070D02*
X8728158Y-16371546D01*
X8728158Y-16371546D02*
X8737682Y-16352499D01*
X8737682Y-16352499D02*
X8756730Y-16342975D01*
X8756730Y-16342975D02*
X8785301Y-16342975D01*
X8785301Y-16342975D02*
X8804349Y-16352499D01*
X8880539Y-16552499D02*
X8890063Y-16542975D01*
X8890063Y-16542975D02*
X8909111Y-16514403D01*
X8909111Y-16514403D02*
X8918634Y-16495356D01*
X8918634Y-16495356D02*
X8928158Y-16466784D01*
X8928158Y-16466784D02*
X8937682Y-16419165D01*
X8937682Y-16419165D02*
X8937682Y-16381070D01*
X8937682Y-16381070D02*
X8928158Y-16333451D01*
X8928158Y-16333451D02*
X8918634Y-16304880D01*
X8918634Y-16304880D02*
X8909111Y-16285832D01*
X8909111Y-16285832D02*
X8890063Y-16257261D01*
X8890063Y-16257261D02*
X8880539Y-16247737D01*
X9242444Y-16552499D02*
X9232920Y-16542975D01*
X9232920Y-16542975D02*
X9213873Y-16514403D01*
X9213873Y-16514403D02*
X9204349Y-16495356D01*
X9204349Y-16495356D02*
X9194825Y-16466784D01*
X9194825Y-16466784D02*
X9185301Y-16419165D01*
X9185301Y-16419165D02*
X9185301Y-16381070D01*
X9185301Y-16381070D02*
X9194825Y-16333451D01*
X9194825Y-16333451D02*
X9204349Y-16304880D01*
X9204349Y-16304880D02*
X9213873Y-16285832D01*
X9213873Y-16285832D02*
X9232920Y-16257261D01*
X9232920Y-16257261D02*
X9242444Y-16247737D01*
X9318634Y-16342975D02*
X9318634Y-16476308D01*
X9318634Y-16362022D02*
X9328158Y-16352499D01*
X9328158Y-16352499D02*
X9347206Y-16342975D01*
X9347206Y-16342975D02*
X9375777Y-16342975D01*
X9375777Y-16342975D02*
X9394825Y-16352499D01*
X9394825Y-16352499D02*
X9404349Y-16371546D01*
X9404349Y-16371546D02*
X9404349Y-16476308D01*
X9528158Y-16476308D02*
X9509111Y-16466784D01*
X9509111Y-16466784D02*
X9499587Y-16457261D01*
X9499587Y-16457261D02*
X9490063Y-16438213D01*
X9490063Y-16438213D02*
X9490063Y-16381070D01*
X9490063Y-16381070D02*
X9499587Y-16362022D01*
X9499587Y-16362022D02*
X9509111Y-16352499D01*
X9509111Y-16352499D02*
X9528158Y-16342975D01*
X9528158Y-16342975D02*
X9556730Y-16342975D01*
X9556730Y-16342975D02*
X9575777Y-16352499D01*
X9575777Y-16352499D02*
X9585301Y-16362022D01*
X9585301Y-16362022D02*
X9594825Y-16381070D01*
X9594825Y-16381070D02*
X9594825Y-16438213D01*
X9594825Y-16438213D02*
X9585301Y-16457261D01*
X9585301Y-16457261D02*
X9575777Y-16466784D01*
X9575777Y-16466784D02*
X9556730Y-16476308D01*
X9556730Y-16476308D02*
X9528158Y-16476308D01*
X9651968Y-16342975D02*
X9728158Y-16342975D01*
X9680539Y-16276308D02*
X9680539Y-16447737D01*
X9680539Y-16447737D02*
X9690063Y-16466784D01*
X9690063Y-16466784D02*
X9709111Y-16476308D01*
X9709111Y-16476308D02*
X9728158Y-16476308D01*
X9947206Y-16342975D02*
X9947206Y-16542975D01*
X9947206Y-16352499D02*
X9966254Y-16342975D01*
X9966254Y-16342975D02*
X10004349Y-16342975D01*
X10004349Y-16342975D02*
X10023396Y-16352499D01*
X10023396Y-16352499D02*
X10032920Y-16362022D01*
X10032920Y-16362022D02*
X10042444Y-16381070D01*
X10042444Y-16381070D02*
X10042444Y-16438213D01*
X10042444Y-16438213D02*
X10032920Y-16457261D01*
X10032920Y-16457261D02*
X10023396Y-16466784D01*
X10023396Y-16466784D02*
X10004349Y-16476308D01*
X10004349Y-16476308D02*
X9966254Y-16476308D01*
X9966254Y-16476308D02*
X9947206Y-16466784D01*
X10156730Y-16476308D02*
X10137682Y-16466784D01*
X10137682Y-16466784D02*
X10128158Y-16447737D01*
X10128158Y-16447737D02*
X10128158Y-16276308D01*
X10318635Y-16476308D02*
X10318635Y-16371546D01*
X10318635Y-16371546D02*
X10309111Y-16352499D01*
X10309111Y-16352499D02*
X10290063Y-16342975D01*
X10290063Y-16342975D02*
X10251968Y-16342975D01*
X10251968Y-16342975D02*
X10232920Y-16352499D01*
X10318635Y-16466784D02*
X10299587Y-16476308D01*
X10299587Y-16476308D02*
X10251968Y-16476308D01*
X10251968Y-16476308D02*
X10232920Y-16466784D01*
X10232920Y-16466784D02*
X10223396Y-16447737D01*
X10223396Y-16447737D02*
X10223396Y-16428689D01*
X10223396Y-16428689D02*
X10232920Y-16409642D01*
X10232920Y-16409642D02*
X10251968Y-16400118D01*
X10251968Y-16400118D02*
X10299587Y-16400118D01*
X10299587Y-16400118D02*
X10318635Y-16390594D01*
X10385301Y-16342975D02*
X10461492Y-16342975D01*
X10413873Y-16276308D02*
X10413873Y-16447737D01*
X10413873Y-16447737D02*
X10423396Y-16466784D01*
X10423396Y-16466784D02*
X10442444Y-16476308D01*
X10442444Y-16476308D02*
X10461492Y-16476308D01*
X10604349Y-16466784D02*
X10585301Y-16476308D01*
X10585301Y-16476308D02*
X10547206Y-16476308D01*
X10547206Y-16476308D02*
X10528158Y-16466784D01*
X10528158Y-16466784D02*
X10518635Y-16447737D01*
X10518635Y-16447737D02*
X10518635Y-16371546D01*
X10518635Y-16371546D02*
X10528158Y-16352499D01*
X10528158Y-16352499D02*
X10547206Y-16342975D01*
X10547206Y-16342975D02*
X10585301Y-16342975D01*
X10585301Y-16342975D02*
X10604349Y-16352499D01*
X10604349Y-16352499D02*
X10613873Y-16371546D01*
X10613873Y-16371546D02*
X10613873Y-16390594D01*
X10613873Y-16390594D02*
X10518635Y-16409642D01*
X10785301Y-16476308D02*
X10785301Y-16276308D01*
X10785301Y-16466784D02*
X10766254Y-16476308D01*
X10766254Y-16476308D02*
X10728158Y-16476308D01*
X10728158Y-16476308D02*
X10709111Y-16466784D01*
X10709111Y-16466784D02*
X10699587Y-16457261D01*
X10699587Y-16457261D02*
X10690063Y-16438213D01*
X10690063Y-16438213D02*
X10690063Y-16381070D01*
X10690063Y-16381070D02*
X10699587Y-16362022D01*
X10699587Y-16362022D02*
X10709111Y-16352499D01*
X10709111Y-16352499D02*
X10728158Y-16342975D01*
X10728158Y-16342975D02*
X10766254Y-16342975D01*
X10766254Y-16342975D02*
X10785301Y-16352499D01*
X10861492Y-16552499D02*
X10871016Y-16542975D01*
X10871016Y-16542975D02*
X10890063Y-16514403D01*
X10890063Y-16514403D02*
X10899587Y-16495356D01*
X10899587Y-16495356D02*
X10909111Y-16466784D01*
X10909111Y-16466784D02*
X10918635Y-16419165D01*
X10918635Y-16419165D02*
X10918635Y-16381070D01*
X10918635Y-16381070D02*
X10909111Y-16333451D01*
X10909111Y-16333451D02*
X10899587Y-16304880D01*
X10899587Y-16304880D02*
X10890063Y-16285832D01*
X10890063Y-16285832D02*
X10871016Y-16257261D01*
X10871016Y-16257261D02*
X10861492Y-16247737D01*
X3915000Y-16679824D02*
G75*
G03*
X3715000Y-16679824I-100000J0D01*
G01*
X3715000Y-16679824D02*
G75*
G03*
X3915000Y-16679824I100000J0D01*
G01*
X4156729Y-16571308D02*
X4280539Y-16571308D01*
X4280539Y-16571308D02*
X4213872Y-16647499D01*
X4213872Y-16647499D02*
X4242444Y-16647499D01*
X4242444Y-16647499D02*
X4261491Y-16657022D01*
X4261491Y-16657022D02*
X4271015Y-16666546D01*
X4271015Y-16666546D02*
X4280539Y-16685594D01*
X4280539Y-16685594D02*
X4280539Y-16733213D01*
X4280539Y-16733213D02*
X4271015Y-16752261D01*
X4271015Y-16752261D02*
X4261491Y-16761784D01*
X4261491Y-16761784D02*
X4242444Y-16771308D01*
X4242444Y-16771308D02*
X4185301Y-16771308D01*
X4185301Y-16771308D02*
X4166253Y-16761784D01*
X4166253Y-16761784D02*
X4156729Y-16752261D01*
X4366253Y-16752261D02*
X4375777Y-16761784D01*
X4375777Y-16761784D02*
X4366253Y-16771308D01*
X4366253Y-16771308D02*
X4356729Y-16761784D01*
X4356729Y-16761784D02*
X4366253Y-16752261D01*
X4366253Y-16752261D02*
X4366253Y-16771308D01*
X4471015Y-16771308D02*
X4509110Y-16771308D01*
X4509110Y-16771308D02*
X4528158Y-16761784D01*
X4528158Y-16761784D02*
X4537682Y-16752261D01*
X4537682Y-16752261D02*
X4556729Y-16723689D01*
X4556729Y-16723689D02*
X4566253Y-16685594D01*
X4566253Y-16685594D02*
X4566253Y-16609403D01*
X4566253Y-16609403D02*
X4556729Y-16590356D01*
X4556729Y-16590356D02*
X4547205Y-16580832D01*
X4547205Y-16580832D02*
X4528158Y-16571308D01*
X4528158Y-16571308D02*
X4490063Y-16571308D01*
X4490063Y-16571308D02*
X4471015Y-16580832D01*
X4471015Y-16580832D02*
X4461491Y-16590356D01*
X4461491Y-16590356D02*
X4451967Y-16609403D01*
X4451967Y-16609403D02*
X4451967Y-16657022D01*
X4451967Y-16657022D02*
X4461491Y-16676070D01*
X4461491Y-16676070D02*
X4471015Y-16685594D01*
X4471015Y-16685594D02*
X4490063Y-16695118D01*
X4490063Y-16695118D02*
X4528158Y-16695118D01*
X4528158Y-16695118D02*
X4547205Y-16685594D01*
X4547205Y-16685594D02*
X4556729Y-16676070D01*
X4556729Y-16676070D02*
X4566253Y-16657022D01*
X4680539Y-16657022D02*
X4661491Y-16647499D01*
X4661491Y-16647499D02*
X4651967Y-16637975D01*
X4651967Y-16637975D02*
X4642444Y-16618927D01*
X4642444Y-16618927D02*
X4642444Y-16609403D01*
X4642444Y-16609403D02*
X4651967Y-16590356D01*
X4651967Y-16590356D02*
X4661491Y-16580832D01*
X4661491Y-16580832D02*
X4680539Y-16571308D01*
X4680539Y-16571308D02*
X4718634Y-16571308D01*
X4718634Y-16571308D02*
X4737682Y-16580832D01*
X4737682Y-16580832D02*
X4747205Y-16590356D01*
X4747205Y-16590356D02*
X4756729Y-16609403D01*
X4756729Y-16609403D02*
X4756729Y-16618927D01*
X4756729Y-16618927D02*
X4747205Y-16637975D01*
X4747205Y-16637975D02*
X4737682Y-16647499D01*
X4737682Y-16647499D02*
X4718634Y-16657022D01*
X4718634Y-16657022D02*
X4680539Y-16657022D01*
X4680539Y-16657022D02*
X4661491Y-16666546D01*
X4661491Y-16666546D02*
X4651967Y-16676070D01*
X4651967Y-16676070D02*
X4642444Y-16695118D01*
X4642444Y-16695118D02*
X4642444Y-16733213D01*
X4642444Y-16733213D02*
X4651967Y-16752261D01*
X4651967Y-16752261D02*
X4661491Y-16761784D01*
X4661491Y-16761784D02*
X4680539Y-16771308D01*
X4680539Y-16771308D02*
X4718634Y-16771308D01*
X4718634Y-16771308D02*
X4737682Y-16761784D01*
X4737682Y-16761784D02*
X4747205Y-16752261D01*
X4747205Y-16752261D02*
X4756729Y-16733213D01*
X4756729Y-16733213D02*
X4756729Y-16695118D01*
X4756729Y-16695118D02*
X4747205Y-16676070D01*
X4747205Y-16676070D02*
X4737682Y-16666546D01*
X4737682Y-16666546D02*
X4718634Y-16657022D01*
X4871015Y-16657022D02*
X4851967Y-16647499D01*
X4851967Y-16647499D02*
X4842444Y-16637975D01*
X4842444Y-16637975D02*
X4832920Y-16618927D01*
X4832920Y-16618927D02*
X4832920Y-16609403D01*
X4832920Y-16609403D02*
X4842444Y-16590356D01*
X4842444Y-16590356D02*
X4851967Y-16580832D01*
X4851967Y-16580832D02*
X4871015Y-16571308D01*
X4871015Y-16571308D02*
X4909110Y-16571308D01*
X4909110Y-16571308D02*
X4928158Y-16580832D01*
X4928158Y-16580832D02*
X4937682Y-16590356D01*
X4937682Y-16590356D02*
X4947205Y-16609403D01*
X4947205Y-16609403D02*
X4947205Y-16618927D01*
X4947205Y-16618927D02*
X4937682Y-16637975D01*
X4937682Y-16637975D02*
X4928158Y-16647499D01*
X4928158Y-16647499D02*
X4909110Y-16657022D01*
X4909110Y-16657022D02*
X4871015Y-16657022D01*
X4871015Y-16657022D02*
X4851967Y-16666546D01*
X4851967Y-16666546D02*
X4842444Y-16676070D01*
X4842444Y-16676070D02*
X4832920Y-16695118D01*
X4832920Y-16695118D02*
X4832920Y-16733213D01*
X4832920Y-16733213D02*
X4842444Y-16752261D01*
X4842444Y-16752261D02*
X4851967Y-16761784D01*
X4851967Y-16761784D02*
X4871015Y-16771308D01*
X4871015Y-16771308D02*
X4909110Y-16771308D01*
X4909110Y-16771308D02*
X4928158Y-16761784D01*
X4928158Y-16761784D02*
X4937682Y-16752261D01*
X4937682Y-16752261D02*
X4947205Y-16733213D01*
X4947205Y-16733213D02*
X4947205Y-16695118D01*
X4947205Y-16695118D02*
X4937682Y-16676070D01*
X4937682Y-16676070D02*
X4928158Y-16666546D01*
X4928158Y-16666546D02*
X4909110Y-16657022D01*
X5032920Y-16771308D02*
X5032920Y-16637975D01*
X5032920Y-16657022D02*
X5042444Y-16647499D01*
X5042444Y-16647499D02*
X5061491Y-16637975D01*
X5061491Y-16637975D02*
X5090063Y-16637975D01*
X5090063Y-16637975D02*
X5109110Y-16647499D01*
X5109110Y-16647499D02*
X5118634Y-16666546D01*
X5118634Y-16666546D02*
X5118634Y-16771308D01*
X5118634Y-16666546D02*
X5128158Y-16647499D01*
X5128158Y-16647499D02*
X5147205Y-16637975D01*
X5147205Y-16637975D02*
X5175777Y-16637975D01*
X5175777Y-16637975D02*
X5194825Y-16647499D01*
X5194825Y-16647499D02*
X5204348Y-16666546D01*
X5204348Y-16666546D02*
X5204348Y-16771308D01*
X5299586Y-16771308D02*
X5299586Y-16637975D01*
X5299586Y-16657022D02*
X5309110Y-16647499D01*
X5309110Y-16647499D02*
X5328158Y-16637975D01*
X5328158Y-16637975D02*
X5356729Y-16637975D01*
X5356729Y-16637975D02*
X5375777Y-16647499D01*
X5375777Y-16647499D02*
X5385301Y-16666546D01*
X5385301Y-16666546D02*
X5385301Y-16771308D01*
X5385301Y-16666546D02*
X5394825Y-16647499D01*
X5394825Y-16647499D02*
X5413872Y-16637975D01*
X5413872Y-16637975D02*
X5442444Y-16637975D01*
X5442444Y-16637975D02*
X5461491Y-16647499D01*
X5461491Y-16647499D02*
X5471015Y-16666546D01*
X5471015Y-16666546D02*
X5471015Y-16771308D01*
X5861491Y-16561784D02*
X5690063Y-16818927D01*
X6118634Y-16571308D02*
X6137682Y-16571308D01*
X6137682Y-16571308D02*
X6156729Y-16580832D01*
X6156729Y-16580832D02*
X6166253Y-16590356D01*
X6166253Y-16590356D02*
X6175777Y-16609403D01*
X6175777Y-16609403D02*
X6185301Y-16647499D01*
X6185301Y-16647499D02*
X6185301Y-16695118D01*
X6185301Y-16695118D02*
X6175777Y-16733213D01*
X6175777Y-16733213D02*
X6166253Y-16752261D01*
X6166253Y-16752261D02*
X6156729Y-16761784D01*
X6156729Y-16761784D02*
X6137682Y-16771308D01*
X6137682Y-16771308D02*
X6118634Y-16771308D01*
X6118634Y-16771308D02*
X6099586Y-16761784D01*
X6099586Y-16761784D02*
X6090063Y-16752261D01*
X6090063Y-16752261D02*
X6080539Y-16733213D01*
X6080539Y-16733213D02*
X6071015Y-16695118D01*
X6071015Y-16695118D02*
X6071015Y-16647499D01*
X6071015Y-16647499D02*
X6080539Y-16609403D01*
X6080539Y-16609403D02*
X6090063Y-16590356D01*
X6090063Y-16590356D02*
X6099586Y-16580832D01*
X6099586Y-16580832D02*
X6118634Y-16571308D01*
X6271015Y-16752261D02*
X6280539Y-16761784D01*
X6280539Y-16761784D02*
X6271015Y-16771308D01*
X6271015Y-16771308D02*
X6261491Y-16761784D01*
X6261491Y-16761784D02*
X6271015Y-16752261D01*
X6271015Y-16752261D02*
X6271015Y-16771308D01*
X6471015Y-16771308D02*
X6356729Y-16771308D01*
X6413872Y-16771308D02*
X6413872Y-16571308D01*
X6413872Y-16571308D02*
X6394825Y-16599880D01*
X6394825Y-16599880D02*
X6375777Y-16618927D01*
X6375777Y-16618927D02*
X6356729Y-16628451D01*
X6651967Y-16571308D02*
X6556729Y-16571308D01*
X6556729Y-16571308D02*
X6547206Y-16666546D01*
X6547206Y-16666546D02*
X6556729Y-16657022D01*
X6556729Y-16657022D02*
X6575777Y-16647499D01*
X6575777Y-16647499D02*
X6623396Y-16647499D01*
X6623396Y-16647499D02*
X6642444Y-16657022D01*
X6642444Y-16657022D02*
X6651967Y-16666546D01*
X6651967Y-16666546D02*
X6661491Y-16685594D01*
X6661491Y-16685594D02*
X6661491Y-16733213D01*
X6661491Y-16733213D02*
X6651967Y-16752261D01*
X6651967Y-16752261D02*
X6642444Y-16761784D01*
X6642444Y-16761784D02*
X6623396Y-16771308D01*
X6623396Y-16771308D02*
X6575777Y-16771308D01*
X6575777Y-16771308D02*
X6556729Y-16761784D01*
X6556729Y-16761784D02*
X6547206Y-16752261D01*
X6728158Y-16571308D02*
X6861491Y-16571308D01*
X6861491Y-16571308D02*
X6775777Y-16771308D01*
X6975777Y-16571308D02*
X6994825Y-16571308D01*
X6994825Y-16571308D02*
X7013872Y-16580832D01*
X7013872Y-16580832D02*
X7023396Y-16590356D01*
X7023396Y-16590356D02*
X7032920Y-16609403D01*
X7032920Y-16609403D02*
X7042444Y-16647499D01*
X7042444Y-16647499D02*
X7042444Y-16695118D01*
X7042444Y-16695118D02*
X7032920Y-16733213D01*
X7032920Y-16733213D02*
X7023396Y-16752261D01*
X7023396Y-16752261D02*
X7013872Y-16761784D01*
X7013872Y-16761784D02*
X6994825Y-16771308D01*
X6994825Y-16771308D02*
X6975777Y-16771308D01*
X6975777Y-16771308D02*
X6956729Y-16761784D01*
X6956729Y-16761784D02*
X6947206Y-16752261D01*
X6947206Y-16752261D02*
X6937682Y-16733213D01*
X6937682Y-16733213D02*
X6928158Y-16695118D01*
X6928158Y-16695118D02*
X6928158Y-16647499D01*
X6928158Y-16647499D02*
X6937682Y-16609403D01*
X6937682Y-16609403D02*
X6947206Y-16590356D01*
X6947206Y-16590356D02*
X6956729Y-16580832D01*
X6956729Y-16580832D02*
X6975777Y-16571308D01*
X7118634Y-16571308D02*
X7118634Y-16609403D01*
X7194825Y-16571308D02*
X7194825Y-16609403D01*
X7490063Y-16847499D02*
X7480539Y-16837975D01*
X7480539Y-16837975D02*
X7461491Y-16809404D01*
X7461491Y-16809404D02*
X7451968Y-16790356D01*
X7451968Y-16790356D02*
X7442444Y-16761784D01*
X7442444Y-16761784D02*
X7432920Y-16714165D01*
X7432920Y-16714165D02*
X7432920Y-16676070D01*
X7432920Y-16676070D02*
X7442444Y-16628451D01*
X7442444Y-16628451D02*
X7451968Y-16599880D01*
X7451968Y-16599880D02*
X7461491Y-16580832D01*
X7461491Y-16580832D02*
X7480539Y-16552261D01*
X7480539Y-16552261D02*
X7490063Y-16542737D01*
X7556729Y-16590356D02*
X7566253Y-16580832D01*
X7566253Y-16580832D02*
X7585301Y-16571308D01*
X7585301Y-16571308D02*
X7632920Y-16571308D01*
X7632920Y-16571308D02*
X7651968Y-16580832D01*
X7651968Y-16580832D02*
X7661491Y-16590356D01*
X7661491Y-16590356D02*
X7671015Y-16609403D01*
X7671015Y-16609403D02*
X7671015Y-16628451D01*
X7671015Y-16628451D02*
X7661491Y-16657022D01*
X7661491Y-16657022D02*
X7547206Y-16771308D01*
X7547206Y-16771308D02*
X7671015Y-16771308D01*
X7737682Y-16571308D02*
X7861491Y-16571308D01*
X7861491Y-16571308D02*
X7794825Y-16647499D01*
X7794825Y-16647499D02*
X7823396Y-16647499D01*
X7823396Y-16647499D02*
X7842444Y-16657022D01*
X7842444Y-16657022D02*
X7851968Y-16666546D01*
X7851968Y-16666546D02*
X7861491Y-16685594D01*
X7861491Y-16685594D02*
X7861491Y-16733213D01*
X7861491Y-16733213D02*
X7851968Y-16752261D01*
X7851968Y-16752261D02*
X7842444Y-16761784D01*
X7842444Y-16761784D02*
X7823396Y-16771308D01*
X7823396Y-16771308D02*
X7766253Y-16771308D01*
X7766253Y-16771308D02*
X7747206Y-16761784D01*
X7747206Y-16761784D02*
X7737682Y-16752261D01*
X8099587Y-16771308D02*
X8099587Y-16571308D01*
X8185301Y-16771308D02*
X8185301Y-16666546D01*
X8185301Y-16666546D02*
X8175777Y-16647499D01*
X8175777Y-16647499D02*
X8156730Y-16637975D01*
X8156730Y-16637975D02*
X8128158Y-16637975D01*
X8128158Y-16637975D02*
X8109110Y-16647499D01*
X8109110Y-16647499D02*
X8099587Y-16657022D01*
X8309110Y-16771308D02*
X8290063Y-16761784D01*
X8290063Y-16761784D02*
X8280539Y-16752261D01*
X8280539Y-16752261D02*
X8271015Y-16733213D01*
X8271015Y-16733213D02*
X8271015Y-16676070D01*
X8271015Y-16676070D02*
X8280539Y-16657022D01*
X8280539Y-16657022D02*
X8290063Y-16647499D01*
X8290063Y-16647499D02*
X8309110Y-16637975D01*
X8309110Y-16637975D02*
X8337682Y-16637975D01*
X8337682Y-16637975D02*
X8356730Y-16647499D01*
X8356730Y-16647499D02*
X8366253Y-16657022D01*
X8366253Y-16657022D02*
X8375777Y-16676070D01*
X8375777Y-16676070D02*
X8375777Y-16733213D01*
X8375777Y-16733213D02*
X8366253Y-16752261D01*
X8366253Y-16752261D02*
X8356730Y-16761784D01*
X8356730Y-16761784D02*
X8337682Y-16771308D01*
X8337682Y-16771308D02*
X8309110Y-16771308D01*
X8490063Y-16771308D02*
X8471015Y-16761784D01*
X8471015Y-16761784D02*
X8461492Y-16742737D01*
X8461492Y-16742737D02*
X8461492Y-16571308D01*
X8642444Y-16761784D02*
X8623396Y-16771308D01*
X8623396Y-16771308D02*
X8585301Y-16771308D01*
X8585301Y-16771308D02*
X8566253Y-16761784D01*
X8566253Y-16761784D02*
X8556730Y-16742737D01*
X8556730Y-16742737D02*
X8556730Y-16666546D01*
X8556730Y-16666546D02*
X8566253Y-16647499D01*
X8566253Y-16647499D02*
X8585301Y-16637975D01*
X8585301Y-16637975D02*
X8623396Y-16637975D01*
X8623396Y-16637975D02*
X8642444Y-16647499D01*
X8642444Y-16647499D02*
X8651968Y-16666546D01*
X8651968Y-16666546D02*
X8651968Y-16685594D01*
X8651968Y-16685594D02*
X8556730Y-16704642D01*
X8728158Y-16761784D02*
X8747206Y-16771308D01*
X8747206Y-16771308D02*
X8785301Y-16771308D01*
X8785301Y-16771308D02*
X8804349Y-16761784D01*
X8804349Y-16761784D02*
X8813873Y-16742737D01*
X8813873Y-16742737D02*
X8813873Y-16733213D01*
X8813873Y-16733213D02*
X8804349Y-16714165D01*
X8804349Y-16714165D02*
X8785301Y-16704642D01*
X8785301Y-16704642D02*
X8756730Y-16704642D01*
X8756730Y-16704642D02*
X8737682Y-16695118D01*
X8737682Y-16695118D02*
X8728158Y-16676070D01*
X8728158Y-16676070D02*
X8728158Y-16666546D01*
X8728158Y-16666546D02*
X8737682Y-16647499D01*
X8737682Y-16647499D02*
X8756730Y-16637975D01*
X8756730Y-16637975D02*
X8785301Y-16637975D01*
X8785301Y-16637975D02*
X8804349Y-16647499D01*
X8880539Y-16847499D02*
X8890063Y-16837975D01*
X8890063Y-16837975D02*
X8909111Y-16809404D01*
X8909111Y-16809404D02*
X8918634Y-16790356D01*
X8918634Y-16790356D02*
X8928158Y-16761784D01*
X8928158Y-16761784D02*
X8937682Y-16714165D01*
X8937682Y-16714165D02*
X8937682Y-16676070D01*
X8937682Y-16676070D02*
X8928158Y-16628451D01*
X8928158Y-16628451D02*
X8918634Y-16599880D01*
X8918634Y-16599880D02*
X8909111Y-16580832D01*
X8909111Y-16580832D02*
X8890063Y-16552261D01*
X8890063Y-16552261D02*
X8880539Y-16542737D01*
X9242444Y-16847499D02*
X9232920Y-16837975D01*
X9232920Y-16837975D02*
X9213873Y-16809404D01*
X9213873Y-16809404D02*
X9204349Y-16790356D01*
X9204349Y-16790356D02*
X9194825Y-16761784D01*
X9194825Y-16761784D02*
X9185301Y-16714165D01*
X9185301Y-16714165D02*
X9185301Y-16676070D01*
X9185301Y-16676070D02*
X9194825Y-16628451D01*
X9194825Y-16628451D02*
X9204349Y-16599880D01*
X9204349Y-16599880D02*
X9213873Y-16580832D01*
X9213873Y-16580832D02*
X9232920Y-16552261D01*
X9232920Y-16552261D02*
X9242444Y-16542737D01*
X9318634Y-16637975D02*
X9318634Y-16771308D01*
X9318634Y-16657022D02*
X9328158Y-16647499D01*
X9328158Y-16647499D02*
X9347206Y-16637975D01*
X9347206Y-16637975D02*
X9375777Y-16637975D01*
X9375777Y-16637975D02*
X9394825Y-16647499D01*
X9394825Y-16647499D02*
X9404349Y-16666546D01*
X9404349Y-16666546D02*
X9404349Y-16771308D01*
X9528158Y-16771308D02*
X9509111Y-16761784D01*
X9509111Y-16761784D02*
X9499587Y-16752261D01*
X9499587Y-16752261D02*
X9490063Y-16733213D01*
X9490063Y-16733213D02*
X9490063Y-16676070D01*
X9490063Y-16676070D02*
X9499587Y-16657022D01*
X9499587Y-16657022D02*
X9509111Y-16647499D01*
X9509111Y-16647499D02*
X9528158Y-16637975D01*
X9528158Y-16637975D02*
X9556730Y-16637975D01*
X9556730Y-16637975D02*
X9575777Y-16647499D01*
X9575777Y-16647499D02*
X9585301Y-16657022D01*
X9585301Y-16657022D02*
X9594825Y-16676070D01*
X9594825Y-16676070D02*
X9594825Y-16733213D01*
X9594825Y-16733213D02*
X9585301Y-16752261D01*
X9585301Y-16752261D02*
X9575777Y-16761784D01*
X9575777Y-16761784D02*
X9556730Y-16771308D01*
X9556730Y-16771308D02*
X9528158Y-16771308D01*
X9651968Y-16637975D02*
X9728158Y-16637975D01*
X9680539Y-16571308D02*
X9680539Y-16742737D01*
X9680539Y-16742737D02*
X9690063Y-16761784D01*
X9690063Y-16761784D02*
X9709111Y-16771308D01*
X9709111Y-16771308D02*
X9728158Y-16771308D01*
X9947206Y-16637975D02*
X9947206Y-16837975D01*
X9947206Y-16647499D02*
X9966254Y-16637975D01*
X9966254Y-16637975D02*
X10004349Y-16637975D01*
X10004349Y-16637975D02*
X10023396Y-16647499D01*
X10023396Y-16647499D02*
X10032920Y-16657022D01*
X10032920Y-16657022D02*
X10042444Y-16676070D01*
X10042444Y-16676070D02*
X10042444Y-16733213D01*
X10042444Y-16733213D02*
X10032920Y-16752261D01*
X10032920Y-16752261D02*
X10023396Y-16761784D01*
X10023396Y-16761784D02*
X10004349Y-16771308D01*
X10004349Y-16771308D02*
X9966254Y-16771308D01*
X9966254Y-16771308D02*
X9947206Y-16761784D01*
X10156730Y-16771308D02*
X10137682Y-16761784D01*
X10137682Y-16761784D02*
X10128158Y-16742737D01*
X10128158Y-16742737D02*
X10128158Y-16571308D01*
X10318635Y-16771308D02*
X10318635Y-16666546D01*
X10318635Y-16666546D02*
X10309111Y-16647499D01*
X10309111Y-16647499D02*
X10290063Y-16637975D01*
X10290063Y-16637975D02*
X10251968Y-16637975D01*
X10251968Y-16637975D02*
X10232920Y-16647499D01*
X10318635Y-16761784D02*
X10299587Y-16771308D01*
X10299587Y-16771308D02*
X10251968Y-16771308D01*
X10251968Y-16771308D02*
X10232920Y-16761784D01*
X10232920Y-16761784D02*
X10223396Y-16742737D01*
X10223396Y-16742737D02*
X10223396Y-16723689D01*
X10223396Y-16723689D02*
X10232920Y-16704642D01*
X10232920Y-16704642D02*
X10251968Y-16695118D01*
X10251968Y-16695118D02*
X10299587Y-16695118D01*
X10299587Y-16695118D02*
X10318635Y-16685594D01*
X10385301Y-16637975D02*
X10461492Y-16637975D01*
X10413873Y-16571308D02*
X10413873Y-16742737D01*
X10413873Y-16742737D02*
X10423396Y-16761784D01*
X10423396Y-16761784D02*
X10442444Y-16771308D01*
X10442444Y-16771308D02*
X10461492Y-16771308D01*
X10604349Y-16761784D02*
X10585301Y-16771308D01*
X10585301Y-16771308D02*
X10547206Y-16771308D01*
X10547206Y-16771308D02*
X10528158Y-16761784D01*
X10528158Y-16761784D02*
X10518635Y-16742737D01*
X10518635Y-16742737D02*
X10518635Y-16666546D01*
X10518635Y-16666546D02*
X10528158Y-16647499D01*
X10528158Y-16647499D02*
X10547206Y-16637975D01*
X10547206Y-16637975D02*
X10585301Y-16637975D01*
X10585301Y-16637975D02*
X10604349Y-16647499D01*
X10604349Y-16647499D02*
X10613873Y-16666546D01*
X10613873Y-16666546D02*
X10613873Y-16685594D01*
X10613873Y-16685594D02*
X10518635Y-16704642D01*
X10785301Y-16771308D02*
X10785301Y-16571308D01*
X10785301Y-16761784D02*
X10766254Y-16771308D01*
X10766254Y-16771308D02*
X10728158Y-16771308D01*
X10728158Y-16771308D02*
X10709111Y-16761784D01*
X10709111Y-16761784D02*
X10699587Y-16752261D01*
X10699587Y-16752261D02*
X10690063Y-16733213D01*
X10690063Y-16733213D02*
X10690063Y-16676070D01*
X10690063Y-16676070D02*
X10699587Y-16657022D01*
X10699587Y-16657022D02*
X10709111Y-16647499D01*
X10709111Y-16647499D02*
X10728158Y-16637975D01*
X10728158Y-16637975D02*
X10766254Y-16637975D01*
X10766254Y-16637975D02*
X10785301Y-16647499D01*
X10861492Y-16847499D02*
X10871016Y-16837975D01*
X10871016Y-16837975D02*
X10890063Y-16809404D01*
X10890063Y-16809404D02*
X10899587Y-16790356D01*
X10899587Y-16790356D02*
X10909111Y-16761784D01*
X10909111Y-16761784D02*
X10918635Y-16714165D01*
X10918635Y-16714165D02*
X10918635Y-16676070D01*
X10918635Y-16676070D02*
X10909111Y-16628451D01*
X10909111Y-16628451D02*
X10899587Y-16599880D01*
X10899587Y-16599880D02*
X10890063Y-16580832D01*
X10890063Y-16580832D02*
X10871016Y-16552261D01*
X10871016Y-16552261D02*
X10861492Y-16542737D01*
M02*
