G04 #@! TF.GenerationSoftware,KiCad,Pcbnew,7.0.10-7.0.10~ubuntu23.10.1*
G04 #@! TF.CreationDate,2024-01-07T20:04:01-05:00*
G04 #@! TF.ProjectId,Right PCB,52696768-7420-4504-9342-2e6b69636164,rev?*
G04 #@! TF.SameCoordinates,Original*
G04 #@! TF.FileFunction,Paste,Top*
G04 #@! TF.FilePolarity,Positive*
%FSLAX46Y46*%
G04 Gerber Fmt 4.6, Leading zero omitted, Abs format (unit mm)*
G04 Created by KiCad (PCBNEW 7.0.10-7.0.10~ubuntu23.10.1) date 2024-01-07 20:04:01*
%MOMM*%
%LPD*%
G01*
G04 APERTURE LIST*
G04 Aperture macros list*
%AMRoundRect*
0 Rectangle with rounded corners*
0 $1 Rounding radius*
0 $2 $3 $4 $5 $6 $7 $8 $9 X,Y pos of 4 corners*
0 Add a 4 corners polygon primitive as box body*
4,1,4,$2,$3,$4,$5,$6,$7,$8,$9,$2,$3,0*
0 Add four circle primitives for the rounded corners*
1,1,$1+$1,$2,$3*
1,1,$1+$1,$4,$5*
1,1,$1+$1,$6,$7*
1,1,$1+$1,$8,$9*
0 Add four rect primitives between the rounded corners*
20,1,$1+$1,$2,$3,$4,$5,0*
20,1,$1+$1,$4,$5,$6,$7,0*
20,1,$1+$1,$6,$7,$8,$9,0*
20,1,$1+$1,$8,$9,$2,$3,0*%
G04 Aperture macros list end*
%ADD10RoundRect,0.225000X0.375000X-0.225000X0.375000X0.225000X-0.375000X0.225000X-0.375000X-0.225000X0*%
%ADD11RoundRect,0.250000X-1.025000X-1.000000X1.025000X-1.000000X1.025000X1.000000X-1.025000X1.000000X0*%
%ADD12RoundRect,0.225000X-0.225000X-0.375000X0.225000X-0.375000X0.225000X0.375000X-0.225000X0.375000X0*%
%ADD13RoundRect,0.225000X-0.120276X-0.420456X0.314390X-0.303988X0.120276X0.420456X-0.314390X0.303988X0*%
%ADD14RoundRect,0.225000X0.106066X-0.424264X0.424264X-0.106066X-0.106066X0.424264X-0.424264X0.106066X0*%
%ADD15RoundRect,0.250000X-0.731255X-1.231215X1.248893X-0.700636X0.731255X1.231215X-1.248893X0.700636X0*%
%ADD16RoundRect,0.225000X-0.007356X-0.437260X0.382356X-0.212260X0.007356X0.437260X-0.382356X0.212260X0*%
%ADD17RoundRect,0.250000X-0.387676X-1.378525X1.387676X-0.353525X0.387676X1.378525X-1.387676X0.353525X0*%
%ADD18R,1.300000X0.300000*%
%ADD19R,2.200000X1.800000*%
%ADD20RoundRect,0.250000X-0.017678X-1.431891X1.431891X0.017678X0.017678X1.431891X-1.431891X-0.017678X0*%
G04 APERTURE END LIST*
D10*
X74000000Y-107550000D03*
X74000000Y-110850000D03*
D11*
X113940000Y-56060000D03*
X100490000Y-53520000D03*
X171160000Y-99360000D03*
X157710000Y-96820000D03*
D12*
X159650000Y-106200000D03*
X162950000Y-106200000D03*
D11*
X133040000Y-50960000D03*
X119590000Y-48420000D03*
D12*
X121550000Y-76800000D03*
X124850000Y-76800000D03*
D13*
X92806222Y-127227051D03*
X95993778Y-126372949D03*
D11*
X190160000Y-47160000D03*
X176710000Y-44620000D03*
X124180000Y-116260000D03*
X110730000Y-113720000D03*
D12*
X140650000Y-101700000D03*
X143950000Y-101700000D03*
D11*
X190260000Y-104160000D03*
X176810000Y-101620000D03*
D12*
X102350000Y-101100000D03*
X105650000Y-101100000D03*
D11*
X190160000Y-85160000D03*
X176710000Y-82620000D03*
X152040000Y-56260000D03*
X138590000Y-53720000D03*
D12*
X178650000Y-54800000D03*
X181950000Y-54800000D03*
X159550000Y-87600000D03*
X162850000Y-87600000D03*
X112750000Y-123900000D03*
X116050000Y-123900000D03*
D11*
X94880000Y-77360000D03*
X81430000Y-74820000D03*
D12*
X178750000Y-112000000D03*
X182050000Y-112000000D03*
D11*
X94900000Y-58300000D03*
X81450000Y-55760000D03*
D14*
X58933274Y-149766726D03*
X61266726Y-147433274D03*
D15*
X102051814Y-117241640D03*
X88402711Y-118269305D03*
D11*
X133060000Y-70060000D03*
X119610000Y-67520000D03*
D12*
X140650000Y-82400000D03*
X143950000Y-82400000D03*
D11*
X113980000Y-94160000D03*
X100530000Y-91620000D03*
D12*
X83250000Y-103500000D03*
X86550000Y-103500000D03*
X140550000Y-64500000D03*
X143850000Y-64500000D03*
X83150000Y-65600000D03*
X86450000Y-65600000D03*
D11*
X152080000Y-75360000D03*
X138630000Y-72820000D03*
D12*
X178650000Y-73800000D03*
X181950000Y-73800000D03*
D16*
X73771058Y-135925000D03*
X76628942Y-134275000D03*
D11*
X190160000Y-66160000D03*
X176710000Y-63620000D03*
D12*
X102350000Y-81800000D03*
X105650000Y-81800000D03*
D11*
X133060000Y-89160000D03*
X119610000Y-86620000D03*
X152160000Y-94460000D03*
X138710000Y-91920000D03*
D12*
X102350000Y-63500000D03*
X105650000Y-63500000D03*
X178750000Y-92100000D03*
X182050000Y-92100000D03*
D11*
X94860000Y-96360000D03*
X81410000Y-93820000D03*
D12*
X121450000Y-58100000D03*
X124750000Y-58100000D03*
D11*
X113960000Y-75060000D03*
X100510000Y-72520000D03*
X171160000Y-80360000D03*
X157710000Y-77820000D03*
D17*
X80803947Y-123920295D03*
X67885905Y-128445591D03*
D18*
X50099994Y-111450000D03*
X50099994Y-111950001D03*
X50099994Y-112450000D03*
X50099994Y-112950002D03*
X50099994Y-113450001D03*
X50099994Y-113950000D03*
X50099994Y-114450001D03*
X50099994Y-114950000D03*
X50099994Y-115450002D03*
X50099994Y-115950001D03*
X50099994Y-116450000D03*
X50099994Y-116950002D03*
X50099994Y-117450001D03*
X50099994Y-117950002D03*
D19*
X46849993Y-109550001D03*
X46849993Y-119850001D03*
D12*
X83250000Y-84200000D03*
X86550000Y-84200000D03*
D20*
X62116153Y-135991745D03*
X50809515Y-143706280D03*
D11*
X171040000Y-61260000D03*
X157590000Y-58720000D03*
D12*
X121550000Y-96700000D03*
X124850000Y-96700000D03*
X159550000Y-69300000D03*
X162850000Y-69300000D03*
M02*
