%TF.GenerationSoftware,KiCad,Pcbnew,7.0.10-7.0.10~ubuntu23.10.1*%
%TF.CreationDate,2024-01-07T20:04:24-05:00*%
%TF.ProjectId,Right PCB,52696768-7420-4504-9342-2e6b69636164,rev?*%
%TF.SameCoordinates,Original*%
%TF.FileFunction,Drillmap*%
%TF.FilePolarity,Positive*%
%FSLAX45Y45*%
G04 Gerber Fmt 4.5, Leading zero omitted, Abs format (unit mm)*
G04 Created by KiCad (PCBNEW 7.0.10-7.0.10~ubuntu23.10.1) date 2024-01-07 20:04:24*
%MOMM*%
%LPD*%
G01*
G04 APERTURE LIST*
%ADD10C,0.100000*%
%ADD11C,0.200000*%
%ADD12C,0.300000*%
G04 APERTURE END LIST*
D10*
X7660000Y-7030000D02*
X7660000Y-5050000D01*
X3920000Y-10770000D02*
X7660000Y-7030000D01*
X3920000Y-13760000D02*
X3920000Y-10770000D01*
X9670000Y-5050000D02*
X7660000Y-5050000D01*
X17280000Y-11170000D02*
X17280000Y-11670000D01*
X17260000Y-3990000D02*
X17260000Y-5120000D01*
X15440000Y-4900000D02*
X13540000Y-4900000D01*
X12730000Y-10690000D02*
X15370000Y-10690000D01*
X19310000Y-4070000D02*
X19310000Y-3990000D01*
X13540000Y-4360000D02*
X11580000Y-4360000D01*
X11580000Y-4880000D02*
X9680000Y-4880000D01*
X17260000Y-5400000D02*
X15440000Y-5400000D01*
X19310000Y-4070000D02*
X19310000Y-11660000D01*
X11585825Y-12893208D02*
G75*
G03*
X5899824Y-15739824I1434175J-9966792D01*
G01*
X15440000Y-5400000D02*
X15440000Y-4900000D01*
X9670000Y-4880000D02*
X9670000Y-5050000D01*
X11585825Y-12893208D02*
X12730000Y-12870000D01*
X12730000Y-12870000D02*
X12730000Y-10690000D01*
X13540000Y-4900000D02*
X13540000Y-4360000D01*
X17260000Y-5120000D02*
X17260000Y-5400000D01*
X15370000Y-11170000D02*
X17280000Y-11170000D01*
X17280000Y-11670000D02*
X19310000Y-11660000D01*
X9670000Y-4880000D02*
X9680000Y-4880000D01*
X11580000Y-4360000D02*
X11580000Y-4880000D01*
X5899824Y-15739824D02*
X3920000Y-13760000D01*
X15370000Y-10690000D02*
X15370000Y-11170000D01*
X19310000Y-3990000D02*
X17260000Y-3990000D01*
D11*
D10*
X4990000Y-10680000D02*
X5030000Y-10720000D01*
X5030000Y-10680000D02*
X4990000Y-10720000D01*
X5170000Y-12410000D02*
X5210000Y-12450000D01*
X5210000Y-12410000D02*
X5170000Y-12450000D01*
X7070000Y-11200000D02*
X7110000Y-11240000D01*
X7110000Y-11200000D02*
X7070000Y-11240000D01*
X7140000Y-11650000D02*
X7180000Y-11690000D01*
X7180000Y-11650000D02*
X7140000Y-11690000D01*
X7170000Y-11040000D02*
X7210000Y-11080000D01*
X7210000Y-11040000D02*
X7170000Y-11080000D01*
X7350000Y-9990000D02*
X7390000Y-10030000D01*
X7390000Y-9990000D02*
X7350000Y-10030000D01*
X7560000Y-11470000D02*
X7600000Y-11510000D01*
X7600000Y-11470000D02*
X7560000Y-11510000D01*
X7870000Y-10480000D02*
X7910000Y-10520000D01*
X7910000Y-10480000D02*
X7870000Y-10520000D01*
X7920000Y-8410000D02*
X7960000Y-8450000D01*
X7960000Y-8410000D02*
X7920000Y-8450000D01*
X9930000Y-10870000D02*
X9970000Y-10910000D01*
X9970000Y-10870000D02*
X9930000Y-10910000D01*
X10540000Y-10670000D02*
X10580000Y-10710000D01*
X10580000Y-10670000D02*
X10540000Y-10710000D01*
X5848100Y-10985000D02*
G75*
G03*
X5771900Y-10985000I-38100J0D01*
G01*
X5771900Y-10985000D02*
G75*
G03*
X5848100Y-10985000I38100J0D01*
G01*
X6208100Y-10285000D02*
G75*
G03*
X6131900Y-10285000I-38100J0D01*
G01*
X6131900Y-10285000D02*
G75*
G03*
X6208100Y-10285000I38100J0D01*
G01*
X6208100Y-11735000D02*
G75*
G03*
X6131900Y-11735000I-38100J0D01*
G01*
X6131900Y-11735000D02*
G75*
G03*
X6208100Y-11735000I38100J0D01*
G01*
X6458100Y-11735000D02*
G75*
G03*
X6381900Y-11735000I-38100J0D01*
G01*
X6381900Y-11735000D02*
G75*
G03*
X6458100Y-11735000I38100J0D01*
G01*
X6708100Y-10285000D02*
G75*
G03*
X6631900Y-10285000I-38100J0D01*
G01*
X6631900Y-10285000D02*
G75*
G03*
X6708100Y-10285000I38100J0D01*
G01*
X6708100Y-11735000D02*
G75*
G03*
X6631900Y-11735000I-38100J0D01*
G01*
X6631900Y-11735000D02*
G75*
G03*
X6708100Y-11735000I38100J0D01*
G01*
X6968100Y-10985000D02*
G75*
G03*
X6891900Y-10985000I-38100J0D01*
G01*
X6891900Y-10985000D02*
G75*
G03*
X6968100Y-10985000I38100J0D01*
G01*
D12*
X5331974Y-13969605D02*
X5331974Y-14269605D01*
X5181974Y-14119605D02*
X5481974Y-14119605D01*
X5960592Y-13700197D02*
X5960592Y-14000197D01*
X5810592Y-13850197D02*
X6110592Y-13850197D01*
X7096029Y-12517059D02*
X7096029Y-12817059D01*
X6946029Y-12667059D02*
X7246029Y-12667059D01*
X7772956Y-12419529D02*
X7772956Y-12719529D01*
X7622956Y-12569529D02*
X7922956Y-12569529D01*
X8496000Y-9232000D02*
X8496000Y-9532000D01*
X8346000Y-9382000D02*
X8646000Y-9382000D01*
X8498000Y-7332000D02*
X8498000Y-7632000D01*
X8348000Y-7482000D02*
X8648000Y-7482000D01*
X8500000Y-5426000D02*
X8500000Y-5726000D01*
X8350000Y-5576000D02*
X8650000Y-5576000D01*
X9131000Y-9486000D02*
X9131000Y-9786000D01*
X8981000Y-9636000D02*
X9281000Y-9636000D01*
X9133000Y-7586000D02*
X9133000Y-7886000D01*
X8983000Y-7736000D02*
X9283000Y-7736000D01*
X9135000Y-5680000D02*
X9135000Y-5980000D01*
X8985000Y-5830000D02*
X9285000Y-5830000D01*
X9183175Y-11585050D02*
X9183175Y-11885050D01*
X9033175Y-11735050D02*
X9333175Y-11735050D01*
X9862278Y-11666045D02*
X9862278Y-11966045D01*
X9712278Y-11816045D02*
X10012278Y-11816045D01*
X10404000Y-5202000D02*
X10404000Y-5502000D01*
X10254000Y-5352000D02*
X10554000Y-5352000D01*
X10406000Y-7102000D02*
X10406000Y-7402000D01*
X10256000Y-7252000D02*
X10556000Y-7252000D01*
X10408000Y-9012000D02*
X10408000Y-9312000D01*
X10258000Y-9162000D02*
X10558000Y-9162000D01*
X11039000Y-5456000D02*
X11039000Y-5756000D01*
X10889000Y-5606000D02*
X11189000Y-5606000D01*
X11041000Y-7356000D02*
X11041000Y-7656000D01*
X10891000Y-7506000D02*
X11191000Y-7506000D01*
X11043000Y-9266000D02*
X11043000Y-9566000D01*
X10893000Y-9416000D02*
X11193000Y-9416000D01*
X11428000Y-11222000D02*
X11428000Y-11522000D01*
X11278000Y-11372000D02*
X11578000Y-11372000D01*
X12063000Y-11476000D02*
X12063000Y-11776000D01*
X11913000Y-11626000D02*
X12213000Y-11626000D01*
X12314000Y-4692000D02*
X12314000Y-4992000D01*
X12164000Y-4842000D02*
X12464000Y-4842000D01*
X12316000Y-6602000D02*
X12316000Y-6902000D01*
X12166000Y-6752000D02*
X12466000Y-6752000D01*
X12316000Y-8512000D02*
X12316000Y-8812000D01*
X12166000Y-8662000D02*
X12466000Y-8662000D01*
X12949000Y-4946000D02*
X12949000Y-5246000D01*
X12799000Y-5096000D02*
X13099000Y-5096000D01*
X12951000Y-6856000D02*
X12951000Y-7156000D01*
X12801000Y-7006000D02*
X13101000Y-7006000D01*
X12951000Y-8766000D02*
X12951000Y-9066000D01*
X12801000Y-8916000D02*
X13101000Y-8916000D01*
X14214000Y-5222000D02*
X14214000Y-5522000D01*
X14064000Y-5372000D02*
X14364000Y-5372000D01*
X14218000Y-7132000D02*
X14218000Y-7432000D01*
X14068000Y-7282000D02*
X14368000Y-7282000D01*
X14226000Y-9042000D02*
X14226000Y-9342000D01*
X14076000Y-9192000D02*
X14376000Y-9192000D01*
X14849000Y-5476000D02*
X14849000Y-5776000D01*
X14699000Y-5626000D02*
X14999000Y-5626000D01*
X14853000Y-7386000D02*
X14853000Y-7686000D01*
X14703000Y-7536000D02*
X15003000Y-7536000D01*
X14861000Y-9296000D02*
X14861000Y-9596000D01*
X14711000Y-9446000D02*
X15011000Y-9446000D01*
X16114000Y-5722000D02*
X16114000Y-6022000D01*
X15964000Y-5872000D02*
X16264000Y-5872000D01*
X16126000Y-7632000D02*
X16126000Y-7932000D01*
X15976000Y-7782000D02*
X16276000Y-7782000D01*
X16126000Y-9532000D02*
X16126000Y-9832000D01*
X15976000Y-9682000D02*
X16276000Y-9682000D01*
X16749000Y-5976000D02*
X16749000Y-6276000D01*
X16599000Y-6126000D02*
X16899000Y-6126000D01*
X16761000Y-7886000D02*
X16761000Y-8186000D01*
X16611000Y-8036000D02*
X16911000Y-8036000D01*
X16761000Y-9786000D02*
X16761000Y-10086000D01*
X16611000Y-9936000D02*
X16911000Y-9936000D01*
X18026000Y-4312000D02*
X18026000Y-4612000D01*
X17876000Y-4462000D02*
X18176000Y-4462000D01*
X18026000Y-6212000D02*
X18026000Y-6512000D01*
X17876000Y-6362000D02*
X18176000Y-6362000D01*
X18026000Y-8112000D02*
X18026000Y-8412000D01*
X17876000Y-8262000D02*
X18176000Y-8262000D01*
X18036000Y-10012000D02*
X18036000Y-10312000D01*
X17886000Y-10162000D02*
X18186000Y-10162000D01*
X18661000Y-4566000D02*
X18661000Y-4866000D01*
X18511000Y-4716000D02*
X18811000Y-4716000D01*
X18661000Y-6466000D02*
X18661000Y-6766000D01*
X18511000Y-6616000D02*
X18811000Y-6616000D01*
X18661000Y-8366000D02*
X18661000Y-8666000D01*
X18511000Y-8516000D02*
X18811000Y-8516000D01*
X18671000Y-10266000D02*
X18671000Y-10566000D01*
X18521000Y-10416000D02*
X18821000Y-10416000D01*
D11*
X4175777Y-16056308D02*
X4175777Y-15856308D01*
X4175777Y-15856308D02*
X4223396Y-15856308D01*
X4223396Y-15856308D02*
X4251967Y-15865832D01*
X4251967Y-15865832D02*
X4271015Y-15884880D01*
X4271015Y-15884880D02*
X4280539Y-15903927D01*
X4280539Y-15903927D02*
X4290063Y-15942022D01*
X4290063Y-15942022D02*
X4290063Y-15970594D01*
X4290063Y-15970594D02*
X4280539Y-16008689D01*
X4280539Y-16008689D02*
X4271015Y-16027737D01*
X4271015Y-16027737D02*
X4251967Y-16046784D01*
X4251967Y-16046784D02*
X4223396Y-16056308D01*
X4223396Y-16056308D02*
X4175777Y-16056308D01*
X4375777Y-16056308D02*
X4375777Y-15922975D01*
X4375777Y-15961070D02*
X4385301Y-15942022D01*
X4385301Y-15942022D02*
X4394824Y-15932499D01*
X4394824Y-15932499D02*
X4413872Y-15922975D01*
X4413872Y-15922975D02*
X4432920Y-15922975D01*
X4499586Y-16056308D02*
X4499586Y-15922975D01*
X4499586Y-15856308D02*
X4490063Y-15865832D01*
X4490063Y-15865832D02*
X4499586Y-15875356D01*
X4499586Y-15875356D02*
X4509110Y-15865832D01*
X4509110Y-15865832D02*
X4499586Y-15856308D01*
X4499586Y-15856308D02*
X4499586Y-15875356D01*
X4623396Y-16056308D02*
X4604348Y-16046784D01*
X4604348Y-16046784D02*
X4594824Y-16027737D01*
X4594824Y-16027737D02*
X4594824Y-15856308D01*
X4728158Y-16056308D02*
X4709110Y-16046784D01*
X4709110Y-16046784D02*
X4699586Y-16027737D01*
X4699586Y-16027737D02*
X4699586Y-15856308D01*
X4956729Y-16056308D02*
X4956729Y-15856308D01*
X4956729Y-15856308D02*
X5023396Y-15999165D01*
X5023396Y-15999165D02*
X5090063Y-15856308D01*
X5090063Y-15856308D02*
X5090063Y-16056308D01*
X5271015Y-16056308D02*
X5271015Y-15951546D01*
X5271015Y-15951546D02*
X5261491Y-15932499D01*
X5261491Y-15932499D02*
X5242444Y-15922975D01*
X5242444Y-15922975D02*
X5204348Y-15922975D01*
X5204348Y-15922975D02*
X5185301Y-15932499D01*
X5271015Y-16046784D02*
X5251967Y-16056308D01*
X5251967Y-16056308D02*
X5204348Y-16056308D01*
X5204348Y-16056308D02*
X5185301Y-16046784D01*
X5185301Y-16046784D02*
X5175777Y-16027737D01*
X5175777Y-16027737D02*
X5175777Y-16008689D01*
X5175777Y-16008689D02*
X5185301Y-15989642D01*
X5185301Y-15989642D02*
X5204348Y-15980118D01*
X5204348Y-15980118D02*
X5251967Y-15980118D01*
X5251967Y-15980118D02*
X5271015Y-15970594D01*
X5366253Y-15922975D02*
X5366253Y-16122975D01*
X5366253Y-15932499D02*
X5385301Y-15922975D01*
X5385301Y-15922975D02*
X5423396Y-15922975D01*
X5423396Y-15922975D02*
X5442444Y-15932499D01*
X5442444Y-15932499D02*
X5451967Y-15942022D01*
X5451967Y-15942022D02*
X5461491Y-15961070D01*
X5461491Y-15961070D02*
X5461491Y-16018213D01*
X5461491Y-16018213D02*
X5451967Y-16037261D01*
X5451967Y-16037261D02*
X5442444Y-16046784D01*
X5442444Y-16046784D02*
X5423396Y-16056308D01*
X5423396Y-16056308D02*
X5385301Y-16056308D01*
X5385301Y-16056308D02*
X5366253Y-16046784D01*
X5547205Y-16037261D02*
X5556729Y-16046784D01*
X5556729Y-16046784D02*
X5547205Y-16056308D01*
X5547205Y-16056308D02*
X5537682Y-16046784D01*
X5537682Y-16046784D02*
X5547205Y-16037261D01*
X5547205Y-16037261D02*
X5547205Y-16056308D01*
X5547205Y-15932499D02*
X5556729Y-15942022D01*
X5556729Y-15942022D02*
X5547205Y-15951546D01*
X5547205Y-15951546D02*
X5537682Y-15942022D01*
X5537682Y-15942022D02*
X5547205Y-15932499D01*
X5547205Y-15932499D02*
X5547205Y-15951546D01*
D10*
X3875000Y-16364824D02*
X3915000Y-16404824D01*
X3915000Y-16364824D02*
X3875000Y-16404824D01*
D11*
X4213872Y-16276308D02*
X4232920Y-16276308D01*
X4232920Y-16276308D02*
X4251967Y-16285832D01*
X4251967Y-16285832D02*
X4261491Y-16295356D01*
X4261491Y-16295356D02*
X4271015Y-16314403D01*
X4271015Y-16314403D02*
X4280539Y-16352499D01*
X4280539Y-16352499D02*
X4280539Y-16400118D01*
X4280539Y-16400118D02*
X4271015Y-16438213D01*
X4271015Y-16438213D02*
X4261491Y-16457261D01*
X4261491Y-16457261D02*
X4251967Y-16466784D01*
X4251967Y-16466784D02*
X4232920Y-16476308D01*
X4232920Y-16476308D02*
X4213872Y-16476308D01*
X4213872Y-16476308D02*
X4194824Y-16466784D01*
X4194824Y-16466784D02*
X4185301Y-16457261D01*
X4185301Y-16457261D02*
X4175777Y-16438213D01*
X4175777Y-16438213D02*
X4166253Y-16400118D01*
X4166253Y-16400118D02*
X4166253Y-16352499D01*
X4166253Y-16352499D02*
X4175777Y-16314403D01*
X4175777Y-16314403D02*
X4185301Y-16295356D01*
X4185301Y-16295356D02*
X4194824Y-16285832D01*
X4194824Y-16285832D02*
X4213872Y-16276308D01*
X4366253Y-16457261D02*
X4375777Y-16466784D01*
X4375777Y-16466784D02*
X4366253Y-16476308D01*
X4366253Y-16476308D02*
X4356729Y-16466784D01*
X4356729Y-16466784D02*
X4366253Y-16457261D01*
X4366253Y-16457261D02*
X4366253Y-16476308D01*
X4547205Y-16342975D02*
X4547205Y-16476308D01*
X4499586Y-16266784D02*
X4451967Y-16409642D01*
X4451967Y-16409642D02*
X4575777Y-16409642D01*
X4690063Y-16276308D02*
X4709110Y-16276308D01*
X4709110Y-16276308D02*
X4728158Y-16285832D01*
X4728158Y-16285832D02*
X4737682Y-16295356D01*
X4737682Y-16295356D02*
X4747205Y-16314403D01*
X4747205Y-16314403D02*
X4756729Y-16352499D01*
X4756729Y-16352499D02*
X4756729Y-16400118D01*
X4756729Y-16400118D02*
X4747205Y-16438213D01*
X4747205Y-16438213D02*
X4737682Y-16457261D01*
X4737682Y-16457261D02*
X4728158Y-16466784D01*
X4728158Y-16466784D02*
X4709110Y-16476308D01*
X4709110Y-16476308D02*
X4690063Y-16476308D01*
X4690063Y-16476308D02*
X4671015Y-16466784D01*
X4671015Y-16466784D02*
X4661491Y-16457261D01*
X4661491Y-16457261D02*
X4651967Y-16438213D01*
X4651967Y-16438213D02*
X4642444Y-16400118D01*
X4642444Y-16400118D02*
X4642444Y-16352499D01*
X4642444Y-16352499D02*
X4651967Y-16314403D01*
X4651967Y-16314403D02*
X4661491Y-16295356D01*
X4661491Y-16295356D02*
X4671015Y-16285832D01*
X4671015Y-16285832D02*
X4690063Y-16276308D01*
X4880539Y-16276308D02*
X4899586Y-16276308D01*
X4899586Y-16276308D02*
X4918634Y-16285832D01*
X4918634Y-16285832D02*
X4928158Y-16295356D01*
X4928158Y-16295356D02*
X4937682Y-16314403D01*
X4937682Y-16314403D02*
X4947205Y-16352499D01*
X4947205Y-16352499D02*
X4947205Y-16400118D01*
X4947205Y-16400118D02*
X4937682Y-16438213D01*
X4937682Y-16438213D02*
X4928158Y-16457261D01*
X4928158Y-16457261D02*
X4918634Y-16466784D01*
X4918634Y-16466784D02*
X4899586Y-16476308D01*
X4899586Y-16476308D02*
X4880539Y-16476308D01*
X4880539Y-16476308D02*
X4861491Y-16466784D01*
X4861491Y-16466784D02*
X4851967Y-16457261D01*
X4851967Y-16457261D02*
X4842444Y-16438213D01*
X4842444Y-16438213D02*
X4832920Y-16400118D01*
X4832920Y-16400118D02*
X4832920Y-16352499D01*
X4832920Y-16352499D02*
X4842444Y-16314403D01*
X4842444Y-16314403D02*
X4851967Y-16295356D01*
X4851967Y-16295356D02*
X4861491Y-16285832D01*
X4861491Y-16285832D02*
X4880539Y-16276308D01*
X5032920Y-16476308D02*
X5032920Y-16342975D01*
X5032920Y-16362022D02*
X5042444Y-16352499D01*
X5042444Y-16352499D02*
X5061491Y-16342975D01*
X5061491Y-16342975D02*
X5090063Y-16342975D01*
X5090063Y-16342975D02*
X5109110Y-16352499D01*
X5109110Y-16352499D02*
X5118634Y-16371546D01*
X5118634Y-16371546D02*
X5118634Y-16476308D01*
X5118634Y-16371546D02*
X5128158Y-16352499D01*
X5128158Y-16352499D02*
X5147205Y-16342975D01*
X5147205Y-16342975D02*
X5175777Y-16342975D01*
X5175777Y-16342975D02*
X5194825Y-16352499D01*
X5194825Y-16352499D02*
X5204348Y-16371546D01*
X5204348Y-16371546D02*
X5204348Y-16476308D01*
X5299586Y-16476308D02*
X5299586Y-16342975D01*
X5299586Y-16362022D02*
X5309110Y-16352499D01*
X5309110Y-16352499D02*
X5328158Y-16342975D01*
X5328158Y-16342975D02*
X5356729Y-16342975D01*
X5356729Y-16342975D02*
X5375777Y-16352499D01*
X5375777Y-16352499D02*
X5385301Y-16371546D01*
X5385301Y-16371546D02*
X5385301Y-16476308D01*
X5385301Y-16371546D02*
X5394825Y-16352499D01*
X5394825Y-16352499D02*
X5413872Y-16342975D01*
X5413872Y-16342975D02*
X5442444Y-16342975D01*
X5442444Y-16342975D02*
X5461491Y-16352499D01*
X5461491Y-16352499D02*
X5471015Y-16371546D01*
X5471015Y-16371546D02*
X5471015Y-16476308D01*
X5861491Y-16266784D02*
X5690063Y-16523927D01*
X6118634Y-16276308D02*
X6137682Y-16276308D01*
X6137682Y-16276308D02*
X6156729Y-16285832D01*
X6156729Y-16285832D02*
X6166253Y-16295356D01*
X6166253Y-16295356D02*
X6175777Y-16314403D01*
X6175777Y-16314403D02*
X6185301Y-16352499D01*
X6185301Y-16352499D02*
X6185301Y-16400118D01*
X6185301Y-16400118D02*
X6175777Y-16438213D01*
X6175777Y-16438213D02*
X6166253Y-16457261D01*
X6166253Y-16457261D02*
X6156729Y-16466784D01*
X6156729Y-16466784D02*
X6137682Y-16476308D01*
X6137682Y-16476308D02*
X6118634Y-16476308D01*
X6118634Y-16476308D02*
X6099586Y-16466784D01*
X6099586Y-16466784D02*
X6090063Y-16457261D01*
X6090063Y-16457261D02*
X6080539Y-16438213D01*
X6080539Y-16438213D02*
X6071015Y-16400118D01*
X6071015Y-16400118D02*
X6071015Y-16352499D01*
X6071015Y-16352499D02*
X6080539Y-16314403D01*
X6080539Y-16314403D02*
X6090063Y-16295356D01*
X6090063Y-16295356D02*
X6099586Y-16285832D01*
X6099586Y-16285832D02*
X6118634Y-16276308D01*
X6271015Y-16457261D02*
X6280539Y-16466784D01*
X6280539Y-16466784D02*
X6271015Y-16476308D01*
X6271015Y-16476308D02*
X6261491Y-16466784D01*
X6261491Y-16466784D02*
X6271015Y-16457261D01*
X6271015Y-16457261D02*
X6271015Y-16476308D01*
X6404348Y-16276308D02*
X6423396Y-16276308D01*
X6423396Y-16276308D02*
X6442444Y-16285832D01*
X6442444Y-16285832D02*
X6451967Y-16295356D01*
X6451967Y-16295356D02*
X6461491Y-16314403D01*
X6461491Y-16314403D02*
X6471015Y-16352499D01*
X6471015Y-16352499D02*
X6471015Y-16400118D01*
X6471015Y-16400118D02*
X6461491Y-16438213D01*
X6461491Y-16438213D02*
X6451967Y-16457261D01*
X6451967Y-16457261D02*
X6442444Y-16466784D01*
X6442444Y-16466784D02*
X6423396Y-16476308D01*
X6423396Y-16476308D02*
X6404348Y-16476308D01*
X6404348Y-16476308D02*
X6385301Y-16466784D01*
X6385301Y-16466784D02*
X6375777Y-16457261D01*
X6375777Y-16457261D02*
X6366253Y-16438213D01*
X6366253Y-16438213D02*
X6356729Y-16400118D01*
X6356729Y-16400118D02*
X6356729Y-16352499D01*
X6356729Y-16352499D02*
X6366253Y-16314403D01*
X6366253Y-16314403D02*
X6375777Y-16295356D01*
X6375777Y-16295356D02*
X6385301Y-16285832D01*
X6385301Y-16285832D02*
X6404348Y-16276308D01*
X6661491Y-16476308D02*
X6547206Y-16476308D01*
X6604348Y-16476308D02*
X6604348Y-16276308D01*
X6604348Y-16276308D02*
X6585301Y-16304880D01*
X6585301Y-16304880D02*
X6566253Y-16323927D01*
X6566253Y-16323927D02*
X6547206Y-16333451D01*
X6842444Y-16276308D02*
X6747206Y-16276308D01*
X6747206Y-16276308D02*
X6737682Y-16371546D01*
X6737682Y-16371546D02*
X6747206Y-16362022D01*
X6747206Y-16362022D02*
X6766253Y-16352499D01*
X6766253Y-16352499D02*
X6813872Y-16352499D01*
X6813872Y-16352499D02*
X6832920Y-16362022D01*
X6832920Y-16362022D02*
X6842444Y-16371546D01*
X6842444Y-16371546D02*
X6851967Y-16390594D01*
X6851967Y-16390594D02*
X6851967Y-16438213D01*
X6851967Y-16438213D02*
X6842444Y-16457261D01*
X6842444Y-16457261D02*
X6832920Y-16466784D01*
X6832920Y-16466784D02*
X6813872Y-16476308D01*
X6813872Y-16476308D02*
X6766253Y-16476308D01*
X6766253Y-16476308D02*
X6747206Y-16466784D01*
X6747206Y-16466784D02*
X6737682Y-16457261D01*
X6918634Y-16276308D02*
X7051967Y-16276308D01*
X7051967Y-16276308D02*
X6966253Y-16476308D01*
X7118634Y-16276308D02*
X7118634Y-16314403D01*
X7194825Y-16276308D02*
X7194825Y-16314403D01*
X7490063Y-16552499D02*
X7480539Y-16542975D01*
X7480539Y-16542975D02*
X7461491Y-16514403D01*
X7461491Y-16514403D02*
X7451968Y-16495356D01*
X7451968Y-16495356D02*
X7442444Y-16466784D01*
X7442444Y-16466784D02*
X7432920Y-16419165D01*
X7432920Y-16419165D02*
X7432920Y-16381070D01*
X7432920Y-16381070D02*
X7442444Y-16333451D01*
X7442444Y-16333451D02*
X7451968Y-16304880D01*
X7451968Y-16304880D02*
X7461491Y-16285832D01*
X7461491Y-16285832D02*
X7480539Y-16257261D01*
X7480539Y-16257261D02*
X7490063Y-16247737D01*
X7671015Y-16476308D02*
X7556729Y-16476308D01*
X7613872Y-16476308D02*
X7613872Y-16276308D01*
X7613872Y-16276308D02*
X7594825Y-16304880D01*
X7594825Y-16304880D02*
X7575777Y-16323927D01*
X7575777Y-16323927D02*
X7556729Y-16333451D01*
X7861491Y-16476308D02*
X7747206Y-16476308D01*
X7804348Y-16476308D02*
X7804348Y-16276308D01*
X7804348Y-16276308D02*
X7785301Y-16304880D01*
X7785301Y-16304880D02*
X7766253Y-16323927D01*
X7766253Y-16323927D02*
X7747206Y-16333451D01*
X8099587Y-16476308D02*
X8099587Y-16276308D01*
X8185301Y-16476308D02*
X8185301Y-16371546D01*
X8185301Y-16371546D02*
X8175777Y-16352499D01*
X8175777Y-16352499D02*
X8156730Y-16342975D01*
X8156730Y-16342975D02*
X8128158Y-16342975D01*
X8128158Y-16342975D02*
X8109110Y-16352499D01*
X8109110Y-16352499D02*
X8099587Y-16362022D01*
X8309110Y-16476308D02*
X8290063Y-16466784D01*
X8290063Y-16466784D02*
X8280539Y-16457261D01*
X8280539Y-16457261D02*
X8271015Y-16438213D01*
X8271015Y-16438213D02*
X8271015Y-16381070D01*
X8271015Y-16381070D02*
X8280539Y-16362022D01*
X8280539Y-16362022D02*
X8290063Y-16352499D01*
X8290063Y-16352499D02*
X8309110Y-16342975D01*
X8309110Y-16342975D02*
X8337682Y-16342975D01*
X8337682Y-16342975D02*
X8356730Y-16352499D01*
X8356730Y-16352499D02*
X8366253Y-16362022D01*
X8366253Y-16362022D02*
X8375777Y-16381070D01*
X8375777Y-16381070D02*
X8375777Y-16438213D01*
X8375777Y-16438213D02*
X8366253Y-16457261D01*
X8366253Y-16457261D02*
X8356730Y-16466784D01*
X8356730Y-16466784D02*
X8337682Y-16476308D01*
X8337682Y-16476308D02*
X8309110Y-16476308D01*
X8490063Y-16476308D02*
X8471015Y-16466784D01*
X8471015Y-16466784D02*
X8461492Y-16447737D01*
X8461492Y-16447737D02*
X8461492Y-16276308D01*
X8642444Y-16466784D02*
X8623396Y-16476308D01*
X8623396Y-16476308D02*
X8585301Y-16476308D01*
X8585301Y-16476308D02*
X8566253Y-16466784D01*
X8566253Y-16466784D02*
X8556730Y-16447737D01*
X8556730Y-16447737D02*
X8556730Y-16371546D01*
X8556730Y-16371546D02*
X8566253Y-16352499D01*
X8566253Y-16352499D02*
X8585301Y-16342975D01*
X8585301Y-16342975D02*
X8623396Y-16342975D01*
X8623396Y-16342975D02*
X8642444Y-16352499D01*
X8642444Y-16352499D02*
X8651968Y-16371546D01*
X8651968Y-16371546D02*
X8651968Y-16390594D01*
X8651968Y-16390594D02*
X8556730Y-16409642D01*
X8728158Y-16466784D02*
X8747206Y-16476308D01*
X8747206Y-16476308D02*
X8785301Y-16476308D01*
X8785301Y-16476308D02*
X8804349Y-16466784D01*
X8804349Y-16466784D02*
X8813873Y-16447737D01*
X8813873Y-16447737D02*
X8813873Y-16438213D01*
X8813873Y-16438213D02*
X8804349Y-16419165D01*
X8804349Y-16419165D02*
X8785301Y-16409642D01*
X8785301Y-16409642D02*
X8756730Y-16409642D01*
X8756730Y-16409642D02*
X8737682Y-16400118D01*
X8737682Y-16400118D02*
X8728158Y-16381070D01*
X8728158Y-16381070D02*
X8728158Y-16371546D01*
X8728158Y-16371546D02*
X8737682Y-16352499D01*
X8737682Y-16352499D02*
X8756730Y-16342975D01*
X8756730Y-16342975D02*
X8785301Y-16342975D01*
X8785301Y-16342975D02*
X8804349Y-16352499D01*
X8880539Y-16552499D02*
X8890063Y-16542975D01*
X8890063Y-16542975D02*
X8909111Y-16514403D01*
X8909111Y-16514403D02*
X8918634Y-16495356D01*
X8918634Y-16495356D02*
X8928158Y-16466784D01*
X8928158Y-16466784D02*
X8937682Y-16419165D01*
X8937682Y-16419165D02*
X8937682Y-16381070D01*
X8937682Y-16381070D02*
X8928158Y-16333451D01*
X8928158Y-16333451D02*
X8918634Y-16304880D01*
X8918634Y-16304880D02*
X8909111Y-16285832D01*
X8909111Y-16285832D02*
X8890063Y-16257261D01*
X8890063Y-16257261D02*
X8880539Y-16247737D01*
D10*
X3915000Y-16648824D02*
G75*
G03*
X3838800Y-16648824I-38100J0D01*
G01*
X3838800Y-16648824D02*
G75*
G03*
X3915000Y-16648824I38100J0D01*
G01*
D11*
X4213872Y-16540308D02*
X4232920Y-16540308D01*
X4232920Y-16540308D02*
X4251967Y-16549832D01*
X4251967Y-16549832D02*
X4261491Y-16559356D01*
X4261491Y-16559356D02*
X4271015Y-16578403D01*
X4271015Y-16578403D02*
X4280539Y-16616499D01*
X4280539Y-16616499D02*
X4280539Y-16664118D01*
X4280539Y-16664118D02*
X4271015Y-16702213D01*
X4271015Y-16702213D02*
X4261491Y-16721261D01*
X4261491Y-16721261D02*
X4251967Y-16730784D01*
X4251967Y-16730784D02*
X4232920Y-16740308D01*
X4232920Y-16740308D02*
X4213872Y-16740308D01*
X4213872Y-16740308D02*
X4194824Y-16730784D01*
X4194824Y-16730784D02*
X4185301Y-16721261D01*
X4185301Y-16721261D02*
X4175777Y-16702213D01*
X4175777Y-16702213D02*
X4166253Y-16664118D01*
X4166253Y-16664118D02*
X4166253Y-16616499D01*
X4166253Y-16616499D02*
X4175777Y-16578403D01*
X4175777Y-16578403D02*
X4185301Y-16559356D01*
X4185301Y-16559356D02*
X4194824Y-16549832D01*
X4194824Y-16549832D02*
X4213872Y-16540308D01*
X4366253Y-16721261D02*
X4375777Y-16730784D01*
X4375777Y-16730784D02*
X4366253Y-16740308D01*
X4366253Y-16740308D02*
X4356729Y-16730784D01*
X4356729Y-16730784D02*
X4366253Y-16721261D01*
X4366253Y-16721261D02*
X4366253Y-16740308D01*
X4442444Y-16540308D02*
X4575777Y-16540308D01*
X4575777Y-16540308D02*
X4490063Y-16740308D01*
X4737682Y-16540308D02*
X4699586Y-16540308D01*
X4699586Y-16540308D02*
X4680539Y-16549832D01*
X4680539Y-16549832D02*
X4671015Y-16559356D01*
X4671015Y-16559356D02*
X4651967Y-16587927D01*
X4651967Y-16587927D02*
X4642444Y-16626022D01*
X4642444Y-16626022D02*
X4642444Y-16702213D01*
X4642444Y-16702213D02*
X4651967Y-16721261D01*
X4651967Y-16721261D02*
X4661491Y-16730784D01*
X4661491Y-16730784D02*
X4680539Y-16740308D01*
X4680539Y-16740308D02*
X4718634Y-16740308D01*
X4718634Y-16740308D02*
X4737682Y-16730784D01*
X4737682Y-16730784D02*
X4747205Y-16721261D01*
X4747205Y-16721261D02*
X4756729Y-16702213D01*
X4756729Y-16702213D02*
X4756729Y-16654594D01*
X4756729Y-16654594D02*
X4747205Y-16635546D01*
X4747205Y-16635546D02*
X4737682Y-16626022D01*
X4737682Y-16626022D02*
X4718634Y-16616499D01*
X4718634Y-16616499D02*
X4680539Y-16616499D01*
X4680539Y-16616499D02*
X4661491Y-16626022D01*
X4661491Y-16626022D02*
X4651967Y-16635546D01*
X4651967Y-16635546D02*
X4642444Y-16654594D01*
X4832920Y-16559356D02*
X4842444Y-16549832D01*
X4842444Y-16549832D02*
X4861491Y-16540308D01*
X4861491Y-16540308D02*
X4909110Y-16540308D01*
X4909110Y-16540308D02*
X4928158Y-16549832D01*
X4928158Y-16549832D02*
X4937682Y-16559356D01*
X4937682Y-16559356D02*
X4947205Y-16578403D01*
X4947205Y-16578403D02*
X4947205Y-16597451D01*
X4947205Y-16597451D02*
X4937682Y-16626022D01*
X4937682Y-16626022D02*
X4823396Y-16740308D01*
X4823396Y-16740308D02*
X4947205Y-16740308D01*
X5032920Y-16740308D02*
X5032920Y-16606975D01*
X5032920Y-16626022D02*
X5042444Y-16616499D01*
X5042444Y-16616499D02*
X5061491Y-16606975D01*
X5061491Y-16606975D02*
X5090063Y-16606975D01*
X5090063Y-16606975D02*
X5109110Y-16616499D01*
X5109110Y-16616499D02*
X5118634Y-16635546D01*
X5118634Y-16635546D02*
X5118634Y-16740308D01*
X5118634Y-16635546D02*
X5128158Y-16616499D01*
X5128158Y-16616499D02*
X5147205Y-16606975D01*
X5147205Y-16606975D02*
X5175777Y-16606975D01*
X5175777Y-16606975D02*
X5194825Y-16616499D01*
X5194825Y-16616499D02*
X5204348Y-16635546D01*
X5204348Y-16635546D02*
X5204348Y-16740308D01*
X5299586Y-16740308D02*
X5299586Y-16606975D01*
X5299586Y-16626022D02*
X5309110Y-16616499D01*
X5309110Y-16616499D02*
X5328158Y-16606975D01*
X5328158Y-16606975D02*
X5356729Y-16606975D01*
X5356729Y-16606975D02*
X5375777Y-16616499D01*
X5375777Y-16616499D02*
X5385301Y-16635546D01*
X5385301Y-16635546D02*
X5385301Y-16740308D01*
X5385301Y-16635546D02*
X5394825Y-16616499D01*
X5394825Y-16616499D02*
X5413872Y-16606975D01*
X5413872Y-16606975D02*
X5442444Y-16606975D01*
X5442444Y-16606975D02*
X5461491Y-16616499D01*
X5461491Y-16616499D02*
X5471015Y-16635546D01*
X5471015Y-16635546D02*
X5471015Y-16740308D01*
X5861491Y-16530784D02*
X5690063Y-16787927D01*
X6118634Y-16540308D02*
X6137682Y-16540308D01*
X6137682Y-16540308D02*
X6156729Y-16549832D01*
X6156729Y-16549832D02*
X6166253Y-16559356D01*
X6166253Y-16559356D02*
X6175777Y-16578403D01*
X6175777Y-16578403D02*
X6185301Y-16616499D01*
X6185301Y-16616499D02*
X6185301Y-16664118D01*
X6185301Y-16664118D02*
X6175777Y-16702213D01*
X6175777Y-16702213D02*
X6166253Y-16721261D01*
X6166253Y-16721261D02*
X6156729Y-16730784D01*
X6156729Y-16730784D02*
X6137682Y-16740308D01*
X6137682Y-16740308D02*
X6118634Y-16740308D01*
X6118634Y-16740308D02*
X6099586Y-16730784D01*
X6099586Y-16730784D02*
X6090063Y-16721261D01*
X6090063Y-16721261D02*
X6080539Y-16702213D01*
X6080539Y-16702213D02*
X6071015Y-16664118D01*
X6071015Y-16664118D02*
X6071015Y-16616499D01*
X6071015Y-16616499D02*
X6080539Y-16578403D01*
X6080539Y-16578403D02*
X6090063Y-16559356D01*
X6090063Y-16559356D02*
X6099586Y-16549832D01*
X6099586Y-16549832D02*
X6118634Y-16540308D01*
X6271015Y-16721261D02*
X6280539Y-16730784D01*
X6280539Y-16730784D02*
X6271015Y-16740308D01*
X6271015Y-16740308D02*
X6261491Y-16730784D01*
X6261491Y-16730784D02*
X6271015Y-16721261D01*
X6271015Y-16721261D02*
X6271015Y-16740308D01*
X6404348Y-16540308D02*
X6423396Y-16540308D01*
X6423396Y-16540308D02*
X6442444Y-16549832D01*
X6442444Y-16549832D02*
X6451967Y-16559356D01*
X6451967Y-16559356D02*
X6461491Y-16578403D01*
X6461491Y-16578403D02*
X6471015Y-16616499D01*
X6471015Y-16616499D02*
X6471015Y-16664118D01*
X6471015Y-16664118D02*
X6461491Y-16702213D01*
X6461491Y-16702213D02*
X6451967Y-16721261D01*
X6451967Y-16721261D02*
X6442444Y-16730784D01*
X6442444Y-16730784D02*
X6423396Y-16740308D01*
X6423396Y-16740308D02*
X6404348Y-16740308D01*
X6404348Y-16740308D02*
X6385301Y-16730784D01*
X6385301Y-16730784D02*
X6375777Y-16721261D01*
X6375777Y-16721261D02*
X6366253Y-16702213D01*
X6366253Y-16702213D02*
X6356729Y-16664118D01*
X6356729Y-16664118D02*
X6356729Y-16616499D01*
X6356729Y-16616499D02*
X6366253Y-16578403D01*
X6366253Y-16578403D02*
X6375777Y-16559356D01*
X6375777Y-16559356D02*
X6385301Y-16549832D01*
X6385301Y-16549832D02*
X6404348Y-16540308D01*
X6537682Y-16540308D02*
X6661491Y-16540308D01*
X6661491Y-16540308D02*
X6594825Y-16616499D01*
X6594825Y-16616499D02*
X6623396Y-16616499D01*
X6623396Y-16616499D02*
X6642444Y-16626022D01*
X6642444Y-16626022D02*
X6651967Y-16635546D01*
X6651967Y-16635546D02*
X6661491Y-16654594D01*
X6661491Y-16654594D02*
X6661491Y-16702213D01*
X6661491Y-16702213D02*
X6651967Y-16721261D01*
X6651967Y-16721261D02*
X6642444Y-16730784D01*
X6642444Y-16730784D02*
X6623396Y-16740308D01*
X6623396Y-16740308D02*
X6566253Y-16740308D01*
X6566253Y-16740308D02*
X6547206Y-16730784D01*
X6547206Y-16730784D02*
X6537682Y-16721261D01*
X6785301Y-16540308D02*
X6804348Y-16540308D01*
X6804348Y-16540308D02*
X6823396Y-16549832D01*
X6823396Y-16549832D02*
X6832920Y-16559356D01*
X6832920Y-16559356D02*
X6842444Y-16578403D01*
X6842444Y-16578403D02*
X6851967Y-16616499D01*
X6851967Y-16616499D02*
X6851967Y-16664118D01*
X6851967Y-16664118D02*
X6842444Y-16702213D01*
X6842444Y-16702213D02*
X6832920Y-16721261D01*
X6832920Y-16721261D02*
X6823396Y-16730784D01*
X6823396Y-16730784D02*
X6804348Y-16740308D01*
X6804348Y-16740308D02*
X6785301Y-16740308D01*
X6785301Y-16740308D02*
X6766253Y-16730784D01*
X6766253Y-16730784D02*
X6756729Y-16721261D01*
X6756729Y-16721261D02*
X6747206Y-16702213D01*
X6747206Y-16702213D02*
X6737682Y-16664118D01*
X6737682Y-16664118D02*
X6737682Y-16616499D01*
X6737682Y-16616499D02*
X6747206Y-16578403D01*
X6747206Y-16578403D02*
X6756729Y-16559356D01*
X6756729Y-16559356D02*
X6766253Y-16549832D01*
X6766253Y-16549832D02*
X6785301Y-16540308D01*
X6975777Y-16540308D02*
X6994825Y-16540308D01*
X6994825Y-16540308D02*
X7013872Y-16549832D01*
X7013872Y-16549832D02*
X7023396Y-16559356D01*
X7023396Y-16559356D02*
X7032920Y-16578403D01*
X7032920Y-16578403D02*
X7042444Y-16616499D01*
X7042444Y-16616499D02*
X7042444Y-16664118D01*
X7042444Y-16664118D02*
X7032920Y-16702213D01*
X7032920Y-16702213D02*
X7023396Y-16721261D01*
X7023396Y-16721261D02*
X7013872Y-16730784D01*
X7013872Y-16730784D02*
X6994825Y-16740308D01*
X6994825Y-16740308D02*
X6975777Y-16740308D01*
X6975777Y-16740308D02*
X6956729Y-16730784D01*
X6956729Y-16730784D02*
X6947206Y-16721261D01*
X6947206Y-16721261D02*
X6937682Y-16702213D01*
X6937682Y-16702213D02*
X6928158Y-16664118D01*
X6928158Y-16664118D02*
X6928158Y-16616499D01*
X6928158Y-16616499D02*
X6937682Y-16578403D01*
X6937682Y-16578403D02*
X6947206Y-16559356D01*
X6947206Y-16559356D02*
X6956729Y-16549832D01*
X6956729Y-16549832D02*
X6975777Y-16540308D01*
X7118634Y-16540308D02*
X7118634Y-16578403D01*
X7194825Y-16540308D02*
X7194825Y-16578403D01*
X7490063Y-16816499D02*
X7480539Y-16806975D01*
X7480539Y-16806975D02*
X7461491Y-16778404D01*
X7461491Y-16778404D02*
X7451968Y-16759356D01*
X7451968Y-16759356D02*
X7442444Y-16730784D01*
X7442444Y-16730784D02*
X7432920Y-16683165D01*
X7432920Y-16683165D02*
X7432920Y-16645070D01*
X7432920Y-16645070D02*
X7442444Y-16597451D01*
X7442444Y-16597451D02*
X7451968Y-16568880D01*
X7451968Y-16568880D02*
X7461491Y-16549832D01*
X7461491Y-16549832D02*
X7480539Y-16521261D01*
X7480539Y-16521261D02*
X7490063Y-16511737D01*
X7547206Y-16540308D02*
X7680539Y-16540308D01*
X7680539Y-16540308D02*
X7594825Y-16740308D01*
X7909110Y-16740308D02*
X7909110Y-16540308D01*
X7994825Y-16740308D02*
X7994825Y-16635546D01*
X7994825Y-16635546D02*
X7985301Y-16616499D01*
X7985301Y-16616499D02*
X7966253Y-16606975D01*
X7966253Y-16606975D02*
X7937682Y-16606975D01*
X7937682Y-16606975D02*
X7918634Y-16616499D01*
X7918634Y-16616499D02*
X7909110Y-16626022D01*
X8118634Y-16740308D02*
X8099587Y-16730784D01*
X8099587Y-16730784D02*
X8090063Y-16721261D01*
X8090063Y-16721261D02*
X8080539Y-16702213D01*
X8080539Y-16702213D02*
X8080539Y-16645070D01*
X8080539Y-16645070D02*
X8090063Y-16626022D01*
X8090063Y-16626022D02*
X8099587Y-16616499D01*
X8099587Y-16616499D02*
X8118634Y-16606975D01*
X8118634Y-16606975D02*
X8147206Y-16606975D01*
X8147206Y-16606975D02*
X8166253Y-16616499D01*
X8166253Y-16616499D02*
X8175777Y-16626022D01*
X8175777Y-16626022D02*
X8185301Y-16645070D01*
X8185301Y-16645070D02*
X8185301Y-16702213D01*
X8185301Y-16702213D02*
X8175777Y-16721261D01*
X8175777Y-16721261D02*
X8166253Y-16730784D01*
X8166253Y-16730784D02*
X8147206Y-16740308D01*
X8147206Y-16740308D02*
X8118634Y-16740308D01*
X8299587Y-16740308D02*
X8280539Y-16730784D01*
X8280539Y-16730784D02*
X8271015Y-16711737D01*
X8271015Y-16711737D02*
X8271015Y-16540308D01*
X8451968Y-16730784D02*
X8432920Y-16740308D01*
X8432920Y-16740308D02*
X8394825Y-16740308D01*
X8394825Y-16740308D02*
X8375777Y-16730784D01*
X8375777Y-16730784D02*
X8366253Y-16711737D01*
X8366253Y-16711737D02*
X8366253Y-16635546D01*
X8366253Y-16635546D02*
X8375777Y-16616499D01*
X8375777Y-16616499D02*
X8394825Y-16606975D01*
X8394825Y-16606975D02*
X8432920Y-16606975D01*
X8432920Y-16606975D02*
X8451968Y-16616499D01*
X8451968Y-16616499D02*
X8461492Y-16635546D01*
X8461492Y-16635546D02*
X8461492Y-16654594D01*
X8461492Y-16654594D02*
X8366253Y-16673642D01*
X8537682Y-16730784D02*
X8556730Y-16740308D01*
X8556730Y-16740308D02*
X8594825Y-16740308D01*
X8594825Y-16740308D02*
X8613873Y-16730784D01*
X8613873Y-16730784D02*
X8623396Y-16711737D01*
X8623396Y-16711737D02*
X8623396Y-16702213D01*
X8623396Y-16702213D02*
X8613873Y-16683165D01*
X8613873Y-16683165D02*
X8594825Y-16673642D01*
X8594825Y-16673642D02*
X8566253Y-16673642D01*
X8566253Y-16673642D02*
X8547206Y-16664118D01*
X8547206Y-16664118D02*
X8537682Y-16645070D01*
X8537682Y-16645070D02*
X8537682Y-16635546D01*
X8537682Y-16635546D02*
X8547206Y-16616499D01*
X8547206Y-16616499D02*
X8566253Y-16606975D01*
X8566253Y-16606975D02*
X8594825Y-16606975D01*
X8594825Y-16606975D02*
X8613873Y-16616499D01*
X8690063Y-16816499D02*
X8699587Y-16806975D01*
X8699587Y-16806975D02*
X8718634Y-16778404D01*
X8718634Y-16778404D02*
X8728158Y-16759356D01*
X8728158Y-16759356D02*
X8737682Y-16730784D01*
X8737682Y-16730784D02*
X8747206Y-16683165D01*
X8747206Y-16683165D02*
X8747206Y-16645070D01*
X8747206Y-16645070D02*
X8737682Y-16597451D01*
X8737682Y-16597451D02*
X8728158Y-16568880D01*
X8728158Y-16568880D02*
X8718634Y-16549832D01*
X8718634Y-16549832D02*
X8699587Y-16521261D01*
X8699587Y-16521261D02*
X8690063Y-16511737D01*
X3815000Y-16812825D02*
X3815000Y-17012825D01*
X3715000Y-16912825D02*
X3915000Y-16912825D01*
X4156729Y-16804308D02*
X4280539Y-16804308D01*
X4280539Y-16804308D02*
X4213872Y-16880499D01*
X4213872Y-16880499D02*
X4242444Y-16880499D01*
X4242444Y-16880499D02*
X4261491Y-16890023D01*
X4261491Y-16890023D02*
X4271015Y-16899546D01*
X4271015Y-16899546D02*
X4280539Y-16918594D01*
X4280539Y-16918594D02*
X4280539Y-16966213D01*
X4280539Y-16966213D02*
X4271015Y-16985261D01*
X4271015Y-16985261D02*
X4261491Y-16994785D01*
X4261491Y-16994785D02*
X4242444Y-17004308D01*
X4242444Y-17004308D02*
X4185301Y-17004308D01*
X4185301Y-17004308D02*
X4166253Y-16994785D01*
X4166253Y-16994785D02*
X4156729Y-16985261D01*
X4366253Y-16985261D02*
X4375777Y-16994785D01*
X4375777Y-16994785D02*
X4366253Y-17004308D01*
X4366253Y-17004308D02*
X4356729Y-16994785D01*
X4356729Y-16994785D02*
X4366253Y-16985261D01*
X4366253Y-16985261D02*
X4366253Y-17004308D01*
X4499586Y-16804308D02*
X4518634Y-16804308D01*
X4518634Y-16804308D02*
X4537682Y-16813832D01*
X4537682Y-16813832D02*
X4547205Y-16823356D01*
X4547205Y-16823356D02*
X4556729Y-16842404D01*
X4556729Y-16842404D02*
X4566253Y-16880499D01*
X4566253Y-16880499D02*
X4566253Y-16928118D01*
X4566253Y-16928118D02*
X4556729Y-16966213D01*
X4556729Y-16966213D02*
X4547205Y-16985261D01*
X4547205Y-16985261D02*
X4537682Y-16994785D01*
X4537682Y-16994785D02*
X4518634Y-17004308D01*
X4518634Y-17004308D02*
X4499586Y-17004308D01*
X4499586Y-17004308D02*
X4480539Y-16994785D01*
X4480539Y-16994785D02*
X4471015Y-16985261D01*
X4471015Y-16985261D02*
X4461491Y-16966213D01*
X4461491Y-16966213D02*
X4451967Y-16928118D01*
X4451967Y-16928118D02*
X4451967Y-16880499D01*
X4451967Y-16880499D02*
X4461491Y-16842404D01*
X4461491Y-16842404D02*
X4471015Y-16823356D01*
X4471015Y-16823356D02*
X4480539Y-16813832D01*
X4480539Y-16813832D02*
X4499586Y-16804308D01*
X4690063Y-16804308D02*
X4709110Y-16804308D01*
X4709110Y-16804308D02*
X4728158Y-16813832D01*
X4728158Y-16813832D02*
X4737682Y-16823356D01*
X4737682Y-16823356D02*
X4747205Y-16842404D01*
X4747205Y-16842404D02*
X4756729Y-16880499D01*
X4756729Y-16880499D02*
X4756729Y-16928118D01*
X4756729Y-16928118D02*
X4747205Y-16966213D01*
X4747205Y-16966213D02*
X4737682Y-16985261D01*
X4737682Y-16985261D02*
X4728158Y-16994785D01*
X4728158Y-16994785D02*
X4709110Y-17004308D01*
X4709110Y-17004308D02*
X4690063Y-17004308D01*
X4690063Y-17004308D02*
X4671015Y-16994785D01*
X4671015Y-16994785D02*
X4661491Y-16985261D01*
X4661491Y-16985261D02*
X4651967Y-16966213D01*
X4651967Y-16966213D02*
X4642444Y-16928118D01*
X4642444Y-16928118D02*
X4642444Y-16880499D01*
X4642444Y-16880499D02*
X4651967Y-16842404D01*
X4651967Y-16842404D02*
X4661491Y-16823356D01*
X4661491Y-16823356D02*
X4671015Y-16813832D01*
X4671015Y-16813832D02*
X4690063Y-16804308D01*
X4880539Y-16804308D02*
X4899586Y-16804308D01*
X4899586Y-16804308D02*
X4918634Y-16813832D01*
X4918634Y-16813832D02*
X4928158Y-16823356D01*
X4928158Y-16823356D02*
X4937682Y-16842404D01*
X4937682Y-16842404D02*
X4947205Y-16880499D01*
X4947205Y-16880499D02*
X4947205Y-16928118D01*
X4947205Y-16928118D02*
X4937682Y-16966213D01*
X4937682Y-16966213D02*
X4928158Y-16985261D01*
X4928158Y-16985261D02*
X4918634Y-16994785D01*
X4918634Y-16994785D02*
X4899586Y-17004308D01*
X4899586Y-17004308D02*
X4880539Y-17004308D01*
X4880539Y-17004308D02*
X4861491Y-16994785D01*
X4861491Y-16994785D02*
X4851967Y-16985261D01*
X4851967Y-16985261D02*
X4842444Y-16966213D01*
X4842444Y-16966213D02*
X4832920Y-16928118D01*
X4832920Y-16928118D02*
X4832920Y-16880499D01*
X4832920Y-16880499D02*
X4842444Y-16842404D01*
X4842444Y-16842404D02*
X4851967Y-16823356D01*
X4851967Y-16823356D02*
X4861491Y-16813832D01*
X4861491Y-16813832D02*
X4880539Y-16804308D01*
X5032920Y-17004308D02*
X5032920Y-16870975D01*
X5032920Y-16890023D02*
X5042444Y-16880499D01*
X5042444Y-16880499D02*
X5061491Y-16870975D01*
X5061491Y-16870975D02*
X5090063Y-16870975D01*
X5090063Y-16870975D02*
X5109110Y-16880499D01*
X5109110Y-16880499D02*
X5118634Y-16899546D01*
X5118634Y-16899546D02*
X5118634Y-17004308D01*
X5118634Y-16899546D02*
X5128158Y-16880499D01*
X5128158Y-16880499D02*
X5147205Y-16870975D01*
X5147205Y-16870975D02*
X5175777Y-16870975D01*
X5175777Y-16870975D02*
X5194825Y-16880499D01*
X5194825Y-16880499D02*
X5204348Y-16899546D01*
X5204348Y-16899546D02*
X5204348Y-17004308D01*
X5299586Y-17004308D02*
X5299586Y-16870975D01*
X5299586Y-16890023D02*
X5309110Y-16880499D01*
X5309110Y-16880499D02*
X5328158Y-16870975D01*
X5328158Y-16870975D02*
X5356729Y-16870975D01*
X5356729Y-16870975D02*
X5375777Y-16880499D01*
X5375777Y-16880499D02*
X5385301Y-16899546D01*
X5385301Y-16899546D02*
X5385301Y-17004308D01*
X5385301Y-16899546D02*
X5394825Y-16880499D01*
X5394825Y-16880499D02*
X5413872Y-16870975D01*
X5413872Y-16870975D02*
X5442444Y-16870975D01*
X5442444Y-16870975D02*
X5461491Y-16880499D01*
X5461491Y-16880499D02*
X5471015Y-16899546D01*
X5471015Y-16899546D02*
X5471015Y-17004308D01*
X5861491Y-16794785D02*
X5690063Y-17051927D01*
X6118634Y-16804308D02*
X6137682Y-16804308D01*
X6137682Y-16804308D02*
X6156729Y-16813832D01*
X6156729Y-16813832D02*
X6166253Y-16823356D01*
X6166253Y-16823356D02*
X6175777Y-16842404D01*
X6175777Y-16842404D02*
X6185301Y-16880499D01*
X6185301Y-16880499D02*
X6185301Y-16928118D01*
X6185301Y-16928118D02*
X6175777Y-16966213D01*
X6175777Y-16966213D02*
X6166253Y-16985261D01*
X6166253Y-16985261D02*
X6156729Y-16994785D01*
X6156729Y-16994785D02*
X6137682Y-17004308D01*
X6137682Y-17004308D02*
X6118634Y-17004308D01*
X6118634Y-17004308D02*
X6099586Y-16994785D01*
X6099586Y-16994785D02*
X6090063Y-16985261D01*
X6090063Y-16985261D02*
X6080539Y-16966213D01*
X6080539Y-16966213D02*
X6071015Y-16928118D01*
X6071015Y-16928118D02*
X6071015Y-16880499D01*
X6071015Y-16880499D02*
X6080539Y-16842404D01*
X6080539Y-16842404D02*
X6090063Y-16823356D01*
X6090063Y-16823356D02*
X6099586Y-16813832D01*
X6099586Y-16813832D02*
X6118634Y-16804308D01*
X6271015Y-16985261D02*
X6280539Y-16994785D01*
X6280539Y-16994785D02*
X6271015Y-17004308D01*
X6271015Y-17004308D02*
X6261491Y-16994785D01*
X6261491Y-16994785D02*
X6271015Y-16985261D01*
X6271015Y-16985261D02*
X6271015Y-17004308D01*
X6471015Y-17004308D02*
X6356729Y-17004308D01*
X6413872Y-17004308D02*
X6413872Y-16804308D01*
X6413872Y-16804308D02*
X6394825Y-16832880D01*
X6394825Y-16832880D02*
X6375777Y-16851927D01*
X6375777Y-16851927D02*
X6356729Y-16861451D01*
X6661491Y-17004308D02*
X6547206Y-17004308D01*
X6604348Y-17004308D02*
X6604348Y-16804308D01*
X6604348Y-16804308D02*
X6585301Y-16832880D01*
X6585301Y-16832880D02*
X6566253Y-16851927D01*
X6566253Y-16851927D02*
X6547206Y-16861451D01*
X6775777Y-16890023D02*
X6756729Y-16880499D01*
X6756729Y-16880499D02*
X6747206Y-16870975D01*
X6747206Y-16870975D02*
X6737682Y-16851927D01*
X6737682Y-16851927D02*
X6737682Y-16842404D01*
X6737682Y-16842404D02*
X6747206Y-16823356D01*
X6747206Y-16823356D02*
X6756729Y-16813832D01*
X6756729Y-16813832D02*
X6775777Y-16804308D01*
X6775777Y-16804308D02*
X6813872Y-16804308D01*
X6813872Y-16804308D02*
X6832920Y-16813832D01*
X6832920Y-16813832D02*
X6842444Y-16823356D01*
X6842444Y-16823356D02*
X6851967Y-16842404D01*
X6851967Y-16842404D02*
X6851967Y-16851927D01*
X6851967Y-16851927D02*
X6842444Y-16870975D01*
X6842444Y-16870975D02*
X6832920Y-16880499D01*
X6832920Y-16880499D02*
X6813872Y-16890023D01*
X6813872Y-16890023D02*
X6775777Y-16890023D01*
X6775777Y-16890023D02*
X6756729Y-16899546D01*
X6756729Y-16899546D02*
X6747206Y-16909070D01*
X6747206Y-16909070D02*
X6737682Y-16928118D01*
X6737682Y-16928118D02*
X6737682Y-16966213D01*
X6737682Y-16966213D02*
X6747206Y-16985261D01*
X6747206Y-16985261D02*
X6756729Y-16994785D01*
X6756729Y-16994785D02*
X6775777Y-17004308D01*
X6775777Y-17004308D02*
X6813872Y-17004308D01*
X6813872Y-17004308D02*
X6832920Y-16994785D01*
X6832920Y-16994785D02*
X6842444Y-16985261D01*
X6842444Y-16985261D02*
X6851967Y-16966213D01*
X6851967Y-16966213D02*
X6851967Y-16928118D01*
X6851967Y-16928118D02*
X6842444Y-16909070D01*
X6842444Y-16909070D02*
X6832920Y-16899546D01*
X6832920Y-16899546D02*
X6813872Y-16890023D01*
X7042444Y-17004308D02*
X6928158Y-17004308D01*
X6985301Y-17004308D02*
X6985301Y-16804308D01*
X6985301Y-16804308D02*
X6966253Y-16832880D01*
X6966253Y-16832880D02*
X6947206Y-16851927D01*
X6947206Y-16851927D02*
X6928158Y-16861451D01*
X7118634Y-16804308D02*
X7118634Y-16842404D01*
X7194825Y-16804308D02*
X7194825Y-16842404D01*
X7490063Y-17080499D02*
X7480539Y-17070975D01*
X7480539Y-17070975D02*
X7461491Y-17042404D01*
X7461491Y-17042404D02*
X7451968Y-17023356D01*
X7451968Y-17023356D02*
X7442444Y-16994785D01*
X7442444Y-16994785D02*
X7432920Y-16947165D01*
X7432920Y-16947165D02*
X7432920Y-16909070D01*
X7432920Y-16909070D02*
X7442444Y-16861451D01*
X7442444Y-16861451D02*
X7451968Y-16832880D01*
X7451968Y-16832880D02*
X7461491Y-16813832D01*
X7461491Y-16813832D02*
X7480539Y-16785261D01*
X7480539Y-16785261D02*
X7490063Y-16775737D01*
X7651968Y-16870975D02*
X7651968Y-17004308D01*
X7604348Y-16794785D02*
X7556729Y-16937642D01*
X7556729Y-16937642D02*
X7680539Y-16937642D01*
X7842444Y-16804308D02*
X7804348Y-16804308D01*
X7804348Y-16804308D02*
X7785301Y-16813832D01*
X7785301Y-16813832D02*
X7775777Y-16823356D01*
X7775777Y-16823356D02*
X7756729Y-16851927D01*
X7756729Y-16851927D02*
X7747206Y-16890023D01*
X7747206Y-16890023D02*
X7747206Y-16966213D01*
X7747206Y-16966213D02*
X7756729Y-16985261D01*
X7756729Y-16985261D02*
X7766253Y-16994785D01*
X7766253Y-16994785D02*
X7785301Y-17004308D01*
X7785301Y-17004308D02*
X7823396Y-17004308D01*
X7823396Y-17004308D02*
X7842444Y-16994785D01*
X7842444Y-16994785D02*
X7851968Y-16985261D01*
X7851968Y-16985261D02*
X7861491Y-16966213D01*
X7861491Y-16966213D02*
X7861491Y-16918594D01*
X7861491Y-16918594D02*
X7851968Y-16899546D01*
X7851968Y-16899546D02*
X7842444Y-16890023D01*
X7842444Y-16890023D02*
X7823396Y-16880499D01*
X7823396Y-16880499D02*
X7785301Y-16880499D01*
X7785301Y-16880499D02*
X7766253Y-16890023D01*
X7766253Y-16890023D02*
X7756729Y-16899546D01*
X7756729Y-16899546D02*
X7747206Y-16918594D01*
X8099587Y-17004308D02*
X8099587Y-16804308D01*
X8185301Y-17004308D02*
X8185301Y-16899546D01*
X8185301Y-16899546D02*
X8175777Y-16880499D01*
X8175777Y-16880499D02*
X8156730Y-16870975D01*
X8156730Y-16870975D02*
X8128158Y-16870975D01*
X8128158Y-16870975D02*
X8109110Y-16880499D01*
X8109110Y-16880499D02*
X8099587Y-16890023D01*
X8309110Y-17004308D02*
X8290063Y-16994785D01*
X8290063Y-16994785D02*
X8280539Y-16985261D01*
X8280539Y-16985261D02*
X8271015Y-16966213D01*
X8271015Y-16966213D02*
X8271015Y-16909070D01*
X8271015Y-16909070D02*
X8280539Y-16890023D01*
X8280539Y-16890023D02*
X8290063Y-16880499D01*
X8290063Y-16880499D02*
X8309110Y-16870975D01*
X8309110Y-16870975D02*
X8337682Y-16870975D01*
X8337682Y-16870975D02*
X8356730Y-16880499D01*
X8356730Y-16880499D02*
X8366253Y-16890023D01*
X8366253Y-16890023D02*
X8375777Y-16909070D01*
X8375777Y-16909070D02*
X8375777Y-16966213D01*
X8375777Y-16966213D02*
X8366253Y-16985261D01*
X8366253Y-16985261D02*
X8356730Y-16994785D01*
X8356730Y-16994785D02*
X8337682Y-17004308D01*
X8337682Y-17004308D02*
X8309110Y-17004308D01*
X8490063Y-17004308D02*
X8471015Y-16994785D01*
X8471015Y-16994785D02*
X8461492Y-16975737D01*
X8461492Y-16975737D02*
X8461492Y-16804308D01*
X8642444Y-16994785D02*
X8623396Y-17004308D01*
X8623396Y-17004308D02*
X8585301Y-17004308D01*
X8585301Y-17004308D02*
X8566253Y-16994785D01*
X8566253Y-16994785D02*
X8556730Y-16975737D01*
X8556730Y-16975737D02*
X8556730Y-16899546D01*
X8556730Y-16899546D02*
X8566253Y-16880499D01*
X8566253Y-16880499D02*
X8585301Y-16870975D01*
X8585301Y-16870975D02*
X8623396Y-16870975D01*
X8623396Y-16870975D02*
X8642444Y-16880499D01*
X8642444Y-16880499D02*
X8651968Y-16899546D01*
X8651968Y-16899546D02*
X8651968Y-16918594D01*
X8651968Y-16918594D02*
X8556730Y-16937642D01*
X8728158Y-16994785D02*
X8747206Y-17004308D01*
X8747206Y-17004308D02*
X8785301Y-17004308D01*
X8785301Y-17004308D02*
X8804349Y-16994785D01*
X8804349Y-16994785D02*
X8813873Y-16975737D01*
X8813873Y-16975737D02*
X8813873Y-16966213D01*
X8813873Y-16966213D02*
X8804349Y-16947165D01*
X8804349Y-16947165D02*
X8785301Y-16937642D01*
X8785301Y-16937642D02*
X8756730Y-16937642D01*
X8756730Y-16937642D02*
X8737682Y-16928118D01*
X8737682Y-16928118D02*
X8728158Y-16909070D01*
X8728158Y-16909070D02*
X8728158Y-16899546D01*
X8728158Y-16899546D02*
X8737682Y-16880499D01*
X8737682Y-16880499D02*
X8756730Y-16870975D01*
X8756730Y-16870975D02*
X8785301Y-16870975D01*
X8785301Y-16870975D02*
X8804349Y-16880499D01*
X8880539Y-17080499D02*
X8890063Y-17070975D01*
X8890063Y-17070975D02*
X8909111Y-17042404D01*
X8909111Y-17042404D02*
X8918634Y-17023356D01*
X8918634Y-17023356D02*
X8928158Y-16994785D01*
X8928158Y-16994785D02*
X8937682Y-16947165D01*
X8937682Y-16947165D02*
X8937682Y-16909070D01*
X8937682Y-16909070D02*
X8928158Y-16861451D01*
X8928158Y-16861451D02*
X8918634Y-16832880D01*
X8918634Y-16832880D02*
X8909111Y-16813832D01*
X8909111Y-16813832D02*
X8890063Y-16785261D01*
X8890063Y-16785261D02*
X8880539Y-16775737D01*
M02*
