G04 #@! TF.GenerationSoftware,KiCad,Pcbnew,7.0.10-7.0.10~ubuntu23.10.1*
G04 #@! TF.CreationDate,2024-01-07T20:04:01-05:00*
G04 #@! TF.ProjectId,Right PCB,52696768-7420-4504-9342-2e6b69636164,rev?*
G04 #@! TF.SameCoordinates,Original*
G04 #@! TF.FileFunction,Legend,Top*
G04 #@! TF.FilePolarity,Positive*
%FSLAX46Y46*%
G04 Gerber Fmt 4.6, Leading zero omitted, Abs format (unit mm)*
G04 Created by KiCad (PCBNEW 7.0.10-7.0.10~ubuntu23.10.1) date 2024-01-07 20:04:01*
%MOMM*%
%LPD*%
G01*
G04 APERTURE LIST*
G04 Aperture macros list*
%AMRoundRect*
0 Rectangle with rounded corners*
0 $1 Rounding radius*
0 $2 $3 $4 $5 $6 $7 $8 $9 X,Y pos of 4 corners*
0 Add a 4 corners polygon primitive as box body*
4,1,4,$2,$3,$4,$5,$6,$7,$8,$9,$2,$3,0*
0 Add four circle primitives for the rounded corners*
1,1,$1+$1,$2,$3*
1,1,$1+$1,$4,$5*
1,1,$1+$1,$6,$7*
1,1,$1+$1,$8,$9*
0 Add four rect primitives between the rounded corners*
20,1,$1+$1,$2,$3,$4,$5,0*
20,1,$1+$1,$4,$5,$6,$7,0*
20,1,$1+$1,$6,$7,$8,$9,0*
20,1,$1+$1,$8,$9,$2,$3,0*%
G04 Aperture macros list end*
%ADD10C,0.150000*%
%ADD11C,0.120000*%
%ADD12C,0.100000*%
%ADD13C,0.152400*%
%ADD14RoundRect,0.225000X0.375000X-0.225000X0.375000X0.225000X-0.375000X0.225000X-0.375000X-0.225000X0*%
%ADD15C,1.750000*%
%ADD16C,3.987800*%
%ADD17C,3.300000*%
%ADD18RoundRect,0.250000X-1.025000X-1.000000X1.025000X-1.000000X1.025000X1.000000X-1.025000X1.000000X0*%
%ADD19RoundRect,0.225000X-0.225000X-0.375000X0.225000X-0.375000X0.225000X0.375000X-0.225000X0.375000X0*%
%ADD20RoundRect,0.225000X-0.120276X-0.420456X0.314390X-0.303988X0.120276X0.420456X-0.314390X0.303988X0*%
%ADD21C,1.000000*%
%ADD22R,2.000000X2.100000*%
%ADD23RoundRect,0.225000X0.106066X-0.424264X0.424264X-0.106066X-0.106066X0.424264X-0.424264X0.106066X0*%
%ADD24RoundRect,0.250000X-0.731255X-1.231215X1.248893X-0.700636X0.731255X1.231215X-1.248893X0.700636X0*%
%ADD25RoundRect,0.225000X-0.007356X-0.437260X0.382356X-0.212260X0.007356X0.437260X-0.382356X0.212260X0*%
%ADD26RoundRect,0.250000X-0.387676X-1.378525X1.387676X-0.353525X0.387676X1.378525X-1.387676X0.353525X0*%
%ADD27R,1.300000X0.300000*%
%ADD28R,2.200000X1.800000*%
%ADD29RoundRect,0.250000X-0.017678X-1.431891X1.431891X0.017678X0.017678X1.431891X-1.431891X-0.017678X0*%
G04 APERTURE END LIST*
D10*
X72454819Y-110414285D02*
X71454819Y-110414285D01*
X71454819Y-110414285D02*
X71454819Y-110176190D01*
X71454819Y-110176190D02*
X71502438Y-110033333D01*
X71502438Y-110033333D02*
X71597676Y-109938095D01*
X71597676Y-109938095D02*
X71692914Y-109890476D01*
X71692914Y-109890476D02*
X71883390Y-109842857D01*
X71883390Y-109842857D02*
X72026247Y-109842857D01*
X72026247Y-109842857D02*
X72216723Y-109890476D01*
X72216723Y-109890476D02*
X72311961Y-109938095D01*
X72311961Y-109938095D02*
X72407200Y-110033333D01*
X72407200Y-110033333D02*
X72454819Y-110176190D01*
X72454819Y-110176190D02*
X72454819Y-110414285D01*
X71550057Y-109461904D02*
X71502438Y-109414285D01*
X71502438Y-109414285D02*
X71454819Y-109319047D01*
X71454819Y-109319047D02*
X71454819Y-109080952D01*
X71454819Y-109080952D02*
X71502438Y-108985714D01*
X71502438Y-108985714D02*
X71550057Y-108938095D01*
X71550057Y-108938095D02*
X71645295Y-108890476D01*
X71645295Y-108890476D02*
X71740533Y-108890476D01*
X71740533Y-108890476D02*
X71883390Y-108938095D01*
X71883390Y-108938095D02*
X72454819Y-109509523D01*
X72454819Y-109509523D02*
X72454819Y-108890476D01*
X71788152Y-108033333D02*
X72454819Y-108033333D01*
X71407200Y-108271428D02*
X72121485Y-108509523D01*
X72121485Y-108509523D02*
X72121485Y-107890476D01*
X101044286Y-57304819D02*
X101044286Y-56304819D01*
X101044286Y-56304819D02*
X101377619Y-57019104D01*
X101377619Y-57019104D02*
X101710952Y-56304819D01*
X101710952Y-56304819D02*
X101710952Y-57304819D01*
X102091905Y-56304819D02*
X102758571Y-57304819D01*
X102758571Y-56304819D02*
X102091905Y-57304819D01*
X103091905Y-56400057D02*
X103139524Y-56352438D01*
X103139524Y-56352438D02*
X103234762Y-56304819D01*
X103234762Y-56304819D02*
X103472857Y-56304819D01*
X103472857Y-56304819D02*
X103568095Y-56352438D01*
X103568095Y-56352438D02*
X103615714Y-56400057D01*
X103615714Y-56400057D02*
X103663333Y-56495295D01*
X103663333Y-56495295D02*
X103663333Y-56590533D01*
X103663333Y-56590533D02*
X103615714Y-56733390D01*
X103615714Y-56733390D02*
X103044286Y-57304819D01*
X103044286Y-57304819D02*
X103663333Y-57304819D01*
X157788095Y-100604819D02*
X157788095Y-99604819D01*
X157788095Y-99604819D02*
X158121428Y-100319104D01*
X158121428Y-100319104D02*
X158454761Y-99604819D01*
X158454761Y-99604819D02*
X158454761Y-100604819D01*
X158835714Y-99604819D02*
X159502380Y-100604819D01*
X159502380Y-99604819D02*
X158835714Y-100604819D01*
X160407142Y-100604819D02*
X159835714Y-100604819D01*
X160121428Y-100604819D02*
X160121428Y-99604819D01*
X160121428Y-99604819D02*
X160026190Y-99747676D01*
X160026190Y-99747676D02*
X159930952Y-99842914D01*
X159930952Y-99842914D02*
X159835714Y-99890533D01*
X161311904Y-99604819D02*
X160835714Y-99604819D01*
X160835714Y-99604819D02*
X160788095Y-100081009D01*
X160788095Y-100081009D02*
X160835714Y-100033390D01*
X160835714Y-100033390D02*
X160930952Y-99985771D01*
X160930952Y-99985771D02*
X161169047Y-99985771D01*
X161169047Y-99985771D02*
X161264285Y-100033390D01*
X161264285Y-100033390D02*
X161311904Y-100081009D01*
X161311904Y-100081009D02*
X161359523Y-100176247D01*
X161359523Y-100176247D02*
X161359523Y-100414342D01*
X161359523Y-100414342D02*
X161311904Y-100509580D01*
X161311904Y-100509580D02*
X161264285Y-100557200D01*
X161264285Y-100557200D02*
X161169047Y-100604819D01*
X161169047Y-100604819D02*
X160930952Y-100604819D01*
X160930952Y-100604819D02*
X160835714Y-100557200D01*
X160835714Y-100557200D02*
X160788095Y-100509580D01*
X160085714Y-104654819D02*
X160085714Y-103654819D01*
X160085714Y-103654819D02*
X160323809Y-103654819D01*
X160323809Y-103654819D02*
X160466666Y-103702438D01*
X160466666Y-103702438D02*
X160561904Y-103797676D01*
X160561904Y-103797676D02*
X160609523Y-103892914D01*
X160609523Y-103892914D02*
X160657142Y-104083390D01*
X160657142Y-104083390D02*
X160657142Y-104226247D01*
X160657142Y-104226247D02*
X160609523Y-104416723D01*
X160609523Y-104416723D02*
X160561904Y-104511961D01*
X160561904Y-104511961D02*
X160466666Y-104607200D01*
X160466666Y-104607200D02*
X160323809Y-104654819D01*
X160323809Y-104654819D02*
X160085714Y-104654819D01*
X161609523Y-104654819D02*
X161038095Y-104654819D01*
X161323809Y-104654819D02*
X161323809Y-103654819D01*
X161323809Y-103654819D02*
X161228571Y-103797676D01*
X161228571Y-103797676D02*
X161133333Y-103892914D01*
X161133333Y-103892914D02*
X161038095Y-103940533D01*
X162514285Y-103654819D02*
X162038095Y-103654819D01*
X162038095Y-103654819D02*
X161990476Y-104131009D01*
X161990476Y-104131009D02*
X162038095Y-104083390D01*
X162038095Y-104083390D02*
X162133333Y-104035771D01*
X162133333Y-104035771D02*
X162371428Y-104035771D01*
X162371428Y-104035771D02*
X162466666Y-104083390D01*
X162466666Y-104083390D02*
X162514285Y-104131009D01*
X162514285Y-104131009D02*
X162561904Y-104226247D01*
X162561904Y-104226247D02*
X162561904Y-104464342D01*
X162561904Y-104464342D02*
X162514285Y-104559580D01*
X162514285Y-104559580D02*
X162466666Y-104607200D01*
X162466666Y-104607200D02*
X162371428Y-104654819D01*
X162371428Y-104654819D02*
X162133333Y-104654819D01*
X162133333Y-104654819D02*
X162038095Y-104607200D01*
X162038095Y-104607200D02*
X161990476Y-104559580D01*
X120144286Y-52204819D02*
X120144286Y-51204819D01*
X120144286Y-51204819D02*
X120477619Y-51919104D01*
X120477619Y-51919104D02*
X120810952Y-51204819D01*
X120810952Y-51204819D02*
X120810952Y-52204819D01*
X121191905Y-51204819D02*
X121858571Y-52204819D01*
X121858571Y-51204819D02*
X121191905Y-52204819D01*
X122144286Y-51204819D02*
X122763333Y-51204819D01*
X122763333Y-51204819D02*
X122430000Y-51585771D01*
X122430000Y-51585771D02*
X122572857Y-51585771D01*
X122572857Y-51585771D02*
X122668095Y-51633390D01*
X122668095Y-51633390D02*
X122715714Y-51681009D01*
X122715714Y-51681009D02*
X122763333Y-51776247D01*
X122763333Y-51776247D02*
X122763333Y-52014342D01*
X122763333Y-52014342D02*
X122715714Y-52109580D01*
X122715714Y-52109580D02*
X122668095Y-52157200D01*
X122668095Y-52157200D02*
X122572857Y-52204819D01*
X122572857Y-52204819D02*
X122287143Y-52204819D01*
X122287143Y-52204819D02*
X122191905Y-52157200D01*
X122191905Y-52157200D02*
X122144286Y-52109580D01*
X122461905Y-75254819D02*
X122461905Y-74254819D01*
X122461905Y-74254819D02*
X122700000Y-74254819D01*
X122700000Y-74254819D02*
X122842857Y-74302438D01*
X122842857Y-74302438D02*
X122938095Y-74397676D01*
X122938095Y-74397676D02*
X122985714Y-74492914D01*
X122985714Y-74492914D02*
X123033333Y-74683390D01*
X123033333Y-74683390D02*
X123033333Y-74826247D01*
X123033333Y-74826247D02*
X122985714Y-75016723D01*
X122985714Y-75016723D02*
X122938095Y-75111961D01*
X122938095Y-75111961D02*
X122842857Y-75207200D01*
X122842857Y-75207200D02*
X122700000Y-75254819D01*
X122700000Y-75254819D02*
X122461905Y-75254819D01*
X123604762Y-74683390D02*
X123509524Y-74635771D01*
X123509524Y-74635771D02*
X123461905Y-74588152D01*
X123461905Y-74588152D02*
X123414286Y-74492914D01*
X123414286Y-74492914D02*
X123414286Y-74445295D01*
X123414286Y-74445295D02*
X123461905Y-74350057D01*
X123461905Y-74350057D02*
X123509524Y-74302438D01*
X123509524Y-74302438D02*
X123604762Y-74254819D01*
X123604762Y-74254819D02*
X123795238Y-74254819D01*
X123795238Y-74254819D02*
X123890476Y-74302438D01*
X123890476Y-74302438D02*
X123938095Y-74350057D01*
X123938095Y-74350057D02*
X123985714Y-74445295D01*
X123985714Y-74445295D02*
X123985714Y-74492914D01*
X123985714Y-74492914D02*
X123938095Y-74588152D01*
X123938095Y-74588152D02*
X123890476Y-74635771D01*
X123890476Y-74635771D02*
X123795238Y-74683390D01*
X123795238Y-74683390D02*
X123604762Y-74683390D01*
X123604762Y-74683390D02*
X123509524Y-74731009D01*
X123509524Y-74731009D02*
X123461905Y-74778628D01*
X123461905Y-74778628D02*
X123414286Y-74873866D01*
X123414286Y-74873866D02*
X123414286Y-75064342D01*
X123414286Y-75064342D02*
X123461905Y-75159580D01*
X123461905Y-75159580D02*
X123509524Y-75207200D01*
X123509524Y-75207200D02*
X123604762Y-75254819D01*
X123604762Y-75254819D02*
X123795238Y-75254819D01*
X123795238Y-75254819D02*
X123890476Y-75207200D01*
X123890476Y-75207200D02*
X123938095Y-75159580D01*
X123938095Y-75159580D02*
X123985714Y-75064342D01*
X123985714Y-75064342D02*
X123985714Y-74873866D01*
X123985714Y-74873866D02*
X123938095Y-74778628D01*
X123938095Y-74778628D02*
X123890476Y-74731009D01*
X123890476Y-74731009D02*
X123795238Y-74683390D01*
X92827167Y-125621749D02*
X92568348Y-124655823D01*
X92568348Y-124655823D02*
X92798331Y-124594200D01*
X92798331Y-124594200D02*
X92948645Y-124603222D01*
X92948645Y-124603222D02*
X93065287Y-124670566D01*
X93065287Y-124670566D02*
X93135933Y-124750234D01*
X93135933Y-124750234D02*
X93231228Y-124921895D01*
X93231228Y-124921895D02*
X93268203Y-125059884D01*
X93268203Y-125059884D02*
X93271505Y-125256195D01*
X93271505Y-125256195D02*
X93250158Y-125360513D01*
X93250158Y-125360513D02*
X93182814Y-125477155D01*
X93182814Y-125477155D02*
X93057150Y-125560126D01*
X93057150Y-125560126D02*
X92827167Y-125621749D01*
X93512927Y-124501322D02*
X93546599Y-124443001D01*
X93546599Y-124443001D02*
X93626267Y-124372355D01*
X93626267Y-124372355D02*
X93856249Y-124310731D01*
X93856249Y-124310731D02*
X93960567Y-124332078D01*
X93960567Y-124332078D02*
X94018888Y-124365750D01*
X94018888Y-124365750D02*
X94089534Y-124445418D01*
X94089534Y-124445418D02*
X94114184Y-124537411D01*
X94114184Y-124537411D02*
X94105161Y-124687725D01*
X94105161Y-124687725D02*
X93701100Y-125387580D01*
X93701100Y-125387580D02*
X94299054Y-125227358D01*
X95218984Y-124980864D02*
X94667026Y-125128761D01*
X94943005Y-125054812D02*
X94684186Y-124088886D01*
X94684186Y-124088886D02*
X94629167Y-124251525D01*
X94629167Y-124251525D02*
X94561824Y-124368168D01*
X94561824Y-124368168D02*
X94482155Y-124438814D01*
X176788095Y-48404819D02*
X176788095Y-47404819D01*
X176788095Y-47404819D02*
X177121428Y-48119104D01*
X177121428Y-48119104D02*
X177454761Y-47404819D01*
X177454761Y-47404819D02*
X177454761Y-48404819D01*
X177835714Y-47404819D02*
X178502380Y-48404819D01*
X178502380Y-47404819D02*
X177835714Y-48404819D01*
X179407142Y-48404819D02*
X178835714Y-48404819D01*
X179121428Y-48404819D02*
X179121428Y-47404819D01*
X179121428Y-47404819D02*
X179026190Y-47547676D01*
X179026190Y-47547676D02*
X178930952Y-47642914D01*
X178930952Y-47642914D02*
X178835714Y-47690533D01*
X180264285Y-47404819D02*
X180073809Y-47404819D01*
X180073809Y-47404819D02*
X179978571Y-47452438D01*
X179978571Y-47452438D02*
X179930952Y-47500057D01*
X179930952Y-47500057D02*
X179835714Y-47642914D01*
X179835714Y-47642914D02*
X179788095Y-47833390D01*
X179788095Y-47833390D02*
X179788095Y-48214342D01*
X179788095Y-48214342D02*
X179835714Y-48309580D01*
X179835714Y-48309580D02*
X179883333Y-48357200D01*
X179883333Y-48357200D02*
X179978571Y-48404819D01*
X179978571Y-48404819D02*
X180169047Y-48404819D01*
X180169047Y-48404819D02*
X180264285Y-48357200D01*
X180264285Y-48357200D02*
X180311904Y-48309580D01*
X180311904Y-48309580D02*
X180359523Y-48214342D01*
X180359523Y-48214342D02*
X180359523Y-47976247D01*
X180359523Y-47976247D02*
X180311904Y-47881009D01*
X180311904Y-47881009D02*
X180264285Y-47833390D01*
X180264285Y-47833390D02*
X180169047Y-47785771D01*
X180169047Y-47785771D02*
X179978571Y-47785771D01*
X179978571Y-47785771D02*
X179883333Y-47833390D01*
X179883333Y-47833390D02*
X179835714Y-47881009D01*
X179835714Y-47881009D02*
X179788095Y-47976247D01*
X110808095Y-117504819D02*
X110808095Y-116504819D01*
X110808095Y-116504819D02*
X111141428Y-117219104D01*
X111141428Y-117219104D02*
X111474761Y-116504819D01*
X111474761Y-116504819D02*
X111474761Y-117504819D01*
X111855714Y-116504819D02*
X112522380Y-117504819D01*
X112522380Y-116504819D02*
X111855714Y-117504819D01*
X112855714Y-116600057D02*
X112903333Y-116552438D01*
X112903333Y-116552438D02*
X112998571Y-116504819D01*
X112998571Y-116504819D02*
X113236666Y-116504819D01*
X113236666Y-116504819D02*
X113331904Y-116552438D01*
X113331904Y-116552438D02*
X113379523Y-116600057D01*
X113379523Y-116600057D02*
X113427142Y-116695295D01*
X113427142Y-116695295D02*
X113427142Y-116790533D01*
X113427142Y-116790533D02*
X113379523Y-116933390D01*
X113379523Y-116933390D02*
X112808095Y-117504819D01*
X112808095Y-117504819D02*
X113427142Y-117504819D01*
X114046190Y-116504819D02*
X114141428Y-116504819D01*
X114141428Y-116504819D02*
X114236666Y-116552438D01*
X114236666Y-116552438D02*
X114284285Y-116600057D01*
X114284285Y-116600057D02*
X114331904Y-116695295D01*
X114331904Y-116695295D02*
X114379523Y-116885771D01*
X114379523Y-116885771D02*
X114379523Y-117123866D01*
X114379523Y-117123866D02*
X114331904Y-117314342D01*
X114331904Y-117314342D02*
X114284285Y-117409580D01*
X114284285Y-117409580D02*
X114236666Y-117457200D01*
X114236666Y-117457200D02*
X114141428Y-117504819D01*
X114141428Y-117504819D02*
X114046190Y-117504819D01*
X114046190Y-117504819D02*
X113950952Y-117457200D01*
X113950952Y-117457200D02*
X113903333Y-117409580D01*
X113903333Y-117409580D02*
X113855714Y-117314342D01*
X113855714Y-117314342D02*
X113808095Y-117123866D01*
X113808095Y-117123866D02*
X113808095Y-116885771D01*
X113808095Y-116885771D02*
X113855714Y-116695295D01*
X113855714Y-116695295D02*
X113903333Y-116600057D01*
X113903333Y-116600057D02*
X113950952Y-116552438D01*
X113950952Y-116552438D02*
X114046190Y-116504819D01*
X141085714Y-100154819D02*
X141085714Y-99154819D01*
X141085714Y-99154819D02*
X141323809Y-99154819D01*
X141323809Y-99154819D02*
X141466666Y-99202438D01*
X141466666Y-99202438D02*
X141561904Y-99297676D01*
X141561904Y-99297676D02*
X141609523Y-99392914D01*
X141609523Y-99392914D02*
X141657142Y-99583390D01*
X141657142Y-99583390D02*
X141657142Y-99726247D01*
X141657142Y-99726247D02*
X141609523Y-99916723D01*
X141609523Y-99916723D02*
X141561904Y-100011961D01*
X141561904Y-100011961D02*
X141466666Y-100107200D01*
X141466666Y-100107200D02*
X141323809Y-100154819D01*
X141323809Y-100154819D02*
X141085714Y-100154819D01*
X142609523Y-100154819D02*
X142038095Y-100154819D01*
X142323809Y-100154819D02*
X142323809Y-99154819D01*
X142323809Y-99154819D02*
X142228571Y-99297676D01*
X142228571Y-99297676D02*
X142133333Y-99392914D01*
X142133333Y-99392914D02*
X142038095Y-99440533D01*
X143466666Y-99488152D02*
X143466666Y-100154819D01*
X143228571Y-99107200D02*
X142990476Y-99821485D01*
X142990476Y-99821485D02*
X143609523Y-99821485D01*
X176888095Y-105404819D02*
X176888095Y-104404819D01*
X176888095Y-104404819D02*
X177221428Y-105119104D01*
X177221428Y-105119104D02*
X177554761Y-104404819D01*
X177554761Y-104404819D02*
X177554761Y-105404819D01*
X177935714Y-104404819D02*
X178602380Y-105404819D01*
X178602380Y-104404819D02*
X177935714Y-105404819D01*
X179507142Y-105404819D02*
X178935714Y-105404819D01*
X179221428Y-105404819D02*
X179221428Y-104404819D01*
X179221428Y-104404819D02*
X179126190Y-104547676D01*
X179126190Y-104547676D02*
X179030952Y-104642914D01*
X179030952Y-104642914D02*
X178935714Y-104690533D01*
X179983333Y-105404819D02*
X180173809Y-105404819D01*
X180173809Y-105404819D02*
X180269047Y-105357200D01*
X180269047Y-105357200D02*
X180316666Y-105309580D01*
X180316666Y-105309580D02*
X180411904Y-105166723D01*
X180411904Y-105166723D02*
X180459523Y-104976247D01*
X180459523Y-104976247D02*
X180459523Y-104595295D01*
X180459523Y-104595295D02*
X180411904Y-104500057D01*
X180411904Y-104500057D02*
X180364285Y-104452438D01*
X180364285Y-104452438D02*
X180269047Y-104404819D01*
X180269047Y-104404819D02*
X180078571Y-104404819D01*
X180078571Y-104404819D02*
X179983333Y-104452438D01*
X179983333Y-104452438D02*
X179935714Y-104500057D01*
X179935714Y-104500057D02*
X179888095Y-104595295D01*
X179888095Y-104595295D02*
X179888095Y-104833390D01*
X179888095Y-104833390D02*
X179935714Y-104928628D01*
X179935714Y-104928628D02*
X179983333Y-104976247D01*
X179983333Y-104976247D02*
X180078571Y-105023866D01*
X180078571Y-105023866D02*
X180269047Y-105023866D01*
X180269047Y-105023866D02*
X180364285Y-104976247D01*
X180364285Y-104976247D02*
X180411904Y-104928628D01*
X180411904Y-104928628D02*
X180459523Y-104833390D01*
X102785714Y-99554819D02*
X102785714Y-98554819D01*
X102785714Y-98554819D02*
X103023809Y-98554819D01*
X103023809Y-98554819D02*
X103166666Y-98602438D01*
X103166666Y-98602438D02*
X103261904Y-98697676D01*
X103261904Y-98697676D02*
X103309523Y-98792914D01*
X103309523Y-98792914D02*
X103357142Y-98983390D01*
X103357142Y-98983390D02*
X103357142Y-99126247D01*
X103357142Y-99126247D02*
X103309523Y-99316723D01*
X103309523Y-99316723D02*
X103261904Y-99411961D01*
X103261904Y-99411961D02*
X103166666Y-99507200D01*
X103166666Y-99507200D02*
X103023809Y-99554819D01*
X103023809Y-99554819D02*
X102785714Y-99554819D01*
X104309523Y-99554819D02*
X103738095Y-99554819D01*
X104023809Y-99554819D02*
X104023809Y-98554819D01*
X104023809Y-98554819D02*
X103928571Y-98697676D01*
X103928571Y-98697676D02*
X103833333Y-98792914D01*
X103833333Y-98792914D02*
X103738095Y-98840533D01*
X104690476Y-98650057D02*
X104738095Y-98602438D01*
X104738095Y-98602438D02*
X104833333Y-98554819D01*
X104833333Y-98554819D02*
X105071428Y-98554819D01*
X105071428Y-98554819D02*
X105166666Y-98602438D01*
X105166666Y-98602438D02*
X105214285Y-98650057D01*
X105214285Y-98650057D02*
X105261904Y-98745295D01*
X105261904Y-98745295D02*
X105261904Y-98840533D01*
X105261904Y-98840533D02*
X105214285Y-98983390D01*
X105214285Y-98983390D02*
X104642857Y-99554819D01*
X104642857Y-99554819D02*
X105261904Y-99554819D01*
X176788095Y-86404819D02*
X176788095Y-85404819D01*
X176788095Y-85404819D02*
X177121428Y-86119104D01*
X177121428Y-86119104D02*
X177454761Y-85404819D01*
X177454761Y-85404819D02*
X177454761Y-86404819D01*
X177835714Y-85404819D02*
X178502380Y-86404819D01*
X178502380Y-85404819D02*
X177835714Y-86404819D01*
X179407142Y-86404819D02*
X178835714Y-86404819D01*
X179121428Y-86404819D02*
X179121428Y-85404819D01*
X179121428Y-85404819D02*
X179026190Y-85547676D01*
X179026190Y-85547676D02*
X178930952Y-85642914D01*
X178930952Y-85642914D02*
X178835714Y-85690533D01*
X179978571Y-85833390D02*
X179883333Y-85785771D01*
X179883333Y-85785771D02*
X179835714Y-85738152D01*
X179835714Y-85738152D02*
X179788095Y-85642914D01*
X179788095Y-85642914D02*
X179788095Y-85595295D01*
X179788095Y-85595295D02*
X179835714Y-85500057D01*
X179835714Y-85500057D02*
X179883333Y-85452438D01*
X179883333Y-85452438D02*
X179978571Y-85404819D01*
X179978571Y-85404819D02*
X180169047Y-85404819D01*
X180169047Y-85404819D02*
X180264285Y-85452438D01*
X180264285Y-85452438D02*
X180311904Y-85500057D01*
X180311904Y-85500057D02*
X180359523Y-85595295D01*
X180359523Y-85595295D02*
X180359523Y-85642914D01*
X180359523Y-85642914D02*
X180311904Y-85738152D01*
X180311904Y-85738152D02*
X180264285Y-85785771D01*
X180264285Y-85785771D02*
X180169047Y-85833390D01*
X180169047Y-85833390D02*
X179978571Y-85833390D01*
X179978571Y-85833390D02*
X179883333Y-85881009D01*
X179883333Y-85881009D02*
X179835714Y-85928628D01*
X179835714Y-85928628D02*
X179788095Y-86023866D01*
X179788095Y-86023866D02*
X179788095Y-86214342D01*
X179788095Y-86214342D02*
X179835714Y-86309580D01*
X179835714Y-86309580D02*
X179883333Y-86357200D01*
X179883333Y-86357200D02*
X179978571Y-86404819D01*
X179978571Y-86404819D02*
X180169047Y-86404819D01*
X180169047Y-86404819D02*
X180264285Y-86357200D01*
X180264285Y-86357200D02*
X180311904Y-86309580D01*
X180311904Y-86309580D02*
X180359523Y-86214342D01*
X180359523Y-86214342D02*
X180359523Y-86023866D01*
X180359523Y-86023866D02*
X180311904Y-85928628D01*
X180311904Y-85928628D02*
X180264285Y-85881009D01*
X180264285Y-85881009D02*
X180169047Y-85833390D01*
X139144286Y-57504819D02*
X139144286Y-56504819D01*
X139144286Y-56504819D02*
X139477619Y-57219104D01*
X139477619Y-57219104D02*
X139810952Y-56504819D01*
X139810952Y-56504819D02*
X139810952Y-57504819D01*
X140191905Y-56504819D02*
X140858571Y-57504819D01*
X140858571Y-56504819D02*
X140191905Y-57504819D01*
X141668095Y-56838152D02*
X141668095Y-57504819D01*
X141430000Y-56457200D02*
X141191905Y-57171485D01*
X141191905Y-57171485D02*
X141810952Y-57171485D01*
X179085714Y-53254819D02*
X179085714Y-52254819D01*
X179085714Y-52254819D02*
X179323809Y-52254819D01*
X179323809Y-52254819D02*
X179466666Y-52302438D01*
X179466666Y-52302438D02*
X179561904Y-52397676D01*
X179561904Y-52397676D02*
X179609523Y-52492914D01*
X179609523Y-52492914D02*
X179657142Y-52683390D01*
X179657142Y-52683390D02*
X179657142Y-52826247D01*
X179657142Y-52826247D02*
X179609523Y-53016723D01*
X179609523Y-53016723D02*
X179561904Y-53111961D01*
X179561904Y-53111961D02*
X179466666Y-53207200D01*
X179466666Y-53207200D02*
X179323809Y-53254819D01*
X179323809Y-53254819D02*
X179085714Y-53254819D01*
X180609523Y-53254819D02*
X180038095Y-53254819D01*
X180323809Y-53254819D02*
X180323809Y-52254819D01*
X180323809Y-52254819D02*
X180228571Y-52397676D01*
X180228571Y-52397676D02*
X180133333Y-52492914D01*
X180133333Y-52492914D02*
X180038095Y-52540533D01*
X181466666Y-52254819D02*
X181276190Y-52254819D01*
X181276190Y-52254819D02*
X181180952Y-52302438D01*
X181180952Y-52302438D02*
X181133333Y-52350057D01*
X181133333Y-52350057D02*
X181038095Y-52492914D01*
X181038095Y-52492914D02*
X180990476Y-52683390D01*
X180990476Y-52683390D02*
X180990476Y-53064342D01*
X180990476Y-53064342D02*
X181038095Y-53159580D01*
X181038095Y-53159580D02*
X181085714Y-53207200D01*
X181085714Y-53207200D02*
X181180952Y-53254819D01*
X181180952Y-53254819D02*
X181371428Y-53254819D01*
X181371428Y-53254819D02*
X181466666Y-53207200D01*
X181466666Y-53207200D02*
X181514285Y-53159580D01*
X181514285Y-53159580D02*
X181561904Y-53064342D01*
X181561904Y-53064342D02*
X181561904Y-52826247D01*
X181561904Y-52826247D02*
X181514285Y-52731009D01*
X181514285Y-52731009D02*
X181466666Y-52683390D01*
X181466666Y-52683390D02*
X181371428Y-52635771D01*
X181371428Y-52635771D02*
X181180952Y-52635771D01*
X181180952Y-52635771D02*
X181085714Y-52683390D01*
X181085714Y-52683390D02*
X181038095Y-52731009D01*
X181038095Y-52731009D02*
X180990476Y-52826247D01*
X159985714Y-86054819D02*
X159985714Y-85054819D01*
X159985714Y-85054819D02*
X160223809Y-85054819D01*
X160223809Y-85054819D02*
X160366666Y-85102438D01*
X160366666Y-85102438D02*
X160461904Y-85197676D01*
X160461904Y-85197676D02*
X160509523Y-85292914D01*
X160509523Y-85292914D02*
X160557142Y-85483390D01*
X160557142Y-85483390D02*
X160557142Y-85626247D01*
X160557142Y-85626247D02*
X160509523Y-85816723D01*
X160509523Y-85816723D02*
X160461904Y-85911961D01*
X160461904Y-85911961D02*
X160366666Y-86007200D01*
X160366666Y-86007200D02*
X160223809Y-86054819D01*
X160223809Y-86054819D02*
X159985714Y-86054819D01*
X161509523Y-86054819D02*
X160938095Y-86054819D01*
X161223809Y-86054819D02*
X161223809Y-85054819D01*
X161223809Y-85054819D02*
X161128571Y-85197676D01*
X161128571Y-85197676D02*
X161033333Y-85292914D01*
X161033333Y-85292914D02*
X160938095Y-85340533D01*
X162128571Y-85054819D02*
X162223809Y-85054819D01*
X162223809Y-85054819D02*
X162319047Y-85102438D01*
X162319047Y-85102438D02*
X162366666Y-85150057D01*
X162366666Y-85150057D02*
X162414285Y-85245295D01*
X162414285Y-85245295D02*
X162461904Y-85435771D01*
X162461904Y-85435771D02*
X162461904Y-85673866D01*
X162461904Y-85673866D02*
X162414285Y-85864342D01*
X162414285Y-85864342D02*
X162366666Y-85959580D01*
X162366666Y-85959580D02*
X162319047Y-86007200D01*
X162319047Y-86007200D02*
X162223809Y-86054819D01*
X162223809Y-86054819D02*
X162128571Y-86054819D01*
X162128571Y-86054819D02*
X162033333Y-86007200D01*
X162033333Y-86007200D02*
X161985714Y-85959580D01*
X161985714Y-85959580D02*
X161938095Y-85864342D01*
X161938095Y-85864342D02*
X161890476Y-85673866D01*
X161890476Y-85673866D02*
X161890476Y-85435771D01*
X161890476Y-85435771D02*
X161938095Y-85245295D01*
X161938095Y-85245295D02*
X161985714Y-85150057D01*
X161985714Y-85150057D02*
X162033333Y-85102438D01*
X162033333Y-85102438D02*
X162128571Y-85054819D01*
X113185714Y-122354819D02*
X113185714Y-121354819D01*
X113185714Y-121354819D02*
X113423809Y-121354819D01*
X113423809Y-121354819D02*
X113566666Y-121402438D01*
X113566666Y-121402438D02*
X113661904Y-121497676D01*
X113661904Y-121497676D02*
X113709523Y-121592914D01*
X113709523Y-121592914D02*
X113757142Y-121783390D01*
X113757142Y-121783390D02*
X113757142Y-121926247D01*
X113757142Y-121926247D02*
X113709523Y-122116723D01*
X113709523Y-122116723D02*
X113661904Y-122211961D01*
X113661904Y-122211961D02*
X113566666Y-122307200D01*
X113566666Y-122307200D02*
X113423809Y-122354819D01*
X113423809Y-122354819D02*
X113185714Y-122354819D01*
X114138095Y-121450057D02*
X114185714Y-121402438D01*
X114185714Y-121402438D02*
X114280952Y-121354819D01*
X114280952Y-121354819D02*
X114519047Y-121354819D01*
X114519047Y-121354819D02*
X114614285Y-121402438D01*
X114614285Y-121402438D02*
X114661904Y-121450057D01*
X114661904Y-121450057D02*
X114709523Y-121545295D01*
X114709523Y-121545295D02*
X114709523Y-121640533D01*
X114709523Y-121640533D02*
X114661904Y-121783390D01*
X114661904Y-121783390D02*
X114090476Y-122354819D01*
X114090476Y-122354819D02*
X114709523Y-122354819D01*
X115328571Y-121354819D02*
X115423809Y-121354819D01*
X115423809Y-121354819D02*
X115519047Y-121402438D01*
X115519047Y-121402438D02*
X115566666Y-121450057D01*
X115566666Y-121450057D02*
X115614285Y-121545295D01*
X115614285Y-121545295D02*
X115661904Y-121735771D01*
X115661904Y-121735771D02*
X115661904Y-121973866D01*
X115661904Y-121973866D02*
X115614285Y-122164342D01*
X115614285Y-122164342D02*
X115566666Y-122259580D01*
X115566666Y-122259580D02*
X115519047Y-122307200D01*
X115519047Y-122307200D02*
X115423809Y-122354819D01*
X115423809Y-122354819D02*
X115328571Y-122354819D01*
X115328571Y-122354819D02*
X115233333Y-122307200D01*
X115233333Y-122307200D02*
X115185714Y-122259580D01*
X115185714Y-122259580D02*
X115138095Y-122164342D01*
X115138095Y-122164342D02*
X115090476Y-121973866D01*
X115090476Y-121973866D02*
X115090476Y-121735771D01*
X115090476Y-121735771D02*
X115138095Y-121545295D01*
X115138095Y-121545295D02*
X115185714Y-121450057D01*
X115185714Y-121450057D02*
X115233333Y-121402438D01*
X115233333Y-121402438D02*
X115328571Y-121354819D01*
X81984286Y-78604819D02*
X81984286Y-77604819D01*
X81984286Y-77604819D02*
X82317619Y-78319104D01*
X82317619Y-78319104D02*
X82650952Y-77604819D01*
X82650952Y-77604819D02*
X82650952Y-78604819D01*
X83031905Y-77604819D02*
X83698571Y-78604819D01*
X83698571Y-77604819D02*
X83031905Y-78604819D01*
X84508095Y-77604819D02*
X84317619Y-77604819D01*
X84317619Y-77604819D02*
X84222381Y-77652438D01*
X84222381Y-77652438D02*
X84174762Y-77700057D01*
X84174762Y-77700057D02*
X84079524Y-77842914D01*
X84079524Y-77842914D02*
X84031905Y-78033390D01*
X84031905Y-78033390D02*
X84031905Y-78414342D01*
X84031905Y-78414342D02*
X84079524Y-78509580D01*
X84079524Y-78509580D02*
X84127143Y-78557200D01*
X84127143Y-78557200D02*
X84222381Y-78604819D01*
X84222381Y-78604819D02*
X84412857Y-78604819D01*
X84412857Y-78604819D02*
X84508095Y-78557200D01*
X84508095Y-78557200D02*
X84555714Y-78509580D01*
X84555714Y-78509580D02*
X84603333Y-78414342D01*
X84603333Y-78414342D02*
X84603333Y-78176247D01*
X84603333Y-78176247D02*
X84555714Y-78081009D01*
X84555714Y-78081009D02*
X84508095Y-78033390D01*
X84508095Y-78033390D02*
X84412857Y-77985771D01*
X84412857Y-77985771D02*
X84222381Y-77985771D01*
X84222381Y-77985771D02*
X84127143Y-78033390D01*
X84127143Y-78033390D02*
X84079524Y-78081009D01*
X84079524Y-78081009D02*
X84031905Y-78176247D01*
X179185714Y-110454819D02*
X179185714Y-109454819D01*
X179185714Y-109454819D02*
X179423809Y-109454819D01*
X179423809Y-109454819D02*
X179566666Y-109502438D01*
X179566666Y-109502438D02*
X179661904Y-109597676D01*
X179661904Y-109597676D02*
X179709523Y-109692914D01*
X179709523Y-109692914D02*
X179757142Y-109883390D01*
X179757142Y-109883390D02*
X179757142Y-110026247D01*
X179757142Y-110026247D02*
X179709523Y-110216723D01*
X179709523Y-110216723D02*
X179661904Y-110311961D01*
X179661904Y-110311961D02*
X179566666Y-110407200D01*
X179566666Y-110407200D02*
X179423809Y-110454819D01*
X179423809Y-110454819D02*
X179185714Y-110454819D01*
X180709523Y-110454819D02*
X180138095Y-110454819D01*
X180423809Y-110454819D02*
X180423809Y-109454819D01*
X180423809Y-109454819D02*
X180328571Y-109597676D01*
X180328571Y-109597676D02*
X180233333Y-109692914D01*
X180233333Y-109692914D02*
X180138095Y-109740533D01*
X181185714Y-110454819D02*
X181376190Y-110454819D01*
X181376190Y-110454819D02*
X181471428Y-110407200D01*
X181471428Y-110407200D02*
X181519047Y-110359580D01*
X181519047Y-110359580D02*
X181614285Y-110216723D01*
X181614285Y-110216723D02*
X181661904Y-110026247D01*
X181661904Y-110026247D02*
X181661904Y-109645295D01*
X181661904Y-109645295D02*
X181614285Y-109550057D01*
X181614285Y-109550057D02*
X181566666Y-109502438D01*
X181566666Y-109502438D02*
X181471428Y-109454819D01*
X181471428Y-109454819D02*
X181280952Y-109454819D01*
X181280952Y-109454819D02*
X181185714Y-109502438D01*
X181185714Y-109502438D02*
X181138095Y-109550057D01*
X181138095Y-109550057D02*
X181090476Y-109645295D01*
X181090476Y-109645295D02*
X181090476Y-109883390D01*
X181090476Y-109883390D02*
X181138095Y-109978628D01*
X181138095Y-109978628D02*
X181185714Y-110026247D01*
X181185714Y-110026247D02*
X181280952Y-110073866D01*
X181280952Y-110073866D02*
X181471428Y-110073866D01*
X181471428Y-110073866D02*
X181566666Y-110026247D01*
X181566666Y-110026247D02*
X181614285Y-109978628D01*
X181614285Y-109978628D02*
X181661904Y-109883390D01*
X82004286Y-59544819D02*
X82004286Y-58544819D01*
X82004286Y-58544819D02*
X82337619Y-59259104D01*
X82337619Y-59259104D02*
X82670952Y-58544819D01*
X82670952Y-58544819D02*
X82670952Y-59544819D01*
X83051905Y-58544819D02*
X83718571Y-59544819D01*
X83718571Y-58544819D02*
X83051905Y-59544819D01*
X84623333Y-59544819D02*
X84051905Y-59544819D01*
X84337619Y-59544819D02*
X84337619Y-58544819D01*
X84337619Y-58544819D02*
X84242381Y-58687676D01*
X84242381Y-58687676D02*
X84147143Y-58782914D01*
X84147143Y-58782914D02*
X84051905Y-58830533D01*
X58148761Y-148366021D02*
X57441655Y-147658914D01*
X57441655Y-147658914D02*
X57610013Y-147490555D01*
X57610013Y-147490555D02*
X57744700Y-147423212D01*
X57744700Y-147423212D02*
X57879387Y-147423212D01*
X57879387Y-147423212D02*
X57980403Y-147456884D01*
X57980403Y-147456884D02*
X58148761Y-147557899D01*
X58148761Y-147557899D02*
X58249777Y-147658914D01*
X58249777Y-147658914D02*
X58350792Y-147827273D01*
X58350792Y-147827273D02*
X58384464Y-147928288D01*
X58384464Y-147928288D02*
X58384464Y-148062975D01*
X58384464Y-148062975D02*
X58317120Y-148197662D01*
X58317120Y-148197662D02*
X58148761Y-148366021D01*
X58182433Y-147052823D02*
X58182433Y-146985479D01*
X58182433Y-146985479D02*
X58216105Y-146884464D01*
X58216105Y-146884464D02*
X58384464Y-146716105D01*
X58384464Y-146716105D02*
X58485479Y-146682433D01*
X58485479Y-146682433D02*
X58552822Y-146682433D01*
X58552822Y-146682433D02*
X58653838Y-146716105D01*
X58653838Y-146716105D02*
X58721181Y-146783449D01*
X58721181Y-146783449D02*
X58788525Y-146918136D01*
X58788525Y-146918136D02*
X58788525Y-147726258D01*
X58788525Y-147726258D02*
X59226257Y-147288525D01*
X58754853Y-146345716D02*
X59192586Y-145907983D01*
X59192586Y-145907983D02*
X59226258Y-146413059D01*
X59226258Y-146413059D02*
X59327273Y-146312044D01*
X59327273Y-146312044D02*
X59428288Y-146278372D01*
X59428288Y-146278372D02*
X59495632Y-146278372D01*
X59495632Y-146278372D02*
X59596647Y-146312044D01*
X59596647Y-146312044D02*
X59765006Y-146480403D01*
X59765006Y-146480403D02*
X59798677Y-146581418D01*
X59798677Y-146581418D02*
X59798677Y-146648761D01*
X59798677Y-146648761D02*
X59765006Y-146749777D01*
X59765006Y-146749777D02*
X59562975Y-146951807D01*
X59562975Y-146951807D02*
X59461960Y-146985479D01*
X59461960Y-146985479D02*
X59394616Y-146985479D01*
X89457728Y-121904946D02*
X89198909Y-120939021D01*
X89198909Y-120939021D02*
X89705755Y-121542695D01*
X89705755Y-121542695D02*
X89842860Y-120766475D01*
X89842860Y-120766475D02*
X90101679Y-121732400D01*
X90210831Y-120667877D02*
X91113601Y-121461257D01*
X90854782Y-120495331D02*
X90469650Y-121633803D01*
X91201406Y-120501051D02*
X91235078Y-120442730D01*
X91235078Y-120442730D02*
X91314746Y-120372084D01*
X91314746Y-120372084D02*
X91544729Y-120310460D01*
X91544729Y-120310460D02*
X91649046Y-120331807D01*
X91649046Y-120331807D02*
X91707368Y-120365479D01*
X91707368Y-120365479D02*
X91778013Y-120445147D01*
X91778013Y-120445147D02*
X91802663Y-120537140D01*
X91802663Y-120537140D02*
X91793641Y-120687454D01*
X91793641Y-120687454D02*
X91389580Y-121387308D01*
X91389580Y-121387308D02*
X91987534Y-121227087D01*
X92907463Y-120980593D02*
X92355505Y-121128489D01*
X92631484Y-121054541D02*
X92372665Y-120088615D01*
X92372665Y-120088615D02*
X92317646Y-120251254D01*
X92317646Y-120251254D02*
X92250303Y-120367896D01*
X92250303Y-120367896D02*
X92170635Y-120438542D01*
X120164286Y-71304819D02*
X120164286Y-70304819D01*
X120164286Y-70304819D02*
X120497619Y-71019104D01*
X120497619Y-71019104D02*
X120830952Y-70304819D01*
X120830952Y-70304819D02*
X120830952Y-71304819D01*
X121211905Y-70304819D02*
X121878571Y-71304819D01*
X121878571Y-70304819D02*
X121211905Y-71304819D01*
X122402381Y-70733390D02*
X122307143Y-70685771D01*
X122307143Y-70685771D02*
X122259524Y-70638152D01*
X122259524Y-70638152D02*
X122211905Y-70542914D01*
X122211905Y-70542914D02*
X122211905Y-70495295D01*
X122211905Y-70495295D02*
X122259524Y-70400057D01*
X122259524Y-70400057D02*
X122307143Y-70352438D01*
X122307143Y-70352438D02*
X122402381Y-70304819D01*
X122402381Y-70304819D02*
X122592857Y-70304819D01*
X122592857Y-70304819D02*
X122688095Y-70352438D01*
X122688095Y-70352438D02*
X122735714Y-70400057D01*
X122735714Y-70400057D02*
X122783333Y-70495295D01*
X122783333Y-70495295D02*
X122783333Y-70542914D01*
X122783333Y-70542914D02*
X122735714Y-70638152D01*
X122735714Y-70638152D02*
X122688095Y-70685771D01*
X122688095Y-70685771D02*
X122592857Y-70733390D01*
X122592857Y-70733390D02*
X122402381Y-70733390D01*
X122402381Y-70733390D02*
X122307143Y-70781009D01*
X122307143Y-70781009D02*
X122259524Y-70828628D01*
X122259524Y-70828628D02*
X122211905Y-70923866D01*
X122211905Y-70923866D02*
X122211905Y-71114342D01*
X122211905Y-71114342D02*
X122259524Y-71209580D01*
X122259524Y-71209580D02*
X122307143Y-71257200D01*
X122307143Y-71257200D02*
X122402381Y-71304819D01*
X122402381Y-71304819D02*
X122592857Y-71304819D01*
X122592857Y-71304819D02*
X122688095Y-71257200D01*
X122688095Y-71257200D02*
X122735714Y-71209580D01*
X122735714Y-71209580D02*
X122783333Y-71114342D01*
X122783333Y-71114342D02*
X122783333Y-70923866D01*
X122783333Y-70923866D02*
X122735714Y-70828628D01*
X122735714Y-70828628D02*
X122688095Y-70781009D01*
X122688095Y-70781009D02*
X122592857Y-70733390D01*
X141561905Y-80854819D02*
X141561905Y-79854819D01*
X141561905Y-79854819D02*
X141800000Y-79854819D01*
X141800000Y-79854819D02*
X141942857Y-79902438D01*
X141942857Y-79902438D02*
X142038095Y-79997676D01*
X142038095Y-79997676D02*
X142085714Y-80092914D01*
X142085714Y-80092914D02*
X142133333Y-80283390D01*
X142133333Y-80283390D02*
X142133333Y-80426247D01*
X142133333Y-80426247D02*
X142085714Y-80616723D01*
X142085714Y-80616723D02*
X142038095Y-80711961D01*
X142038095Y-80711961D02*
X141942857Y-80807200D01*
X141942857Y-80807200D02*
X141800000Y-80854819D01*
X141800000Y-80854819D02*
X141561905Y-80854819D01*
X142609524Y-80854819D02*
X142800000Y-80854819D01*
X142800000Y-80854819D02*
X142895238Y-80807200D01*
X142895238Y-80807200D02*
X142942857Y-80759580D01*
X142942857Y-80759580D02*
X143038095Y-80616723D01*
X143038095Y-80616723D02*
X143085714Y-80426247D01*
X143085714Y-80426247D02*
X143085714Y-80045295D01*
X143085714Y-80045295D02*
X143038095Y-79950057D01*
X143038095Y-79950057D02*
X142990476Y-79902438D01*
X142990476Y-79902438D02*
X142895238Y-79854819D01*
X142895238Y-79854819D02*
X142704762Y-79854819D01*
X142704762Y-79854819D02*
X142609524Y-79902438D01*
X142609524Y-79902438D02*
X142561905Y-79950057D01*
X142561905Y-79950057D02*
X142514286Y-80045295D01*
X142514286Y-80045295D02*
X142514286Y-80283390D01*
X142514286Y-80283390D02*
X142561905Y-80378628D01*
X142561905Y-80378628D02*
X142609524Y-80426247D01*
X142609524Y-80426247D02*
X142704762Y-80473866D01*
X142704762Y-80473866D02*
X142895238Y-80473866D01*
X142895238Y-80473866D02*
X142990476Y-80426247D01*
X142990476Y-80426247D02*
X143038095Y-80378628D01*
X143038095Y-80378628D02*
X143085714Y-80283390D01*
X100608095Y-95404819D02*
X100608095Y-94404819D01*
X100608095Y-94404819D02*
X100941428Y-95119104D01*
X100941428Y-95119104D02*
X101274761Y-94404819D01*
X101274761Y-94404819D02*
X101274761Y-95404819D01*
X101655714Y-94404819D02*
X102322380Y-95404819D01*
X102322380Y-94404819D02*
X101655714Y-95404819D01*
X103227142Y-95404819D02*
X102655714Y-95404819D01*
X102941428Y-95404819D02*
X102941428Y-94404819D01*
X102941428Y-94404819D02*
X102846190Y-94547676D01*
X102846190Y-94547676D02*
X102750952Y-94642914D01*
X102750952Y-94642914D02*
X102655714Y-94690533D01*
X103608095Y-94500057D02*
X103655714Y-94452438D01*
X103655714Y-94452438D02*
X103750952Y-94404819D01*
X103750952Y-94404819D02*
X103989047Y-94404819D01*
X103989047Y-94404819D02*
X104084285Y-94452438D01*
X104084285Y-94452438D02*
X104131904Y-94500057D01*
X104131904Y-94500057D02*
X104179523Y-94595295D01*
X104179523Y-94595295D02*
X104179523Y-94690533D01*
X104179523Y-94690533D02*
X104131904Y-94833390D01*
X104131904Y-94833390D02*
X103560476Y-95404819D01*
X103560476Y-95404819D02*
X104179523Y-95404819D01*
X83685714Y-101954819D02*
X83685714Y-100954819D01*
X83685714Y-100954819D02*
X83923809Y-100954819D01*
X83923809Y-100954819D02*
X84066666Y-101002438D01*
X84066666Y-101002438D02*
X84161904Y-101097676D01*
X84161904Y-101097676D02*
X84209523Y-101192914D01*
X84209523Y-101192914D02*
X84257142Y-101383390D01*
X84257142Y-101383390D02*
X84257142Y-101526247D01*
X84257142Y-101526247D02*
X84209523Y-101716723D01*
X84209523Y-101716723D02*
X84161904Y-101811961D01*
X84161904Y-101811961D02*
X84066666Y-101907200D01*
X84066666Y-101907200D02*
X83923809Y-101954819D01*
X83923809Y-101954819D02*
X83685714Y-101954819D01*
X85209523Y-101954819D02*
X84638095Y-101954819D01*
X84923809Y-101954819D02*
X84923809Y-100954819D01*
X84923809Y-100954819D02*
X84828571Y-101097676D01*
X84828571Y-101097676D02*
X84733333Y-101192914D01*
X84733333Y-101192914D02*
X84638095Y-101240533D01*
X86161904Y-101954819D02*
X85590476Y-101954819D01*
X85876190Y-101954819D02*
X85876190Y-100954819D01*
X85876190Y-100954819D02*
X85780952Y-101097676D01*
X85780952Y-101097676D02*
X85685714Y-101192914D01*
X85685714Y-101192914D02*
X85590476Y-101240533D01*
X141461905Y-62954819D02*
X141461905Y-61954819D01*
X141461905Y-61954819D02*
X141700000Y-61954819D01*
X141700000Y-61954819D02*
X141842857Y-62002438D01*
X141842857Y-62002438D02*
X141938095Y-62097676D01*
X141938095Y-62097676D02*
X141985714Y-62192914D01*
X141985714Y-62192914D02*
X142033333Y-62383390D01*
X142033333Y-62383390D02*
X142033333Y-62526247D01*
X142033333Y-62526247D02*
X141985714Y-62716723D01*
X141985714Y-62716723D02*
X141938095Y-62811961D01*
X141938095Y-62811961D02*
X141842857Y-62907200D01*
X141842857Y-62907200D02*
X141700000Y-62954819D01*
X141700000Y-62954819D02*
X141461905Y-62954819D01*
X142890476Y-62288152D02*
X142890476Y-62954819D01*
X142652381Y-61907200D02*
X142414286Y-62621485D01*
X142414286Y-62621485D02*
X143033333Y-62621485D01*
X84061905Y-64054819D02*
X84061905Y-63054819D01*
X84061905Y-63054819D02*
X84300000Y-63054819D01*
X84300000Y-63054819D02*
X84442857Y-63102438D01*
X84442857Y-63102438D02*
X84538095Y-63197676D01*
X84538095Y-63197676D02*
X84585714Y-63292914D01*
X84585714Y-63292914D02*
X84633333Y-63483390D01*
X84633333Y-63483390D02*
X84633333Y-63626247D01*
X84633333Y-63626247D02*
X84585714Y-63816723D01*
X84585714Y-63816723D02*
X84538095Y-63911961D01*
X84538095Y-63911961D02*
X84442857Y-64007200D01*
X84442857Y-64007200D02*
X84300000Y-64054819D01*
X84300000Y-64054819D02*
X84061905Y-64054819D01*
X85585714Y-64054819D02*
X85014286Y-64054819D01*
X85300000Y-64054819D02*
X85300000Y-63054819D01*
X85300000Y-63054819D02*
X85204762Y-63197676D01*
X85204762Y-63197676D02*
X85109524Y-63292914D01*
X85109524Y-63292914D02*
X85014286Y-63340533D01*
X139184286Y-76604819D02*
X139184286Y-75604819D01*
X139184286Y-75604819D02*
X139517619Y-76319104D01*
X139517619Y-76319104D02*
X139850952Y-75604819D01*
X139850952Y-75604819D02*
X139850952Y-76604819D01*
X140231905Y-75604819D02*
X140898571Y-76604819D01*
X140898571Y-75604819D02*
X140231905Y-76604819D01*
X141327143Y-76604819D02*
X141517619Y-76604819D01*
X141517619Y-76604819D02*
X141612857Y-76557200D01*
X141612857Y-76557200D02*
X141660476Y-76509580D01*
X141660476Y-76509580D02*
X141755714Y-76366723D01*
X141755714Y-76366723D02*
X141803333Y-76176247D01*
X141803333Y-76176247D02*
X141803333Y-75795295D01*
X141803333Y-75795295D02*
X141755714Y-75700057D01*
X141755714Y-75700057D02*
X141708095Y-75652438D01*
X141708095Y-75652438D02*
X141612857Y-75604819D01*
X141612857Y-75604819D02*
X141422381Y-75604819D01*
X141422381Y-75604819D02*
X141327143Y-75652438D01*
X141327143Y-75652438D02*
X141279524Y-75700057D01*
X141279524Y-75700057D02*
X141231905Y-75795295D01*
X141231905Y-75795295D02*
X141231905Y-76033390D01*
X141231905Y-76033390D02*
X141279524Y-76128628D01*
X141279524Y-76128628D02*
X141327143Y-76176247D01*
X141327143Y-76176247D02*
X141422381Y-76223866D01*
X141422381Y-76223866D02*
X141612857Y-76223866D01*
X141612857Y-76223866D02*
X141708095Y-76176247D01*
X141708095Y-76176247D02*
X141755714Y-76128628D01*
X141755714Y-76128628D02*
X141803333Y-76033390D01*
X179085714Y-72254819D02*
X179085714Y-71254819D01*
X179085714Y-71254819D02*
X179323809Y-71254819D01*
X179323809Y-71254819D02*
X179466666Y-71302438D01*
X179466666Y-71302438D02*
X179561904Y-71397676D01*
X179561904Y-71397676D02*
X179609523Y-71492914D01*
X179609523Y-71492914D02*
X179657142Y-71683390D01*
X179657142Y-71683390D02*
X179657142Y-71826247D01*
X179657142Y-71826247D02*
X179609523Y-72016723D01*
X179609523Y-72016723D02*
X179561904Y-72111961D01*
X179561904Y-72111961D02*
X179466666Y-72207200D01*
X179466666Y-72207200D02*
X179323809Y-72254819D01*
X179323809Y-72254819D02*
X179085714Y-72254819D01*
X180609523Y-72254819D02*
X180038095Y-72254819D01*
X180323809Y-72254819D02*
X180323809Y-71254819D01*
X180323809Y-71254819D02*
X180228571Y-71397676D01*
X180228571Y-71397676D02*
X180133333Y-71492914D01*
X180133333Y-71492914D02*
X180038095Y-71540533D01*
X180942857Y-71254819D02*
X181609523Y-71254819D01*
X181609523Y-71254819D02*
X181180952Y-72254819D01*
X73375807Y-134368976D02*
X72875807Y-133502951D01*
X72875807Y-133502951D02*
X73082003Y-133383903D01*
X73082003Y-133383903D02*
X73229531Y-133353714D01*
X73229531Y-133353714D02*
X73359628Y-133388574D01*
X73359628Y-133388574D02*
X73448487Y-133447243D01*
X73448487Y-133447243D02*
X73584964Y-133588390D01*
X73584964Y-133588390D02*
X73656393Y-133712108D01*
X73656393Y-133712108D02*
X73710391Y-133900875D01*
X73710391Y-133900875D02*
X73716771Y-134007163D01*
X73716771Y-134007163D02*
X73681912Y-134137261D01*
X73681912Y-134137261D02*
X73582003Y-134249929D01*
X73582003Y-134249929D02*
X73375807Y-134368976D01*
X73748212Y-133109239D02*
X73765642Y-133044190D01*
X73765642Y-133044190D02*
X73824311Y-132955332D01*
X73824311Y-132955332D02*
X74030507Y-132836284D01*
X74030507Y-132836284D02*
X74136795Y-132829904D01*
X74136795Y-132829904D02*
X74201844Y-132847334D01*
X74201844Y-132847334D02*
X74290703Y-132906003D01*
X74290703Y-132906003D02*
X74338322Y-132988482D01*
X74338322Y-132988482D02*
X74368511Y-133136009D01*
X74368511Y-133136009D02*
X74159354Y-133916595D01*
X74159354Y-133916595D02*
X74695464Y-133607071D01*
X74572998Y-132633048D02*
X74590428Y-132568000D01*
X74590428Y-132568000D02*
X74649097Y-132479141D01*
X74649097Y-132479141D02*
X74855293Y-132360094D01*
X74855293Y-132360094D02*
X74961582Y-132353714D01*
X74961582Y-132353714D02*
X75026630Y-132371144D01*
X75026630Y-132371144D02*
X75115489Y-132429813D01*
X75115489Y-132429813D02*
X75163108Y-132512291D01*
X75163108Y-132512291D02*
X75193297Y-132659819D01*
X75193297Y-132659819D02*
X74984140Y-133440405D01*
X74984140Y-133440405D02*
X75520251Y-133130881D01*
X176788095Y-67404819D02*
X176788095Y-66404819D01*
X176788095Y-66404819D02*
X177121428Y-67119104D01*
X177121428Y-67119104D02*
X177454761Y-66404819D01*
X177454761Y-66404819D02*
X177454761Y-67404819D01*
X177835714Y-66404819D02*
X178502380Y-67404819D01*
X178502380Y-66404819D02*
X177835714Y-67404819D01*
X179407142Y-67404819D02*
X178835714Y-67404819D01*
X179121428Y-67404819D02*
X179121428Y-66404819D01*
X179121428Y-66404819D02*
X179026190Y-66547676D01*
X179026190Y-66547676D02*
X178930952Y-66642914D01*
X178930952Y-66642914D02*
X178835714Y-66690533D01*
X179740476Y-66404819D02*
X180407142Y-66404819D01*
X180407142Y-66404819D02*
X179978571Y-67404819D01*
X103261905Y-80254819D02*
X103261905Y-79254819D01*
X103261905Y-79254819D02*
X103500000Y-79254819D01*
X103500000Y-79254819D02*
X103642857Y-79302438D01*
X103642857Y-79302438D02*
X103738095Y-79397676D01*
X103738095Y-79397676D02*
X103785714Y-79492914D01*
X103785714Y-79492914D02*
X103833333Y-79683390D01*
X103833333Y-79683390D02*
X103833333Y-79826247D01*
X103833333Y-79826247D02*
X103785714Y-80016723D01*
X103785714Y-80016723D02*
X103738095Y-80111961D01*
X103738095Y-80111961D02*
X103642857Y-80207200D01*
X103642857Y-80207200D02*
X103500000Y-80254819D01*
X103500000Y-80254819D02*
X103261905Y-80254819D01*
X104166667Y-79254819D02*
X104833333Y-79254819D01*
X104833333Y-79254819D02*
X104404762Y-80254819D01*
X119688095Y-90404819D02*
X119688095Y-89404819D01*
X119688095Y-89404819D02*
X120021428Y-90119104D01*
X120021428Y-90119104D02*
X120354761Y-89404819D01*
X120354761Y-89404819D02*
X120354761Y-90404819D01*
X120735714Y-89404819D02*
X121402380Y-90404819D01*
X121402380Y-89404819D02*
X120735714Y-90404819D01*
X122307142Y-90404819D02*
X121735714Y-90404819D01*
X122021428Y-90404819D02*
X122021428Y-89404819D01*
X122021428Y-89404819D02*
X121926190Y-89547676D01*
X121926190Y-89547676D02*
X121830952Y-89642914D01*
X121830952Y-89642914D02*
X121735714Y-89690533D01*
X122640476Y-89404819D02*
X123259523Y-89404819D01*
X123259523Y-89404819D02*
X122926190Y-89785771D01*
X122926190Y-89785771D02*
X123069047Y-89785771D01*
X123069047Y-89785771D02*
X123164285Y-89833390D01*
X123164285Y-89833390D02*
X123211904Y-89881009D01*
X123211904Y-89881009D02*
X123259523Y-89976247D01*
X123259523Y-89976247D02*
X123259523Y-90214342D01*
X123259523Y-90214342D02*
X123211904Y-90309580D01*
X123211904Y-90309580D02*
X123164285Y-90357200D01*
X123164285Y-90357200D02*
X123069047Y-90404819D01*
X123069047Y-90404819D02*
X122783333Y-90404819D01*
X122783333Y-90404819D02*
X122688095Y-90357200D01*
X122688095Y-90357200D02*
X122640476Y-90309580D01*
X138788095Y-95704819D02*
X138788095Y-94704819D01*
X138788095Y-94704819D02*
X139121428Y-95419104D01*
X139121428Y-95419104D02*
X139454761Y-94704819D01*
X139454761Y-94704819D02*
X139454761Y-95704819D01*
X139835714Y-94704819D02*
X140502380Y-95704819D01*
X140502380Y-94704819D02*
X139835714Y-95704819D01*
X141407142Y-95704819D02*
X140835714Y-95704819D01*
X141121428Y-95704819D02*
X141121428Y-94704819D01*
X141121428Y-94704819D02*
X141026190Y-94847676D01*
X141026190Y-94847676D02*
X140930952Y-94942914D01*
X140930952Y-94942914D02*
X140835714Y-94990533D01*
X142264285Y-95038152D02*
X142264285Y-95704819D01*
X142026190Y-94657200D02*
X141788095Y-95371485D01*
X141788095Y-95371485D02*
X142407142Y-95371485D01*
X103261905Y-61954819D02*
X103261905Y-60954819D01*
X103261905Y-60954819D02*
X103500000Y-60954819D01*
X103500000Y-60954819D02*
X103642857Y-61002438D01*
X103642857Y-61002438D02*
X103738095Y-61097676D01*
X103738095Y-61097676D02*
X103785714Y-61192914D01*
X103785714Y-61192914D02*
X103833333Y-61383390D01*
X103833333Y-61383390D02*
X103833333Y-61526247D01*
X103833333Y-61526247D02*
X103785714Y-61716723D01*
X103785714Y-61716723D02*
X103738095Y-61811961D01*
X103738095Y-61811961D02*
X103642857Y-61907200D01*
X103642857Y-61907200D02*
X103500000Y-61954819D01*
X103500000Y-61954819D02*
X103261905Y-61954819D01*
X104214286Y-61050057D02*
X104261905Y-61002438D01*
X104261905Y-61002438D02*
X104357143Y-60954819D01*
X104357143Y-60954819D02*
X104595238Y-60954819D01*
X104595238Y-60954819D02*
X104690476Y-61002438D01*
X104690476Y-61002438D02*
X104738095Y-61050057D01*
X104738095Y-61050057D02*
X104785714Y-61145295D01*
X104785714Y-61145295D02*
X104785714Y-61240533D01*
X104785714Y-61240533D02*
X104738095Y-61383390D01*
X104738095Y-61383390D02*
X104166667Y-61954819D01*
X104166667Y-61954819D02*
X104785714Y-61954819D01*
X179185714Y-90554819D02*
X179185714Y-89554819D01*
X179185714Y-89554819D02*
X179423809Y-89554819D01*
X179423809Y-89554819D02*
X179566666Y-89602438D01*
X179566666Y-89602438D02*
X179661904Y-89697676D01*
X179661904Y-89697676D02*
X179709523Y-89792914D01*
X179709523Y-89792914D02*
X179757142Y-89983390D01*
X179757142Y-89983390D02*
X179757142Y-90126247D01*
X179757142Y-90126247D02*
X179709523Y-90316723D01*
X179709523Y-90316723D02*
X179661904Y-90411961D01*
X179661904Y-90411961D02*
X179566666Y-90507200D01*
X179566666Y-90507200D02*
X179423809Y-90554819D01*
X179423809Y-90554819D02*
X179185714Y-90554819D01*
X180709523Y-90554819D02*
X180138095Y-90554819D01*
X180423809Y-90554819D02*
X180423809Y-89554819D01*
X180423809Y-89554819D02*
X180328571Y-89697676D01*
X180328571Y-89697676D02*
X180233333Y-89792914D01*
X180233333Y-89792914D02*
X180138095Y-89840533D01*
X181280952Y-89983390D02*
X181185714Y-89935771D01*
X181185714Y-89935771D02*
X181138095Y-89888152D01*
X181138095Y-89888152D02*
X181090476Y-89792914D01*
X181090476Y-89792914D02*
X181090476Y-89745295D01*
X181090476Y-89745295D02*
X181138095Y-89650057D01*
X181138095Y-89650057D02*
X181185714Y-89602438D01*
X181185714Y-89602438D02*
X181280952Y-89554819D01*
X181280952Y-89554819D02*
X181471428Y-89554819D01*
X181471428Y-89554819D02*
X181566666Y-89602438D01*
X181566666Y-89602438D02*
X181614285Y-89650057D01*
X181614285Y-89650057D02*
X181661904Y-89745295D01*
X181661904Y-89745295D02*
X181661904Y-89792914D01*
X181661904Y-89792914D02*
X181614285Y-89888152D01*
X181614285Y-89888152D02*
X181566666Y-89935771D01*
X181566666Y-89935771D02*
X181471428Y-89983390D01*
X181471428Y-89983390D02*
X181280952Y-89983390D01*
X181280952Y-89983390D02*
X181185714Y-90031009D01*
X181185714Y-90031009D02*
X181138095Y-90078628D01*
X181138095Y-90078628D02*
X181090476Y-90173866D01*
X181090476Y-90173866D02*
X181090476Y-90364342D01*
X181090476Y-90364342D02*
X181138095Y-90459580D01*
X181138095Y-90459580D02*
X181185714Y-90507200D01*
X181185714Y-90507200D02*
X181280952Y-90554819D01*
X181280952Y-90554819D02*
X181471428Y-90554819D01*
X181471428Y-90554819D02*
X181566666Y-90507200D01*
X181566666Y-90507200D02*
X181614285Y-90459580D01*
X181614285Y-90459580D02*
X181661904Y-90364342D01*
X181661904Y-90364342D02*
X181661904Y-90173866D01*
X181661904Y-90173866D02*
X181614285Y-90078628D01*
X181614285Y-90078628D02*
X181566666Y-90031009D01*
X181566666Y-90031009D02*
X181471428Y-89983390D01*
X81488095Y-97604819D02*
X81488095Y-96604819D01*
X81488095Y-96604819D02*
X81821428Y-97319104D01*
X81821428Y-97319104D02*
X82154761Y-96604819D01*
X82154761Y-96604819D02*
X82154761Y-97604819D01*
X82535714Y-96604819D02*
X83202380Y-97604819D01*
X83202380Y-96604819D02*
X82535714Y-97604819D01*
X84107142Y-97604819D02*
X83535714Y-97604819D01*
X83821428Y-97604819D02*
X83821428Y-96604819D01*
X83821428Y-96604819D02*
X83726190Y-96747676D01*
X83726190Y-96747676D02*
X83630952Y-96842914D01*
X83630952Y-96842914D02*
X83535714Y-96890533D01*
X85059523Y-97604819D02*
X84488095Y-97604819D01*
X84773809Y-97604819D02*
X84773809Y-96604819D01*
X84773809Y-96604819D02*
X84678571Y-96747676D01*
X84678571Y-96747676D02*
X84583333Y-96842914D01*
X84583333Y-96842914D02*
X84488095Y-96890533D01*
X122361905Y-56554819D02*
X122361905Y-55554819D01*
X122361905Y-55554819D02*
X122600000Y-55554819D01*
X122600000Y-55554819D02*
X122742857Y-55602438D01*
X122742857Y-55602438D02*
X122838095Y-55697676D01*
X122838095Y-55697676D02*
X122885714Y-55792914D01*
X122885714Y-55792914D02*
X122933333Y-55983390D01*
X122933333Y-55983390D02*
X122933333Y-56126247D01*
X122933333Y-56126247D02*
X122885714Y-56316723D01*
X122885714Y-56316723D02*
X122838095Y-56411961D01*
X122838095Y-56411961D02*
X122742857Y-56507200D01*
X122742857Y-56507200D02*
X122600000Y-56554819D01*
X122600000Y-56554819D02*
X122361905Y-56554819D01*
X123266667Y-55554819D02*
X123885714Y-55554819D01*
X123885714Y-55554819D02*
X123552381Y-55935771D01*
X123552381Y-55935771D02*
X123695238Y-55935771D01*
X123695238Y-55935771D02*
X123790476Y-55983390D01*
X123790476Y-55983390D02*
X123838095Y-56031009D01*
X123838095Y-56031009D02*
X123885714Y-56126247D01*
X123885714Y-56126247D02*
X123885714Y-56364342D01*
X123885714Y-56364342D02*
X123838095Y-56459580D01*
X123838095Y-56459580D02*
X123790476Y-56507200D01*
X123790476Y-56507200D02*
X123695238Y-56554819D01*
X123695238Y-56554819D02*
X123409524Y-56554819D01*
X123409524Y-56554819D02*
X123314286Y-56507200D01*
X123314286Y-56507200D02*
X123266667Y-56459580D01*
X101064286Y-76304819D02*
X101064286Y-75304819D01*
X101064286Y-75304819D02*
X101397619Y-76019104D01*
X101397619Y-76019104D02*
X101730952Y-75304819D01*
X101730952Y-75304819D02*
X101730952Y-76304819D01*
X102111905Y-75304819D02*
X102778571Y-76304819D01*
X102778571Y-75304819D02*
X102111905Y-76304819D01*
X103064286Y-75304819D02*
X103730952Y-75304819D01*
X103730952Y-75304819D02*
X103302381Y-76304819D01*
X157788095Y-81604819D02*
X157788095Y-80604819D01*
X157788095Y-80604819D02*
X158121428Y-81319104D01*
X158121428Y-81319104D02*
X158454761Y-80604819D01*
X158454761Y-80604819D02*
X158454761Y-81604819D01*
X158835714Y-80604819D02*
X159502380Y-81604819D01*
X159502380Y-80604819D02*
X158835714Y-81604819D01*
X160407142Y-81604819D02*
X159835714Y-81604819D01*
X160121428Y-81604819D02*
X160121428Y-80604819D01*
X160121428Y-80604819D02*
X160026190Y-80747676D01*
X160026190Y-80747676D02*
X159930952Y-80842914D01*
X159930952Y-80842914D02*
X159835714Y-80890533D01*
X161026190Y-80604819D02*
X161121428Y-80604819D01*
X161121428Y-80604819D02*
X161216666Y-80652438D01*
X161216666Y-80652438D02*
X161264285Y-80700057D01*
X161264285Y-80700057D02*
X161311904Y-80795295D01*
X161311904Y-80795295D02*
X161359523Y-80985771D01*
X161359523Y-80985771D02*
X161359523Y-81223866D01*
X161359523Y-81223866D02*
X161311904Y-81414342D01*
X161311904Y-81414342D02*
X161264285Y-81509580D01*
X161264285Y-81509580D02*
X161216666Y-81557200D01*
X161216666Y-81557200D02*
X161121428Y-81604819D01*
X161121428Y-81604819D02*
X161026190Y-81604819D01*
X161026190Y-81604819D02*
X160930952Y-81557200D01*
X160930952Y-81557200D02*
X160883333Y-81509580D01*
X160883333Y-81509580D02*
X160835714Y-81414342D01*
X160835714Y-81414342D02*
X160788095Y-81223866D01*
X160788095Y-81223866D02*
X160788095Y-80985771D01*
X160788095Y-80985771D02*
X160835714Y-80795295D01*
X160835714Y-80795295D02*
X160883333Y-80700057D01*
X160883333Y-80700057D02*
X160930952Y-80652438D01*
X160930952Y-80652438D02*
X161026190Y-80604819D01*
X69845947Y-131684293D02*
X69345947Y-130818267D01*
X69345947Y-130818267D02*
X69991765Y-131270190D01*
X69991765Y-131270190D02*
X69923297Y-130484934D01*
X69923297Y-130484934D02*
X70423297Y-131350959D01*
X70253211Y-130294458D02*
X71330562Y-130827150D01*
X70830562Y-129961125D02*
X70753211Y-131160483D01*
X71166856Y-129876936D02*
X71184286Y-129811888D01*
X71184286Y-129811888D02*
X71242955Y-129723029D01*
X71242955Y-129723029D02*
X71449151Y-129603982D01*
X71449151Y-129603982D02*
X71555439Y-129597602D01*
X71555439Y-129597602D02*
X71620488Y-129615032D01*
X71620488Y-129615032D02*
X71709347Y-129673701D01*
X71709347Y-129673701D02*
X71756966Y-129756179D01*
X71756966Y-129756179D02*
X71787155Y-129903707D01*
X71787155Y-129903707D02*
X71577997Y-130684293D01*
X71577997Y-130684293D02*
X72114108Y-130374769D01*
X71991642Y-129400746D02*
X72009072Y-129335697D01*
X72009072Y-129335697D02*
X72067741Y-129246839D01*
X72067741Y-129246839D02*
X72273937Y-129127791D01*
X72273937Y-129127791D02*
X72380225Y-129121411D01*
X72380225Y-129121411D02*
X72445274Y-129138841D01*
X72445274Y-129138841D02*
X72534133Y-129197510D01*
X72534133Y-129197510D02*
X72581752Y-129279989D01*
X72581752Y-129279989D02*
X72611941Y-129427516D01*
X72611941Y-129427516D02*
X72402784Y-130208102D01*
X72402784Y-130208102D02*
X72938895Y-129898578D01*
X49554813Y-115033334D02*
X50269098Y-115033334D01*
X50269098Y-115033334D02*
X50411955Y-115080953D01*
X50411955Y-115080953D02*
X50507194Y-115176191D01*
X50507194Y-115176191D02*
X50554813Y-115319048D01*
X50554813Y-115319048D02*
X50554813Y-115414286D01*
X50554813Y-114033334D02*
X50554813Y-114604762D01*
X50554813Y-114319048D02*
X49554813Y-114319048D01*
X49554813Y-114319048D02*
X49697670Y-114414286D01*
X49697670Y-114414286D02*
X49792908Y-114509524D01*
X49792908Y-114509524D02*
X49840527Y-114604762D01*
X84161905Y-82654819D02*
X84161905Y-81654819D01*
X84161905Y-81654819D02*
X84400000Y-81654819D01*
X84400000Y-81654819D02*
X84542857Y-81702438D01*
X84542857Y-81702438D02*
X84638095Y-81797676D01*
X84638095Y-81797676D02*
X84685714Y-81892914D01*
X84685714Y-81892914D02*
X84733333Y-82083390D01*
X84733333Y-82083390D02*
X84733333Y-82226247D01*
X84733333Y-82226247D02*
X84685714Y-82416723D01*
X84685714Y-82416723D02*
X84638095Y-82511961D01*
X84638095Y-82511961D02*
X84542857Y-82607200D01*
X84542857Y-82607200D02*
X84400000Y-82654819D01*
X84400000Y-82654819D02*
X84161905Y-82654819D01*
X85590476Y-81654819D02*
X85400000Y-81654819D01*
X85400000Y-81654819D02*
X85304762Y-81702438D01*
X85304762Y-81702438D02*
X85257143Y-81750057D01*
X85257143Y-81750057D02*
X85161905Y-81892914D01*
X85161905Y-81892914D02*
X85114286Y-82083390D01*
X85114286Y-82083390D02*
X85114286Y-82464342D01*
X85114286Y-82464342D02*
X85161905Y-82559580D01*
X85161905Y-82559580D02*
X85209524Y-82607200D01*
X85209524Y-82607200D02*
X85304762Y-82654819D01*
X85304762Y-82654819D02*
X85495238Y-82654819D01*
X85495238Y-82654819D02*
X85590476Y-82607200D01*
X85590476Y-82607200D02*
X85638095Y-82559580D01*
X85638095Y-82559580D02*
X85685714Y-82464342D01*
X85685714Y-82464342D02*
X85685714Y-82226247D01*
X85685714Y-82226247D02*
X85638095Y-82131009D01*
X85638095Y-82131009D02*
X85590476Y-82083390D01*
X85590476Y-82083390D02*
X85495238Y-82035771D01*
X85495238Y-82035771D02*
X85304762Y-82035771D01*
X85304762Y-82035771D02*
X85209524Y-82083390D01*
X85209524Y-82083390D02*
X85161905Y-82131009D01*
X85161905Y-82131009D02*
X85114286Y-82226247D01*
X53541007Y-146327329D02*
X52833901Y-145620222D01*
X52833901Y-145620222D02*
X53574679Y-145889596D01*
X53574679Y-145889596D02*
X53305305Y-145148818D01*
X53305305Y-145148818D02*
X54012412Y-145855924D01*
X53574679Y-144879444D02*
X54753190Y-145115146D01*
X54046083Y-144408039D02*
X54281786Y-145586551D01*
X54349129Y-144239680D02*
X54349129Y-144172337D01*
X54349129Y-144172337D02*
X54382801Y-144071322D01*
X54382801Y-144071322D02*
X54551160Y-143902963D01*
X54551160Y-143902963D02*
X54652175Y-143869291D01*
X54652175Y-143869291D02*
X54719519Y-143869291D01*
X54719519Y-143869291D02*
X54820534Y-143902963D01*
X54820534Y-143902963D02*
X54887877Y-143970306D01*
X54887877Y-143970306D02*
X54955221Y-144104993D01*
X54955221Y-144104993D02*
X54955221Y-144913115D01*
X54955221Y-144913115D02*
X55392954Y-144475383D01*
X54921549Y-143532574D02*
X55359282Y-143094841D01*
X55359282Y-143094841D02*
X55392954Y-143599917D01*
X55392954Y-143599917D02*
X55493969Y-143498902D01*
X55493969Y-143498902D02*
X55594984Y-143465230D01*
X55594984Y-143465230D02*
X55662328Y-143465230D01*
X55662328Y-143465230D02*
X55763343Y-143498902D01*
X55763343Y-143498902D02*
X55931702Y-143667261D01*
X55931702Y-143667261D02*
X55965373Y-143768276D01*
X55965373Y-143768276D02*
X55965373Y-143835619D01*
X55965373Y-143835619D02*
X55931702Y-143936635D01*
X55931702Y-143936635D02*
X55729671Y-144138665D01*
X55729671Y-144138665D02*
X55628656Y-144172337D01*
X55628656Y-144172337D02*
X55561312Y-144172337D01*
X158144286Y-62504819D02*
X158144286Y-61504819D01*
X158144286Y-61504819D02*
X158477619Y-62219104D01*
X158477619Y-62219104D02*
X158810952Y-61504819D01*
X158810952Y-61504819D02*
X158810952Y-62504819D01*
X159191905Y-61504819D02*
X159858571Y-62504819D01*
X159858571Y-61504819D02*
X159191905Y-62504819D01*
X160715714Y-61504819D02*
X160239524Y-61504819D01*
X160239524Y-61504819D02*
X160191905Y-61981009D01*
X160191905Y-61981009D02*
X160239524Y-61933390D01*
X160239524Y-61933390D02*
X160334762Y-61885771D01*
X160334762Y-61885771D02*
X160572857Y-61885771D01*
X160572857Y-61885771D02*
X160668095Y-61933390D01*
X160668095Y-61933390D02*
X160715714Y-61981009D01*
X160715714Y-61981009D02*
X160763333Y-62076247D01*
X160763333Y-62076247D02*
X160763333Y-62314342D01*
X160763333Y-62314342D02*
X160715714Y-62409580D01*
X160715714Y-62409580D02*
X160668095Y-62457200D01*
X160668095Y-62457200D02*
X160572857Y-62504819D01*
X160572857Y-62504819D02*
X160334762Y-62504819D01*
X160334762Y-62504819D02*
X160239524Y-62457200D01*
X160239524Y-62457200D02*
X160191905Y-62409580D01*
X121985714Y-95154819D02*
X121985714Y-94154819D01*
X121985714Y-94154819D02*
X122223809Y-94154819D01*
X122223809Y-94154819D02*
X122366666Y-94202438D01*
X122366666Y-94202438D02*
X122461904Y-94297676D01*
X122461904Y-94297676D02*
X122509523Y-94392914D01*
X122509523Y-94392914D02*
X122557142Y-94583390D01*
X122557142Y-94583390D02*
X122557142Y-94726247D01*
X122557142Y-94726247D02*
X122509523Y-94916723D01*
X122509523Y-94916723D02*
X122461904Y-95011961D01*
X122461904Y-95011961D02*
X122366666Y-95107200D01*
X122366666Y-95107200D02*
X122223809Y-95154819D01*
X122223809Y-95154819D02*
X121985714Y-95154819D01*
X123509523Y-95154819D02*
X122938095Y-95154819D01*
X123223809Y-95154819D02*
X123223809Y-94154819D01*
X123223809Y-94154819D02*
X123128571Y-94297676D01*
X123128571Y-94297676D02*
X123033333Y-94392914D01*
X123033333Y-94392914D02*
X122938095Y-94440533D01*
X123842857Y-94154819D02*
X124461904Y-94154819D01*
X124461904Y-94154819D02*
X124128571Y-94535771D01*
X124128571Y-94535771D02*
X124271428Y-94535771D01*
X124271428Y-94535771D02*
X124366666Y-94583390D01*
X124366666Y-94583390D02*
X124414285Y-94631009D01*
X124414285Y-94631009D02*
X124461904Y-94726247D01*
X124461904Y-94726247D02*
X124461904Y-94964342D01*
X124461904Y-94964342D02*
X124414285Y-95059580D01*
X124414285Y-95059580D02*
X124366666Y-95107200D01*
X124366666Y-95107200D02*
X124271428Y-95154819D01*
X124271428Y-95154819D02*
X123985714Y-95154819D01*
X123985714Y-95154819D02*
X123890476Y-95107200D01*
X123890476Y-95107200D02*
X123842857Y-95059580D01*
X160461905Y-67754819D02*
X160461905Y-66754819D01*
X160461905Y-66754819D02*
X160700000Y-66754819D01*
X160700000Y-66754819D02*
X160842857Y-66802438D01*
X160842857Y-66802438D02*
X160938095Y-66897676D01*
X160938095Y-66897676D02*
X160985714Y-66992914D01*
X160985714Y-66992914D02*
X161033333Y-67183390D01*
X161033333Y-67183390D02*
X161033333Y-67326247D01*
X161033333Y-67326247D02*
X160985714Y-67516723D01*
X160985714Y-67516723D02*
X160938095Y-67611961D01*
X160938095Y-67611961D02*
X160842857Y-67707200D01*
X160842857Y-67707200D02*
X160700000Y-67754819D01*
X160700000Y-67754819D02*
X160461905Y-67754819D01*
X161938095Y-66754819D02*
X161461905Y-66754819D01*
X161461905Y-66754819D02*
X161414286Y-67231009D01*
X161414286Y-67231009D02*
X161461905Y-67183390D01*
X161461905Y-67183390D02*
X161557143Y-67135771D01*
X161557143Y-67135771D02*
X161795238Y-67135771D01*
X161795238Y-67135771D02*
X161890476Y-67183390D01*
X161890476Y-67183390D02*
X161938095Y-67231009D01*
X161938095Y-67231009D02*
X161985714Y-67326247D01*
X161985714Y-67326247D02*
X161985714Y-67564342D01*
X161985714Y-67564342D02*
X161938095Y-67659580D01*
X161938095Y-67659580D02*
X161890476Y-67707200D01*
X161890476Y-67707200D02*
X161795238Y-67754819D01*
X161795238Y-67754819D02*
X161557143Y-67754819D01*
X161557143Y-67754819D02*
X161461905Y-67707200D01*
X161461905Y-67707200D02*
X161414286Y-67659580D01*
D11*
X73000000Y-111560000D02*
X75000000Y-111560000D01*
X73000000Y-111560000D02*
X73000000Y-107550000D01*
X75000000Y-111560000D02*
X75000000Y-107550000D01*
D10*
X101715176Y-51849780D02*
X101715176Y-52079780D01*
X101715176Y-54929780D02*
X101715176Y-55399780D01*
X102215176Y-55899780D02*
X106780000Y-55899780D01*
X103265176Y-51849780D02*
X101715176Y-51849780D01*
X110665176Y-51849780D02*
X104765176Y-51849780D01*
X112665176Y-54649780D02*
X112665176Y-53849780D01*
X112665176Y-57499780D02*
X112665176Y-57739780D01*
X101715176Y-55399780D02*
G75*
G03*
X102215176Y-55899780I500001J1D01*
G01*
X109074322Y-57739780D02*
G75*
G03*
X106780000Y-55899780I-2293456J-509332D01*
G01*
X112665180Y-53849780D02*
G75*
G03*
X110665176Y-51849780I-2000000J0D01*
G01*
X158935176Y-95149780D02*
X158935176Y-95379780D01*
X158935176Y-98229780D02*
X158935176Y-98699780D01*
X159435176Y-99199780D02*
X164000000Y-99199780D01*
X160485176Y-95149780D02*
X158935176Y-95149780D01*
X167885176Y-95149780D02*
X161985176Y-95149780D01*
X169885176Y-97949780D02*
X169885176Y-97149780D01*
X169885176Y-100799780D02*
X169885176Y-101039780D01*
X158935176Y-98699780D02*
G75*
G03*
X159435176Y-99199780I500001J1D01*
G01*
X166294322Y-101039780D02*
G75*
G03*
X164000000Y-99199780I-2293456J-509332D01*
G01*
X169885180Y-97149780D02*
G75*
G03*
X167885176Y-95149780I-2000000J0D01*
G01*
D11*
X158940000Y-105200000D02*
X158940000Y-107200000D01*
X158940000Y-105200000D02*
X162950000Y-105200000D01*
X158940000Y-107200000D02*
X162950000Y-107200000D01*
D10*
X120815176Y-46749780D02*
X120815176Y-46979780D01*
X120815176Y-49829780D02*
X120815176Y-50299780D01*
X121315176Y-50799780D02*
X125880000Y-50799780D01*
X122365176Y-46749780D02*
X120815176Y-46749780D01*
X129765176Y-46749780D02*
X123865176Y-46749780D01*
X131765176Y-49549780D02*
X131765176Y-48749780D01*
X131765176Y-52399780D02*
X131765176Y-52639780D01*
X120815176Y-50299780D02*
G75*
G03*
X121315176Y-50799780I500001J1D01*
G01*
X128174322Y-52639780D02*
G75*
G03*
X125880000Y-50799780I-2293456J-509332D01*
G01*
X131765180Y-48749780D02*
G75*
G03*
X129765176Y-46749780I-2000000J0D01*
G01*
D11*
X120840000Y-75800000D02*
X120840000Y-77800000D01*
X120840000Y-75800000D02*
X124850000Y-75800000D01*
X120840000Y-77800000D02*
X124850000Y-77800000D01*
X91861596Y-126444887D02*
X92379234Y-128376739D01*
X91861596Y-126444887D02*
X95734959Y-125407023D01*
X92379234Y-128376739D02*
X96252597Y-127338874D01*
D10*
X177935176Y-42949780D02*
X177935176Y-43179780D01*
X177935176Y-46029780D02*
X177935176Y-46499780D01*
X178435176Y-46999780D02*
X183000000Y-46999780D01*
X179485176Y-42949780D02*
X177935176Y-42949780D01*
X186885176Y-42949780D02*
X180985176Y-42949780D01*
X188885176Y-45749780D02*
X188885176Y-44949780D01*
X188885176Y-48599780D02*
X188885176Y-48839780D01*
X177935176Y-46499780D02*
G75*
G03*
X178435176Y-46999780I500001J1D01*
G01*
X185294322Y-48839780D02*
G75*
G03*
X183000000Y-46999780I-2293456J-509332D01*
G01*
X188885180Y-44949780D02*
G75*
G03*
X186885176Y-42949780I-2000000J0D01*
G01*
X111955176Y-112049780D02*
X111955176Y-112279780D01*
X111955176Y-115129780D02*
X111955176Y-115599780D01*
X112455176Y-116099780D02*
X117020000Y-116099780D01*
X113505176Y-112049780D02*
X111955176Y-112049780D01*
X120905176Y-112049780D02*
X115005176Y-112049780D01*
X122905176Y-114849780D02*
X122905176Y-114049780D01*
X122905176Y-117699780D02*
X122905176Y-117939780D01*
X111955176Y-115599780D02*
G75*
G03*
X112455176Y-116099780I500001J1D01*
G01*
X119314322Y-117939780D02*
G75*
G03*
X117020000Y-116099780I-2293456J-509332D01*
G01*
X122905180Y-114049780D02*
G75*
G03*
X120905176Y-112049780I-2000000J0D01*
G01*
D11*
X139940000Y-100700000D02*
X139940000Y-102700000D01*
X139940000Y-100700000D02*
X143950000Y-100700000D01*
X139940000Y-102700000D02*
X143950000Y-102700000D01*
D10*
X178035176Y-99949780D02*
X178035176Y-100179780D01*
X178035176Y-103029780D02*
X178035176Y-103499780D01*
X178535176Y-103999780D02*
X183100000Y-103999780D01*
X179585176Y-99949780D02*
X178035176Y-99949780D01*
X186985176Y-99949780D02*
X181085176Y-99949780D01*
X188985176Y-102749780D02*
X188985176Y-101949780D01*
X188985176Y-105599780D02*
X188985176Y-105839780D01*
X178035176Y-103499780D02*
G75*
G03*
X178535176Y-103999780I500001J1D01*
G01*
X185394322Y-105839780D02*
G75*
G03*
X183100000Y-103999780I-2293456J-509332D01*
G01*
X188985180Y-101949780D02*
G75*
G03*
X186985176Y-99949780I-2000000J0D01*
G01*
D11*
X101640000Y-100100000D02*
X101640000Y-102100000D01*
X101640000Y-100100000D02*
X105650000Y-100100000D01*
X101640000Y-102100000D02*
X105650000Y-102100000D01*
D10*
X177935176Y-80949780D02*
X177935176Y-81179780D01*
X177935176Y-84029780D02*
X177935176Y-84499780D01*
X178435176Y-84999780D02*
X183000000Y-84999780D01*
X179485176Y-80949780D02*
X177935176Y-80949780D01*
X186885176Y-80949780D02*
X180985176Y-80949780D01*
X188885176Y-83749780D02*
X188885176Y-82949780D01*
X188885176Y-86599780D02*
X188885176Y-86839780D01*
X177935176Y-84499780D02*
G75*
G03*
X178435176Y-84999780I500001J1D01*
G01*
X185294322Y-86839780D02*
G75*
G03*
X183000000Y-84999780I-2293456J-509332D01*
G01*
X188885180Y-82949780D02*
G75*
G03*
X186885176Y-80949780I-2000000J0D01*
G01*
D12*
X57500000Y-103450000D02*
X57500000Y-116850000D01*
X57500000Y-103450000D02*
X69900000Y-103450000D01*
X57500000Y-116850000D02*
X69900000Y-116850000D01*
X69900000Y-103450000D02*
X69900000Y-116850000D01*
D10*
X139815176Y-52049780D02*
X139815176Y-52279780D01*
X139815176Y-55129780D02*
X139815176Y-55599780D01*
X140315176Y-56099780D02*
X144880000Y-56099780D01*
X141365176Y-52049780D02*
X139815176Y-52049780D01*
X148765176Y-52049780D02*
X142865176Y-52049780D01*
X150765176Y-54849780D02*
X150765176Y-54049780D01*
X150765176Y-57699780D02*
X150765176Y-57939780D01*
X139815176Y-55599780D02*
G75*
G03*
X140315176Y-56099780I500001J1D01*
G01*
X147174322Y-57939780D02*
G75*
G03*
X144880000Y-56099780I-2293456J-509332D01*
G01*
X150765180Y-54049780D02*
G75*
G03*
X148765176Y-52049780I-2000000J0D01*
G01*
D11*
X177940000Y-53800000D02*
X177940000Y-55800000D01*
X177940000Y-53800000D02*
X181950000Y-53800000D01*
X177940000Y-55800000D02*
X181950000Y-55800000D01*
X158840000Y-86600000D02*
X158840000Y-88600000D01*
X158840000Y-86600000D02*
X162850000Y-86600000D01*
X158840000Y-88600000D02*
X162850000Y-88600000D01*
X112040000Y-122900000D02*
X112040000Y-124900000D01*
X112040000Y-122900000D02*
X116050000Y-122900000D01*
X112040000Y-124900000D02*
X116050000Y-124900000D01*
D10*
X82655176Y-73149780D02*
X82655176Y-73379780D01*
X82655176Y-76229780D02*
X82655176Y-76699780D01*
X83155176Y-77199780D02*
X87720000Y-77199780D01*
X84205176Y-73149780D02*
X82655176Y-73149780D01*
X91605176Y-73149780D02*
X85705176Y-73149780D01*
X93605176Y-75949780D02*
X93605176Y-75149780D01*
X93605176Y-78799780D02*
X93605176Y-79039780D01*
X82655176Y-76699780D02*
G75*
G03*
X83155176Y-77199780I500001J1D01*
G01*
X90014322Y-79039780D02*
G75*
G03*
X87720000Y-77199780I-2293456J-509332D01*
G01*
X93605180Y-75149780D02*
G75*
G03*
X91605176Y-73149780I-2000000J0D01*
G01*
D11*
X178040000Y-111000000D02*
X178040000Y-113000000D01*
X178040000Y-111000000D02*
X182050000Y-111000000D01*
X178040000Y-113000000D02*
X182050000Y-113000000D01*
D10*
X82675176Y-54089780D02*
X82675176Y-54319780D01*
X82675176Y-57169780D02*
X82675176Y-57639780D01*
X83175176Y-58139780D02*
X87740000Y-58139780D01*
X84225176Y-54089780D02*
X82675176Y-54089780D01*
X91625176Y-54089780D02*
X85725176Y-54089780D01*
X93625176Y-56889780D02*
X93625176Y-56089780D01*
X93625176Y-59739780D02*
X93625176Y-59979780D01*
X82675176Y-57639780D02*
G75*
G03*
X83175176Y-58139780I500001J1D01*
G01*
X90034322Y-59979780D02*
G75*
G03*
X87740000Y-58139780I-2293456J-509332D01*
G01*
X93625180Y-56089780D02*
G75*
G03*
X91625176Y-54089780I-2000000J0D01*
G01*
D11*
X57724121Y-149561665D02*
X59138335Y-150975879D01*
X57724121Y-149561665D02*
X60559619Y-146726167D01*
X59138335Y-150975879D02*
X61973833Y-148140381D01*
D10*
X89153855Y-116338897D02*
X89213384Y-116561060D01*
X89951018Y-119313949D02*
X90072663Y-119767934D01*
X90685035Y-120121487D02*
X95094317Y-118940024D01*
X90651040Y-115937728D02*
X89153855Y-116338897D01*
X97798892Y-114022467D02*
X92099929Y-115549499D01*
X100455436Y-116209421D02*
X100248381Y-115436680D01*
X101193071Y-118962310D02*
X101255187Y-119194132D01*
X90072664Y-119767934D02*
G75*
G03*
X90685035Y-120121486I482963J129411D01*
G01*
X97786688Y-120123514D02*
G75*
G03*
X95094317Y-118940025I-2083483J-1085566D01*
G01*
X100248384Y-115436679D02*
G75*
G03*
X97798892Y-114022467I-1931851J-517638D01*
G01*
X120835176Y-65849780D02*
X120835176Y-66079780D01*
X120835176Y-68929780D02*
X120835176Y-69399780D01*
X121335176Y-69899780D02*
X125900000Y-69899780D01*
X122385176Y-65849780D02*
X120835176Y-65849780D01*
X129785176Y-65849780D02*
X123885176Y-65849780D01*
X131785176Y-68649780D02*
X131785176Y-67849780D01*
X131785176Y-71499780D02*
X131785176Y-71739780D01*
X120835176Y-69399780D02*
G75*
G03*
X121335176Y-69899780I500001J1D01*
G01*
X128194322Y-71739780D02*
G75*
G03*
X125900000Y-69899780I-2293456J-509332D01*
G01*
X131785180Y-67849780D02*
G75*
G03*
X129785176Y-65849780I-2000000J0D01*
G01*
D11*
X139940000Y-81400000D02*
X139940000Y-83400000D01*
X139940000Y-81400000D02*
X143950000Y-81400000D01*
X139940000Y-83400000D02*
X143950000Y-83400000D01*
D10*
X101755176Y-89949780D02*
X101755176Y-90179780D01*
X101755176Y-93029780D02*
X101755176Y-93499780D01*
X102255176Y-93999780D02*
X106820000Y-93999780D01*
X103305176Y-89949780D02*
X101755176Y-89949780D01*
X110705176Y-89949780D02*
X104805176Y-89949780D01*
X112705176Y-92749780D02*
X112705176Y-91949780D01*
X112705176Y-95599780D02*
X112705176Y-95839780D01*
X101755176Y-93499780D02*
G75*
G03*
X102255176Y-93999780I500001J1D01*
G01*
X109114322Y-95839780D02*
G75*
G03*
X106820000Y-93999780I-2293456J-509332D01*
G01*
X112705180Y-91949780D02*
G75*
G03*
X110705176Y-89949780I-2000000J0D01*
G01*
D11*
X82540000Y-102500000D02*
X82540000Y-104500000D01*
X82540000Y-102500000D02*
X86550000Y-102500000D01*
X82540000Y-104500000D02*
X86550000Y-104500000D01*
X139840000Y-63500000D02*
X139840000Y-65500000D01*
X139840000Y-63500000D02*
X143850000Y-63500000D01*
X139840000Y-65500000D02*
X143850000Y-65500000D01*
X82440000Y-64600000D02*
X82440000Y-66600000D01*
X82440000Y-64600000D02*
X86450000Y-64600000D01*
X82440000Y-66600000D02*
X86450000Y-66600000D01*
D10*
X139855176Y-71149780D02*
X139855176Y-71379780D01*
X139855176Y-74229780D02*
X139855176Y-74699780D01*
X140355176Y-75199780D02*
X144920000Y-75199780D01*
X141405176Y-71149780D02*
X139855176Y-71149780D01*
X148805176Y-71149780D02*
X142905176Y-71149780D01*
X150805176Y-73949780D02*
X150805176Y-73149780D01*
X150805176Y-76799780D02*
X150805176Y-77039780D01*
X139855176Y-74699780D02*
G75*
G03*
X140355176Y-75199780I500001J1D01*
G01*
X147214322Y-77039780D02*
G75*
G03*
X144920000Y-75199780I-2293456J-509332D01*
G01*
X150805180Y-73149780D02*
G75*
G03*
X148805176Y-71149780I-2000000J0D01*
G01*
D11*
X177940000Y-72800000D02*
X177940000Y-74800000D01*
X177940000Y-72800000D02*
X181950000Y-72800000D01*
X177940000Y-74800000D02*
X181950000Y-74800000D01*
X72656180Y-135413975D02*
X73656180Y-137146025D01*
X72656180Y-135413975D02*
X76128942Y-133408975D01*
X73656180Y-137146025D02*
X77128942Y-135141025D01*
D10*
X177935176Y-61949780D02*
X177935176Y-62179780D01*
X177935176Y-65029780D02*
X177935176Y-65499780D01*
X178435176Y-65999780D02*
X183000000Y-65999780D01*
X179485176Y-61949780D02*
X177935176Y-61949780D01*
X186885176Y-61949780D02*
X180985176Y-61949780D01*
X188885176Y-64749780D02*
X188885176Y-63949780D01*
X188885176Y-67599780D02*
X188885176Y-67839780D01*
X177935176Y-65499780D02*
G75*
G03*
X178435176Y-65999780I500001J1D01*
G01*
X185294322Y-67839780D02*
G75*
G03*
X183000000Y-65999780I-2293456J-509332D01*
G01*
X188885180Y-63949780D02*
G75*
G03*
X186885176Y-61949780I-2000000J0D01*
G01*
D11*
X101640000Y-80800000D02*
X101640000Y-82800000D01*
X101640000Y-80800000D02*
X105650000Y-80800000D01*
X101640000Y-82800000D02*
X105650000Y-82800000D01*
D10*
X120835176Y-84949780D02*
X120835176Y-85179780D01*
X120835176Y-88029780D02*
X120835176Y-88499780D01*
X121335176Y-88999780D02*
X125900000Y-88999780D01*
X122385176Y-84949780D02*
X120835176Y-84949780D01*
X129785176Y-84949780D02*
X123885176Y-84949780D01*
X131785176Y-87749780D02*
X131785176Y-86949780D01*
X131785176Y-90599780D02*
X131785176Y-90839780D01*
X120835176Y-88499780D02*
G75*
G03*
X121335176Y-88999780I500001J1D01*
G01*
X128194322Y-90839780D02*
G75*
G03*
X125900000Y-88999780I-2293456J-509332D01*
G01*
X131785180Y-86949780D02*
G75*
G03*
X129785176Y-84949780I-2000000J0D01*
G01*
X139935176Y-90249780D02*
X139935176Y-90479780D01*
X139935176Y-93329780D02*
X139935176Y-93799780D01*
X140435176Y-94299780D02*
X145000000Y-94299780D01*
X141485176Y-90249780D02*
X139935176Y-90249780D01*
X148885176Y-90249780D02*
X142985176Y-90249780D01*
X150885176Y-93049780D02*
X150885176Y-92249780D01*
X150885176Y-95899780D02*
X150885176Y-96139780D01*
X139935176Y-93799780D02*
G75*
G03*
X140435176Y-94299780I500001J1D01*
G01*
X147294322Y-96139780D02*
G75*
G03*
X145000000Y-94299780I-2293456J-509332D01*
G01*
X150885180Y-92249780D02*
G75*
G03*
X148885176Y-90249780I-2000000J0D01*
G01*
D11*
X101640000Y-62500000D02*
X101640000Y-64500000D01*
X101640000Y-62500000D02*
X105650000Y-62500000D01*
X101640000Y-64500000D02*
X105650000Y-64500000D01*
X178040000Y-91100000D02*
X178040000Y-93100000D01*
X178040000Y-91100000D02*
X182050000Y-91100000D01*
X178040000Y-93100000D02*
X182050000Y-93100000D01*
D10*
X82635176Y-92149780D02*
X82635176Y-92379780D01*
X82635176Y-95229780D02*
X82635176Y-95699780D01*
X83135176Y-96199780D02*
X87700000Y-96199780D01*
X84185176Y-92149780D02*
X82635176Y-92149780D01*
X91585176Y-92149780D02*
X85685176Y-92149780D01*
X93585176Y-94949780D02*
X93585176Y-94149780D01*
X93585176Y-97799780D02*
X93585176Y-98039780D01*
X82635176Y-95699780D02*
G75*
G03*
X83135176Y-96199780I500001J1D01*
G01*
X89994322Y-98039780D02*
G75*
G03*
X87700000Y-96199780I-2293456J-509332D01*
G01*
X93585180Y-94149780D02*
G75*
G03*
X91585176Y-92149780I-2000000J0D01*
G01*
D11*
X120740000Y-57100000D02*
X120740000Y-59100000D01*
X120740000Y-57100000D02*
X124750000Y-57100000D01*
X120740000Y-59100000D02*
X124750000Y-59100000D01*
D10*
X101735176Y-70849780D02*
X101735176Y-71079780D01*
X101735176Y-73929780D02*
X101735176Y-74399780D01*
X102235176Y-74899780D02*
X106800000Y-74899780D01*
X103285176Y-70849780D02*
X101735176Y-70849780D01*
X110685176Y-70849780D02*
X104785176Y-70849780D01*
X112685176Y-73649780D02*
X112685176Y-72849780D01*
X112685176Y-76499780D02*
X112685176Y-76739780D01*
X101735176Y-74399780D02*
G75*
G03*
X102235176Y-74899780I500001J1D01*
G01*
X109094322Y-76739780D02*
G75*
G03*
X106800000Y-74899780I-2293456J-509332D01*
G01*
X112685180Y-72849780D02*
G75*
G03*
X110685176Y-70849780I-2000000J0D01*
G01*
X158935176Y-76149780D02*
X158935176Y-76379780D01*
X158935176Y-79229780D02*
X158935176Y-79699780D01*
X159435176Y-80199780D02*
X164000000Y-80199780D01*
X160485176Y-76149780D02*
X158935176Y-76149780D01*
X167885176Y-76149780D02*
X161985176Y-76149780D01*
X169885176Y-78949780D02*
X169885176Y-78149780D01*
X169885176Y-81799780D02*
X169885176Y-82039780D01*
X158935176Y-79699780D02*
G75*
G03*
X159435176Y-80199780I500001J1D01*
G01*
X166294322Y-82039780D02*
G75*
G03*
X164000000Y-80199780I-2293456J-509332D01*
G01*
X169885180Y-78149780D02*
G75*
G03*
X167885176Y-76149780I-2000000J0D01*
G01*
X68111829Y-126386550D02*
X68226829Y-126585736D01*
X69651829Y-129053908D02*
X69886829Y-129460940D01*
X70569842Y-129643953D02*
X74523095Y-127361541D01*
X69454168Y-125611550D02*
X68111829Y-126386550D01*
X75862756Y-121911550D02*
X70753206Y-124861550D01*
X78994807Y-123336421D02*
X78594807Y-122643601D01*
X80419807Y-125804594D02*
X80539807Y-126012440D01*
X69886829Y-129460940D02*
G75*
G03*
X70569842Y-129643953I433013J250001D01*
G01*
X77430037Y-127807867D02*
G75*
G03*
X74523095Y-127361541I-1731526J-1587822D01*
G01*
X78594811Y-122643599D02*
G75*
G03*
X75862756Y-121911550I-1732051J-1000000D01*
G01*
D13*
X50377005Y-109523001D02*
X48282733Y-109523001D01*
X45417253Y-109523001D02*
X44923007Y-109523001D01*
X44923007Y-109523001D02*
X44923007Y-119877001D01*
X50377005Y-110967260D02*
X50377005Y-109523001D01*
X50377005Y-119877001D02*
X50377005Y-118432742D01*
X48282733Y-119877001D02*
X50377005Y-119877001D01*
X44923007Y-119877001D02*
X45417253Y-119877001D01*
X50480994Y-108888001D02*
G75*
G03*
X49718994Y-108888001I-381000J0D01*
G01*
X49718994Y-108888001D02*
G75*
G03*
X50480994Y-108888001I381000J0D01*
G01*
D11*
X82540000Y-83200000D02*
X82540000Y-85200000D01*
X82540000Y-83200000D02*
X86550000Y-83200000D01*
X82540000Y-85200000D02*
X86550000Y-85200000D01*
D10*
X50494822Y-141658926D02*
X50657456Y-141821560D01*
X52672711Y-143836815D02*
X53005051Y-144169155D01*
X53712157Y-144169155D02*
X56939975Y-140941337D01*
X51590837Y-140562910D02*
X50494822Y-141658926D01*
X56823427Y-135330320D02*
X52651497Y-139502250D01*
X60217540Y-135896005D02*
X59651854Y-135330320D01*
X62232794Y-137911260D02*
X62402500Y-138080965D01*
X53005052Y-144169154D02*
G75*
G03*
X53712156Y-144169154I353552J353554D01*
G01*
X59863383Y-140620083D02*
G75*
G03*
X56939975Y-140941337I-1261567J-1981870D01*
G01*
X59651857Y-135330317D02*
G75*
G03*
X56823427Y-135330320I-1414213J-1414214D01*
G01*
X158815176Y-57049780D02*
X158815176Y-57279780D01*
X158815176Y-60129780D02*
X158815176Y-60599780D01*
X159315176Y-61099780D02*
X163880000Y-61099780D01*
X160365176Y-57049780D02*
X158815176Y-57049780D01*
X167765176Y-57049780D02*
X161865176Y-57049780D01*
X169765176Y-59849780D02*
X169765176Y-59049780D01*
X169765176Y-62699780D02*
X169765176Y-62939780D01*
X158815176Y-60599780D02*
G75*
G03*
X159315176Y-61099780I500001J1D01*
G01*
X166174322Y-62939780D02*
G75*
G03*
X163880000Y-61099780I-2293456J-509332D01*
G01*
X169765180Y-59049780D02*
G75*
G03*
X167765176Y-57049780I-2000000J0D01*
G01*
D11*
X120840000Y-95700000D02*
X120840000Y-97700000D01*
X120840000Y-95700000D02*
X124850000Y-95700000D01*
X120840000Y-97700000D02*
X124850000Y-97700000D01*
X158840000Y-68300000D02*
X158840000Y-70300000D01*
X158840000Y-68300000D02*
X162850000Y-68300000D01*
X158840000Y-70300000D02*
X162850000Y-70300000D01*
%LPC*%
D14*
X74000000Y-107550000D03*
X74000000Y-110850000D03*
D15*
X101500000Y-58600000D03*
D16*
X106580000Y-58600000D03*
D15*
X111660000Y-58600000D03*
D17*
X110390000Y-56060000D03*
D18*
X113940000Y-56060000D03*
X100490000Y-53520000D03*
D17*
X104040000Y-53520000D03*
D15*
X158720000Y-101900000D03*
D16*
X163800000Y-101900000D03*
D15*
X168880000Y-101900000D03*
D17*
X167610000Y-99360000D03*
D18*
X171160000Y-99360000D03*
X157710000Y-96820000D03*
D17*
X161260000Y-96820000D03*
D19*
X159650000Y-106200000D03*
X162950000Y-106200000D03*
D15*
X120600000Y-53500000D03*
D16*
X125680000Y-53500000D03*
D15*
X130760000Y-53500000D03*
D17*
X129490000Y-50960000D03*
D18*
X133040000Y-50960000D03*
X119590000Y-48420000D03*
D17*
X123140000Y-48420000D03*
D19*
X121550000Y-76800000D03*
X124850000Y-76800000D03*
D20*
X92806222Y-127227051D03*
X95993778Y-126372949D03*
D15*
X177720000Y-49700000D03*
D16*
X182800000Y-49700000D03*
D15*
X187880000Y-49700000D03*
D17*
X186610000Y-47160000D03*
D18*
X190160000Y-47160000D03*
X176710000Y-44620000D03*
D17*
X180260000Y-44620000D03*
D15*
X111740000Y-118800000D03*
D16*
X116820000Y-118800000D03*
D15*
X121900000Y-118800000D03*
D17*
X120630000Y-116260000D03*
D18*
X124180000Y-116260000D03*
X110730000Y-113720000D03*
D17*
X114280000Y-113720000D03*
D19*
X140650000Y-101700000D03*
X143950000Y-101700000D03*
D15*
X177820000Y-106700000D03*
D16*
X182900000Y-106700000D03*
D15*
X187980000Y-106700000D03*
D17*
X186710000Y-104160000D03*
D18*
X190260000Y-104160000D03*
X176810000Y-101620000D03*
D17*
X180360000Y-101620000D03*
D19*
X102350000Y-101100000D03*
X105650000Y-101100000D03*
D15*
X177720000Y-87700000D03*
D16*
X182800000Y-87700000D03*
D15*
X187880000Y-87700000D03*
D17*
X186610000Y-85160000D03*
D18*
X190160000Y-85160000D03*
X176710000Y-82620000D03*
D17*
X180260000Y-82620000D03*
D21*
X61700000Y-117350000D03*
X66700000Y-117350000D03*
X64200000Y-117350000D03*
D22*
X58100000Y-109850000D03*
X69300000Y-109850000D03*
D21*
X61700000Y-102850000D03*
X66700000Y-102850000D03*
D15*
X139600000Y-58800000D03*
D16*
X144680000Y-58800000D03*
D15*
X149760000Y-58800000D03*
D17*
X148490000Y-56260000D03*
D18*
X152040000Y-56260000D03*
X138590000Y-53720000D03*
D17*
X142140000Y-53720000D03*
D19*
X178650000Y-54800000D03*
X181950000Y-54800000D03*
X159550000Y-87600000D03*
X162850000Y-87600000D03*
X112750000Y-123900000D03*
X116050000Y-123900000D03*
D15*
X82440000Y-79900000D03*
D16*
X87520000Y-79900000D03*
D15*
X92600000Y-79900000D03*
D17*
X91330000Y-77360000D03*
D18*
X94880000Y-77360000D03*
X81430000Y-74820000D03*
D17*
X84980000Y-74820000D03*
D19*
X178750000Y-112000000D03*
X182050000Y-112000000D03*
D15*
X82460000Y-60840000D03*
D16*
X87540000Y-60840000D03*
D15*
X92620000Y-60840000D03*
D17*
X91350000Y-58300000D03*
D18*
X94900000Y-58300000D03*
X81450000Y-55760000D03*
D17*
X85000000Y-55760000D03*
D23*
X58933274Y-149766726D03*
X61266726Y-147433274D03*
D15*
X90693097Y-122914801D03*
D16*
X95600000Y-121600000D03*
D15*
X100506903Y-120285199D03*
D17*
X98622777Y-118160448D03*
D24*
X102051814Y-117241640D03*
X88402711Y-118269305D03*
D17*
X91831748Y-117350497D03*
D15*
X120620000Y-72600000D03*
D16*
X125700000Y-72600000D03*
D15*
X130780000Y-72600000D03*
D17*
X129510000Y-70060000D03*
D18*
X133060000Y-70060000D03*
X119610000Y-67520000D03*
D17*
X123160000Y-67520000D03*
D19*
X140650000Y-82400000D03*
X143950000Y-82400000D03*
D15*
X101540000Y-96700000D03*
D16*
X106620000Y-96700000D03*
D15*
X111700000Y-96700000D03*
D17*
X110430000Y-94160000D03*
D18*
X113980000Y-94160000D03*
X100530000Y-91620000D03*
D17*
X104080000Y-91620000D03*
D19*
X83250000Y-103500000D03*
X86550000Y-103500000D03*
X140550000Y-64500000D03*
X143850000Y-64500000D03*
X83150000Y-65600000D03*
X86450000Y-65600000D03*
D15*
X139640000Y-77900000D03*
D16*
X144720000Y-77900000D03*
D15*
X149800000Y-77900000D03*
D17*
X148530000Y-75360000D03*
D18*
X152080000Y-75360000D03*
X138630000Y-72820000D03*
D17*
X142180000Y-72820000D03*
D19*
X178650000Y-73800000D03*
X181950000Y-73800000D03*
D25*
X73771058Y-135925000D03*
X76628942Y-134275000D03*
D15*
X177720000Y-68700000D03*
D16*
X182800000Y-68700000D03*
D15*
X187880000Y-68700000D03*
D17*
X186610000Y-66160000D03*
D18*
X190160000Y-66160000D03*
X176710000Y-63620000D03*
D17*
X180260000Y-63620000D03*
D19*
X102350000Y-81800000D03*
X105650000Y-81800000D03*
D15*
X120620000Y-91700000D03*
D16*
X125700000Y-91700000D03*
D15*
X130780000Y-91700000D03*
D17*
X129510000Y-89160000D03*
D18*
X133060000Y-89160000D03*
X119610000Y-86620000D03*
D17*
X123160000Y-86620000D03*
D15*
X139720000Y-97000000D03*
D16*
X144800000Y-97000000D03*
D15*
X149880000Y-97000000D03*
D17*
X148610000Y-94460000D03*
D18*
X152160000Y-94460000D03*
X138710000Y-91920000D03*
D17*
X142260000Y-91920000D03*
D19*
X102350000Y-63500000D03*
X105650000Y-63500000D03*
X178750000Y-92100000D03*
X182050000Y-92100000D03*
D15*
X82420000Y-98900000D03*
D16*
X87500000Y-98900000D03*
D15*
X92580000Y-98900000D03*
D17*
X91310000Y-96360000D03*
D18*
X94860000Y-96360000D03*
X81410000Y-93820000D03*
D17*
X84960000Y-93820000D03*
D19*
X121450000Y-58100000D03*
X124750000Y-58100000D03*
D15*
X101520000Y-77600000D03*
D16*
X106600000Y-77600000D03*
D15*
X111680000Y-77600000D03*
D17*
X110410000Y-75060000D03*
D18*
X113960000Y-75060000D03*
X100510000Y-72520000D03*
D17*
X104060000Y-72520000D03*
D15*
X158720000Y-82900000D03*
D16*
X163800000Y-82900000D03*
D15*
X168880000Y-82900000D03*
D17*
X167610000Y-80360000D03*
D18*
X171160000Y-80360000D03*
X157710000Y-77820000D03*
D17*
X161260000Y-77820000D03*
D15*
X71300591Y-132340000D03*
D16*
X75700000Y-129800000D03*
D15*
X80099409Y-127260000D03*
D17*
X77729557Y-125695295D03*
D26*
X80803947Y-123920295D03*
X67885905Y-128445591D03*
D17*
X70960295Y-126670591D03*
D27*
X50099994Y-111450000D03*
X50099994Y-111950001D03*
X50099994Y-112450000D03*
X50099994Y-112950002D03*
X50099994Y-113450001D03*
X50099994Y-113950000D03*
X50099994Y-114450001D03*
X50099994Y-114950000D03*
X50099994Y-115450002D03*
X50099994Y-115950001D03*
X50099994Y-116450000D03*
X50099994Y-116950002D03*
X50099994Y-117450001D03*
X50099994Y-117950002D03*
D28*
X46849993Y-109550001D03*
X46849993Y-119850001D03*
D19*
X83250000Y-84200000D03*
X86550000Y-84200000D03*
D15*
X55115796Y-146584204D03*
D16*
X58707898Y-142992102D03*
D15*
X62300000Y-139400000D03*
D17*
X59605924Y-138501974D03*
D29*
X62116153Y-135991745D03*
X50809515Y-143706280D03*
D17*
X53319744Y-141196051D03*
D15*
X158600000Y-63800000D03*
D16*
X163680000Y-63800000D03*
D15*
X168760000Y-63800000D03*
D17*
X167490000Y-61260000D03*
D18*
X171040000Y-61260000D03*
X157590000Y-58720000D03*
D17*
X161140000Y-58720000D03*
D19*
X121550000Y-96700000D03*
X124850000Y-96700000D03*
X159550000Y-69300000D03*
X162850000Y-69300000D03*
%LPD*%
M02*
