M48
; DRILL file {KiCad 7.0.10-7.0.10~ubuntu23.10.1} date Sun 07 Jan 2024 08:04:19 PM EST
; FORMAT={-:-/ absolute / metric / decimal}
; #@! TF.CreationDate,2024-01-07T20:04:19-05:00
; #@! TF.GenerationSoftware,Kicad,Pcbnew,7.0.10-7.0.10~ubuntu23.10.1
; #@! TF.FileFunction,NonPlated,1,2,NPTH
FMAT,2
METRIC
; #@! TA.AperFunction,NonPlated,NPTH,ComponentDrill
T1C1.750
; #@! TA.AperFunction,NonPlated,NPTH,ComponentDrill
T2C3.988
%
G90
G05
T1
X55.116Y-146.584
X62.3Y-139.4
X71.301Y-132.34
X80.099Y-127.26
X82.42Y-98.9
X82.44Y-79.9
X82.46Y-60.84
X90.693Y-122.915
X92.58Y-98.9
X92.6Y-79.9
X92.62Y-60.84
X100.507Y-120.285
X101.5Y-58.6
X101.52Y-77.6
X101.54Y-96.7
X111.66Y-58.6
X111.68Y-77.6
X111.7Y-96.7
X111.74Y-118.8
X120.6Y-53.5
X120.62Y-72.6
X120.62Y-91.7
X121.9Y-118.8
X130.76Y-53.5
X130.78Y-72.6
X130.78Y-91.7
X139.6Y-58.8
X139.64Y-77.9
X139.72Y-97.0
X149.76Y-58.8
X149.8Y-77.9
X149.88Y-97.0
X158.6Y-63.8
X158.72Y-82.9
X158.72Y-101.9
X168.76Y-63.8
X168.88Y-82.9
X168.88Y-101.9
X177.72Y-49.7
X177.72Y-68.7
X177.72Y-87.7
X177.82Y-106.7
X187.88Y-49.7
X187.88Y-68.7
X187.88Y-87.7
X187.98Y-106.7
T2
X58.708Y-142.992
X75.7Y-129.8
X87.5Y-98.9
X87.52Y-79.9
X87.54Y-60.84
X95.6Y-121.6
X106.58Y-58.6
X106.6Y-77.6
X106.62Y-96.7
X116.82Y-118.8
X125.68Y-53.5
X125.7Y-72.6
X125.7Y-91.7
X144.68Y-58.8
X144.72Y-77.9
X144.8Y-97.0
X163.68Y-63.8
X163.8Y-82.9
X163.8Y-101.9
X182.8Y-49.7
X182.8Y-68.7
X182.8Y-87.7
X182.9Y-106.7
M30
