G04 #@! TF.GenerationSoftware,KiCad,Pcbnew,7.0.10-7.0.10~ubuntu23.10.1*
G04 #@! TF.CreationDate,2024-01-07T20:04:01-05:00*
G04 #@! TF.ProjectId,Right PCB,52696768-7420-4504-9342-2e6b69636164,rev?*
G04 #@! TF.SameCoordinates,Original*
G04 #@! TF.FileFunction,Profile,NP*
%FSLAX46Y46*%
G04 Gerber Fmt 4.6, Leading zero omitted, Abs format (unit mm)*
G04 Created by KiCad (PCBNEW 7.0.10-7.0.10~ubuntu23.10.1) date 2024-01-07 20:04:01*
%MOMM*%
%LPD*%
G01*
G04 APERTURE LIST*
G04 #@! TA.AperFunction,Profile*
%ADD10C,0.100000*%
G04 #@! TD*
G04 APERTURE END LIST*
D10*
X76600000Y-70300000D02*
X76600000Y-50500000D01*
X39200000Y-107700000D02*
X76600000Y-70300000D01*
X39200000Y-137600000D02*
X39200000Y-107700000D01*
X96700000Y-50500000D02*
X76600000Y-50500000D01*
X172800000Y-111700000D02*
X172800000Y-116700000D01*
X172600000Y-39900000D02*
X172600000Y-51200000D01*
X154400000Y-49000000D02*
X135400000Y-49000000D01*
X127300000Y-106900000D02*
X153700000Y-106900000D01*
X193100000Y-40700000D02*
X193100000Y-39900000D01*
X135400000Y-43600000D02*
X115800000Y-43600000D01*
X115800000Y-48800000D02*
X96800000Y-48800000D01*
X172600000Y-54000000D02*
X154400000Y-54000000D01*
X193100000Y-40700000D02*
X193100000Y-116600000D01*
X115858250Y-128932082D02*
G75*
G03*
X58998245Y-157398245I14341750J-99667918D01*
G01*
X154400000Y-54000000D02*
X154400000Y-49000000D01*
X96700000Y-48800000D02*
X96700000Y-50500000D01*
X115858250Y-128932081D02*
X127300000Y-128700000D01*
X127300000Y-128700000D02*
X127300000Y-106900000D01*
X135400000Y-49000000D02*
X135400000Y-43600000D01*
X172600000Y-51200000D02*
X172600000Y-54000000D01*
X153700000Y-111700000D02*
X172800000Y-111700000D01*
X172800000Y-116700000D02*
X193100000Y-116600000D01*
X96700000Y-48800000D02*
X96800000Y-48800000D01*
X115800000Y-43600000D02*
X115800000Y-48800000D01*
X58998245Y-157398245D02*
X39200000Y-137600000D01*
X153700000Y-106900000D02*
X153700000Y-111700000D01*
X193100000Y-39900000D02*
X172600000Y-39900000D01*
M02*
