%TF.GenerationSoftware,KiCad,Pcbnew,7.0.10-7.0.10~ubuntu23.10.1*%
%TF.CreationDate,2024-01-07T16:58:32-05:00*%
%TF.ProjectId,design,64657369-676e-42e6-9b69-6361645f7063,rev?*%
%TF.SameCoordinates,Original*%
%TF.FileFunction,Drillmap*%
%TF.FilePolarity,Positive*%
%FSLAX45Y45*%
G04 Gerber Fmt 4.5, Leading zero omitted, Abs format (unit mm)*
G04 Created by KiCad (PCBNEW 7.0.10-7.0.10~ubuntu23.10.1) date 2024-01-07 16:58:32*
%MOMM*%
%LPD*%
G01*
G04 APERTURE LIST*
%ADD10C,0.100000*%
%ADD11C,0.200000*%
%ADD12C,0.102000*%
%ADD13C,0.300000*%
G04 APERTURE END LIST*
D10*
X17320176Y-15739824D02*
X19300000Y-13760000D01*
X15510000Y-4490000D02*
X19310000Y-4490000D01*
X15510000Y-5050000D02*
X15510000Y-4490000D01*
X13550000Y-5050000D02*
X15510000Y-5050000D01*
X13550000Y-4880000D02*
X13550000Y-5050000D01*
X13550000Y-4880000D02*
X13540000Y-4880000D01*
X11640000Y-4880000D02*
X13540000Y-4880000D01*
X11640000Y-4360000D02*
X11640000Y-4880000D01*
X9680000Y-4360000D02*
X11640000Y-4360000D01*
X9680000Y-4900000D02*
X9680000Y-4360000D01*
X7780000Y-4900000D02*
X9680000Y-4900000D01*
X7780000Y-5400000D02*
X7780000Y-4900000D01*
X5960000Y-5400000D02*
X7780000Y-5400000D01*
X5960000Y-5120000D02*
X5960000Y-5400000D01*
X5960000Y-3990000D02*
X5960000Y-5120000D01*
X3910000Y-3990000D02*
X5960000Y-3990000D01*
X3910000Y-4070000D02*
X3910000Y-3990000D01*
X5940000Y-11670000D02*
X3910000Y-11660000D01*
X5940000Y-11170000D02*
X5940000Y-11670000D01*
X7850000Y-11170000D02*
X5940000Y-11170000D01*
X7850000Y-10690000D02*
X7850000Y-11170000D01*
X10490000Y-10690000D02*
X7850000Y-10690000D01*
X10490000Y-12870000D02*
X10490000Y-10690000D01*
X11634175Y-12893208D02*
X10490000Y-12870000D01*
X17320175Y-15739825D02*
G75*
G03*
X11634175Y-12893208I-7120175J-7120175D01*
G01*
X3910000Y-4070000D02*
X3910000Y-11660000D01*
X19300000Y-13760000D02*
X19310000Y-4490000D01*
D11*
D10*
X9290000Y-8810000D02*
X9330000Y-8850000D01*
X9330000Y-8810000D02*
X9290000Y-8850000D01*
X14910000Y-13250000D02*
X14950000Y-13290000D01*
X14950000Y-13250000D02*
X14910000Y-13290000D01*
X16430000Y-12380000D02*
X16470000Y-12420000D01*
X16470000Y-12380000D02*
X16430000Y-12420000D01*
X18120000Y-12390000D02*
X18160000Y-12430000D01*
X18160000Y-12390000D02*
X18120000Y-12430000D01*
X16468100Y-11110000D02*
G75*
G03*
X16391900Y-11110000I-38100J0D01*
G01*
X16391900Y-11110000D02*
G75*
G03*
X16468100Y-11110000I38100J0D01*
G01*
X16828100Y-10410000D02*
G75*
G03*
X16751900Y-10410000I-38100J0D01*
G01*
X16751900Y-10410000D02*
G75*
G03*
X16828100Y-10410000I38100J0D01*
G01*
X16828100Y-11860000D02*
G75*
G03*
X16751900Y-11860000I-38100J0D01*
G01*
X16751900Y-11860000D02*
G75*
G03*
X16828100Y-11860000I38100J0D01*
G01*
X17078100Y-11860000D02*
G75*
G03*
X17001900Y-11860000I-38100J0D01*
G01*
X17001900Y-11860000D02*
G75*
G03*
X17078100Y-11860000I38100J0D01*
G01*
X17328100Y-10410000D02*
G75*
G03*
X17251900Y-10410000I-38100J0D01*
G01*
X17251900Y-10410000D02*
G75*
G03*
X17328100Y-10410000I38100J0D01*
G01*
X17328100Y-11860000D02*
G75*
G03*
X17251900Y-11860000I-38100J0D01*
G01*
X17251900Y-11860000D02*
G75*
G03*
X17328100Y-11860000I38100J0D01*
G01*
X17588100Y-11110000D02*
G75*
G03*
X17511900Y-11110000I-38100J0D01*
G01*
X17511900Y-11110000D02*
G75*
G03*
X17588100Y-11110000I38100J0D01*
G01*
D12*
X16361000Y-4671500D02*
X16361000Y-4773500D01*
X16310000Y-4722500D02*
X16412000Y-4722500D01*
X16361000Y-4925500D02*
X16361000Y-5027500D01*
X16310000Y-4976500D02*
X16412000Y-4976500D01*
X16361000Y-5179500D02*
X16361000Y-5281500D01*
X16310000Y-5230500D02*
X16412000Y-5230500D01*
X16361000Y-5433500D02*
X16361000Y-5535500D01*
X16310000Y-5484500D02*
X16412000Y-5484500D01*
X16361000Y-5687500D02*
X16361000Y-5789500D01*
X16310000Y-5738500D02*
X16412000Y-5738500D01*
X16361000Y-5941500D02*
X16361000Y-6043500D01*
X16310000Y-5992500D02*
X16412000Y-5992500D01*
X16361000Y-6195500D02*
X16361000Y-6297500D01*
X16310000Y-6246500D02*
X16412000Y-6246500D01*
X16361000Y-6449500D02*
X16361000Y-6551500D01*
X16310000Y-6500500D02*
X16412000Y-6500500D01*
X16361000Y-6703500D02*
X16361000Y-6805500D01*
X16310000Y-6754500D02*
X16412000Y-6754500D01*
X16361000Y-6957500D02*
X16361000Y-7059500D01*
X16310000Y-7008500D02*
X16412000Y-7008500D01*
X16361000Y-7211500D02*
X16361000Y-7313500D01*
X16310000Y-7262500D02*
X16412000Y-7262500D01*
X16361000Y-7465500D02*
X16361000Y-7567500D01*
X16310000Y-7516500D02*
X16412000Y-7516500D01*
X16361000Y-7719500D02*
X16361000Y-7821500D01*
X16310000Y-7770500D02*
X16412000Y-7770500D01*
X16361000Y-7973500D02*
X16361000Y-8075500D01*
X16310000Y-8024500D02*
X16412000Y-8024500D01*
X16361000Y-8227500D02*
X16361000Y-8329500D01*
X16310000Y-8278500D02*
X16412000Y-8278500D01*
X16361000Y-8481500D02*
X16361000Y-8583500D01*
X16310000Y-8532500D02*
X16412000Y-8532500D01*
X16361000Y-8735500D02*
X16361000Y-8837500D01*
X16310000Y-8786500D02*
X16412000Y-8786500D01*
X16361000Y-8989500D02*
X16361000Y-9091500D01*
X16310000Y-9040500D02*
X16412000Y-9040500D01*
X16361000Y-9243500D02*
X16361000Y-9345500D01*
X16310000Y-9294500D02*
X16412000Y-9294500D01*
X16361000Y-9497500D02*
X16361000Y-9599500D01*
X16310000Y-9548500D02*
X16412000Y-9548500D01*
X16996000Y-9474500D02*
X16996000Y-9576500D01*
X16945000Y-9525500D02*
X17047000Y-9525500D01*
X17250000Y-9474500D02*
X17250000Y-9576500D01*
X17199000Y-9525500D02*
X17301000Y-9525500D01*
X17504000Y-9474500D02*
X17504000Y-9576500D01*
X17453000Y-9525500D02*
X17555000Y-9525500D01*
X18139000Y-4671500D02*
X18139000Y-4773500D01*
X18088000Y-4722500D02*
X18190000Y-4722500D01*
X18139000Y-4925500D02*
X18139000Y-5027500D01*
X18088000Y-4976500D02*
X18190000Y-4976500D01*
X18139000Y-5179500D02*
X18139000Y-5281500D01*
X18088000Y-5230500D02*
X18190000Y-5230500D01*
X18139000Y-5433500D02*
X18139000Y-5535500D01*
X18088000Y-5484500D02*
X18190000Y-5484500D01*
X18139000Y-5687500D02*
X18139000Y-5789500D01*
X18088000Y-5738500D02*
X18190000Y-5738500D01*
X18139000Y-5941500D02*
X18139000Y-6043500D01*
X18088000Y-5992500D02*
X18190000Y-5992500D01*
X18139000Y-6195500D02*
X18139000Y-6297500D01*
X18088000Y-6246500D02*
X18190000Y-6246500D01*
X18139000Y-6449500D02*
X18139000Y-6551500D01*
X18088000Y-6500500D02*
X18190000Y-6500500D01*
X18139000Y-6703500D02*
X18139000Y-6805500D01*
X18088000Y-6754500D02*
X18190000Y-6754500D01*
X18139000Y-6957500D02*
X18139000Y-7059500D01*
X18088000Y-7008500D02*
X18190000Y-7008500D01*
X18139000Y-7211500D02*
X18139000Y-7313500D01*
X18088000Y-7262500D02*
X18190000Y-7262500D01*
X18139000Y-7465500D02*
X18139000Y-7567500D01*
X18088000Y-7516500D02*
X18190000Y-7516500D01*
X18139000Y-7719500D02*
X18139000Y-7821500D01*
X18088000Y-7770500D02*
X18190000Y-7770500D01*
X18139000Y-7973500D02*
X18139000Y-8075500D01*
X18088000Y-8024500D02*
X18190000Y-8024500D01*
X18139000Y-8227500D02*
X18139000Y-8329500D01*
X18088000Y-8278500D02*
X18190000Y-8278500D01*
X18139000Y-8481500D02*
X18139000Y-8583500D01*
X18088000Y-8532500D02*
X18190000Y-8532500D01*
X18139000Y-8735500D02*
X18139000Y-8837500D01*
X18088000Y-8786500D02*
X18190000Y-8786500D01*
X18139000Y-8989500D02*
X18139000Y-9091500D01*
X18088000Y-9040500D02*
X18190000Y-9040500D01*
X18139000Y-9243500D02*
X18139000Y-9345500D01*
X18088000Y-9294500D02*
X18190000Y-9294500D01*
X18139000Y-9497500D02*
X18139000Y-9599500D01*
X18088000Y-9548500D02*
X18190000Y-9548500D01*
D13*
X4810067Y-4568067D02*
X4810067Y-4355933D01*
X4597933Y-4355933D01*
X4597933Y-4568067D01*
X4810067Y-4568067D01*
X4810067Y-6472067D02*
X4810067Y-6259933D01*
X4597933Y-6259933D01*
X4597933Y-6472067D01*
X4810067Y-6472067D01*
X4810067Y-8378067D02*
X4810067Y-8165933D01*
X4597933Y-8165933D01*
X4597933Y-8378067D01*
X4810067Y-8378067D01*
X4812067Y-10288067D02*
X4812067Y-10075933D01*
X4599933Y-10075933D01*
X4599933Y-10288067D01*
X4812067Y-10288067D01*
X5445067Y-4822067D02*
X5445067Y-4609933D01*
X5232933Y-4609933D01*
X5232933Y-4822067D01*
X5445067Y-4822067D01*
X5445067Y-6726067D02*
X5445067Y-6513933D01*
X5232933Y-6513933D01*
X5232933Y-6726067D01*
X5445067Y-6726067D01*
X5445067Y-8632067D02*
X5445067Y-8419933D01*
X5232933Y-8419933D01*
X5232933Y-8632067D01*
X5445067Y-8632067D01*
X5447067Y-10542067D02*
X5447067Y-10329933D01*
X5234933Y-10329933D01*
X5234933Y-10542067D01*
X5447067Y-10542067D01*
X6710067Y-5978067D02*
X6710067Y-5765933D01*
X6497933Y-5765933D01*
X6497933Y-5978067D01*
X6710067Y-5978067D01*
X6711067Y-7878067D02*
X6711067Y-7665933D01*
X6498933Y-7665933D01*
X6498933Y-7878067D01*
X6711067Y-7878067D01*
X6711067Y-9786067D02*
X6711067Y-9573933D01*
X6498933Y-9573933D01*
X6498933Y-9786067D01*
X6711067Y-9786067D01*
X7345067Y-6232067D02*
X7345067Y-6019933D01*
X7132933Y-6019933D01*
X7132933Y-6232067D01*
X7345067Y-6232067D01*
X7346067Y-8132067D02*
X7346067Y-7919933D01*
X7133933Y-7919933D01*
X7133933Y-8132067D01*
X7346067Y-8132067D01*
X7346067Y-10040067D02*
X7346067Y-9827933D01*
X7133933Y-9827933D01*
X7133933Y-10040067D01*
X7346067Y-10040067D01*
X8606067Y-5482067D02*
X8606067Y-5269933D01*
X8393933Y-5269933D01*
X8393933Y-5482067D01*
X8606067Y-5482067D01*
X8606067Y-7392067D02*
X8606067Y-7179933D01*
X8393933Y-7179933D01*
X8393933Y-7392067D01*
X8606067Y-7392067D01*
X8612067Y-9298067D02*
X8612067Y-9085933D01*
X8399933Y-9085933D01*
X8399933Y-9298067D01*
X8612067Y-9298067D01*
X9241067Y-5736067D02*
X9241067Y-5523933D01*
X9028933Y-5523933D01*
X9028933Y-5736067D01*
X9241067Y-5736067D01*
X9241067Y-7646067D02*
X9241067Y-7433933D01*
X9028933Y-7433933D01*
X9028933Y-7646067D01*
X9241067Y-7646067D01*
X9247067Y-9552067D02*
X9247067Y-9339933D01*
X9034933Y-9339933D01*
X9034933Y-9552067D01*
X9247067Y-9552067D01*
X10510067Y-8738067D02*
X10510067Y-8525933D01*
X10297933Y-8525933D01*
X10297933Y-8738067D01*
X10510067Y-8738067D01*
X10512067Y-4938067D02*
X10512067Y-4725933D01*
X10299933Y-4725933D01*
X10299933Y-4938067D01*
X10512067Y-4938067D01*
X10514067Y-6838067D02*
X10514067Y-6625933D01*
X10301933Y-6625933D01*
X10301933Y-6838067D01*
X10514067Y-6838067D01*
X11145067Y-8992067D02*
X11145067Y-8779933D01*
X10932933Y-8779933D01*
X10932933Y-8992067D01*
X11145067Y-8992067D01*
X11147067Y-5192067D02*
X11147067Y-4979933D01*
X10934933Y-4979933D01*
X10934933Y-5192067D01*
X11147067Y-5192067D01*
X11149067Y-7092067D02*
X11149067Y-6879933D01*
X10936933Y-6879933D01*
X10936933Y-7092067D01*
X11149067Y-7092067D01*
X11392067Y-11488067D02*
X11392067Y-11275933D01*
X11179933Y-11275933D01*
X11179933Y-11488067D01*
X11392067Y-11488067D01*
X12027067Y-11742067D02*
X12027067Y-11529933D01*
X11814933Y-11529933D01*
X11814933Y-11742067D01*
X12027067Y-11742067D01*
X12420067Y-5458067D02*
X12420067Y-5245933D01*
X12207933Y-5245933D01*
X12207933Y-5458067D01*
X12420067Y-5458067D01*
X12420067Y-9278067D02*
X12420067Y-9065933D01*
X12207933Y-9065933D01*
X12207933Y-9278067D01*
X12420067Y-9278067D01*
X12422067Y-7368067D02*
X12422067Y-7155933D01*
X12209933Y-7155933D01*
X12209933Y-7368067D01*
X12422067Y-7368067D01*
X13055067Y-5712067D02*
X13055067Y-5499933D01*
X12842933Y-5499933D01*
X12842933Y-5712067D01*
X13055067Y-5712067D01*
X13055067Y-9532067D02*
X13055067Y-9319933D01*
X12842933Y-9319933D01*
X12842933Y-9532067D01*
X13055067Y-9532067D01*
X13057067Y-7622067D02*
X13057067Y-7409933D01*
X12844933Y-7409933D01*
X12844933Y-7622067D01*
X13057067Y-7622067D01*
X13651512Y-11708156D02*
X13651512Y-11496022D01*
X13439378Y-11496022D01*
X13439378Y-11708156D01*
X13651512Y-11708156D01*
X14199134Y-12117852D02*
X14199134Y-11905718D01*
X13987000Y-11905718D01*
X13987000Y-12117852D01*
X14199134Y-12117852D01*
X14324067Y-5668067D02*
X14324067Y-5455933D01*
X14111933Y-5455933D01*
X14111933Y-5668067D01*
X14324067Y-5668067D01*
X14324067Y-7578067D02*
X14324067Y-7365933D01*
X14111933Y-7365933D01*
X14111933Y-7578067D01*
X14324067Y-7578067D01*
X14324067Y-9478067D02*
X14324067Y-9265933D01*
X14111933Y-9265933D01*
X14111933Y-9478067D01*
X14324067Y-9478067D01*
X14959067Y-5922067D02*
X14959067Y-5709933D01*
X14746933Y-5709933D01*
X14746933Y-5922067D01*
X14959067Y-5922067D01*
X14959067Y-7832067D02*
X14959067Y-7619933D01*
X14746933Y-7619933D01*
X14746933Y-7832067D01*
X14959067Y-7832067D01*
X14959067Y-9732067D02*
X14959067Y-9519933D01*
X14746933Y-9519933D01*
X14746933Y-9732067D01*
X14959067Y-9732067D01*
X15800096Y-12519126D02*
X15800096Y-12306992D01*
X15587962Y-12306992D01*
X15587962Y-12519126D01*
X15800096Y-12519126D01*
X16223023Y-13056596D02*
X16223023Y-12844462D01*
X16010889Y-12844462D01*
X16010889Y-13056596D01*
X16223023Y-13056596D01*
X17654882Y-13866462D02*
X17654882Y-13654328D01*
X17442748Y-13654328D01*
X17442748Y-13866462D01*
X17654882Y-13866462D01*
X17924290Y-14495080D02*
X17924290Y-14282946D01*
X17712156Y-14282946D01*
X17712156Y-14495080D01*
X17924290Y-14495080D01*
D11*
X4165777Y-16056308D02*
X4165777Y-15856308D01*
X4165777Y-15856308D02*
X4213396Y-15856308D01*
X4213396Y-15856308D02*
X4241967Y-15865832D01*
X4241967Y-15865832D02*
X4261015Y-15884880D01*
X4261015Y-15884880D02*
X4270539Y-15903927D01*
X4270539Y-15903927D02*
X4280063Y-15942022D01*
X4280063Y-15942022D02*
X4280063Y-15970594D01*
X4280063Y-15970594D02*
X4270539Y-16008689D01*
X4270539Y-16008689D02*
X4261015Y-16027737D01*
X4261015Y-16027737D02*
X4241967Y-16046784D01*
X4241967Y-16046784D02*
X4213396Y-16056308D01*
X4213396Y-16056308D02*
X4165777Y-16056308D01*
X4365777Y-16056308D02*
X4365777Y-15922975D01*
X4365777Y-15961070D02*
X4375301Y-15942022D01*
X4375301Y-15942022D02*
X4384824Y-15932499D01*
X4384824Y-15932499D02*
X4403872Y-15922975D01*
X4403872Y-15922975D02*
X4422920Y-15922975D01*
X4489586Y-16056308D02*
X4489586Y-15922975D01*
X4489586Y-15856308D02*
X4480063Y-15865832D01*
X4480063Y-15865832D02*
X4489586Y-15875356D01*
X4489586Y-15875356D02*
X4499110Y-15865832D01*
X4499110Y-15865832D02*
X4489586Y-15856308D01*
X4489586Y-15856308D02*
X4489586Y-15875356D01*
X4613396Y-16056308D02*
X4594348Y-16046784D01*
X4594348Y-16046784D02*
X4584824Y-16027737D01*
X4584824Y-16027737D02*
X4584824Y-15856308D01*
X4718158Y-16056308D02*
X4699110Y-16046784D01*
X4699110Y-16046784D02*
X4689586Y-16027737D01*
X4689586Y-16027737D02*
X4689586Y-15856308D01*
X4946729Y-16056308D02*
X4946729Y-15856308D01*
X4946729Y-15856308D02*
X5013396Y-15999165D01*
X5013396Y-15999165D02*
X5080063Y-15856308D01*
X5080063Y-15856308D02*
X5080063Y-16056308D01*
X5261015Y-16056308D02*
X5261015Y-15951546D01*
X5261015Y-15951546D02*
X5251491Y-15932499D01*
X5251491Y-15932499D02*
X5232444Y-15922975D01*
X5232444Y-15922975D02*
X5194348Y-15922975D01*
X5194348Y-15922975D02*
X5175301Y-15932499D01*
X5261015Y-16046784D02*
X5241967Y-16056308D01*
X5241967Y-16056308D02*
X5194348Y-16056308D01*
X5194348Y-16056308D02*
X5175301Y-16046784D01*
X5175301Y-16046784D02*
X5165777Y-16027737D01*
X5165777Y-16027737D02*
X5165777Y-16008689D01*
X5165777Y-16008689D02*
X5175301Y-15989642D01*
X5175301Y-15989642D02*
X5194348Y-15980118D01*
X5194348Y-15980118D02*
X5241967Y-15980118D01*
X5241967Y-15980118D02*
X5261015Y-15970594D01*
X5356253Y-15922975D02*
X5356253Y-16122975D01*
X5356253Y-15932499D02*
X5375301Y-15922975D01*
X5375301Y-15922975D02*
X5413396Y-15922975D01*
X5413396Y-15922975D02*
X5432444Y-15932499D01*
X5432444Y-15932499D02*
X5441967Y-15942022D01*
X5441967Y-15942022D02*
X5451491Y-15961070D01*
X5451491Y-15961070D02*
X5451491Y-16018213D01*
X5451491Y-16018213D02*
X5441967Y-16037261D01*
X5441967Y-16037261D02*
X5432444Y-16046784D01*
X5432444Y-16046784D02*
X5413396Y-16056308D01*
X5413396Y-16056308D02*
X5375301Y-16056308D01*
X5375301Y-16056308D02*
X5356253Y-16046784D01*
X5537205Y-16037261D02*
X5546729Y-16046784D01*
X5546729Y-16046784D02*
X5537205Y-16056308D01*
X5537205Y-16056308D02*
X5527682Y-16046784D01*
X5527682Y-16046784D02*
X5537205Y-16037261D01*
X5537205Y-16037261D02*
X5537205Y-16056308D01*
X5537205Y-15932499D02*
X5546729Y-15942022D01*
X5546729Y-15942022D02*
X5537205Y-15951546D01*
X5537205Y-15951546D02*
X5527682Y-15942022D01*
X5527682Y-15942022D02*
X5537205Y-15932499D01*
X5537205Y-15932499D02*
X5537205Y-15951546D01*
D10*
X3865000Y-16364824D02*
X3905000Y-16404824D01*
X3905000Y-16364824D02*
X3865000Y-16404824D01*
D11*
X4203872Y-16276308D02*
X4222920Y-16276308D01*
X4222920Y-16276308D02*
X4241967Y-16285832D01*
X4241967Y-16285832D02*
X4251491Y-16295356D01*
X4251491Y-16295356D02*
X4261015Y-16314403D01*
X4261015Y-16314403D02*
X4270539Y-16352499D01*
X4270539Y-16352499D02*
X4270539Y-16400118D01*
X4270539Y-16400118D02*
X4261015Y-16438213D01*
X4261015Y-16438213D02*
X4251491Y-16457261D01*
X4251491Y-16457261D02*
X4241967Y-16466784D01*
X4241967Y-16466784D02*
X4222920Y-16476308D01*
X4222920Y-16476308D02*
X4203872Y-16476308D01*
X4203872Y-16476308D02*
X4184824Y-16466784D01*
X4184824Y-16466784D02*
X4175301Y-16457261D01*
X4175301Y-16457261D02*
X4165777Y-16438213D01*
X4165777Y-16438213D02*
X4156253Y-16400118D01*
X4156253Y-16400118D02*
X4156253Y-16352499D01*
X4156253Y-16352499D02*
X4165777Y-16314403D01*
X4165777Y-16314403D02*
X4175301Y-16295356D01*
X4175301Y-16295356D02*
X4184824Y-16285832D01*
X4184824Y-16285832D02*
X4203872Y-16276308D01*
X4356253Y-16457261D02*
X4365777Y-16466784D01*
X4365777Y-16466784D02*
X4356253Y-16476308D01*
X4356253Y-16476308D02*
X4346729Y-16466784D01*
X4346729Y-16466784D02*
X4356253Y-16457261D01*
X4356253Y-16457261D02*
X4356253Y-16476308D01*
X4537205Y-16342975D02*
X4537205Y-16476308D01*
X4489586Y-16266784D02*
X4441967Y-16409642D01*
X4441967Y-16409642D02*
X4565777Y-16409642D01*
X4680063Y-16276308D02*
X4699110Y-16276308D01*
X4699110Y-16276308D02*
X4718158Y-16285832D01*
X4718158Y-16285832D02*
X4727682Y-16295356D01*
X4727682Y-16295356D02*
X4737205Y-16314403D01*
X4737205Y-16314403D02*
X4746729Y-16352499D01*
X4746729Y-16352499D02*
X4746729Y-16400118D01*
X4746729Y-16400118D02*
X4737205Y-16438213D01*
X4737205Y-16438213D02*
X4727682Y-16457261D01*
X4727682Y-16457261D02*
X4718158Y-16466784D01*
X4718158Y-16466784D02*
X4699110Y-16476308D01*
X4699110Y-16476308D02*
X4680063Y-16476308D01*
X4680063Y-16476308D02*
X4661015Y-16466784D01*
X4661015Y-16466784D02*
X4651491Y-16457261D01*
X4651491Y-16457261D02*
X4641967Y-16438213D01*
X4641967Y-16438213D02*
X4632444Y-16400118D01*
X4632444Y-16400118D02*
X4632444Y-16352499D01*
X4632444Y-16352499D02*
X4641967Y-16314403D01*
X4641967Y-16314403D02*
X4651491Y-16295356D01*
X4651491Y-16295356D02*
X4661015Y-16285832D01*
X4661015Y-16285832D02*
X4680063Y-16276308D01*
X4870539Y-16276308D02*
X4889586Y-16276308D01*
X4889586Y-16276308D02*
X4908634Y-16285832D01*
X4908634Y-16285832D02*
X4918158Y-16295356D01*
X4918158Y-16295356D02*
X4927682Y-16314403D01*
X4927682Y-16314403D02*
X4937205Y-16352499D01*
X4937205Y-16352499D02*
X4937205Y-16400118D01*
X4937205Y-16400118D02*
X4927682Y-16438213D01*
X4927682Y-16438213D02*
X4918158Y-16457261D01*
X4918158Y-16457261D02*
X4908634Y-16466784D01*
X4908634Y-16466784D02*
X4889586Y-16476308D01*
X4889586Y-16476308D02*
X4870539Y-16476308D01*
X4870539Y-16476308D02*
X4851491Y-16466784D01*
X4851491Y-16466784D02*
X4841967Y-16457261D01*
X4841967Y-16457261D02*
X4832444Y-16438213D01*
X4832444Y-16438213D02*
X4822920Y-16400118D01*
X4822920Y-16400118D02*
X4822920Y-16352499D01*
X4822920Y-16352499D02*
X4832444Y-16314403D01*
X4832444Y-16314403D02*
X4841967Y-16295356D01*
X4841967Y-16295356D02*
X4851491Y-16285832D01*
X4851491Y-16285832D02*
X4870539Y-16276308D01*
X5022920Y-16476308D02*
X5022920Y-16342975D01*
X5022920Y-16362022D02*
X5032444Y-16352499D01*
X5032444Y-16352499D02*
X5051491Y-16342975D01*
X5051491Y-16342975D02*
X5080063Y-16342975D01*
X5080063Y-16342975D02*
X5099110Y-16352499D01*
X5099110Y-16352499D02*
X5108634Y-16371546D01*
X5108634Y-16371546D02*
X5108634Y-16476308D01*
X5108634Y-16371546D02*
X5118158Y-16352499D01*
X5118158Y-16352499D02*
X5137205Y-16342975D01*
X5137205Y-16342975D02*
X5165777Y-16342975D01*
X5165777Y-16342975D02*
X5184825Y-16352499D01*
X5184825Y-16352499D02*
X5194348Y-16371546D01*
X5194348Y-16371546D02*
X5194348Y-16476308D01*
X5289586Y-16476308D02*
X5289586Y-16342975D01*
X5289586Y-16362022D02*
X5299110Y-16352499D01*
X5299110Y-16352499D02*
X5318158Y-16342975D01*
X5318158Y-16342975D02*
X5346729Y-16342975D01*
X5346729Y-16342975D02*
X5365777Y-16352499D01*
X5365777Y-16352499D02*
X5375301Y-16371546D01*
X5375301Y-16371546D02*
X5375301Y-16476308D01*
X5375301Y-16371546D02*
X5384825Y-16352499D01*
X5384825Y-16352499D02*
X5403872Y-16342975D01*
X5403872Y-16342975D02*
X5432444Y-16342975D01*
X5432444Y-16342975D02*
X5451491Y-16352499D01*
X5451491Y-16352499D02*
X5461015Y-16371546D01*
X5461015Y-16371546D02*
X5461015Y-16476308D01*
X5851491Y-16266784D02*
X5680063Y-16523927D01*
X6108634Y-16276308D02*
X6127682Y-16276308D01*
X6127682Y-16276308D02*
X6146729Y-16285832D01*
X6146729Y-16285832D02*
X6156253Y-16295356D01*
X6156253Y-16295356D02*
X6165777Y-16314403D01*
X6165777Y-16314403D02*
X6175301Y-16352499D01*
X6175301Y-16352499D02*
X6175301Y-16400118D01*
X6175301Y-16400118D02*
X6165777Y-16438213D01*
X6165777Y-16438213D02*
X6156253Y-16457261D01*
X6156253Y-16457261D02*
X6146729Y-16466784D01*
X6146729Y-16466784D02*
X6127682Y-16476308D01*
X6127682Y-16476308D02*
X6108634Y-16476308D01*
X6108634Y-16476308D02*
X6089586Y-16466784D01*
X6089586Y-16466784D02*
X6080063Y-16457261D01*
X6080063Y-16457261D02*
X6070539Y-16438213D01*
X6070539Y-16438213D02*
X6061015Y-16400118D01*
X6061015Y-16400118D02*
X6061015Y-16352499D01*
X6061015Y-16352499D02*
X6070539Y-16314403D01*
X6070539Y-16314403D02*
X6080063Y-16295356D01*
X6080063Y-16295356D02*
X6089586Y-16285832D01*
X6089586Y-16285832D02*
X6108634Y-16276308D01*
X6261015Y-16457261D02*
X6270539Y-16466784D01*
X6270539Y-16466784D02*
X6261015Y-16476308D01*
X6261015Y-16476308D02*
X6251491Y-16466784D01*
X6251491Y-16466784D02*
X6261015Y-16457261D01*
X6261015Y-16457261D02*
X6261015Y-16476308D01*
X6394348Y-16276308D02*
X6413396Y-16276308D01*
X6413396Y-16276308D02*
X6432444Y-16285832D01*
X6432444Y-16285832D02*
X6441967Y-16295356D01*
X6441967Y-16295356D02*
X6451491Y-16314403D01*
X6451491Y-16314403D02*
X6461015Y-16352499D01*
X6461015Y-16352499D02*
X6461015Y-16400118D01*
X6461015Y-16400118D02*
X6451491Y-16438213D01*
X6451491Y-16438213D02*
X6441967Y-16457261D01*
X6441967Y-16457261D02*
X6432444Y-16466784D01*
X6432444Y-16466784D02*
X6413396Y-16476308D01*
X6413396Y-16476308D02*
X6394348Y-16476308D01*
X6394348Y-16476308D02*
X6375301Y-16466784D01*
X6375301Y-16466784D02*
X6365777Y-16457261D01*
X6365777Y-16457261D02*
X6356253Y-16438213D01*
X6356253Y-16438213D02*
X6346729Y-16400118D01*
X6346729Y-16400118D02*
X6346729Y-16352499D01*
X6346729Y-16352499D02*
X6356253Y-16314403D01*
X6356253Y-16314403D02*
X6365777Y-16295356D01*
X6365777Y-16295356D02*
X6375301Y-16285832D01*
X6375301Y-16285832D02*
X6394348Y-16276308D01*
X6651491Y-16476308D02*
X6537206Y-16476308D01*
X6594348Y-16476308D02*
X6594348Y-16276308D01*
X6594348Y-16276308D02*
X6575301Y-16304880D01*
X6575301Y-16304880D02*
X6556253Y-16323927D01*
X6556253Y-16323927D02*
X6537206Y-16333451D01*
X6832444Y-16276308D02*
X6737206Y-16276308D01*
X6737206Y-16276308D02*
X6727682Y-16371546D01*
X6727682Y-16371546D02*
X6737206Y-16362022D01*
X6737206Y-16362022D02*
X6756253Y-16352499D01*
X6756253Y-16352499D02*
X6803872Y-16352499D01*
X6803872Y-16352499D02*
X6822920Y-16362022D01*
X6822920Y-16362022D02*
X6832444Y-16371546D01*
X6832444Y-16371546D02*
X6841967Y-16390594D01*
X6841967Y-16390594D02*
X6841967Y-16438213D01*
X6841967Y-16438213D02*
X6832444Y-16457261D01*
X6832444Y-16457261D02*
X6822920Y-16466784D01*
X6822920Y-16466784D02*
X6803872Y-16476308D01*
X6803872Y-16476308D02*
X6756253Y-16476308D01*
X6756253Y-16476308D02*
X6737206Y-16466784D01*
X6737206Y-16466784D02*
X6727682Y-16457261D01*
X6908634Y-16276308D02*
X7041967Y-16276308D01*
X7041967Y-16276308D02*
X6956253Y-16476308D01*
X7108634Y-16276308D02*
X7108634Y-16314403D01*
X7184825Y-16276308D02*
X7184825Y-16314403D01*
X7480063Y-16552499D02*
X7470539Y-16542975D01*
X7470539Y-16542975D02*
X7451491Y-16514403D01*
X7451491Y-16514403D02*
X7441968Y-16495356D01*
X7441968Y-16495356D02*
X7432444Y-16466784D01*
X7432444Y-16466784D02*
X7422920Y-16419165D01*
X7422920Y-16419165D02*
X7422920Y-16381070D01*
X7422920Y-16381070D02*
X7432444Y-16333451D01*
X7432444Y-16333451D02*
X7441968Y-16304880D01*
X7441968Y-16304880D02*
X7451491Y-16285832D01*
X7451491Y-16285832D02*
X7470539Y-16257261D01*
X7470539Y-16257261D02*
X7480063Y-16247737D01*
X7641968Y-16342975D02*
X7641968Y-16476308D01*
X7594348Y-16266784D02*
X7546729Y-16409642D01*
X7546729Y-16409642D02*
X7670539Y-16409642D01*
X7899110Y-16476308D02*
X7899110Y-16276308D01*
X7984825Y-16476308D02*
X7984825Y-16371546D01*
X7984825Y-16371546D02*
X7975301Y-16352499D01*
X7975301Y-16352499D02*
X7956253Y-16342975D01*
X7956253Y-16342975D02*
X7927682Y-16342975D01*
X7927682Y-16342975D02*
X7908634Y-16352499D01*
X7908634Y-16352499D02*
X7899110Y-16362022D01*
X8108634Y-16476308D02*
X8089587Y-16466784D01*
X8089587Y-16466784D02*
X8080063Y-16457261D01*
X8080063Y-16457261D02*
X8070539Y-16438213D01*
X8070539Y-16438213D02*
X8070539Y-16381070D01*
X8070539Y-16381070D02*
X8080063Y-16362022D01*
X8080063Y-16362022D02*
X8089587Y-16352499D01*
X8089587Y-16352499D02*
X8108634Y-16342975D01*
X8108634Y-16342975D02*
X8137206Y-16342975D01*
X8137206Y-16342975D02*
X8156253Y-16352499D01*
X8156253Y-16352499D02*
X8165777Y-16362022D01*
X8165777Y-16362022D02*
X8175301Y-16381070D01*
X8175301Y-16381070D02*
X8175301Y-16438213D01*
X8175301Y-16438213D02*
X8165777Y-16457261D01*
X8165777Y-16457261D02*
X8156253Y-16466784D01*
X8156253Y-16466784D02*
X8137206Y-16476308D01*
X8137206Y-16476308D02*
X8108634Y-16476308D01*
X8289587Y-16476308D02*
X8270539Y-16466784D01*
X8270539Y-16466784D02*
X8261015Y-16447737D01*
X8261015Y-16447737D02*
X8261015Y-16276308D01*
X8441968Y-16466784D02*
X8422920Y-16476308D01*
X8422920Y-16476308D02*
X8384825Y-16476308D01*
X8384825Y-16476308D02*
X8365777Y-16466784D01*
X8365777Y-16466784D02*
X8356253Y-16447737D01*
X8356253Y-16447737D02*
X8356253Y-16371546D01*
X8356253Y-16371546D02*
X8365777Y-16352499D01*
X8365777Y-16352499D02*
X8384825Y-16342975D01*
X8384825Y-16342975D02*
X8422920Y-16342975D01*
X8422920Y-16342975D02*
X8441968Y-16352499D01*
X8441968Y-16352499D02*
X8451492Y-16371546D01*
X8451492Y-16371546D02*
X8451492Y-16390594D01*
X8451492Y-16390594D02*
X8356253Y-16409642D01*
X8527682Y-16466784D02*
X8546730Y-16476308D01*
X8546730Y-16476308D02*
X8584825Y-16476308D01*
X8584825Y-16476308D02*
X8603873Y-16466784D01*
X8603873Y-16466784D02*
X8613396Y-16447737D01*
X8613396Y-16447737D02*
X8613396Y-16438213D01*
X8613396Y-16438213D02*
X8603873Y-16419165D01*
X8603873Y-16419165D02*
X8584825Y-16409642D01*
X8584825Y-16409642D02*
X8556253Y-16409642D01*
X8556253Y-16409642D02*
X8537206Y-16400118D01*
X8537206Y-16400118D02*
X8527682Y-16381070D01*
X8527682Y-16381070D02*
X8527682Y-16371546D01*
X8527682Y-16371546D02*
X8537206Y-16352499D01*
X8537206Y-16352499D02*
X8556253Y-16342975D01*
X8556253Y-16342975D02*
X8584825Y-16342975D01*
X8584825Y-16342975D02*
X8603873Y-16352499D01*
X8680063Y-16552499D02*
X8689587Y-16542975D01*
X8689587Y-16542975D02*
X8708634Y-16514403D01*
X8708634Y-16514403D02*
X8718158Y-16495356D01*
X8718158Y-16495356D02*
X8727682Y-16466784D01*
X8727682Y-16466784D02*
X8737206Y-16419165D01*
X8737206Y-16419165D02*
X8737206Y-16381070D01*
X8737206Y-16381070D02*
X8727682Y-16333451D01*
X8727682Y-16333451D02*
X8718158Y-16304880D01*
X8718158Y-16304880D02*
X8708634Y-16285832D01*
X8708634Y-16285832D02*
X8689587Y-16257261D01*
X8689587Y-16257261D02*
X8680063Y-16247737D01*
D10*
X3905000Y-16648824D02*
G75*
G03*
X3828800Y-16648824I-38100J0D01*
G01*
X3828800Y-16648824D02*
G75*
G03*
X3905000Y-16648824I38100J0D01*
G01*
D11*
X4203872Y-16540308D02*
X4222920Y-16540308D01*
X4222920Y-16540308D02*
X4241967Y-16549832D01*
X4241967Y-16549832D02*
X4251491Y-16559356D01*
X4251491Y-16559356D02*
X4261015Y-16578403D01*
X4261015Y-16578403D02*
X4270539Y-16616499D01*
X4270539Y-16616499D02*
X4270539Y-16664118D01*
X4270539Y-16664118D02*
X4261015Y-16702213D01*
X4261015Y-16702213D02*
X4251491Y-16721261D01*
X4251491Y-16721261D02*
X4241967Y-16730784D01*
X4241967Y-16730784D02*
X4222920Y-16740308D01*
X4222920Y-16740308D02*
X4203872Y-16740308D01*
X4203872Y-16740308D02*
X4184824Y-16730784D01*
X4184824Y-16730784D02*
X4175301Y-16721261D01*
X4175301Y-16721261D02*
X4165777Y-16702213D01*
X4165777Y-16702213D02*
X4156253Y-16664118D01*
X4156253Y-16664118D02*
X4156253Y-16616499D01*
X4156253Y-16616499D02*
X4165777Y-16578403D01*
X4165777Y-16578403D02*
X4175301Y-16559356D01*
X4175301Y-16559356D02*
X4184824Y-16549832D01*
X4184824Y-16549832D02*
X4203872Y-16540308D01*
X4356253Y-16721261D02*
X4365777Y-16730784D01*
X4365777Y-16730784D02*
X4356253Y-16740308D01*
X4356253Y-16740308D02*
X4346729Y-16730784D01*
X4346729Y-16730784D02*
X4356253Y-16721261D01*
X4356253Y-16721261D02*
X4356253Y-16740308D01*
X4432444Y-16540308D02*
X4565777Y-16540308D01*
X4565777Y-16540308D02*
X4480063Y-16740308D01*
X4727682Y-16540308D02*
X4689586Y-16540308D01*
X4689586Y-16540308D02*
X4670539Y-16549832D01*
X4670539Y-16549832D02*
X4661015Y-16559356D01*
X4661015Y-16559356D02*
X4641967Y-16587927D01*
X4641967Y-16587927D02*
X4632444Y-16626022D01*
X4632444Y-16626022D02*
X4632444Y-16702213D01*
X4632444Y-16702213D02*
X4641967Y-16721261D01*
X4641967Y-16721261D02*
X4651491Y-16730784D01*
X4651491Y-16730784D02*
X4670539Y-16740308D01*
X4670539Y-16740308D02*
X4708634Y-16740308D01*
X4708634Y-16740308D02*
X4727682Y-16730784D01*
X4727682Y-16730784D02*
X4737205Y-16721261D01*
X4737205Y-16721261D02*
X4746729Y-16702213D01*
X4746729Y-16702213D02*
X4746729Y-16654594D01*
X4746729Y-16654594D02*
X4737205Y-16635546D01*
X4737205Y-16635546D02*
X4727682Y-16626022D01*
X4727682Y-16626022D02*
X4708634Y-16616499D01*
X4708634Y-16616499D02*
X4670539Y-16616499D01*
X4670539Y-16616499D02*
X4651491Y-16626022D01*
X4651491Y-16626022D02*
X4641967Y-16635546D01*
X4641967Y-16635546D02*
X4632444Y-16654594D01*
X4822920Y-16559356D02*
X4832444Y-16549832D01*
X4832444Y-16549832D02*
X4851491Y-16540308D01*
X4851491Y-16540308D02*
X4899110Y-16540308D01*
X4899110Y-16540308D02*
X4918158Y-16549832D01*
X4918158Y-16549832D02*
X4927682Y-16559356D01*
X4927682Y-16559356D02*
X4937205Y-16578403D01*
X4937205Y-16578403D02*
X4937205Y-16597451D01*
X4937205Y-16597451D02*
X4927682Y-16626022D01*
X4927682Y-16626022D02*
X4813396Y-16740308D01*
X4813396Y-16740308D02*
X4937205Y-16740308D01*
X5022920Y-16740308D02*
X5022920Y-16606975D01*
X5022920Y-16626022D02*
X5032444Y-16616499D01*
X5032444Y-16616499D02*
X5051491Y-16606975D01*
X5051491Y-16606975D02*
X5080063Y-16606975D01*
X5080063Y-16606975D02*
X5099110Y-16616499D01*
X5099110Y-16616499D02*
X5108634Y-16635546D01*
X5108634Y-16635546D02*
X5108634Y-16740308D01*
X5108634Y-16635546D02*
X5118158Y-16616499D01*
X5118158Y-16616499D02*
X5137205Y-16606975D01*
X5137205Y-16606975D02*
X5165777Y-16606975D01*
X5165777Y-16606975D02*
X5184825Y-16616499D01*
X5184825Y-16616499D02*
X5194348Y-16635546D01*
X5194348Y-16635546D02*
X5194348Y-16740308D01*
X5289586Y-16740308D02*
X5289586Y-16606975D01*
X5289586Y-16626022D02*
X5299110Y-16616499D01*
X5299110Y-16616499D02*
X5318158Y-16606975D01*
X5318158Y-16606975D02*
X5346729Y-16606975D01*
X5346729Y-16606975D02*
X5365777Y-16616499D01*
X5365777Y-16616499D02*
X5375301Y-16635546D01*
X5375301Y-16635546D02*
X5375301Y-16740308D01*
X5375301Y-16635546D02*
X5384825Y-16616499D01*
X5384825Y-16616499D02*
X5403872Y-16606975D01*
X5403872Y-16606975D02*
X5432444Y-16606975D01*
X5432444Y-16606975D02*
X5451491Y-16616499D01*
X5451491Y-16616499D02*
X5461015Y-16635546D01*
X5461015Y-16635546D02*
X5461015Y-16740308D01*
X5851491Y-16530784D02*
X5680063Y-16787927D01*
X6108634Y-16540308D02*
X6127682Y-16540308D01*
X6127682Y-16540308D02*
X6146729Y-16549832D01*
X6146729Y-16549832D02*
X6156253Y-16559356D01*
X6156253Y-16559356D02*
X6165777Y-16578403D01*
X6165777Y-16578403D02*
X6175301Y-16616499D01*
X6175301Y-16616499D02*
X6175301Y-16664118D01*
X6175301Y-16664118D02*
X6165777Y-16702213D01*
X6165777Y-16702213D02*
X6156253Y-16721261D01*
X6156253Y-16721261D02*
X6146729Y-16730784D01*
X6146729Y-16730784D02*
X6127682Y-16740308D01*
X6127682Y-16740308D02*
X6108634Y-16740308D01*
X6108634Y-16740308D02*
X6089586Y-16730784D01*
X6089586Y-16730784D02*
X6080063Y-16721261D01*
X6080063Y-16721261D02*
X6070539Y-16702213D01*
X6070539Y-16702213D02*
X6061015Y-16664118D01*
X6061015Y-16664118D02*
X6061015Y-16616499D01*
X6061015Y-16616499D02*
X6070539Y-16578403D01*
X6070539Y-16578403D02*
X6080063Y-16559356D01*
X6080063Y-16559356D02*
X6089586Y-16549832D01*
X6089586Y-16549832D02*
X6108634Y-16540308D01*
X6261015Y-16721261D02*
X6270539Y-16730784D01*
X6270539Y-16730784D02*
X6261015Y-16740308D01*
X6261015Y-16740308D02*
X6251491Y-16730784D01*
X6251491Y-16730784D02*
X6261015Y-16721261D01*
X6261015Y-16721261D02*
X6261015Y-16740308D01*
X6394348Y-16540308D02*
X6413396Y-16540308D01*
X6413396Y-16540308D02*
X6432444Y-16549832D01*
X6432444Y-16549832D02*
X6441967Y-16559356D01*
X6441967Y-16559356D02*
X6451491Y-16578403D01*
X6451491Y-16578403D02*
X6461015Y-16616499D01*
X6461015Y-16616499D02*
X6461015Y-16664118D01*
X6461015Y-16664118D02*
X6451491Y-16702213D01*
X6451491Y-16702213D02*
X6441967Y-16721261D01*
X6441967Y-16721261D02*
X6432444Y-16730784D01*
X6432444Y-16730784D02*
X6413396Y-16740308D01*
X6413396Y-16740308D02*
X6394348Y-16740308D01*
X6394348Y-16740308D02*
X6375301Y-16730784D01*
X6375301Y-16730784D02*
X6365777Y-16721261D01*
X6365777Y-16721261D02*
X6356253Y-16702213D01*
X6356253Y-16702213D02*
X6346729Y-16664118D01*
X6346729Y-16664118D02*
X6346729Y-16616499D01*
X6346729Y-16616499D02*
X6356253Y-16578403D01*
X6356253Y-16578403D02*
X6365777Y-16559356D01*
X6365777Y-16559356D02*
X6375301Y-16549832D01*
X6375301Y-16549832D02*
X6394348Y-16540308D01*
X6527682Y-16540308D02*
X6651491Y-16540308D01*
X6651491Y-16540308D02*
X6584825Y-16616499D01*
X6584825Y-16616499D02*
X6613396Y-16616499D01*
X6613396Y-16616499D02*
X6632444Y-16626022D01*
X6632444Y-16626022D02*
X6641967Y-16635546D01*
X6641967Y-16635546D02*
X6651491Y-16654594D01*
X6651491Y-16654594D02*
X6651491Y-16702213D01*
X6651491Y-16702213D02*
X6641967Y-16721261D01*
X6641967Y-16721261D02*
X6632444Y-16730784D01*
X6632444Y-16730784D02*
X6613396Y-16740308D01*
X6613396Y-16740308D02*
X6556253Y-16740308D01*
X6556253Y-16740308D02*
X6537206Y-16730784D01*
X6537206Y-16730784D02*
X6527682Y-16721261D01*
X6775301Y-16540308D02*
X6794348Y-16540308D01*
X6794348Y-16540308D02*
X6813396Y-16549832D01*
X6813396Y-16549832D02*
X6822920Y-16559356D01*
X6822920Y-16559356D02*
X6832444Y-16578403D01*
X6832444Y-16578403D02*
X6841967Y-16616499D01*
X6841967Y-16616499D02*
X6841967Y-16664118D01*
X6841967Y-16664118D02*
X6832444Y-16702213D01*
X6832444Y-16702213D02*
X6822920Y-16721261D01*
X6822920Y-16721261D02*
X6813396Y-16730784D01*
X6813396Y-16730784D02*
X6794348Y-16740308D01*
X6794348Y-16740308D02*
X6775301Y-16740308D01*
X6775301Y-16740308D02*
X6756253Y-16730784D01*
X6756253Y-16730784D02*
X6746729Y-16721261D01*
X6746729Y-16721261D02*
X6737206Y-16702213D01*
X6737206Y-16702213D02*
X6727682Y-16664118D01*
X6727682Y-16664118D02*
X6727682Y-16616499D01*
X6727682Y-16616499D02*
X6737206Y-16578403D01*
X6737206Y-16578403D02*
X6746729Y-16559356D01*
X6746729Y-16559356D02*
X6756253Y-16549832D01*
X6756253Y-16549832D02*
X6775301Y-16540308D01*
X6965777Y-16540308D02*
X6984825Y-16540308D01*
X6984825Y-16540308D02*
X7003872Y-16549832D01*
X7003872Y-16549832D02*
X7013396Y-16559356D01*
X7013396Y-16559356D02*
X7022920Y-16578403D01*
X7022920Y-16578403D02*
X7032444Y-16616499D01*
X7032444Y-16616499D02*
X7032444Y-16664118D01*
X7032444Y-16664118D02*
X7022920Y-16702213D01*
X7022920Y-16702213D02*
X7013396Y-16721261D01*
X7013396Y-16721261D02*
X7003872Y-16730784D01*
X7003872Y-16730784D02*
X6984825Y-16740308D01*
X6984825Y-16740308D02*
X6965777Y-16740308D01*
X6965777Y-16740308D02*
X6946729Y-16730784D01*
X6946729Y-16730784D02*
X6937206Y-16721261D01*
X6937206Y-16721261D02*
X6927682Y-16702213D01*
X6927682Y-16702213D02*
X6918158Y-16664118D01*
X6918158Y-16664118D02*
X6918158Y-16616499D01*
X6918158Y-16616499D02*
X6927682Y-16578403D01*
X6927682Y-16578403D02*
X6937206Y-16559356D01*
X6937206Y-16559356D02*
X6946729Y-16549832D01*
X6946729Y-16549832D02*
X6965777Y-16540308D01*
X7108634Y-16540308D02*
X7108634Y-16578403D01*
X7184825Y-16540308D02*
X7184825Y-16578403D01*
X7480063Y-16816499D02*
X7470539Y-16806975D01*
X7470539Y-16806975D02*
X7451491Y-16778404D01*
X7451491Y-16778404D02*
X7441968Y-16759356D01*
X7441968Y-16759356D02*
X7432444Y-16730784D01*
X7432444Y-16730784D02*
X7422920Y-16683165D01*
X7422920Y-16683165D02*
X7422920Y-16645070D01*
X7422920Y-16645070D02*
X7432444Y-16597451D01*
X7432444Y-16597451D02*
X7441968Y-16568880D01*
X7441968Y-16568880D02*
X7451491Y-16549832D01*
X7451491Y-16549832D02*
X7470539Y-16521261D01*
X7470539Y-16521261D02*
X7480063Y-16511737D01*
X7537206Y-16540308D02*
X7670539Y-16540308D01*
X7670539Y-16540308D02*
X7584825Y-16740308D01*
X7899110Y-16740308D02*
X7899110Y-16540308D01*
X7984825Y-16740308D02*
X7984825Y-16635546D01*
X7984825Y-16635546D02*
X7975301Y-16616499D01*
X7975301Y-16616499D02*
X7956253Y-16606975D01*
X7956253Y-16606975D02*
X7927682Y-16606975D01*
X7927682Y-16606975D02*
X7908634Y-16616499D01*
X7908634Y-16616499D02*
X7899110Y-16626022D01*
X8108634Y-16740308D02*
X8089587Y-16730784D01*
X8089587Y-16730784D02*
X8080063Y-16721261D01*
X8080063Y-16721261D02*
X8070539Y-16702213D01*
X8070539Y-16702213D02*
X8070539Y-16645070D01*
X8070539Y-16645070D02*
X8080063Y-16626022D01*
X8080063Y-16626022D02*
X8089587Y-16616499D01*
X8089587Y-16616499D02*
X8108634Y-16606975D01*
X8108634Y-16606975D02*
X8137206Y-16606975D01*
X8137206Y-16606975D02*
X8156253Y-16616499D01*
X8156253Y-16616499D02*
X8165777Y-16626022D01*
X8165777Y-16626022D02*
X8175301Y-16645070D01*
X8175301Y-16645070D02*
X8175301Y-16702213D01*
X8175301Y-16702213D02*
X8165777Y-16721261D01*
X8165777Y-16721261D02*
X8156253Y-16730784D01*
X8156253Y-16730784D02*
X8137206Y-16740308D01*
X8137206Y-16740308D02*
X8108634Y-16740308D01*
X8289587Y-16740308D02*
X8270539Y-16730784D01*
X8270539Y-16730784D02*
X8261015Y-16711737D01*
X8261015Y-16711737D02*
X8261015Y-16540308D01*
X8441968Y-16730784D02*
X8422920Y-16740308D01*
X8422920Y-16740308D02*
X8384825Y-16740308D01*
X8384825Y-16740308D02*
X8365777Y-16730784D01*
X8365777Y-16730784D02*
X8356253Y-16711737D01*
X8356253Y-16711737D02*
X8356253Y-16635546D01*
X8356253Y-16635546D02*
X8365777Y-16616499D01*
X8365777Y-16616499D02*
X8384825Y-16606975D01*
X8384825Y-16606975D02*
X8422920Y-16606975D01*
X8422920Y-16606975D02*
X8441968Y-16616499D01*
X8441968Y-16616499D02*
X8451492Y-16635546D01*
X8451492Y-16635546D02*
X8451492Y-16654594D01*
X8451492Y-16654594D02*
X8356253Y-16673642D01*
X8527682Y-16730784D02*
X8546730Y-16740308D01*
X8546730Y-16740308D02*
X8584825Y-16740308D01*
X8584825Y-16740308D02*
X8603873Y-16730784D01*
X8603873Y-16730784D02*
X8613396Y-16711737D01*
X8613396Y-16711737D02*
X8613396Y-16702213D01*
X8613396Y-16702213D02*
X8603873Y-16683165D01*
X8603873Y-16683165D02*
X8584825Y-16673642D01*
X8584825Y-16673642D02*
X8556253Y-16673642D01*
X8556253Y-16673642D02*
X8537206Y-16664118D01*
X8537206Y-16664118D02*
X8527682Y-16645070D01*
X8527682Y-16645070D02*
X8527682Y-16635546D01*
X8527682Y-16635546D02*
X8537206Y-16616499D01*
X8537206Y-16616499D02*
X8556253Y-16606975D01*
X8556253Y-16606975D02*
X8584825Y-16606975D01*
X8584825Y-16606975D02*
X8603873Y-16616499D01*
X8680063Y-16816499D02*
X8689587Y-16806975D01*
X8689587Y-16806975D02*
X8708634Y-16778404D01*
X8708634Y-16778404D02*
X8718158Y-16759356D01*
X8718158Y-16759356D02*
X8727682Y-16730784D01*
X8727682Y-16730784D02*
X8737206Y-16683165D01*
X8737206Y-16683165D02*
X8737206Y-16645070D01*
X8737206Y-16645070D02*
X8727682Y-16597451D01*
X8727682Y-16597451D02*
X8718158Y-16568880D01*
X8718158Y-16568880D02*
X8708634Y-16549832D01*
X8708634Y-16549832D02*
X8689587Y-16521261D01*
X8689587Y-16521261D02*
X8680063Y-16511737D01*
D12*
X3854000Y-16861825D02*
X3854000Y-16963825D01*
X3803000Y-16912825D02*
X3905000Y-16912825D01*
D11*
X4270539Y-17004308D02*
X4156253Y-17004308D01*
X4213396Y-17004308D02*
X4213396Y-16804308D01*
X4213396Y-16804308D02*
X4194348Y-16832880D01*
X4194348Y-16832880D02*
X4175301Y-16851927D01*
X4175301Y-16851927D02*
X4156253Y-16861451D01*
X4356253Y-16985261D02*
X4365777Y-16994785D01*
X4365777Y-16994785D02*
X4356253Y-17004308D01*
X4356253Y-17004308D02*
X4346729Y-16994785D01*
X4346729Y-16994785D02*
X4356253Y-16985261D01*
X4356253Y-16985261D02*
X4356253Y-17004308D01*
X4489586Y-16804308D02*
X4508634Y-16804308D01*
X4508634Y-16804308D02*
X4527682Y-16813832D01*
X4527682Y-16813832D02*
X4537205Y-16823356D01*
X4537205Y-16823356D02*
X4546729Y-16842404D01*
X4546729Y-16842404D02*
X4556253Y-16880499D01*
X4556253Y-16880499D02*
X4556253Y-16928118D01*
X4556253Y-16928118D02*
X4546729Y-16966213D01*
X4546729Y-16966213D02*
X4537205Y-16985261D01*
X4537205Y-16985261D02*
X4527682Y-16994785D01*
X4527682Y-16994785D02*
X4508634Y-17004308D01*
X4508634Y-17004308D02*
X4489586Y-17004308D01*
X4489586Y-17004308D02*
X4470539Y-16994785D01*
X4470539Y-16994785D02*
X4461015Y-16985261D01*
X4461015Y-16985261D02*
X4451491Y-16966213D01*
X4451491Y-16966213D02*
X4441967Y-16928118D01*
X4441967Y-16928118D02*
X4441967Y-16880499D01*
X4441967Y-16880499D02*
X4451491Y-16842404D01*
X4451491Y-16842404D02*
X4461015Y-16823356D01*
X4461015Y-16823356D02*
X4470539Y-16813832D01*
X4470539Y-16813832D02*
X4489586Y-16804308D01*
X4632444Y-16823356D02*
X4641967Y-16813832D01*
X4641967Y-16813832D02*
X4661015Y-16804308D01*
X4661015Y-16804308D02*
X4708634Y-16804308D01*
X4708634Y-16804308D02*
X4727682Y-16813832D01*
X4727682Y-16813832D02*
X4737205Y-16823356D01*
X4737205Y-16823356D02*
X4746729Y-16842404D01*
X4746729Y-16842404D02*
X4746729Y-16861451D01*
X4746729Y-16861451D02*
X4737205Y-16890023D01*
X4737205Y-16890023D02*
X4622920Y-17004308D01*
X4622920Y-17004308D02*
X4746729Y-17004308D01*
X4870539Y-16804308D02*
X4889586Y-16804308D01*
X4889586Y-16804308D02*
X4908634Y-16813832D01*
X4908634Y-16813832D02*
X4918158Y-16823356D01*
X4918158Y-16823356D02*
X4927682Y-16842404D01*
X4927682Y-16842404D02*
X4937205Y-16880499D01*
X4937205Y-16880499D02*
X4937205Y-16928118D01*
X4937205Y-16928118D02*
X4927682Y-16966213D01*
X4927682Y-16966213D02*
X4918158Y-16985261D01*
X4918158Y-16985261D02*
X4908634Y-16994785D01*
X4908634Y-16994785D02*
X4889586Y-17004308D01*
X4889586Y-17004308D02*
X4870539Y-17004308D01*
X4870539Y-17004308D02*
X4851491Y-16994785D01*
X4851491Y-16994785D02*
X4841967Y-16985261D01*
X4841967Y-16985261D02*
X4832444Y-16966213D01*
X4832444Y-16966213D02*
X4822920Y-16928118D01*
X4822920Y-16928118D02*
X4822920Y-16880499D01*
X4822920Y-16880499D02*
X4832444Y-16842404D01*
X4832444Y-16842404D02*
X4841967Y-16823356D01*
X4841967Y-16823356D02*
X4851491Y-16813832D01*
X4851491Y-16813832D02*
X4870539Y-16804308D01*
X5022920Y-17004308D02*
X5022920Y-16870975D01*
X5022920Y-16890023D02*
X5032444Y-16880499D01*
X5032444Y-16880499D02*
X5051491Y-16870975D01*
X5051491Y-16870975D02*
X5080063Y-16870975D01*
X5080063Y-16870975D02*
X5099110Y-16880499D01*
X5099110Y-16880499D02*
X5108634Y-16899546D01*
X5108634Y-16899546D02*
X5108634Y-17004308D01*
X5108634Y-16899546D02*
X5118158Y-16880499D01*
X5118158Y-16880499D02*
X5137205Y-16870975D01*
X5137205Y-16870975D02*
X5165777Y-16870975D01*
X5165777Y-16870975D02*
X5184825Y-16880499D01*
X5184825Y-16880499D02*
X5194348Y-16899546D01*
X5194348Y-16899546D02*
X5194348Y-17004308D01*
X5289586Y-17004308D02*
X5289586Y-16870975D01*
X5289586Y-16890023D02*
X5299110Y-16880499D01*
X5299110Y-16880499D02*
X5318158Y-16870975D01*
X5318158Y-16870975D02*
X5346729Y-16870975D01*
X5346729Y-16870975D02*
X5365777Y-16880499D01*
X5365777Y-16880499D02*
X5375301Y-16899546D01*
X5375301Y-16899546D02*
X5375301Y-17004308D01*
X5375301Y-16899546D02*
X5384825Y-16880499D01*
X5384825Y-16880499D02*
X5403872Y-16870975D01*
X5403872Y-16870975D02*
X5432444Y-16870975D01*
X5432444Y-16870975D02*
X5451491Y-16880499D01*
X5451491Y-16880499D02*
X5461015Y-16899546D01*
X5461015Y-16899546D02*
X5461015Y-17004308D01*
X5851491Y-16794785D02*
X5680063Y-17051927D01*
X6108634Y-16804308D02*
X6127682Y-16804308D01*
X6127682Y-16804308D02*
X6146729Y-16813832D01*
X6146729Y-16813832D02*
X6156253Y-16823356D01*
X6156253Y-16823356D02*
X6165777Y-16842404D01*
X6165777Y-16842404D02*
X6175301Y-16880499D01*
X6175301Y-16880499D02*
X6175301Y-16928118D01*
X6175301Y-16928118D02*
X6165777Y-16966213D01*
X6165777Y-16966213D02*
X6156253Y-16985261D01*
X6156253Y-16985261D02*
X6146729Y-16994785D01*
X6146729Y-16994785D02*
X6127682Y-17004308D01*
X6127682Y-17004308D02*
X6108634Y-17004308D01*
X6108634Y-17004308D02*
X6089586Y-16994785D01*
X6089586Y-16994785D02*
X6080063Y-16985261D01*
X6080063Y-16985261D02*
X6070539Y-16966213D01*
X6070539Y-16966213D02*
X6061015Y-16928118D01*
X6061015Y-16928118D02*
X6061015Y-16880499D01*
X6061015Y-16880499D02*
X6070539Y-16842404D01*
X6070539Y-16842404D02*
X6080063Y-16823356D01*
X6080063Y-16823356D02*
X6089586Y-16813832D01*
X6089586Y-16813832D02*
X6108634Y-16804308D01*
X6261015Y-16985261D02*
X6270539Y-16994785D01*
X6270539Y-16994785D02*
X6261015Y-17004308D01*
X6261015Y-17004308D02*
X6251491Y-16994785D01*
X6251491Y-16994785D02*
X6261015Y-16985261D01*
X6261015Y-16985261D02*
X6261015Y-17004308D01*
X6394348Y-16804308D02*
X6413396Y-16804308D01*
X6413396Y-16804308D02*
X6432444Y-16813832D01*
X6432444Y-16813832D02*
X6441967Y-16823356D01*
X6441967Y-16823356D02*
X6451491Y-16842404D01*
X6451491Y-16842404D02*
X6461015Y-16880499D01*
X6461015Y-16880499D02*
X6461015Y-16928118D01*
X6461015Y-16928118D02*
X6451491Y-16966213D01*
X6451491Y-16966213D02*
X6441967Y-16985261D01*
X6441967Y-16985261D02*
X6432444Y-16994785D01*
X6432444Y-16994785D02*
X6413396Y-17004308D01*
X6413396Y-17004308D02*
X6394348Y-17004308D01*
X6394348Y-17004308D02*
X6375301Y-16994785D01*
X6375301Y-16994785D02*
X6365777Y-16985261D01*
X6365777Y-16985261D02*
X6356253Y-16966213D01*
X6356253Y-16966213D02*
X6346729Y-16928118D01*
X6346729Y-16928118D02*
X6346729Y-16880499D01*
X6346729Y-16880499D02*
X6356253Y-16842404D01*
X6356253Y-16842404D02*
X6365777Y-16823356D01*
X6365777Y-16823356D02*
X6375301Y-16813832D01*
X6375301Y-16813832D02*
X6394348Y-16804308D01*
X6632444Y-16870975D02*
X6632444Y-17004308D01*
X6584825Y-16794785D02*
X6537206Y-16937642D01*
X6537206Y-16937642D02*
X6661015Y-16937642D01*
X6775301Y-16804308D02*
X6794348Y-16804308D01*
X6794348Y-16804308D02*
X6813396Y-16813832D01*
X6813396Y-16813832D02*
X6822920Y-16823356D01*
X6822920Y-16823356D02*
X6832444Y-16842404D01*
X6832444Y-16842404D02*
X6841967Y-16880499D01*
X6841967Y-16880499D02*
X6841967Y-16928118D01*
X6841967Y-16928118D02*
X6832444Y-16966213D01*
X6832444Y-16966213D02*
X6822920Y-16985261D01*
X6822920Y-16985261D02*
X6813396Y-16994785D01*
X6813396Y-16994785D02*
X6794348Y-17004308D01*
X6794348Y-17004308D02*
X6775301Y-17004308D01*
X6775301Y-17004308D02*
X6756253Y-16994785D01*
X6756253Y-16994785D02*
X6746729Y-16985261D01*
X6746729Y-16985261D02*
X6737206Y-16966213D01*
X6737206Y-16966213D02*
X6727682Y-16928118D01*
X6727682Y-16928118D02*
X6727682Y-16880499D01*
X6727682Y-16880499D02*
X6737206Y-16842404D01*
X6737206Y-16842404D02*
X6746729Y-16823356D01*
X6746729Y-16823356D02*
X6756253Y-16813832D01*
X6756253Y-16813832D02*
X6775301Y-16804308D01*
X6918158Y-16823356D02*
X6927682Y-16813832D01*
X6927682Y-16813832D02*
X6946729Y-16804308D01*
X6946729Y-16804308D02*
X6994348Y-16804308D01*
X6994348Y-16804308D02*
X7013396Y-16813832D01*
X7013396Y-16813832D02*
X7022920Y-16823356D01*
X7022920Y-16823356D02*
X7032444Y-16842404D01*
X7032444Y-16842404D02*
X7032444Y-16861451D01*
X7032444Y-16861451D02*
X7022920Y-16890023D01*
X7022920Y-16890023D02*
X6908634Y-17004308D01*
X6908634Y-17004308D02*
X7032444Y-17004308D01*
X7108634Y-16804308D02*
X7108634Y-16842404D01*
X7184825Y-16804308D02*
X7184825Y-16842404D01*
X7480063Y-17080499D02*
X7470539Y-17070975D01*
X7470539Y-17070975D02*
X7451491Y-17042404D01*
X7451491Y-17042404D02*
X7441968Y-17023356D01*
X7441968Y-17023356D02*
X7432444Y-16994785D01*
X7432444Y-16994785D02*
X7422920Y-16947165D01*
X7422920Y-16947165D02*
X7422920Y-16909070D01*
X7422920Y-16909070D02*
X7432444Y-16861451D01*
X7432444Y-16861451D02*
X7441968Y-16832880D01*
X7441968Y-16832880D02*
X7451491Y-16813832D01*
X7451491Y-16813832D02*
X7470539Y-16785261D01*
X7470539Y-16785261D02*
X7480063Y-16775737D01*
X7641968Y-16870975D02*
X7641968Y-17004308D01*
X7594348Y-16794785D02*
X7546729Y-16937642D01*
X7546729Y-16937642D02*
X7670539Y-16937642D01*
X7727682Y-16804308D02*
X7851491Y-16804308D01*
X7851491Y-16804308D02*
X7784825Y-16880499D01*
X7784825Y-16880499D02*
X7813396Y-16880499D01*
X7813396Y-16880499D02*
X7832444Y-16890023D01*
X7832444Y-16890023D02*
X7841968Y-16899546D01*
X7841968Y-16899546D02*
X7851491Y-16918594D01*
X7851491Y-16918594D02*
X7851491Y-16966213D01*
X7851491Y-16966213D02*
X7841968Y-16985261D01*
X7841968Y-16985261D02*
X7832444Y-16994785D01*
X7832444Y-16994785D02*
X7813396Y-17004308D01*
X7813396Y-17004308D02*
X7756253Y-17004308D01*
X7756253Y-17004308D02*
X7737206Y-16994785D01*
X7737206Y-16994785D02*
X7727682Y-16985261D01*
X8089587Y-17004308D02*
X8089587Y-16804308D01*
X8175301Y-17004308D02*
X8175301Y-16899546D01*
X8175301Y-16899546D02*
X8165777Y-16880499D01*
X8165777Y-16880499D02*
X8146730Y-16870975D01*
X8146730Y-16870975D02*
X8118158Y-16870975D01*
X8118158Y-16870975D02*
X8099110Y-16880499D01*
X8099110Y-16880499D02*
X8089587Y-16890023D01*
X8299110Y-17004308D02*
X8280063Y-16994785D01*
X8280063Y-16994785D02*
X8270539Y-16985261D01*
X8270539Y-16985261D02*
X8261015Y-16966213D01*
X8261015Y-16966213D02*
X8261015Y-16909070D01*
X8261015Y-16909070D02*
X8270539Y-16890023D01*
X8270539Y-16890023D02*
X8280063Y-16880499D01*
X8280063Y-16880499D02*
X8299110Y-16870975D01*
X8299110Y-16870975D02*
X8327682Y-16870975D01*
X8327682Y-16870975D02*
X8346730Y-16880499D01*
X8346730Y-16880499D02*
X8356253Y-16890023D01*
X8356253Y-16890023D02*
X8365777Y-16909070D01*
X8365777Y-16909070D02*
X8365777Y-16966213D01*
X8365777Y-16966213D02*
X8356253Y-16985261D01*
X8356253Y-16985261D02*
X8346730Y-16994785D01*
X8346730Y-16994785D02*
X8327682Y-17004308D01*
X8327682Y-17004308D02*
X8299110Y-17004308D01*
X8480063Y-17004308D02*
X8461015Y-16994785D01*
X8461015Y-16994785D02*
X8451492Y-16975737D01*
X8451492Y-16975737D02*
X8451492Y-16804308D01*
X8632444Y-16994785D02*
X8613396Y-17004308D01*
X8613396Y-17004308D02*
X8575301Y-17004308D01*
X8575301Y-17004308D02*
X8556253Y-16994785D01*
X8556253Y-16994785D02*
X8546730Y-16975737D01*
X8546730Y-16975737D02*
X8546730Y-16899546D01*
X8546730Y-16899546D02*
X8556253Y-16880499D01*
X8556253Y-16880499D02*
X8575301Y-16870975D01*
X8575301Y-16870975D02*
X8613396Y-16870975D01*
X8613396Y-16870975D02*
X8632444Y-16880499D01*
X8632444Y-16880499D02*
X8641968Y-16899546D01*
X8641968Y-16899546D02*
X8641968Y-16918594D01*
X8641968Y-16918594D02*
X8546730Y-16937642D01*
X8718158Y-16994785D02*
X8737206Y-17004308D01*
X8737206Y-17004308D02*
X8775301Y-17004308D01*
X8775301Y-17004308D02*
X8794349Y-16994785D01*
X8794349Y-16994785D02*
X8803873Y-16975737D01*
X8803873Y-16975737D02*
X8803873Y-16966213D01*
X8803873Y-16966213D02*
X8794349Y-16947165D01*
X8794349Y-16947165D02*
X8775301Y-16937642D01*
X8775301Y-16937642D02*
X8746730Y-16937642D01*
X8746730Y-16937642D02*
X8727682Y-16928118D01*
X8727682Y-16928118D02*
X8718158Y-16909070D01*
X8718158Y-16909070D02*
X8718158Y-16899546D01*
X8718158Y-16899546D02*
X8727682Y-16880499D01*
X8727682Y-16880499D02*
X8746730Y-16870975D01*
X8746730Y-16870975D02*
X8775301Y-16870975D01*
X8775301Y-16870975D02*
X8794349Y-16880499D01*
X8870539Y-17080499D02*
X8880063Y-17070975D01*
X8880063Y-17070975D02*
X8899111Y-17042404D01*
X8899111Y-17042404D02*
X8908634Y-17023356D01*
X8908634Y-17023356D02*
X8918158Y-16994785D01*
X8918158Y-16994785D02*
X8927682Y-16947165D01*
X8927682Y-16947165D02*
X8927682Y-16909070D01*
X8927682Y-16909070D02*
X8918158Y-16861451D01*
X8918158Y-16861451D02*
X8908634Y-16832880D01*
X8908634Y-16832880D02*
X8899111Y-16813832D01*
X8899111Y-16813832D02*
X8880063Y-16785261D01*
X8880063Y-16785261D02*
X8870539Y-16775737D01*
X3875711Y-17247536D02*
X3875711Y-17106113D01*
X3734289Y-17106113D01*
X3734289Y-17247536D01*
X3875711Y-17247536D01*
X4146729Y-17068308D02*
X4270539Y-17068308D01*
X4270539Y-17068308D02*
X4203872Y-17144499D01*
X4203872Y-17144499D02*
X4232444Y-17144499D01*
X4232444Y-17144499D02*
X4251491Y-17154023D01*
X4251491Y-17154023D02*
X4261015Y-17163546D01*
X4261015Y-17163546D02*
X4270539Y-17182594D01*
X4270539Y-17182594D02*
X4270539Y-17230213D01*
X4270539Y-17230213D02*
X4261015Y-17249261D01*
X4261015Y-17249261D02*
X4251491Y-17258785D01*
X4251491Y-17258785D02*
X4232444Y-17268308D01*
X4232444Y-17268308D02*
X4175301Y-17268308D01*
X4175301Y-17268308D02*
X4156253Y-17258785D01*
X4156253Y-17258785D02*
X4146729Y-17249261D01*
X4356253Y-17249261D02*
X4365777Y-17258785D01*
X4365777Y-17258785D02*
X4356253Y-17268308D01*
X4356253Y-17268308D02*
X4346729Y-17258785D01*
X4346729Y-17258785D02*
X4356253Y-17249261D01*
X4356253Y-17249261D02*
X4356253Y-17268308D01*
X4489586Y-17068308D02*
X4508634Y-17068308D01*
X4508634Y-17068308D02*
X4527682Y-17077832D01*
X4527682Y-17077832D02*
X4537205Y-17087356D01*
X4537205Y-17087356D02*
X4546729Y-17106404D01*
X4546729Y-17106404D02*
X4556253Y-17144499D01*
X4556253Y-17144499D02*
X4556253Y-17192118D01*
X4556253Y-17192118D02*
X4546729Y-17230213D01*
X4546729Y-17230213D02*
X4537205Y-17249261D01*
X4537205Y-17249261D02*
X4527682Y-17258785D01*
X4527682Y-17258785D02*
X4508634Y-17268308D01*
X4508634Y-17268308D02*
X4489586Y-17268308D01*
X4489586Y-17268308D02*
X4470539Y-17258785D01*
X4470539Y-17258785D02*
X4461015Y-17249261D01*
X4461015Y-17249261D02*
X4451491Y-17230213D01*
X4451491Y-17230213D02*
X4441967Y-17192118D01*
X4441967Y-17192118D02*
X4441967Y-17144499D01*
X4441967Y-17144499D02*
X4451491Y-17106404D01*
X4451491Y-17106404D02*
X4461015Y-17087356D01*
X4461015Y-17087356D02*
X4470539Y-17077832D01*
X4470539Y-17077832D02*
X4489586Y-17068308D01*
X4680063Y-17068308D02*
X4699110Y-17068308D01*
X4699110Y-17068308D02*
X4718158Y-17077832D01*
X4718158Y-17077832D02*
X4727682Y-17087356D01*
X4727682Y-17087356D02*
X4737205Y-17106404D01*
X4737205Y-17106404D02*
X4746729Y-17144499D01*
X4746729Y-17144499D02*
X4746729Y-17192118D01*
X4746729Y-17192118D02*
X4737205Y-17230213D01*
X4737205Y-17230213D02*
X4727682Y-17249261D01*
X4727682Y-17249261D02*
X4718158Y-17258785D01*
X4718158Y-17258785D02*
X4699110Y-17268308D01*
X4699110Y-17268308D02*
X4680063Y-17268308D01*
X4680063Y-17268308D02*
X4661015Y-17258785D01*
X4661015Y-17258785D02*
X4651491Y-17249261D01*
X4651491Y-17249261D02*
X4641967Y-17230213D01*
X4641967Y-17230213D02*
X4632444Y-17192118D01*
X4632444Y-17192118D02*
X4632444Y-17144499D01*
X4632444Y-17144499D02*
X4641967Y-17106404D01*
X4641967Y-17106404D02*
X4651491Y-17087356D01*
X4651491Y-17087356D02*
X4661015Y-17077832D01*
X4661015Y-17077832D02*
X4680063Y-17068308D01*
X4870539Y-17068308D02*
X4889586Y-17068308D01*
X4889586Y-17068308D02*
X4908634Y-17077832D01*
X4908634Y-17077832D02*
X4918158Y-17087356D01*
X4918158Y-17087356D02*
X4927682Y-17106404D01*
X4927682Y-17106404D02*
X4937205Y-17144499D01*
X4937205Y-17144499D02*
X4937205Y-17192118D01*
X4937205Y-17192118D02*
X4927682Y-17230213D01*
X4927682Y-17230213D02*
X4918158Y-17249261D01*
X4918158Y-17249261D02*
X4908634Y-17258785D01*
X4908634Y-17258785D02*
X4889586Y-17268308D01*
X4889586Y-17268308D02*
X4870539Y-17268308D01*
X4870539Y-17268308D02*
X4851491Y-17258785D01*
X4851491Y-17258785D02*
X4841967Y-17249261D01*
X4841967Y-17249261D02*
X4832444Y-17230213D01*
X4832444Y-17230213D02*
X4822920Y-17192118D01*
X4822920Y-17192118D02*
X4822920Y-17144499D01*
X4822920Y-17144499D02*
X4832444Y-17106404D01*
X4832444Y-17106404D02*
X4841967Y-17087356D01*
X4841967Y-17087356D02*
X4851491Y-17077832D01*
X4851491Y-17077832D02*
X4870539Y-17068308D01*
X5022920Y-17268308D02*
X5022920Y-17134975D01*
X5022920Y-17154023D02*
X5032444Y-17144499D01*
X5032444Y-17144499D02*
X5051491Y-17134975D01*
X5051491Y-17134975D02*
X5080063Y-17134975D01*
X5080063Y-17134975D02*
X5099110Y-17144499D01*
X5099110Y-17144499D02*
X5108634Y-17163546D01*
X5108634Y-17163546D02*
X5108634Y-17268308D01*
X5108634Y-17163546D02*
X5118158Y-17144499D01*
X5118158Y-17144499D02*
X5137205Y-17134975D01*
X5137205Y-17134975D02*
X5165777Y-17134975D01*
X5165777Y-17134975D02*
X5184825Y-17144499D01*
X5184825Y-17144499D02*
X5194348Y-17163546D01*
X5194348Y-17163546D02*
X5194348Y-17268308D01*
X5289586Y-17268308D02*
X5289586Y-17134975D01*
X5289586Y-17154023D02*
X5299110Y-17144499D01*
X5299110Y-17144499D02*
X5318158Y-17134975D01*
X5318158Y-17134975D02*
X5346729Y-17134975D01*
X5346729Y-17134975D02*
X5365777Y-17144499D01*
X5365777Y-17144499D02*
X5375301Y-17163546D01*
X5375301Y-17163546D02*
X5375301Y-17268308D01*
X5375301Y-17163546D02*
X5384825Y-17144499D01*
X5384825Y-17144499D02*
X5403872Y-17134975D01*
X5403872Y-17134975D02*
X5432444Y-17134975D01*
X5432444Y-17134975D02*
X5451491Y-17144499D01*
X5451491Y-17144499D02*
X5461015Y-17163546D01*
X5461015Y-17163546D02*
X5461015Y-17268308D01*
X5851491Y-17058785D02*
X5680063Y-17315927D01*
X6108634Y-17068308D02*
X6127682Y-17068308D01*
X6127682Y-17068308D02*
X6146729Y-17077832D01*
X6146729Y-17077832D02*
X6156253Y-17087356D01*
X6156253Y-17087356D02*
X6165777Y-17106404D01*
X6165777Y-17106404D02*
X6175301Y-17144499D01*
X6175301Y-17144499D02*
X6175301Y-17192118D01*
X6175301Y-17192118D02*
X6165777Y-17230213D01*
X6165777Y-17230213D02*
X6156253Y-17249261D01*
X6156253Y-17249261D02*
X6146729Y-17258785D01*
X6146729Y-17258785D02*
X6127682Y-17268308D01*
X6127682Y-17268308D02*
X6108634Y-17268308D01*
X6108634Y-17268308D02*
X6089586Y-17258785D01*
X6089586Y-17258785D02*
X6080063Y-17249261D01*
X6080063Y-17249261D02*
X6070539Y-17230213D01*
X6070539Y-17230213D02*
X6061015Y-17192118D01*
X6061015Y-17192118D02*
X6061015Y-17144499D01*
X6061015Y-17144499D02*
X6070539Y-17106404D01*
X6070539Y-17106404D02*
X6080063Y-17087356D01*
X6080063Y-17087356D02*
X6089586Y-17077832D01*
X6089586Y-17077832D02*
X6108634Y-17068308D01*
X6261015Y-17249261D02*
X6270539Y-17258785D01*
X6270539Y-17258785D02*
X6261015Y-17268308D01*
X6261015Y-17268308D02*
X6251491Y-17258785D01*
X6251491Y-17258785D02*
X6261015Y-17249261D01*
X6261015Y-17249261D02*
X6261015Y-17268308D01*
X6461015Y-17268308D02*
X6346729Y-17268308D01*
X6403872Y-17268308D02*
X6403872Y-17068308D01*
X6403872Y-17068308D02*
X6384825Y-17096880D01*
X6384825Y-17096880D02*
X6365777Y-17115927D01*
X6365777Y-17115927D02*
X6346729Y-17125451D01*
X6651491Y-17268308D02*
X6537206Y-17268308D01*
X6594348Y-17268308D02*
X6594348Y-17068308D01*
X6594348Y-17068308D02*
X6575301Y-17096880D01*
X6575301Y-17096880D02*
X6556253Y-17115927D01*
X6556253Y-17115927D02*
X6537206Y-17125451D01*
X6765777Y-17154023D02*
X6746729Y-17144499D01*
X6746729Y-17144499D02*
X6737206Y-17134975D01*
X6737206Y-17134975D02*
X6727682Y-17115927D01*
X6727682Y-17115927D02*
X6727682Y-17106404D01*
X6727682Y-17106404D02*
X6737206Y-17087356D01*
X6737206Y-17087356D02*
X6746729Y-17077832D01*
X6746729Y-17077832D02*
X6765777Y-17068308D01*
X6765777Y-17068308D02*
X6803872Y-17068308D01*
X6803872Y-17068308D02*
X6822920Y-17077832D01*
X6822920Y-17077832D02*
X6832444Y-17087356D01*
X6832444Y-17087356D02*
X6841967Y-17106404D01*
X6841967Y-17106404D02*
X6841967Y-17115927D01*
X6841967Y-17115927D02*
X6832444Y-17134975D01*
X6832444Y-17134975D02*
X6822920Y-17144499D01*
X6822920Y-17144499D02*
X6803872Y-17154023D01*
X6803872Y-17154023D02*
X6765777Y-17154023D01*
X6765777Y-17154023D02*
X6746729Y-17163546D01*
X6746729Y-17163546D02*
X6737206Y-17173070D01*
X6737206Y-17173070D02*
X6727682Y-17192118D01*
X6727682Y-17192118D02*
X6727682Y-17230213D01*
X6727682Y-17230213D02*
X6737206Y-17249261D01*
X6737206Y-17249261D02*
X6746729Y-17258785D01*
X6746729Y-17258785D02*
X6765777Y-17268308D01*
X6765777Y-17268308D02*
X6803872Y-17268308D01*
X6803872Y-17268308D02*
X6822920Y-17258785D01*
X6822920Y-17258785D02*
X6832444Y-17249261D01*
X6832444Y-17249261D02*
X6841967Y-17230213D01*
X6841967Y-17230213D02*
X6841967Y-17192118D01*
X6841967Y-17192118D02*
X6832444Y-17173070D01*
X6832444Y-17173070D02*
X6822920Y-17163546D01*
X6822920Y-17163546D02*
X6803872Y-17154023D01*
X7032444Y-17268308D02*
X6918158Y-17268308D01*
X6975301Y-17268308D02*
X6975301Y-17068308D01*
X6975301Y-17068308D02*
X6956253Y-17096880D01*
X6956253Y-17096880D02*
X6937206Y-17115927D01*
X6937206Y-17115927D02*
X6918158Y-17125451D01*
X7108634Y-17068308D02*
X7108634Y-17106404D01*
X7184825Y-17068308D02*
X7184825Y-17106404D01*
X7480063Y-17344499D02*
X7470539Y-17334975D01*
X7470539Y-17334975D02*
X7451491Y-17306404D01*
X7451491Y-17306404D02*
X7441968Y-17287356D01*
X7441968Y-17287356D02*
X7432444Y-17258785D01*
X7432444Y-17258785D02*
X7422920Y-17211165D01*
X7422920Y-17211165D02*
X7422920Y-17173070D01*
X7422920Y-17173070D02*
X7432444Y-17125451D01*
X7432444Y-17125451D02*
X7441968Y-17096880D01*
X7441968Y-17096880D02*
X7451491Y-17077832D01*
X7451491Y-17077832D02*
X7470539Y-17049261D01*
X7470539Y-17049261D02*
X7480063Y-17039737D01*
X7641968Y-17134975D02*
X7641968Y-17268308D01*
X7594348Y-17058785D02*
X7546729Y-17201642D01*
X7546729Y-17201642D02*
X7670539Y-17201642D01*
X7832444Y-17068308D02*
X7794348Y-17068308D01*
X7794348Y-17068308D02*
X7775301Y-17077832D01*
X7775301Y-17077832D02*
X7765777Y-17087356D01*
X7765777Y-17087356D02*
X7746729Y-17115927D01*
X7746729Y-17115927D02*
X7737206Y-17154023D01*
X7737206Y-17154023D02*
X7737206Y-17230213D01*
X7737206Y-17230213D02*
X7746729Y-17249261D01*
X7746729Y-17249261D02*
X7756253Y-17258785D01*
X7756253Y-17258785D02*
X7775301Y-17268308D01*
X7775301Y-17268308D02*
X7813396Y-17268308D01*
X7813396Y-17268308D02*
X7832444Y-17258785D01*
X7832444Y-17258785D02*
X7841968Y-17249261D01*
X7841968Y-17249261D02*
X7851491Y-17230213D01*
X7851491Y-17230213D02*
X7851491Y-17182594D01*
X7851491Y-17182594D02*
X7841968Y-17163546D01*
X7841968Y-17163546D02*
X7832444Y-17154023D01*
X7832444Y-17154023D02*
X7813396Y-17144499D01*
X7813396Y-17144499D02*
X7775301Y-17144499D01*
X7775301Y-17144499D02*
X7756253Y-17154023D01*
X7756253Y-17154023D02*
X7746729Y-17163546D01*
X7746729Y-17163546D02*
X7737206Y-17182594D01*
X8089587Y-17268308D02*
X8089587Y-17068308D01*
X8175301Y-17268308D02*
X8175301Y-17163546D01*
X8175301Y-17163546D02*
X8165777Y-17144499D01*
X8165777Y-17144499D02*
X8146730Y-17134975D01*
X8146730Y-17134975D02*
X8118158Y-17134975D01*
X8118158Y-17134975D02*
X8099110Y-17144499D01*
X8099110Y-17144499D02*
X8089587Y-17154023D01*
X8299110Y-17268308D02*
X8280063Y-17258785D01*
X8280063Y-17258785D02*
X8270539Y-17249261D01*
X8270539Y-17249261D02*
X8261015Y-17230213D01*
X8261015Y-17230213D02*
X8261015Y-17173070D01*
X8261015Y-17173070D02*
X8270539Y-17154023D01*
X8270539Y-17154023D02*
X8280063Y-17144499D01*
X8280063Y-17144499D02*
X8299110Y-17134975D01*
X8299110Y-17134975D02*
X8327682Y-17134975D01*
X8327682Y-17134975D02*
X8346730Y-17144499D01*
X8346730Y-17144499D02*
X8356253Y-17154023D01*
X8356253Y-17154023D02*
X8365777Y-17173070D01*
X8365777Y-17173070D02*
X8365777Y-17230213D01*
X8365777Y-17230213D02*
X8356253Y-17249261D01*
X8356253Y-17249261D02*
X8346730Y-17258785D01*
X8346730Y-17258785D02*
X8327682Y-17268308D01*
X8327682Y-17268308D02*
X8299110Y-17268308D01*
X8480063Y-17268308D02*
X8461015Y-17258785D01*
X8461015Y-17258785D02*
X8451492Y-17239737D01*
X8451492Y-17239737D02*
X8451492Y-17068308D01*
X8632444Y-17258785D02*
X8613396Y-17268308D01*
X8613396Y-17268308D02*
X8575301Y-17268308D01*
X8575301Y-17268308D02*
X8556253Y-17258785D01*
X8556253Y-17258785D02*
X8546730Y-17239737D01*
X8546730Y-17239737D02*
X8546730Y-17163546D01*
X8546730Y-17163546D02*
X8556253Y-17144499D01*
X8556253Y-17144499D02*
X8575301Y-17134975D01*
X8575301Y-17134975D02*
X8613396Y-17134975D01*
X8613396Y-17134975D02*
X8632444Y-17144499D01*
X8632444Y-17144499D02*
X8641968Y-17163546D01*
X8641968Y-17163546D02*
X8641968Y-17182594D01*
X8641968Y-17182594D02*
X8546730Y-17201642D01*
X8718158Y-17258785D02*
X8737206Y-17268308D01*
X8737206Y-17268308D02*
X8775301Y-17268308D01*
X8775301Y-17268308D02*
X8794349Y-17258785D01*
X8794349Y-17258785D02*
X8803873Y-17239737D01*
X8803873Y-17239737D02*
X8803873Y-17230213D01*
X8803873Y-17230213D02*
X8794349Y-17211165D01*
X8794349Y-17211165D02*
X8775301Y-17201642D01*
X8775301Y-17201642D02*
X8746730Y-17201642D01*
X8746730Y-17201642D02*
X8727682Y-17192118D01*
X8727682Y-17192118D02*
X8718158Y-17173070D01*
X8718158Y-17173070D02*
X8718158Y-17163546D01*
X8718158Y-17163546D02*
X8727682Y-17144499D01*
X8727682Y-17144499D02*
X8746730Y-17134975D01*
X8746730Y-17134975D02*
X8775301Y-17134975D01*
X8775301Y-17134975D02*
X8794349Y-17144499D01*
X8870539Y-17344499D02*
X8880063Y-17334975D01*
X8880063Y-17334975D02*
X8899111Y-17306404D01*
X8899111Y-17306404D02*
X8908634Y-17287356D01*
X8908634Y-17287356D02*
X8918158Y-17258785D01*
X8918158Y-17258785D02*
X8927682Y-17211165D01*
X8927682Y-17211165D02*
X8927682Y-17173070D01*
X8927682Y-17173070D02*
X8918158Y-17125451D01*
X8918158Y-17125451D02*
X8908634Y-17096880D01*
X8908634Y-17096880D02*
X8899111Y-17077832D01*
X8899111Y-17077832D02*
X8880063Y-17049261D01*
X8880063Y-17049261D02*
X8870539Y-17039737D01*
M02*
