%TF.GenerationSoftware,KiCad,Pcbnew,7.0.10-7.0.10~ubuntu23.10.1*%
%TF.CreationDate,2024-01-07T16:58:32-05:00*%
%TF.ProjectId,design,64657369-676e-42e6-9b69-6361645f7063,rev?*%
%TF.SameCoordinates,Original*%
%TF.FileFunction,Drillmap*%
%TF.FilePolarity,Positive*%
%FSLAX45Y45*%
G04 Gerber Fmt 4.5, Leading zero omitted, Abs format (unit mm)*
G04 Created by KiCad (PCBNEW 7.0.10-7.0.10~ubuntu23.10.1) date 2024-01-07 16:58:32*
%MOMM*%
%LPD*%
G01*
G04 APERTURE LIST*
%ADD10C,0.100000*%
%ADD11C,0.200000*%
%ADD12C,0.150000*%
%ADD13C,0.175000*%
%ADD14C,0.180000*%
%ADD15C,0.398780*%
G04 APERTURE END LIST*
D10*
X17320176Y-15739824D02*
X19300000Y-13760000D01*
X15510000Y-4490000D02*
X19310000Y-4490000D01*
X15510000Y-5050000D02*
X15510000Y-4490000D01*
X13550000Y-5050000D02*
X15510000Y-5050000D01*
X13550000Y-4880000D02*
X13550000Y-5050000D01*
X13550000Y-4880000D02*
X13540000Y-4880000D01*
X11640000Y-4880000D02*
X13540000Y-4880000D01*
X11640000Y-4360000D02*
X11640000Y-4880000D01*
X9680000Y-4360000D02*
X11640000Y-4360000D01*
X9680000Y-4900000D02*
X9680000Y-4360000D01*
X7780000Y-4900000D02*
X9680000Y-4900000D01*
X7780000Y-5400000D02*
X7780000Y-4900000D01*
X5960000Y-5400000D02*
X7780000Y-5400000D01*
X5960000Y-5120000D02*
X5960000Y-5400000D01*
X5960000Y-3990000D02*
X5960000Y-5120000D01*
X3910000Y-3990000D02*
X5960000Y-3990000D01*
X3910000Y-4070000D02*
X3910000Y-3990000D01*
X5940000Y-11670000D02*
X3910000Y-11660000D01*
X5940000Y-11170000D02*
X5940000Y-11670000D01*
X7850000Y-11170000D02*
X5940000Y-11170000D01*
X7850000Y-10690000D02*
X7850000Y-11170000D01*
X10490000Y-10690000D02*
X7850000Y-10690000D01*
X10490000Y-12870000D02*
X10490000Y-10690000D01*
X11634175Y-12893208D02*
X10490000Y-12870000D01*
X17320175Y-15739825D02*
G75*
G03*
X11634175Y-12893208I-7120175J-7120175D01*
G01*
X3910000Y-4070000D02*
X3910000Y-11660000D01*
X19300000Y-13760000D02*
X19310000Y-4490000D01*
D11*
D12*
X16932500Y-4963500D02*
X17082500Y-5113500D01*
X17082500Y-4963500D02*
X16932500Y-5113500D01*
X17417500Y-4963500D02*
X17567500Y-5113500D01*
X17567500Y-4963500D02*
X17417500Y-5113500D01*
D13*
X4537500Y-4970000D02*
G75*
G03*
X4362500Y-4970000I-87500J0D01*
G01*
X4362500Y-4970000D02*
G75*
G03*
X4537500Y-4970000I87500J0D01*
G01*
X4537500Y-6874000D02*
G75*
G03*
X4362500Y-6874000I-87500J0D01*
G01*
X4362500Y-6874000D02*
G75*
G03*
X4537500Y-6874000I87500J0D01*
G01*
X4537500Y-8780000D02*
G75*
G03*
X4362500Y-8780000I-87500J0D01*
G01*
X4362500Y-8780000D02*
G75*
G03*
X4537500Y-8780000I87500J0D01*
G01*
X4539500Y-10690000D02*
G75*
G03*
X4364500Y-10690000I-87500J0D01*
G01*
X4364500Y-10690000D02*
G75*
G03*
X4539500Y-10690000I87500J0D01*
G01*
X5553500Y-4970000D02*
G75*
G03*
X5378500Y-4970000I-87500J0D01*
G01*
X5378500Y-4970000D02*
G75*
G03*
X5553500Y-4970000I87500J0D01*
G01*
X5553500Y-6874000D02*
G75*
G03*
X5378500Y-6874000I-87500J0D01*
G01*
X5378500Y-6874000D02*
G75*
G03*
X5553500Y-6874000I87500J0D01*
G01*
X5553500Y-8780000D02*
G75*
G03*
X5378500Y-8780000I-87500J0D01*
G01*
X5378500Y-8780000D02*
G75*
G03*
X5553500Y-8780000I87500J0D01*
G01*
X5555500Y-10690000D02*
G75*
G03*
X5380500Y-10690000I-87500J0D01*
G01*
X5380500Y-10690000D02*
G75*
G03*
X5555500Y-10690000I87500J0D01*
G01*
X6437500Y-6380000D02*
G75*
G03*
X6262500Y-6380000I-87500J0D01*
G01*
X6262500Y-6380000D02*
G75*
G03*
X6437500Y-6380000I87500J0D01*
G01*
X6438500Y-8280000D02*
G75*
G03*
X6263500Y-8280000I-87500J0D01*
G01*
X6263500Y-8280000D02*
G75*
G03*
X6438500Y-8280000I87500J0D01*
G01*
X6438500Y-10188000D02*
G75*
G03*
X6263500Y-10188000I-87500J0D01*
G01*
X6263500Y-10188000D02*
G75*
G03*
X6438500Y-10188000I87500J0D01*
G01*
X7453500Y-6380000D02*
G75*
G03*
X7278500Y-6380000I-87500J0D01*
G01*
X7278500Y-6380000D02*
G75*
G03*
X7453500Y-6380000I87500J0D01*
G01*
X7454500Y-8280000D02*
G75*
G03*
X7279500Y-8280000I-87500J0D01*
G01*
X7279500Y-8280000D02*
G75*
G03*
X7454500Y-8280000I87500J0D01*
G01*
X7454500Y-10188000D02*
G75*
G03*
X7279500Y-10188000I-87500J0D01*
G01*
X7279500Y-10188000D02*
G75*
G03*
X7454500Y-10188000I87500J0D01*
G01*
X8333500Y-5884000D02*
G75*
G03*
X8158500Y-5884000I-87500J0D01*
G01*
X8158500Y-5884000D02*
G75*
G03*
X8333500Y-5884000I87500J0D01*
G01*
X8333500Y-7794000D02*
G75*
G03*
X8158500Y-7794000I-87500J0D01*
G01*
X8158500Y-7794000D02*
G75*
G03*
X8333500Y-7794000I87500J0D01*
G01*
X8339500Y-9700000D02*
G75*
G03*
X8164500Y-9700000I-87500J0D01*
G01*
X8164500Y-9700000D02*
G75*
G03*
X8339500Y-9700000I87500J0D01*
G01*
X9349500Y-5884000D02*
G75*
G03*
X9174500Y-5884000I-87500J0D01*
G01*
X9174500Y-5884000D02*
G75*
G03*
X9349500Y-5884000I87500J0D01*
G01*
X9349500Y-7794000D02*
G75*
G03*
X9174500Y-7794000I-87500J0D01*
G01*
X9174500Y-7794000D02*
G75*
G03*
X9349500Y-7794000I87500J0D01*
G01*
X9355500Y-9700000D02*
G75*
G03*
X9180500Y-9700000I-87500J0D01*
G01*
X9180500Y-9700000D02*
G75*
G03*
X9355500Y-9700000I87500J0D01*
G01*
X10237500Y-9140000D02*
G75*
G03*
X10062500Y-9140000I-87500J0D01*
G01*
X10062500Y-9140000D02*
G75*
G03*
X10237500Y-9140000I87500J0D01*
G01*
X10239500Y-5340000D02*
G75*
G03*
X10064500Y-5340000I-87500J0D01*
G01*
X10064500Y-5340000D02*
G75*
G03*
X10239500Y-5340000I87500J0D01*
G01*
X10241500Y-7240000D02*
G75*
G03*
X10066500Y-7240000I-87500J0D01*
G01*
X10066500Y-7240000D02*
G75*
G03*
X10241500Y-7240000I87500J0D01*
G01*
X11119500Y-11890000D02*
G75*
G03*
X10944500Y-11890000I-87500J0D01*
G01*
X10944500Y-11890000D02*
G75*
G03*
X11119500Y-11890000I87500J0D01*
G01*
X11253500Y-9140000D02*
G75*
G03*
X11078500Y-9140000I-87500J0D01*
G01*
X11078500Y-9140000D02*
G75*
G03*
X11253500Y-9140000I87500J0D01*
G01*
X11255500Y-5340000D02*
G75*
G03*
X11080500Y-5340000I-87500J0D01*
G01*
X11080500Y-5340000D02*
G75*
G03*
X11255500Y-5340000I87500J0D01*
G01*
X11257500Y-7240000D02*
G75*
G03*
X11082500Y-7240000I-87500J0D01*
G01*
X11082500Y-7240000D02*
G75*
G03*
X11257500Y-7240000I87500J0D01*
G01*
X12135500Y-11890000D02*
G75*
G03*
X11960500Y-11890000I-87500J0D01*
G01*
X11960500Y-11890000D02*
G75*
G03*
X12135500Y-11890000I87500J0D01*
G01*
X12147500Y-5860000D02*
G75*
G03*
X11972500Y-5860000I-87500J0D01*
G01*
X11972500Y-5860000D02*
G75*
G03*
X12147500Y-5860000I87500J0D01*
G01*
X12147500Y-9680000D02*
G75*
G03*
X11972500Y-9680000I-87500J0D01*
G01*
X11972500Y-9680000D02*
G75*
G03*
X12147500Y-9680000I87500J0D01*
G01*
X12149500Y-7770000D02*
G75*
G03*
X11974500Y-7770000I-87500J0D01*
G01*
X11974500Y-7770000D02*
G75*
G03*
X12149500Y-7770000I87500J0D01*
G01*
X13163500Y-5860000D02*
G75*
G03*
X12988500Y-5860000I-87500J0D01*
G01*
X12988500Y-5860000D02*
G75*
G03*
X13163500Y-5860000I87500J0D01*
G01*
X13163500Y-9680000D02*
G75*
G03*
X12988500Y-9680000I-87500J0D01*
G01*
X12988500Y-9680000D02*
G75*
G03*
X13163500Y-9680000I87500J0D01*
G01*
X13165500Y-7770000D02*
G75*
G03*
X12990500Y-7770000I-87500J0D01*
G01*
X12990500Y-7770000D02*
G75*
G03*
X13165500Y-7770000I87500J0D01*
G01*
X13256119Y-12027040D02*
G75*
G03*
X13081119Y-12027040I-87500J0D01*
G01*
X13081119Y-12027040D02*
G75*
G03*
X13256119Y-12027040I87500J0D01*
G01*
X14051500Y-6070000D02*
G75*
G03*
X13876500Y-6070000I-87500J0D01*
G01*
X13876500Y-6070000D02*
G75*
G03*
X14051500Y-6070000I87500J0D01*
G01*
X14051500Y-7980000D02*
G75*
G03*
X13876500Y-7980000I-87500J0D01*
G01*
X13876500Y-7980000D02*
G75*
G03*
X14051500Y-7980000I87500J0D01*
G01*
X14051500Y-9880000D02*
G75*
G03*
X13876500Y-9880000I-87500J0D01*
G01*
X13876500Y-9880000D02*
G75*
G03*
X14051500Y-9880000I87500J0D01*
G01*
X14237500Y-12290000D02*
G75*
G03*
X14062500Y-12290000I-87500J0D01*
G01*
X14062500Y-12290000D02*
G75*
G03*
X14237500Y-12290000I87500J0D01*
G01*
X15067500Y-6070000D02*
G75*
G03*
X14892500Y-6070000I-87500J0D01*
G01*
X14892500Y-6070000D02*
G75*
G03*
X15067500Y-6070000I87500J0D01*
G01*
X15067500Y-7980000D02*
G75*
G03*
X14892500Y-7980000I-87500J0D01*
G01*
X14892500Y-7980000D02*
G75*
G03*
X15067500Y-7980000I87500J0D01*
G01*
X15067500Y-9880000D02*
G75*
G03*
X14892500Y-9880000I-87500J0D01*
G01*
X14892500Y-9880000D02*
G75*
G03*
X15067500Y-9880000I87500J0D01*
G01*
X15307559Y-12726000D02*
G75*
G03*
X15132559Y-12726000I-87500J0D01*
G01*
X15132559Y-12726000D02*
G75*
G03*
X15307559Y-12726000I87500J0D01*
G01*
X16187441Y-13234000D02*
G75*
G03*
X16012441Y-13234000I-87500J0D01*
G01*
X16012441Y-13234000D02*
G75*
G03*
X16187441Y-13234000I87500J0D01*
G01*
X17097500Y-13940000D02*
G75*
G03*
X16922500Y-13940000I-87500J0D01*
G01*
X16922500Y-13940000D02*
G75*
G03*
X17097500Y-13940000I87500J0D01*
G01*
X17815920Y-14658420D02*
G75*
G03*
X17640920Y-14658420I-87500J0D01*
G01*
X17640920Y-14658420D02*
G75*
G03*
X17815920Y-14658420I87500J0D01*
G01*
D14*
X16977500Y-4645500D02*
X16977500Y-4825500D01*
X16887500Y-4735500D02*
X17067500Y-4735500D01*
X17522500Y-4645500D02*
X17522500Y-4825500D01*
X17432500Y-4735500D02*
X17612500Y-4735500D01*
D15*
X5098991Y-5110991D02*
X5098991Y-4829009D01*
X4817009Y-4829009D01*
X4817009Y-5110991D01*
X5098991Y-5110991D01*
X5098991Y-7014991D02*
X5098991Y-6733009D01*
X4817009Y-6733009D01*
X4817009Y-7014991D01*
X5098991Y-7014991D01*
X5098991Y-8920991D02*
X5098991Y-8639009D01*
X4817009Y-8639009D01*
X4817009Y-8920991D01*
X5098991Y-8920991D01*
X5100991Y-10830991D02*
X5100991Y-10549009D01*
X4819009Y-10549009D01*
X4819009Y-10830991D01*
X5100991Y-10830991D01*
X6998991Y-6520991D02*
X6998991Y-6239009D01*
X6717009Y-6239009D01*
X6717009Y-6520991D01*
X6998991Y-6520991D01*
X6999991Y-8420991D02*
X6999991Y-8139009D01*
X6718009Y-8139009D01*
X6718009Y-8420991D01*
X6999991Y-8420991D01*
X6999991Y-10328991D02*
X6999991Y-10047009D01*
X6718009Y-10047009D01*
X6718009Y-10328991D01*
X6999991Y-10328991D01*
X8894991Y-6024991D02*
X8894991Y-5743009D01*
X8613009Y-5743009D01*
X8613009Y-6024991D01*
X8894991Y-6024991D01*
X8894991Y-7934991D02*
X8894991Y-7653009D01*
X8613009Y-7653009D01*
X8613009Y-7934991D01*
X8894991Y-7934991D01*
X8900991Y-9840991D02*
X8900991Y-9559009D01*
X8619009Y-9559009D01*
X8619009Y-9840991D01*
X8900991Y-9840991D01*
X10798991Y-9280991D02*
X10798991Y-8999009D01*
X10517009Y-8999009D01*
X10517009Y-9280991D01*
X10798991Y-9280991D01*
X10800991Y-5480991D02*
X10800991Y-5199009D01*
X10519009Y-5199009D01*
X10519009Y-5480991D01*
X10800991Y-5480991D01*
X10802991Y-7380991D02*
X10802991Y-7099009D01*
X10521009Y-7099009D01*
X10521009Y-7380991D01*
X10802991Y-7380991D01*
X11680991Y-12030991D02*
X11680991Y-11749009D01*
X11399009Y-11749009D01*
X11399009Y-12030991D01*
X11680991Y-12030991D01*
X12708991Y-6000991D02*
X12708991Y-5719009D01*
X12427009Y-5719009D01*
X12427009Y-6000991D01*
X12708991Y-6000991D01*
X12708991Y-9820991D02*
X12708991Y-9539009D01*
X12427009Y-9539009D01*
X12427009Y-9820991D01*
X12708991Y-9820991D01*
X12710991Y-7910991D02*
X12710991Y-7629009D01*
X12429009Y-7629009D01*
X12429009Y-7910991D01*
X12710991Y-7910991D01*
X13800301Y-12299511D02*
X13800301Y-12017528D01*
X13518318Y-12017528D01*
X13518318Y-12299511D01*
X13800301Y-12299511D01*
X14612991Y-6210991D02*
X14612991Y-5929009D01*
X14331009Y-5929009D01*
X14331009Y-6210991D01*
X14612991Y-6210991D01*
X14612991Y-8120991D02*
X14612991Y-7839009D01*
X14331009Y-7839009D01*
X14331009Y-8120991D01*
X14612991Y-8120991D01*
X14612991Y-10020991D02*
X14612991Y-9739009D01*
X14331009Y-9739009D01*
X14331009Y-10020991D01*
X14612991Y-10020991D01*
X15800991Y-13120991D02*
X15800991Y-12839009D01*
X15519009Y-12839009D01*
X15519009Y-13120991D01*
X15800991Y-13120991D01*
X17510202Y-14440202D02*
X17510202Y-14158219D01*
X17228219Y-14158219D01*
X17228219Y-14440202D01*
X17510202Y-14440202D01*
D11*
X4165777Y-16056308D02*
X4165777Y-15856308D01*
X4165777Y-15856308D02*
X4213396Y-15856308D01*
X4213396Y-15856308D02*
X4241967Y-15865832D01*
X4241967Y-15865832D02*
X4261015Y-15884880D01*
X4261015Y-15884880D02*
X4270539Y-15903927D01*
X4270539Y-15903927D02*
X4280063Y-15942022D01*
X4280063Y-15942022D02*
X4280063Y-15970594D01*
X4280063Y-15970594D02*
X4270539Y-16008689D01*
X4270539Y-16008689D02*
X4261015Y-16027737D01*
X4261015Y-16027737D02*
X4241967Y-16046784D01*
X4241967Y-16046784D02*
X4213396Y-16056308D01*
X4213396Y-16056308D02*
X4165777Y-16056308D01*
X4365777Y-16056308D02*
X4365777Y-15922975D01*
X4365777Y-15961070D02*
X4375301Y-15942022D01*
X4375301Y-15942022D02*
X4384824Y-15932499D01*
X4384824Y-15932499D02*
X4403872Y-15922975D01*
X4403872Y-15922975D02*
X4422920Y-15922975D01*
X4489586Y-16056308D02*
X4489586Y-15922975D01*
X4489586Y-15856308D02*
X4480063Y-15865832D01*
X4480063Y-15865832D02*
X4489586Y-15875356D01*
X4489586Y-15875356D02*
X4499110Y-15865832D01*
X4499110Y-15865832D02*
X4489586Y-15856308D01*
X4489586Y-15856308D02*
X4489586Y-15875356D01*
X4613396Y-16056308D02*
X4594348Y-16046784D01*
X4594348Y-16046784D02*
X4584824Y-16027737D01*
X4584824Y-16027737D02*
X4584824Y-15856308D01*
X4718158Y-16056308D02*
X4699110Y-16046784D01*
X4699110Y-16046784D02*
X4689586Y-16027737D01*
X4689586Y-16027737D02*
X4689586Y-15856308D01*
X4946729Y-16056308D02*
X4946729Y-15856308D01*
X4946729Y-15856308D02*
X5013396Y-15999165D01*
X5013396Y-15999165D02*
X5080063Y-15856308D01*
X5080063Y-15856308D02*
X5080063Y-16056308D01*
X5261015Y-16056308D02*
X5261015Y-15951546D01*
X5261015Y-15951546D02*
X5251491Y-15932499D01*
X5251491Y-15932499D02*
X5232444Y-15922975D01*
X5232444Y-15922975D02*
X5194348Y-15922975D01*
X5194348Y-15922975D02*
X5175301Y-15932499D01*
X5261015Y-16046784D02*
X5241967Y-16056308D01*
X5241967Y-16056308D02*
X5194348Y-16056308D01*
X5194348Y-16056308D02*
X5175301Y-16046784D01*
X5175301Y-16046784D02*
X5165777Y-16027737D01*
X5165777Y-16027737D02*
X5165777Y-16008689D01*
X5165777Y-16008689D02*
X5175301Y-15989642D01*
X5175301Y-15989642D02*
X5194348Y-15980118D01*
X5194348Y-15980118D02*
X5241967Y-15980118D01*
X5241967Y-15980118D02*
X5261015Y-15970594D01*
X5356253Y-15922975D02*
X5356253Y-16122975D01*
X5356253Y-15932499D02*
X5375301Y-15922975D01*
X5375301Y-15922975D02*
X5413396Y-15922975D01*
X5413396Y-15922975D02*
X5432444Y-15932499D01*
X5432444Y-15932499D02*
X5441967Y-15942022D01*
X5441967Y-15942022D02*
X5451491Y-15961070D01*
X5451491Y-15961070D02*
X5451491Y-16018213D01*
X5451491Y-16018213D02*
X5441967Y-16037261D01*
X5441967Y-16037261D02*
X5432444Y-16046784D01*
X5432444Y-16046784D02*
X5413396Y-16056308D01*
X5413396Y-16056308D02*
X5375301Y-16056308D01*
X5375301Y-16056308D02*
X5356253Y-16046784D01*
X5537205Y-16037261D02*
X5546729Y-16046784D01*
X5546729Y-16046784D02*
X5537205Y-16056308D01*
X5537205Y-16056308D02*
X5527682Y-16046784D01*
X5527682Y-16046784D02*
X5537205Y-16037261D01*
X5537205Y-16037261D02*
X5537205Y-16056308D01*
X5537205Y-15932499D02*
X5546729Y-15942022D01*
X5546729Y-15942022D02*
X5537205Y-15951546D01*
X5537205Y-15951546D02*
X5527682Y-15942022D01*
X5527682Y-15942022D02*
X5537205Y-15932499D01*
X5537205Y-15932499D02*
X5537205Y-15951546D01*
D12*
X3755000Y-16309824D02*
X3905000Y-16459824D01*
X3905000Y-16309824D02*
X3755000Y-16459824D01*
D11*
X4270539Y-16476308D02*
X4156253Y-16476308D01*
X4213396Y-16476308D02*
X4213396Y-16276308D01*
X4213396Y-16276308D02*
X4194348Y-16304880D01*
X4194348Y-16304880D02*
X4175301Y-16323927D01*
X4175301Y-16323927D02*
X4156253Y-16333451D01*
X4356253Y-16457261D02*
X4365777Y-16466784D01*
X4365777Y-16466784D02*
X4356253Y-16476308D01*
X4356253Y-16476308D02*
X4346729Y-16466784D01*
X4346729Y-16466784D02*
X4356253Y-16457261D01*
X4356253Y-16457261D02*
X4356253Y-16476308D01*
X4546729Y-16276308D02*
X4451491Y-16276308D01*
X4451491Y-16276308D02*
X4441967Y-16371546D01*
X4441967Y-16371546D02*
X4451491Y-16362022D01*
X4451491Y-16362022D02*
X4470539Y-16352499D01*
X4470539Y-16352499D02*
X4518158Y-16352499D01*
X4518158Y-16352499D02*
X4537205Y-16362022D01*
X4537205Y-16362022D02*
X4546729Y-16371546D01*
X4546729Y-16371546D02*
X4556253Y-16390594D01*
X4556253Y-16390594D02*
X4556253Y-16438213D01*
X4556253Y-16438213D02*
X4546729Y-16457261D01*
X4546729Y-16457261D02*
X4537205Y-16466784D01*
X4537205Y-16466784D02*
X4518158Y-16476308D01*
X4518158Y-16476308D02*
X4470539Y-16476308D01*
X4470539Y-16476308D02*
X4451491Y-16466784D01*
X4451491Y-16466784D02*
X4441967Y-16457261D01*
X4680063Y-16276308D02*
X4699110Y-16276308D01*
X4699110Y-16276308D02*
X4718158Y-16285832D01*
X4718158Y-16285832D02*
X4727682Y-16295356D01*
X4727682Y-16295356D02*
X4737205Y-16314403D01*
X4737205Y-16314403D02*
X4746729Y-16352499D01*
X4746729Y-16352499D02*
X4746729Y-16400118D01*
X4746729Y-16400118D02*
X4737205Y-16438213D01*
X4737205Y-16438213D02*
X4727682Y-16457261D01*
X4727682Y-16457261D02*
X4718158Y-16466784D01*
X4718158Y-16466784D02*
X4699110Y-16476308D01*
X4699110Y-16476308D02*
X4680063Y-16476308D01*
X4680063Y-16476308D02*
X4661015Y-16466784D01*
X4661015Y-16466784D02*
X4651491Y-16457261D01*
X4651491Y-16457261D02*
X4641967Y-16438213D01*
X4641967Y-16438213D02*
X4632444Y-16400118D01*
X4632444Y-16400118D02*
X4632444Y-16352499D01*
X4632444Y-16352499D02*
X4641967Y-16314403D01*
X4641967Y-16314403D02*
X4651491Y-16295356D01*
X4651491Y-16295356D02*
X4661015Y-16285832D01*
X4661015Y-16285832D02*
X4680063Y-16276308D01*
X4870539Y-16276308D02*
X4889586Y-16276308D01*
X4889586Y-16276308D02*
X4908634Y-16285832D01*
X4908634Y-16285832D02*
X4918158Y-16295356D01*
X4918158Y-16295356D02*
X4927682Y-16314403D01*
X4927682Y-16314403D02*
X4937205Y-16352499D01*
X4937205Y-16352499D02*
X4937205Y-16400118D01*
X4937205Y-16400118D02*
X4927682Y-16438213D01*
X4927682Y-16438213D02*
X4918158Y-16457261D01*
X4918158Y-16457261D02*
X4908634Y-16466784D01*
X4908634Y-16466784D02*
X4889586Y-16476308D01*
X4889586Y-16476308D02*
X4870539Y-16476308D01*
X4870539Y-16476308D02*
X4851491Y-16466784D01*
X4851491Y-16466784D02*
X4841967Y-16457261D01*
X4841967Y-16457261D02*
X4832444Y-16438213D01*
X4832444Y-16438213D02*
X4822920Y-16400118D01*
X4822920Y-16400118D02*
X4822920Y-16352499D01*
X4822920Y-16352499D02*
X4832444Y-16314403D01*
X4832444Y-16314403D02*
X4841967Y-16295356D01*
X4841967Y-16295356D02*
X4851491Y-16285832D01*
X4851491Y-16285832D02*
X4870539Y-16276308D01*
X5022920Y-16476308D02*
X5022920Y-16342975D01*
X5022920Y-16362022D02*
X5032444Y-16352499D01*
X5032444Y-16352499D02*
X5051491Y-16342975D01*
X5051491Y-16342975D02*
X5080063Y-16342975D01*
X5080063Y-16342975D02*
X5099110Y-16352499D01*
X5099110Y-16352499D02*
X5108634Y-16371546D01*
X5108634Y-16371546D02*
X5108634Y-16476308D01*
X5108634Y-16371546D02*
X5118158Y-16352499D01*
X5118158Y-16352499D02*
X5137205Y-16342975D01*
X5137205Y-16342975D02*
X5165777Y-16342975D01*
X5165777Y-16342975D02*
X5184825Y-16352499D01*
X5184825Y-16352499D02*
X5194348Y-16371546D01*
X5194348Y-16371546D02*
X5194348Y-16476308D01*
X5289586Y-16476308D02*
X5289586Y-16342975D01*
X5289586Y-16362022D02*
X5299110Y-16352499D01*
X5299110Y-16352499D02*
X5318158Y-16342975D01*
X5318158Y-16342975D02*
X5346729Y-16342975D01*
X5346729Y-16342975D02*
X5365777Y-16352499D01*
X5365777Y-16352499D02*
X5375301Y-16371546D01*
X5375301Y-16371546D02*
X5375301Y-16476308D01*
X5375301Y-16371546D02*
X5384825Y-16352499D01*
X5384825Y-16352499D02*
X5403872Y-16342975D01*
X5403872Y-16342975D02*
X5432444Y-16342975D01*
X5432444Y-16342975D02*
X5451491Y-16352499D01*
X5451491Y-16352499D02*
X5461015Y-16371546D01*
X5461015Y-16371546D02*
X5461015Y-16476308D01*
X5851491Y-16266784D02*
X5680063Y-16523927D01*
X6108634Y-16276308D02*
X6127682Y-16276308D01*
X6127682Y-16276308D02*
X6146729Y-16285832D01*
X6146729Y-16285832D02*
X6156253Y-16295356D01*
X6156253Y-16295356D02*
X6165777Y-16314403D01*
X6165777Y-16314403D02*
X6175301Y-16352499D01*
X6175301Y-16352499D02*
X6175301Y-16400118D01*
X6175301Y-16400118D02*
X6165777Y-16438213D01*
X6165777Y-16438213D02*
X6156253Y-16457261D01*
X6156253Y-16457261D02*
X6146729Y-16466784D01*
X6146729Y-16466784D02*
X6127682Y-16476308D01*
X6127682Y-16476308D02*
X6108634Y-16476308D01*
X6108634Y-16476308D02*
X6089586Y-16466784D01*
X6089586Y-16466784D02*
X6080063Y-16457261D01*
X6080063Y-16457261D02*
X6070539Y-16438213D01*
X6070539Y-16438213D02*
X6061015Y-16400118D01*
X6061015Y-16400118D02*
X6061015Y-16352499D01*
X6061015Y-16352499D02*
X6070539Y-16314403D01*
X6070539Y-16314403D02*
X6080063Y-16295356D01*
X6080063Y-16295356D02*
X6089586Y-16285832D01*
X6089586Y-16285832D02*
X6108634Y-16276308D01*
X6261015Y-16457261D02*
X6270539Y-16466784D01*
X6270539Y-16466784D02*
X6261015Y-16476308D01*
X6261015Y-16476308D02*
X6251491Y-16466784D01*
X6251491Y-16466784D02*
X6261015Y-16457261D01*
X6261015Y-16457261D02*
X6261015Y-16476308D01*
X6394348Y-16276308D02*
X6413396Y-16276308D01*
X6413396Y-16276308D02*
X6432444Y-16285832D01*
X6432444Y-16285832D02*
X6441967Y-16295356D01*
X6441967Y-16295356D02*
X6451491Y-16314403D01*
X6451491Y-16314403D02*
X6461015Y-16352499D01*
X6461015Y-16352499D02*
X6461015Y-16400118D01*
X6461015Y-16400118D02*
X6451491Y-16438213D01*
X6451491Y-16438213D02*
X6441967Y-16457261D01*
X6441967Y-16457261D02*
X6432444Y-16466784D01*
X6432444Y-16466784D02*
X6413396Y-16476308D01*
X6413396Y-16476308D02*
X6394348Y-16476308D01*
X6394348Y-16476308D02*
X6375301Y-16466784D01*
X6375301Y-16466784D02*
X6365777Y-16457261D01*
X6365777Y-16457261D02*
X6356253Y-16438213D01*
X6356253Y-16438213D02*
X6346729Y-16400118D01*
X6346729Y-16400118D02*
X6346729Y-16352499D01*
X6346729Y-16352499D02*
X6356253Y-16314403D01*
X6356253Y-16314403D02*
X6365777Y-16295356D01*
X6365777Y-16295356D02*
X6375301Y-16285832D01*
X6375301Y-16285832D02*
X6394348Y-16276308D01*
X6641967Y-16276308D02*
X6546729Y-16276308D01*
X6546729Y-16276308D02*
X6537206Y-16371546D01*
X6537206Y-16371546D02*
X6546729Y-16362022D01*
X6546729Y-16362022D02*
X6565777Y-16352499D01*
X6565777Y-16352499D02*
X6613396Y-16352499D01*
X6613396Y-16352499D02*
X6632444Y-16362022D01*
X6632444Y-16362022D02*
X6641967Y-16371546D01*
X6641967Y-16371546D02*
X6651491Y-16390594D01*
X6651491Y-16390594D02*
X6651491Y-16438213D01*
X6651491Y-16438213D02*
X6641967Y-16457261D01*
X6641967Y-16457261D02*
X6632444Y-16466784D01*
X6632444Y-16466784D02*
X6613396Y-16476308D01*
X6613396Y-16476308D02*
X6565777Y-16476308D01*
X6565777Y-16476308D02*
X6546729Y-16466784D01*
X6546729Y-16466784D02*
X6537206Y-16457261D01*
X6746729Y-16476308D02*
X6784825Y-16476308D01*
X6784825Y-16476308D02*
X6803872Y-16466784D01*
X6803872Y-16466784D02*
X6813396Y-16457261D01*
X6813396Y-16457261D02*
X6832444Y-16428689D01*
X6832444Y-16428689D02*
X6841967Y-16390594D01*
X6841967Y-16390594D02*
X6841967Y-16314403D01*
X6841967Y-16314403D02*
X6832444Y-16295356D01*
X6832444Y-16295356D02*
X6822920Y-16285832D01*
X6822920Y-16285832D02*
X6803872Y-16276308D01*
X6803872Y-16276308D02*
X6765777Y-16276308D01*
X6765777Y-16276308D02*
X6746729Y-16285832D01*
X6746729Y-16285832D02*
X6737206Y-16295356D01*
X6737206Y-16295356D02*
X6727682Y-16314403D01*
X6727682Y-16314403D02*
X6727682Y-16362022D01*
X6727682Y-16362022D02*
X6737206Y-16381070D01*
X6737206Y-16381070D02*
X6746729Y-16390594D01*
X6746729Y-16390594D02*
X6765777Y-16400118D01*
X6765777Y-16400118D02*
X6803872Y-16400118D01*
X6803872Y-16400118D02*
X6822920Y-16390594D01*
X6822920Y-16390594D02*
X6832444Y-16381070D01*
X6832444Y-16381070D02*
X6841967Y-16362022D01*
X7032444Y-16476308D02*
X6918158Y-16476308D01*
X6975301Y-16476308D02*
X6975301Y-16276308D01*
X6975301Y-16276308D02*
X6956253Y-16304880D01*
X6956253Y-16304880D02*
X6937206Y-16323927D01*
X6937206Y-16323927D02*
X6918158Y-16333451D01*
X7108634Y-16276308D02*
X7108634Y-16314403D01*
X7184825Y-16276308D02*
X7184825Y-16314403D01*
X7480063Y-16552499D02*
X7470539Y-16542975D01*
X7470539Y-16542975D02*
X7451491Y-16514403D01*
X7451491Y-16514403D02*
X7441968Y-16495356D01*
X7441968Y-16495356D02*
X7432444Y-16466784D01*
X7432444Y-16466784D02*
X7422920Y-16419165D01*
X7422920Y-16419165D02*
X7422920Y-16381070D01*
X7422920Y-16381070D02*
X7432444Y-16333451D01*
X7432444Y-16333451D02*
X7441968Y-16304880D01*
X7441968Y-16304880D02*
X7451491Y-16285832D01*
X7451491Y-16285832D02*
X7470539Y-16257261D01*
X7470539Y-16257261D02*
X7480063Y-16247737D01*
X7546729Y-16295356D02*
X7556253Y-16285832D01*
X7556253Y-16285832D02*
X7575301Y-16276308D01*
X7575301Y-16276308D02*
X7622920Y-16276308D01*
X7622920Y-16276308D02*
X7641968Y-16285832D01*
X7641968Y-16285832D02*
X7651491Y-16295356D01*
X7651491Y-16295356D02*
X7661015Y-16314403D01*
X7661015Y-16314403D02*
X7661015Y-16333451D01*
X7661015Y-16333451D02*
X7651491Y-16362022D01*
X7651491Y-16362022D02*
X7537206Y-16476308D01*
X7537206Y-16476308D02*
X7661015Y-16476308D01*
X7899110Y-16476308D02*
X7899110Y-16276308D01*
X7984825Y-16476308D02*
X7984825Y-16371546D01*
X7984825Y-16371546D02*
X7975301Y-16352499D01*
X7975301Y-16352499D02*
X7956253Y-16342975D01*
X7956253Y-16342975D02*
X7927682Y-16342975D01*
X7927682Y-16342975D02*
X7908634Y-16352499D01*
X7908634Y-16352499D02*
X7899110Y-16362022D01*
X8108634Y-16476308D02*
X8089587Y-16466784D01*
X8089587Y-16466784D02*
X8080063Y-16457261D01*
X8080063Y-16457261D02*
X8070539Y-16438213D01*
X8070539Y-16438213D02*
X8070539Y-16381070D01*
X8070539Y-16381070D02*
X8080063Y-16362022D01*
X8080063Y-16362022D02*
X8089587Y-16352499D01*
X8089587Y-16352499D02*
X8108634Y-16342975D01*
X8108634Y-16342975D02*
X8137206Y-16342975D01*
X8137206Y-16342975D02*
X8156253Y-16352499D01*
X8156253Y-16352499D02*
X8165777Y-16362022D01*
X8165777Y-16362022D02*
X8175301Y-16381070D01*
X8175301Y-16381070D02*
X8175301Y-16438213D01*
X8175301Y-16438213D02*
X8165777Y-16457261D01*
X8165777Y-16457261D02*
X8156253Y-16466784D01*
X8156253Y-16466784D02*
X8137206Y-16476308D01*
X8137206Y-16476308D02*
X8108634Y-16476308D01*
X8289587Y-16476308D02*
X8270539Y-16466784D01*
X8270539Y-16466784D02*
X8261015Y-16447737D01*
X8261015Y-16447737D02*
X8261015Y-16276308D01*
X8441968Y-16466784D02*
X8422920Y-16476308D01*
X8422920Y-16476308D02*
X8384825Y-16476308D01*
X8384825Y-16476308D02*
X8365777Y-16466784D01*
X8365777Y-16466784D02*
X8356253Y-16447737D01*
X8356253Y-16447737D02*
X8356253Y-16371546D01*
X8356253Y-16371546D02*
X8365777Y-16352499D01*
X8365777Y-16352499D02*
X8384825Y-16342975D01*
X8384825Y-16342975D02*
X8422920Y-16342975D01*
X8422920Y-16342975D02*
X8441968Y-16352499D01*
X8441968Y-16352499D02*
X8451492Y-16371546D01*
X8451492Y-16371546D02*
X8451492Y-16390594D01*
X8451492Y-16390594D02*
X8356253Y-16409642D01*
X8527682Y-16466784D02*
X8546730Y-16476308D01*
X8546730Y-16476308D02*
X8584825Y-16476308D01*
X8584825Y-16476308D02*
X8603873Y-16466784D01*
X8603873Y-16466784D02*
X8613396Y-16447737D01*
X8613396Y-16447737D02*
X8613396Y-16438213D01*
X8613396Y-16438213D02*
X8603873Y-16419165D01*
X8603873Y-16419165D02*
X8584825Y-16409642D01*
X8584825Y-16409642D02*
X8556253Y-16409642D01*
X8556253Y-16409642D02*
X8537206Y-16400118D01*
X8537206Y-16400118D02*
X8527682Y-16381070D01*
X8527682Y-16381070D02*
X8527682Y-16371546D01*
X8527682Y-16371546D02*
X8537206Y-16352499D01*
X8537206Y-16352499D02*
X8556253Y-16342975D01*
X8556253Y-16342975D02*
X8584825Y-16342975D01*
X8584825Y-16342975D02*
X8603873Y-16352499D01*
X8680063Y-16552499D02*
X8689587Y-16542975D01*
X8689587Y-16542975D02*
X8708634Y-16514403D01*
X8708634Y-16514403D02*
X8718158Y-16495356D01*
X8718158Y-16495356D02*
X8727682Y-16466784D01*
X8727682Y-16466784D02*
X8737206Y-16419165D01*
X8737206Y-16419165D02*
X8737206Y-16381070D01*
X8737206Y-16381070D02*
X8727682Y-16333451D01*
X8727682Y-16333451D02*
X8718158Y-16304880D01*
X8718158Y-16304880D02*
X8708634Y-16285832D01*
X8708634Y-16285832D02*
X8689587Y-16257261D01*
X8689587Y-16257261D02*
X8680063Y-16247737D01*
X9041968Y-16552499D02*
X9032444Y-16542975D01*
X9032444Y-16542975D02*
X9013396Y-16514403D01*
X9013396Y-16514403D02*
X9003873Y-16495356D01*
X9003873Y-16495356D02*
X8994349Y-16466784D01*
X8994349Y-16466784D02*
X8984825Y-16419165D01*
X8984825Y-16419165D02*
X8984825Y-16381070D01*
X8984825Y-16381070D02*
X8994349Y-16333451D01*
X8994349Y-16333451D02*
X9003873Y-16304880D01*
X9003873Y-16304880D02*
X9013396Y-16285832D01*
X9013396Y-16285832D02*
X9032444Y-16257261D01*
X9032444Y-16257261D02*
X9041968Y-16247737D01*
X9118158Y-16342975D02*
X9118158Y-16476308D01*
X9118158Y-16362022D02*
X9127682Y-16352499D01*
X9127682Y-16352499D02*
X9146730Y-16342975D01*
X9146730Y-16342975D02*
X9175301Y-16342975D01*
X9175301Y-16342975D02*
X9194349Y-16352499D01*
X9194349Y-16352499D02*
X9203873Y-16371546D01*
X9203873Y-16371546D02*
X9203873Y-16476308D01*
X9327682Y-16476308D02*
X9308634Y-16466784D01*
X9308634Y-16466784D02*
X9299111Y-16457261D01*
X9299111Y-16457261D02*
X9289587Y-16438213D01*
X9289587Y-16438213D02*
X9289587Y-16381070D01*
X9289587Y-16381070D02*
X9299111Y-16362022D01*
X9299111Y-16362022D02*
X9308634Y-16352499D01*
X9308634Y-16352499D02*
X9327682Y-16342975D01*
X9327682Y-16342975D02*
X9356254Y-16342975D01*
X9356254Y-16342975D02*
X9375301Y-16352499D01*
X9375301Y-16352499D02*
X9384825Y-16362022D01*
X9384825Y-16362022D02*
X9394349Y-16381070D01*
X9394349Y-16381070D02*
X9394349Y-16438213D01*
X9394349Y-16438213D02*
X9384825Y-16457261D01*
X9384825Y-16457261D02*
X9375301Y-16466784D01*
X9375301Y-16466784D02*
X9356254Y-16476308D01*
X9356254Y-16476308D02*
X9327682Y-16476308D01*
X9451492Y-16342975D02*
X9527682Y-16342975D01*
X9480063Y-16276308D02*
X9480063Y-16447737D01*
X9480063Y-16447737D02*
X9489587Y-16466784D01*
X9489587Y-16466784D02*
X9508634Y-16476308D01*
X9508634Y-16476308D02*
X9527682Y-16476308D01*
X9746730Y-16342975D02*
X9746730Y-16542975D01*
X9746730Y-16352499D02*
X9765777Y-16342975D01*
X9765777Y-16342975D02*
X9803873Y-16342975D01*
X9803873Y-16342975D02*
X9822920Y-16352499D01*
X9822920Y-16352499D02*
X9832444Y-16362022D01*
X9832444Y-16362022D02*
X9841968Y-16381070D01*
X9841968Y-16381070D02*
X9841968Y-16438213D01*
X9841968Y-16438213D02*
X9832444Y-16457261D01*
X9832444Y-16457261D02*
X9822920Y-16466784D01*
X9822920Y-16466784D02*
X9803873Y-16476308D01*
X9803873Y-16476308D02*
X9765777Y-16476308D01*
X9765777Y-16476308D02*
X9746730Y-16466784D01*
X9956254Y-16476308D02*
X9937206Y-16466784D01*
X9937206Y-16466784D02*
X9927682Y-16447737D01*
X9927682Y-16447737D02*
X9927682Y-16276308D01*
X10118158Y-16476308D02*
X10118158Y-16371546D01*
X10118158Y-16371546D02*
X10108635Y-16352499D01*
X10108635Y-16352499D02*
X10089587Y-16342975D01*
X10089587Y-16342975D02*
X10051492Y-16342975D01*
X10051492Y-16342975D02*
X10032444Y-16352499D01*
X10118158Y-16466784D02*
X10099111Y-16476308D01*
X10099111Y-16476308D02*
X10051492Y-16476308D01*
X10051492Y-16476308D02*
X10032444Y-16466784D01*
X10032444Y-16466784D02*
X10022920Y-16447737D01*
X10022920Y-16447737D02*
X10022920Y-16428689D01*
X10022920Y-16428689D02*
X10032444Y-16409642D01*
X10032444Y-16409642D02*
X10051492Y-16400118D01*
X10051492Y-16400118D02*
X10099111Y-16400118D01*
X10099111Y-16400118D02*
X10118158Y-16390594D01*
X10184825Y-16342975D02*
X10261015Y-16342975D01*
X10213396Y-16276308D02*
X10213396Y-16447737D01*
X10213396Y-16447737D02*
X10222920Y-16466784D01*
X10222920Y-16466784D02*
X10241968Y-16476308D01*
X10241968Y-16476308D02*
X10261015Y-16476308D01*
X10403873Y-16466784D02*
X10384825Y-16476308D01*
X10384825Y-16476308D02*
X10346730Y-16476308D01*
X10346730Y-16476308D02*
X10327682Y-16466784D01*
X10327682Y-16466784D02*
X10318158Y-16447737D01*
X10318158Y-16447737D02*
X10318158Y-16371546D01*
X10318158Y-16371546D02*
X10327682Y-16352499D01*
X10327682Y-16352499D02*
X10346730Y-16342975D01*
X10346730Y-16342975D02*
X10384825Y-16342975D01*
X10384825Y-16342975D02*
X10403873Y-16352499D01*
X10403873Y-16352499D02*
X10413396Y-16371546D01*
X10413396Y-16371546D02*
X10413396Y-16390594D01*
X10413396Y-16390594D02*
X10318158Y-16409642D01*
X10584825Y-16476308D02*
X10584825Y-16276308D01*
X10584825Y-16466784D02*
X10565777Y-16476308D01*
X10565777Y-16476308D02*
X10527682Y-16476308D01*
X10527682Y-16476308D02*
X10508635Y-16466784D01*
X10508635Y-16466784D02*
X10499111Y-16457261D01*
X10499111Y-16457261D02*
X10489587Y-16438213D01*
X10489587Y-16438213D02*
X10489587Y-16381070D01*
X10489587Y-16381070D02*
X10499111Y-16362022D01*
X10499111Y-16362022D02*
X10508635Y-16352499D01*
X10508635Y-16352499D02*
X10527682Y-16342975D01*
X10527682Y-16342975D02*
X10565777Y-16342975D01*
X10565777Y-16342975D02*
X10584825Y-16352499D01*
X10661016Y-16552499D02*
X10670539Y-16542975D01*
X10670539Y-16542975D02*
X10689587Y-16514403D01*
X10689587Y-16514403D02*
X10699111Y-16495356D01*
X10699111Y-16495356D02*
X10708635Y-16466784D01*
X10708635Y-16466784D02*
X10718158Y-16419165D01*
X10718158Y-16419165D02*
X10718158Y-16381070D01*
X10718158Y-16381070D02*
X10708635Y-16333451D01*
X10708635Y-16333451D02*
X10699111Y-16304880D01*
X10699111Y-16304880D02*
X10689587Y-16285832D01*
X10689587Y-16285832D02*
X10670539Y-16257261D01*
X10670539Y-16257261D02*
X10661016Y-16247737D01*
D13*
X3905000Y-16654824D02*
G75*
G03*
X3730000Y-16654824I-87500J0D01*
G01*
X3730000Y-16654824D02*
G75*
G03*
X3905000Y-16654824I87500J0D01*
G01*
D11*
X4270539Y-16746308D02*
X4156253Y-16746308D01*
X4213396Y-16746308D02*
X4213396Y-16546308D01*
X4213396Y-16546308D02*
X4194348Y-16574880D01*
X4194348Y-16574880D02*
X4175301Y-16593927D01*
X4175301Y-16593927D02*
X4156253Y-16603451D01*
X4356253Y-16727261D02*
X4365777Y-16736784D01*
X4365777Y-16736784D02*
X4356253Y-16746308D01*
X4356253Y-16746308D02*
X4346729Y-16736784D01*
X4346729Y-16736784D02*
X4356253Y-16727261D01*
X4356253Y-16727261D02*
X4356253Y-16746308D01*
X4432444Y-16546308D02*
X4565777Y-16546308D01*
X4565777Y-16546308D02*
X4480063Y-16746308D01*
X4737205Y-16546308D02*
X4641967Y-16546308D01*
X4641967Y-16546308D02*
X4632444Y-16641546D01*
X4632444Y-16641546D02*
X4641967Y-16632022D01*
X4641967Y-16632022D02*
X4661015Y-16622499D01*
X4661015Y-16622499D02*
X4708634Y-16622499D01*
X4708634Y-16622499D02*
X4727682Y-16632022D01*
X4727682Y-16632022D02*
X4737205Y-16641546D01*
X4737205Y-16641546D02*
X4746729Y-16660594D01*
X4746729Y-16660594D02*
X4746729Y-16708213D01*
X4746729Y-16708213D02*
X4737205Y-16727261D01*
X4737205Y-16727261D02*
X4727682Y-16736784D01*
X4727682Y-16736784D02*
X4708634Y-16746308D01*
X4708634Y-16746308D02*
X4661015Y-16746308D01*
X4661015Y-16746308D02*
X4641967Y-16736784D01*
X4641967Y-16736784D02*
X4632444Y-16727261D01*
X4870539Y-16546308D02*
X4889586Y-16546308D01*
X4889586Y-16546308D02*
X4908634Y-16555832D01*
X4908634Y-16555832D02*
X4918158Y-16565356D01*
X4918158Y-16565356D02*
X4927682Y-16584403D01*
X4927682Y-16584403D02*
X4937205Y-16622499D01*
X4937205Y-16622499D02*
X4937205Y-16670118D01*
X4937205Y-16670118D02*
X4927682Y-16708213D01*
X4927682Y-16708213D02*
X4918158Y-16727261D01*
X4918158Y-16727261D02*
X4908634Y-16736784D01*
X4908634Y-16736784D02*
X4889586Y-16746308D01*
X4889586Y-16746308D02*
X4870539Y-16746308D01*
X4870539Y-16746308D02*
X4851491Y-16736784D01*
X4851491Y-16736784D02*
X4841967Y-16727261D01*
X4841967Y-16727261D02*
X4832444Y-16708213D01*
X4832444Y-16708213D02*
X4822920Y-16670118D01*
X4822920Y-16670118D02*
X4822920Y-16622499D01*
X4822920Y-16622499D02*
X4832444Y-16584403D01*
X4832444Y-16584403D02*
X4841967Y-16565356D01*
X4841967Y-16565356D02*
X4851491Y-16555832D01*
X4851491Y-16555832D02*
X4870539Y-16546308D01*
X5022920Y-16746308D02*
X5022920Y-16612975D01*
X5022920Y-16632022D02*
X5032444Y-16622499D01*
X5032444Y-16622499D02*
X5051491Y-16612975D01*
X5051491Y-16612975D02*
X5080063Y-16612975D01*
X5080063Y-16612975D02*
X5099110Y-16622499D01*
X5099110Y-16622499D02*
X5108634Y-16641546D01*
X5108634Y-16641546D02*
X5108634Y-16746308D01*
X5108634Y-16641546D02*
X5118158Y-16622499D01*
X5118158Y-16622499D02*
X5137205Y-16612975D01*
X5137205Y-16612975D02*
X5165777Y-16612975D01*
X5165777Y-16612975D02*
X5184825Y-16622499D01*
X5184825Y-16622499D02*
X5194348Y-16641546D01*
X5194348Y-16641546D02*
X5194348Y-16746308D01*
X5289586Y-16746308D02*
X5289586Y-16612975D01*
X5289586Y-16632022D02*
X5299110Y-16622499D01*
X5299110Y-16622499D02*
X5318158Y-16612975D01*
X5318158Y-16612975D02*
X5346729Y-16612975D01*
X5346729Y-16612975D02*
X5365777Y-16622499D01*
X5365777Y-16622499D02*
X5375301Y-16641546D01*
X5375301Y-16641546D02*
X5375301Y-16746308D01*
X5375301Y-16641546D02*
X5384825Y-16622499D01*
X5384825Y-16622499D02*
X5403872Y-16612975D01*
X5403872Y-16612975D02*
X5432444Y-16612975D01*
X5432444Y-16612975D02*
X5451491Y-16622499D01*
X5451491Y-16622499D02*
X5461015Y-16641546D01*
X5461015Y-16641546D02*
X5461015Y-16746308D01*
X5851491Y-16536784D02*
X5680063Y-16793927D01*
X6108634Y-16546308D02*
X6127682Y-16546308D01*
X6127682Y-16546308D02*
X6146729Y-16555832D01*
X6146729Y-16555832D02*
X6156253Y-16565356D01*
X6156253Y-16565356D02*
X6165777Y-16584403D01*
X6165777Y-16584403D02*
X6175301Y-16622499D01*
X6175301Y-16622499D02*
X6175301Y-16670118D01*
X6175301Y-16670118D02*
X6165777Y-16708213D01*
X6165777Y-16708213D02*
X6156253Y-16727261D01*
X6156253Y-16727261D02*
X6146729Y-16736784D01*
X6146729Y-16736784D02*
X6127682Y-16746308D01*
X6127682Y-16746308D02*
X6108634Y-16746308D01*
X6108634Y-16746308D02*
X6089586Y-16736784D01*
X6089586Y-16736784D02*
X6080063Y-16727261D01*
X6080063Y-16727261D02*
X6070539Y-16708213D01*
X6070539Y-16708213D02*
X6061015Y-16670118D01*
X6061015Y-16670118D02*
X6061015Y-16622499D01*
X6061015Y-16622499D02*
X6070539Y-16584403D01*
X6070539Y-16584403D02*
X6080063Y-16565356D01*
X6080063Y-16565356D02*
X6089586Y-16555832D01*
X6089586Y-16555832D02*
X6108634Y-16546308D01*
X6261015Y-16727261D02*
X6270539Y-16736784D01*
X6270539Y-16736784D02*
X6261015Y-16746308D01*
X6261015Y-16746308D02*
X6251491Y-16736784D01*
X6251491Y-16736784D02*
X6261015Y-16727261D01*
X6261015Y-16727261D02*
X6261015Y-16746308D01*
X6394348Y-16546308D02*
X6413396Y-16546308D01*
X6413396Y-16546308D02*
X6432444Y-16555832D01*
X6432444Y-16555832D02*
X6441967Y-16565356D01*
X6441967Y-16565356D02*
X6451491Y-16584403D01*
X6451491Y-16584403D02*
X6461015Y-16622499D01*
X6461015Y-16622499D02*
X6461015Y-16670118D01*
X6461015Y-16670118D02*
X6451491Y-16708213D01*
X6451491Y-16708213D02*
X6441967Y-16727261D01*
X6441967Y-16727261D02*
X6432444Y-16736784D01*
X6432444Y-16736784D02*
X6413396Y-16746308D01*
X6413396Y-16746308D02*
X6394348Y-16746308D01*
X6394348Y-16746308D02*
X6375301Y-16736784D01*
X6375301Y-16736784D02*
X6365777Y-16727261D01*
X6365777Y-16727261D02*
X6356253Y-16708213D01*
X6356253Y-16708213D02*
X6346729Y-16670118D01*
X6346729Y-16670118D02*
X6346729Y-16622499D01*
X6346729Y-16622499D02*
X6356253Y-16584403D01*
X6356253Y-16584403D02*
X6365777Y-16565356D01*
X6365777Y-16565356D02*
X6375301Y-16555832D01*
X6375301Y-16555832D02*
X6394348Y-16546308D01*
X6632444Y-16546308D02*
X6594348Y-16546308D01*
X6594348Y-16546308D02*
X6575301Y-16555832D01*
X6575301Y-16555832D02*
X6565777Y-16565356D01*
X6565777Y-16565356D02*
X6546729Y-16593927D01*
X6546729Y-16593927D02*
X6537206Y-16632022D01*
X6537206Y-16632022D02*
X6537206Y-16708213D01*
X6537206Y-16708213D02*
X6546729Y-16727261D01*
X6546729Y-16727261D02*
X6556253Y-16736784D01*
X6556253Y-16736784D02*
X6575301Y-16746308D01*
X6575301Y-16746308D02*
X6613396Y-16746308D01*
X6613396Y-16746308D02*
X6632444Y-16736784D01*
X6632444Y-16736784D02*
X6641967Y-16727261D01*
X6641967Y-16727261D02*
X6651491Y-16708213D01*
X6651491Y-16708213D02*
X6651491Y-16660594D01*
X6651491Y-16660594D02*
X6641967Y-16641546D01*
X6641967Y-16641546D02*
X6632444Y-16632022D01*
X6632444Y-16632022D02*
X6613396Y-16622499D01*
X6613396Y-16622499D02*
X6575301Y-16622499D01*
X6575301Y-16622499D02*
X6556253Y-16632022D01*
X6556253Y-16632022D02*
X6546729Y-16641546D01*
X6546729Y-16641546D02*
X6537206Y-16660594D01*
X6765777Y-16632022D02*
X6746729Y-16622499D01*
X6746729Y-16622499D02*
X6737206Y-16612975D01*
X6737206Y-16612975D02*
X6727682Y-16593927D01*
X6727682Y-16593927D02*
X6727682Y-16584403D01*
X6727682Y-16584403D02*
X6737206Y-16565356D01*
X6737206Y-16565356D02*
X6746729Y-16555832D01*
X6746729Y-16555832D02*
X6765777Y-16546308D01*
X6765777Y-16546308D02*
X6803872Y-16546308D01*
X6803872Y-16546308D02*
X6822920Y-16555832D01*
X6822920Y-16555832D02*
X6832444Y-16565356D01*
X6832444Y-16565356D02*
X6841967Y-16584403D01*
X6841967Y-16584403D02*
X6841967Y-16593927D01*
X6841967Y-16593927D02*
X6832444Y-16612975D01*
X6832444Y-16612975D02*
X6822920Y-16622499D01*
X6822920Y-16622499D02*
X6803872Y-16632022D01*
X6803872Y-16632022D02*
X6765777Y-16632022D01*
X6765777Y-16632022D02*
X6746729Y-16641546D01*
X6746729Y-16641546D02*
X6737206Y-16651070D01*
X6737206Y-16651070D02*
X6727682Y-16670118D01*
X6727682Y-16670118D02*
X6727682Y-16708213D01*
X6727682Y-16708213D02*
X6737206Y-16727261D01*
X6737206Y-16727261D02*
X6746729Y-16736784D01*
X6746729Y-16736784D02*
X6765777Y-16746308D01*
X6765777Y-16746308D02*
X6803872Y-16746308D01*
X6803872Y-16746308D02*
X6822920Y-16736784D01*
X6822920Y-16736784D02*
X6832444Y-16727261D01*
X6832444Y-16727261D02*
X6841967Y-16708213D01*
X6841967Y-16708213D02*
X6841967Y-16670118D01*
X6841967Y-16670118D02*
X6832444Y-16651070D01*
X6832444Y-16651070D02*
X6822920Y-16641546D01*
X6822920Y-16641546D02*
X6803872Y-16632022D01*
X6937206Y-16746308D02*
X6975301Y-16746308D01*
X6975301Y-16746308D02*
X6994348Y-16736784D01*
X6994348Y-16736784D02*
X7003872Y-16727261D01*
X7003872Y-16727261D02*
X7022920Y-16698689D01*
X7022920Y-16698689D02*
X7032444Y-16660594D01*
X7032444Y-16660594D02*
X7032444Y-16584403D01*
X7032444Y-16584403D02*
X7022920Y-16565356D01*
X7022920Y-16565356D02*
X7013396Y-16555832D01*
X7013396Y-16555832D02*
X6994348Y-16546308D01*
X6994348Y-16546308D02*
X6956253Y-16546308D01*
X6956253Y-16546308D02*
X6937206Y-16555832D01*
X6937206Y-16555832D02*
X6927682Y-16565356D01*
X6927682Y-16565356D02*
X6918158Y-16584403D01*
X6918158Y-16584403D02*
X6918158Y-16632022D01*
X6918158Y-16632022D02*
X6927682Y-16651070D01*
X6927682Y-16651070D02*
X6937206Y-16660594D01*
X6937206Y-16660594D02*
X6956253Y-16670118D01*
X6956253Y-16670118D02*
X6994348Y-16670118D01*
X6994348Y-16670118D02*
X7013396Y-16660594D01*
X7013396Y-16660594D02*
X7022920Y-16651070D01*
X7022920Y-16651070D02*
X7032444Y-16632022D01*
X7108634Y-16546308D02*
X7108634Y-16584403D01*
X7184825Y-16546308D02*
X7184825Y-16584403D01*
X7480063Y-16822499D02*
X7470539Y-16812975D01*
X7470539Y-16812975D02*
X7451491Y-16784404D01*
X7451491Y-16784404D02*
X7441968Y-16765356D01*
X7441968Y-16765356D02*
X7432444Y-16736784D01*
X7432444Y-16736784D02*
X7422920Y-16689165D01*
X7422920Y-16689165D02*
X7422920Y-16651070D01*
X7422920Y-16651070D02*
X7432444Y-16603451D01*
X7432444Y-16603451D02*
X7441968Y-16574880D01*
X7441968Y-16574880D02*
X7451491Y-16555832D01*
X7451491Y-16555832D02*
X7470539Y-16527261D01*
X7470539Y-16527261D02*
X7480063Y-16517737D01*
X7641968Y-16612975D02*
X7641968Y-16746308D01*
X7594348Y-16536784D02*
X7546729Y-16679642D01*
X7546729Y-16679642D02*
X7670539Y-16679642D01*
X7832444Y-16546308D02*
X7794348Y-16546308D01*
X7794348Y-16546308D02*
X7775301Y-16555832D01*
X7775301Y-16555832D02*
X7765777Y-16565356D01*
X7765777Y-16565356D02*
X7746729Y-16593927D01*
X7746729Y-16593927D02*
X7737206Y-16632022D01*
X7737206Y-16632022D02*
X7737206Y-16708213D01*
X7737206Y-16708213D02*
X7746729Y-16727261D01*
X7746729Y-16727261D02*
X7756253Y-16736784D01*
X7756253Y-16736784D02*
X7775301Y-16746308D01*
X7775301Y-16746308D02*
X7813396Y-16746308D01*
X7813396Y-16746308D02*
X7832444Y-16736784D01*
X7832444Y-16736784D02*
X7841968Y-16727261D01*
X7841968Y-16727261D02*
X7851491Y-16708213D01*
X7851491Y-16708213D02*
X7851491Y-16660594D01*
X7851491Y-16660594D02*
X7841968Y-16641546D01*
X7841968Y-16641546D02*
X7832444Y-16632022D01*
X7832444Y-16632022D02*
X7813396Y-16622499D01*
X7813396Y-16622499D02*
X7775301Y-16622499D01*
X7775301Y-16622499D02*
X7756253Y-16632022D01*
X7756253Y-16632022D02*
X7746729Y-16641546D01*
X7746729Y-16641546D02*
X7737206Y-16660594D01*
X8089587Y-16746308D02*
X8089587Y-16546308D01*
X8175301Y-16746308D02*
X8175301Y-16641546D01*
X8175301Y-16641546D02*
X8165777Y-16622499D01*
X8165777Y-16622499D02*
X8146730Y-16612975D01*
X8146730Y-16612975D02*
X8118158Y-16612975D01*
X8118158Y-16612975D02*
X8099110Y-16622499D01*
X8099110Y-16622499D02*
X8089587Y-16632022D01*
X8299110Y-16746308D02*
X8280063Y-16736784D01*
X8280063Y-16736784D02*
X8270539Y-16727261D01*
X8270539Y-16727261D02*
X8261015Y-16708213D01*
X8261015Y-16708213D02*
X8261015Y-16651070D01*
X8261015Y-16651070D02*
X8270539Y-16632022D01*
X8270539Y-16632022D02*
X8280063Y-16622499D01*
X8280063Y-16622499D02*
X8299110Y-16612975D01*
X8299110Y-16612975D02*
X8327682Y-16612975D01*
X8327682Y-16612975D02*
X8346730Y-16622499D01*
X8346730Y-16622499D02*
X8356253Y-16632022D01*
X8356253Y-16632022D02*
X8365777Y-16651070D01*
X8365777Y-16651070D02*
X8365777Y-16708213D01*
X8365777Y-16708213D02*
X8356253Y-16727261D01*
X8356253Y-16727261D02*
X8346730Y-16736784D01*
X8346730Y-16736784D02*
X8327682Y-16746308D01*
X8327682Y-16746308D02*
X8299110Y-16746308D01*
X8480063Y-16746308D02*
X8461015Y-16736784D01*
X8461015Y-16736784D02*
X8451492Y-16717737D01*
X8451492Y-16717737D02*
X8451492Y-16546308D01*
X8632444Y-16736784D02*
X8613396Y-16746308D01*
X8613396Y-16746308D02*
X8575301Y-16746308D01*
X8575301Y-16746308D02*
X8556253Y-16736784D01*
X8556253Y-16736784D02*
X8546730Y-16717737D01*
X8546730Y-16717737D02*
X8546730Y-16641546D01*
X8546730Y-16641546D02*
X8556253Y-16622499D01*
X8556253Y-16622499D02*
X8575301Y-16612975D01*
X8575301Y-16612975D02*
X8613396Y-16612975D01*
X8613396Y-16612975D02*
X8632444Y-16622499D01*
X8632444Y-16622499D02*
X8641968Y-16641546D01*
X8641968Y-16641546D02*
X8641968Y-16660594D01*
X8641968Y-16660594D02*
X8546730Y-16679642D01*
X8718158Y-16736784D02*
X8737206Y-16746308D01*
X8737206Y-16746308D02*
X8775301Y-16746308D01*
X8775301Y-16746308D02*
X8794349Y-16736784D01*
X8794349Y-16736784D02*
X8803873Y-16717737D01*
X8803873Y-16717737D02*
X8803873Y-16708213D01*
X8803873Y-16708213D02*
X8794349Y-16689165D01*
X8794349Y-16689165D02*
X8775301Y-16679642D01*
X8775301Y-16679642D02*
X8746730Y-16679642D01*
X8746730Y-16679642D02*
X8727682Y-16670118D01*
X8727682Y-16670118D02*
X8718158Y-16651070D01*
X8718158Y-16651070D02*
X8718158Y-16641546D01*
X8718158Y-16641546D02*
X8727682Y-16622499D01*
X8727682Y-16622499D02*
X8746730Y-16612975D01*
X8746730Y-16612975D02*
X8775301Y-16612975D01*
X8775301Y-16612975D02*
X8794349Y-16622499D01*
X8870539Y-16822499D02*
X8880063Y-16812975D01*
X8880063Y-16812975D02*
X8899111Y-16784404D01*
X8899111Y-16784404D02*
X8908634Y-16765356D01*
X8908634Y-16765356D02*
X8918158Y-16736784D01*
X8918158Y-16736784D02*
X8927682Y-16689165D01*
X8927682Y-16689165D02*
X8927682Y-16651070D01*
X8927682Y-16651070D02*
X8918158Y-16603451D01*
X8918158Y-16603451D02*
X8908634Y-16574880D01*
X8908634Y-16574880D02*
X8899111Y-16555832D01*
X8899111Y-16555832D02*
X8880063Y-16527261D01*
X8880063Y-16527261D02*
X8870539Y-16517737D01*
X9232444Y-16822499D02*
X9222920Y-16812975D01*
X9222920Y-16812975D02*
X9203873Y-16784404D01*
X9203873Y-16784404D02*
X9194349Y-16765356D01*
X9194349Y-16765356D02*
X9184825Y-16736784D01*
X9184825Y-16736784D02*
X9175301Y-16689165D01*
X9175301Y-16689165D02*
X9175301Y-16651070D01*
X9175301Y-16651070D02*
X9184825Y-16603451D01*
X9184825Y-16603451D02*
X9194349Y-16574880D01*
X9194349Y-16574880D02*
X9203873Y-16555832D01*
X9203873Y-16555832D02*
X9222920Y-16527261D01*
X9222920Y-16527261D02*
X9232444Y-16517737D01*
X9308634Y-16612975D02*
X9308634Y-16746308D01*
X9308634Y-16632022D02*
X9318158Y-16622499D01*
X9318158Y-16622499D02*
X9337206Y-16612975D01*
X9337206Y-16612975D02*
X9365777Y-16612975D01*
X9365777Y-16612975D02*
X9384825Y-16622499D01*
X9384825Y-16622499D02*
X9394349Y-16641546D01*
X9394349Y-16641546D02*
X9394349Y-16746308D01*
X9518158Y-16746308D02*
X9499111Y-16736784D01*
X9499111Y-16736784D02*
X9489587Y-16727261D01*
X9489587Y-16727261D02*
X9480063Y-16708213D01*
X9480063Y-16708213D02*
X9480063Y-16651070D01*
X9480063Y-16651070D02*
X9489587Y-16632022D01*
X9489587Y-16632022D02*
X9499111Y-16622499D01*
X9499111Y-16622499D02*
X9518158Y-16612975D01*
X9518158Y-16612975D02*
X9546730Y-16612975D01*
X9546730Y-16612975D02*
X9565777Y-16622499D01*
X9565777Y-16622499D02*
X9575301Y-16632022D01*
X9575301Y-16632022D02*
X9584825Y-16651070D01*
X9584825Y-16651070D02*
X9584825Y-16708213D01*
X9584825Y-16708213D02*
X9575301Y-16727261D01*
X9575301Y-16727261D02*
X9565777Y-16736784D01*
X9565777Y-16736784D02*
X9546730Y-16746308D01*
X9546730Y-16746308D02*
X9518158Y-16746308D01*
X9641968Y-16612975D02*
X9718158Y-16612975D01*
X9670539Y-16546308D02*
X9670539Y-16717737D01*
X9670539Y-16717737D02*
X9680063Y-16736784D01*
X9680063Y-16736784D02*
X9699111Y-16746308D01*
X9699111Y-16746308D02*
X9718158Y-16746308D01*
X9937206Y-16612975D02*
X9937206Y-16812975D01*
X9937206Y-16622499D02*
X9956254Y-16612975D01*
X9956254Y-16612975D02*
X9994349Y-16612975D01*
X9994349Y-16612975D02*
X10013396Y-16622499D01*
X10013396Y-16622499D02*
X10022920Y-16632022D01*
X10022920Y-16632022D02*
X10032444Y-16651070D01*
X10032444Y-16651070D02*
X10032444Y-16708213D01*
X10032444Y-16708213D02*
X10022920Y-16727261D01*
X10022920Y-16727261D02*
X10013396Y-16736784D01*
X10013396Y-16736784D02*
X9994349Y-16746308D01*
X9994349Y-16746308D02*
X9956254Y-16746308D01*
X9956254Y-16746308D02*
X9937206Y-16736784D01*
X10146730Y-16746308D02*
X10127682Y-16736784D01*
X10127682Y-16736784D02*
X10118158Y-16717737D01*
X10118158Y-16717737D02*
X10118158Y-16546308D01*
X10308635Y-16746308D02*
X10308635Y-16641546D01*
X10308635Y-16641546D02*
X10299111Y-16622499D01*
X10299111Y-16622499D02*
X10280063Y-16612975D01*
X10280063Y-16612975D02*
X10241968Y-16612975D01*
X10241968Y-16612975D02*
X10222920Y-16622499D01*
X10308635Y-16736784D02*
X10289587Y-16746308D01*
X10289587Y-16746308D02*
X10241968Y-16746308D01*
X10241968Y-16746308D02*
X10222920Y-16736784D01*
X10222920Y-16736784D02*
X10213396Y-16717737D01*
X10213396Y-16717737D02*
X10213396Y-16698689D01*
X10213396Y-16698689D02*
X10222920Y-16679642D01*
X10222920Y-16679642D02*
X10241968Y-16670118D01*
X10241968Y-16670118D02*
X10289587Y-16670118D01*
X10289587Y-16670118D02*
X10308635Y-16660594D01*
X10375301Y-16612975D02*
X10451492Y-16612975D01*
X10403873Y-16546308D02*
X10403873Y-16717737D01*
X10403873Y-16717737D02*
X10413396Y-16736784D01*
X10413396Y-16736784D02*
X10432444Y-16746308D01*
X10432444Y-16746308D02*
X10451492Y-16746308D01*
X10594349Y-16736784D02*
X10575301Y-16746308D01*
X10575301Y-16746308D02*
X10537206Y-16746308D01*
X10537206Y-16746308D02*
X10518158Y-16736784D01*
X10518158Y-16736784D02*
X10508635Y-16717737D01*
X10508635Y-16717737D02*
X10508635Y-16641546D01*
X10508635Y-16641546D02*
X10518158Y-16622499D01*
X10518158Y-16622499D02*
X10537206Y-16612975D01*
X10537206Y-16612975D02*
X10575301Y-16612975D01*
X10575301Y-16612975D02*
X10594349Y-16622499D01*
X10594349Y-16622499D02*
X10603873Y-16641546D01*
X10603873Y-16641546D02*
X10603873Y-16660594D01*
X10603873Y-16660594D02*
X10508635Y-16679642D01*
X10775301Y-16746308D02*
X10775301Y-16546308D01*
X10775301Y-16736784D02*
X10756254Y-16746308D01*
X10756254Y-16746308D02*
X10718158Y-16746308D01*
X10718158Y-16746308D02*
X10699111Y-16736784D01*
X10699111Y-16736784D02*
X10689587Y-16727261D01*
X10689587Y-16727261D02*
X10680063Y-16708213D01*
X10680063Y-16708213D02*
X10680063Y-16651070D01*
X10680063Y-16651070D02*
X10689587Y-16632022D01*
X10689587Y-16632022D02*
X10699111Y-16622499D01*
X10699111Y-16622499D02*
X10718158Y-16612975D01*
X10718158Y-16612975D02*
X10756254Y-16612975D01*
X10756254Y-16612975D02*
X10775301Y-16622499D01*
X10851492Y-16822499D02*
X10861016Y-16812975D01*
X10861016Y-16812975D02*
X10880063Y-16784404D01*
X10880063Y-16784404D02*
X10889587Y-16765356D01*
X10889587Y-16765356D02*
X10899111Y-16736784D01*
X10899111Y-16736784D02*
X10908635Y-16689165D01*
X10908635Y-16689165D02*
X10908635Y-16651070D01*
X10908635Y-16651070D02*
X10899111Y-16603451D01*
X10899111Y-16603451D02*
X10889587Y-16574880D01*
X10889587Y-16574880D02*
X10880063Y-16555832D01*
X10880063Y-16555832D02*
X10861016Y-16527261D01*
X10861016Y-16527261D02*
X10851492Y-16517737D01*
D14*
X3815000Y-16859825D02*
X3815000Y-17039825D01*
X3725000Y-16949825D02*
X3905000Y-16949825D01*
D11*
X4270539Y-17041308D02*
X4156253Y-17041308D01*
X4213396Y-17041308D02*
X4213396Y-16841308D01*
X4213396Y-16841308D02*
X4194348Y-16869880D01*
X4194348Y-16869880D02*
X4175301Y-16888927D01*
X4175301Y-16888927D02*
X4156253Y-16898451D01*
X4356253Y-17022261D02*
X4365777Y-17031785D01*
X4365777Y-17031785D02*
X4356253Y-17041308D01*
X4356253Y-17041308D02*
X4346729Y-17031785D01*
X4346729Y-17031785D02*
X4356253Y-17022261D01*
X4356253Y-17022261D02*
X4356253Y-17041308D01*
X4480063Y-16927023D02*
X4461015Y-16917499D01*
X4461015Y-16917499D02*
X4451491Y-16907975D01*
X4451491Y-16907975D02*
X4441967Y-16888927D01*
X4441967Y-16888927D02*
X4441967Y-16879404D01*
X4441967Y-16879404D02*
X4451491Y-16860356D01*
X4451491Y-16860356D02*
X4461015Y-16850832D01*
X4461015Y-16850832D02*
X4480063Y-16841308D01*
X4480063Y-16841308D02*
X4518158Y-16841308D01*
X4518158Y-16841308D02*
X4537205Y-16850832D01*
X4537205Y-16850832D02*
X4546729Y-16860356D01*
X4546729Y-16860356D02*
X4556253Y-16879404D01*
X4556253Y-16879404D02*
X4556253Y-16888927D01*
X4556253Y-16888927D02*
X4546729Y-16907975D01*
X4546729Y-16907975D02*
X4537205Y-16917499D01*
X4537205Y-16917499D02*
X4518158Y-16927023D01*
X4518158Y-16927023D02*
X4480063Y-16927023D01*
X4480063Y-16927023D02*
X4461015Y-16936546D01*
X4461015Y-16936546D02*
X4451491Y-16946070D01*
X4451491Y-16946070D02*
X4441967Y-16965118D01*
X4441967Y-16965118D02*
X4441967Y-17003213D01*
X4441967Y-17003213D02*
X4451491Y-17022261D01*
X4451491Y-17022261D02*
X4461015Y-17031785D01*
X4461015Y-17031785D02*
X4480063Y-17041308D01*
X4480063Y-17041308D02*
X4518158Y-17041308D01*
X4518158Y-17041308D02*
X4537205Y-17031785D01*
X4537205Y-17031785D02*
X4546729Y-17022261D01*
X4546729Y-17022261D02*
X4556253Y-17003213D01*
X4556253Y-17003213D02*
X4556253Y-16965118D01*
X4556253Y-16965118D02*
X4546729Y-16946070D01*
X4546729Y-16946070D02*
X4537205Y-16936546D01*
X4537205Y-16936546D02*
X4518158Y-16927023D01*
X4680063Y-16841308D02*
X4699110Y-16841308D01*
X4699110Y-16841308D02*
X4718158Y-16850832D01*
X4718158Y-16850832D02*
X4727682Y-16860356D01*
X4727682Y-16860356D02*
X4737205Y-16879404D01*
X4737205Y-16879404D02*
X4746729Y-16917499D01*
X4746729Y-16917499D02*
X4746729Y-16965118D01*
X4746729Y-16965118D02*
X4737205Y-17003213D01*
X4737205Y-17003213D02*
X4727682Y-17022261D01*
X4727682Y-17022261D02*
X4718158Y-17031785D01*
X4718158Y-17031785D02*
X4699110Y-17041308D01*
X4699110Y-17041308D02*
X4680063Y-17041308D01*
X4680063Y-17041308D02*
X4661015Y-17031785D01*
X4661015Y-17031785D02*
X4651491Y-17022261D01*
X4651491Y-17022261D02*
X4641967Y-17003213D01*
X4641967Y-17003213D02*
X4632444Y-16965118D01*
X4632444Y-16965118D02*
X4632444Y-16917499D01*
X4632444Y-16917499D02*
X4641967Y-16879404D01*
X4641967Y-16879404D02*
X4651491Y-16860356D01*
X4651491Y-16860356D02*
X4661015Y-16850832D01*
X4661015Y-16850832D02*
X4680063Y-16841308D01*
X4870539Y-16841308D02*
X4889586Y-16841308D01*
X4889586Y-16841308D02*
X4908634Y-16850832D01*
X4908634Y-16850832D02*
X4918158Y-16860356D01*
X4918158Y-16860356D02*
X4927682Y-16879404D01*
X4927682Y-16879404D02*
X4937205Y-16917499D01*
X4937205Y-16917499D02*
X4937205Y-16965118D01*
X4937205Y-16965118D02*
X4927682Y-17003213D01*
X4927682Y-17003213D02*
X4918158Y-17022261D01*
X4918158Y-17022261D02*
X4908634Y-17031785D01*
X4908634Y-17031785D02*
X4889586Y-17041308D01*
X4889586Y-17041308D02*
X4870539Y-17041308D01*
X4870539Y-17041308D02*
X4851491Y-17031785D01*
X4851491Y-17031785D02*
X4841967Y-17022261D01*
X4841967Y-17022261D02*
X4832444Y-17003213D01*
X4832444Y-17003213D02*
X4822920Y-16965118D01*
X4822920Y-16965118D02*
X4822920Y-16917499D01*
X4822920Y-16917499D02*
X4832444Y-16879404D01*
X4832444Y-16879404D02*
X4841967Y-16860356D01*
X4841967Y-16860356D02*
X4851491Y-16850832D01*
X4851491Y-16850832D02*
X4870539Y-16841308D01*
X5022920Y-17041308D02*
X5022920Y-16907975D01*
X5022920Y-16927023D02*
X5032444Y-16917499D01*
X5032444Y-16917499D02*
X5051491Y-16907975D01*
X5051491Y-16907975D02*
X5080063Y-16907975D01*
X5080063Y-16907975D02*
X5099110Y-16917499D01*
X5099110Y-16917499D02*
X5108634Y-16936546D01*
X5108634Y-16936546D02*
X5108634Y-17041308D01*
X5108634Y-16936546D02*
X5118158Y-16917499D01*
X5118158Y-16917499D02*
X5137205Y-16907975D01*
X5137205Y-16907975D02*
X5165777Y-16907975D01*
X5165777Y-16907975D02*
X5184825Y-16917499D01*
X5184825Y-16917499D02*
X5194348Y-16936546D01*
X5194348Y-16936546D02*
X5194348Y-17041308D01*
X5289586Y-17041308D02*
X5289586Y-16907975D01*
X5289586Y-16927023D02*
X5299110Y-16917499D01*
X5299110Y-16917499D02*
X5318158Y-16907975D01*
X5318158Y-16907975D02*
X5346729Y-16907975D01*
X5346729Y-16907975D02*
X5365777Y-16917499D01*
X5365777Y-16917499D02*
X5375301Y-16936546D01*
X5375301Y-16936546D02*
X5375301Y-17041308D01*
X5375301Y-16936546D02*
X5384825Y-16917499D01*
X5384825Y-16917499D02*
X5403872Y-16907975D01*
X5403872Y-16907975D02*
X5432444Y-16907975D01*
X5432444Y-16907975D02*
X5451491Y-16917499D01*
X5451491Y-16917499D02*
X5461015Y-16936546D01*
X5461015Y-16936546D02*
X5461015Y-17041308D01*
X5851491Y-16831785D02*
X5680063Y-17088927D01*
X6108634Y-16841308D02*
X6127682Y-16841308D01*
X6127682Y-16841308D02*
X6146729Y-16850832D01*
X6146729Y-16850832D02*
X6156253Y-16860356D01*
X6156253Y-16860356D02*
X6165777Y-16879404D01*
X6165777Y-16879404D02*
X6175301Y-16917499D01*
X6175301Y-16917499D02*
X6175301Y-16965118D01*
X6175301Y-16965118D02*
X6165777Y-17003213D01*
X6165777Y-17003213D02*
X6156253Y-17022261D01*
X6156253Y-17022261D02*
X6146729Y-17031785D01*
X6146729Y-17031785D02*
X6127682Y-17041308D01*
X6127682Y-17041308D02*
X6108634Y-17041308D01*
X6108634Y-17041308D02*
X6089586Y-17031785D01*
X6089586Y-17031785D02*
X6080063Y-17022261D01*
X6080063Y-17022261D02*
X6070539Y-17003213D01*
X6070539Y-17003213D02*
X6061015Y-16965118D01*
X6061015Y-16965118D02*
X6061015Y-16917499D01*
X6061015Y-16917499D02*
X6070539Y-16879404D01*
X6070539Y-16879404D02*
X6080063Y-16860356D01*
X6080063Y-16860356D02*
X6089586Y-16850832D01*
X6089586Y-16850832D02*
X6108634Y-16841308D01*
X6261015Y-17022261D02*
X6270539Y-17031785D01*
X6270539Y-17031785D02*
X6261015Y-17041308D01*
X6261015Y-17041308D02*
X6251491Y-17031785D01*
X6251491Y-17031785D02*
X6261015Y-17022261D01*
X6261015Y-17022261D02*
X6261015Y-17041308D01*
X6394348Y-16841308D02*
X6413396Y-16841308D01*
X6413396Y-16841308D02*
X6432444Y-16850832D01*
X6432444Y-16850832D02*
X6441967Y-16860356D01*
X6441967Y-16860356D02*
X6451491Y-16879404D01*
X6451491Y-16879404D02*
X6461015Y-16917499D01*
X6461015Y-16917499D02*
X6461015Y-16965118D01*
X6461015Y-16965118D02*
X6451491Y-17003213D01*
X6451491Y-17003213D02*
X6441967Y-17022261D01*
X6441967Y-17022261D02*
X6432444Y-17031785D01*
X6432444Y-17031785D02*
X6413396Y-17041308D01*
X6413396Y-17041308D02*
X6394348Y-17041308D01*
X6394348Y-17041308D02*
X6375301Y-17031785D01*
X6375301Y-17031785D02*
X6365777Y-17022261D01*
X6365777Y-17022261D02*
X6356253Y-17003213D01*
X6356253Y-17003213D02*
X6346729Y-16965118D01*
X6346729Y-16965118D02*
X6346729Y-16917499D01*
X6346729Y-16917499D02*
X6356253Y-16879404D01*
X6356253Y-16879404D02*
X6365777Y-16860356D01*
X6365777Y-16860356D02*
X6375301Y-16850832D01*
X6375301Y-16850832D02*
X6394348Y-16841308D01*
X6527682Y-16841308D02*
X6661015Y-16841308D01*
X6661015Y-16841308D02*
X6575301Y-17041308D01*
X6775301Y-16841308D02*
X6794348Y-16841308D01*
X6794348Y-16841308D02*
X6813396Y-16850832D01*
X6813396Y-16850832D02*
X6822920Y-16860356D01*
X6822920Y-16860356D02*
X6832444Y-16879404D01*
X6832444Y-16879404D02*
X6841967Y-16917499D01*
X6841967Y-16917499D02*
X6841967Y-16965118D01*
X6841967Y-16965118D02*
X6832444Y-17003213D01*
X6832444Y-17003213D02*
X6822920Y-17022261D01*
X6822920Y-17022261D02*
X6813396Y-17031785D01*
X6813396Y-17031785D02*
X6794348Y-17041308D01*
X6794348Y-17041308D02*
X6775301Y-17041308D01*
X6775301Y-17041308D02*
X6756253Y-17031785D01*
X6756253Y-17031785D02*
X6746729Y-17022261D01*
X6746729Y-17022261D02*
X6737206Y-17003213D01*
X6737206Y-17003213D02*
X6727682Y-16965118D01*
X6727682Y-16965118D02*
X6727682Y-16917499D01*
X6727682Y-16917499D02*
X6737206Y-16879404D01*
X6737206Y-16879404D02*
X6746729Y-16860356D01*
X6746729Y-16860356D02*
X6756253Y-16850832D01*
X6756253Y-16850832D02*
X6775301Y-16841308D01*
X6937206Y-17041308D02*
X6975301Y-17041308D01*
X6975301Y-17041308D02*
X6994348Y-17031785D01*
X6994348Y-17031785D02*
X7003872Y-17022261D01*
X7003872Y-17022261D02*
X7022920Y-16993689D01*
X7022920Y-16993689D02*
X7032444Y-16955594D01*
X7032444Y-16955594D02*
X7032444Y-16879404D01*
X7032444Y-16879404D02*
X7022920Y-16860356D01*
X7022920Y-16860356D02*
X7013396Y-16850832D01*
X7013396Y-16850832D02*
X6994348Y-16841308D01*
X6994348Y-16841308D02*
X6956253Y-16841308D01*
X6956253Y-16841308D02*
X6937206Y-16850832D01*
X6937206Y-16850832D02*
X6927682Y-16860356D01*
X6927682Y-16860356D02*
X6918158Y-16879404D01*
X6918158Y-16879404D02*
X6918158Y-16927023D01*
X6918158Y-16927023D02*
X6927682Y-16946070D01*
X6927682Y-16946070D02*
X6937206Y-16955594D01*
X6937206Y-16955594D02*
X6956253Y-16965118D01*
X6956253Y-16965118D02*
X6994348Y-16965118D01*
X6994348Y-16965118D02*
X7013396Y-16955594D01*
X7013396Y-16955594D02*
X7022920Y-16946070D01*
X7022920Y-16946070D02*
X7032444Y-16927023D01*
X7108634Y-16841308D02*
X7108634Y-16879404D01*
X7184825Y-16841308D02*
X7184825Y-16879404D01*
X7480063Y-17117499D02*
X7470539Y-17107975D01*
X7470539Y-17107975D02*
X7451491Y-17079404D01*
X7451491Y-17079404D02*
X7441968Y-17060356D01*
X7441968Y-17060356D02*
X7432444Y-17031785D01*
X7432444Y-17031785D02*
X7422920Y-16984165D01*
X7422920Y-16984165D02*
X7422920Y-16946070D01*
X7422920Y-16946070D02*
X7432444Y-16898451D01*
X7432444Y-16898451D02*
X7441968Y-16869880D01*
X7441968Y-16869880D02*
X7451491Y-16850832D01*
X7451491Y-16850832D02*
X7470539Y-16822261D01*
X7470539Y-16822261D02*
X7480063Y-16812737D01*
X7546729Y-16860356D02*
X7556253Y-16850832D01*
X7556253Y-16850832D02*
X7575301Y-16841308D01*
X7575301Y-16841308D02*
X7622920Y-16841308D01*
X7622920Y-16841308D02*
X7641968Y-16850832D01*
X7641968Y-16850832D02*
X7651491Y-16860356D01*
X7651491Y-16860356D02*
X7661015Y-16879404D01*
X7661015Y-16879404D02*
X7661015Y-16898451D01*
X7661015Y-16898451D02*
X7651491Y-16927023D01*
X7651491Y-16927023D02*
X7537206Y-17041308D01*
X7537206Y-17041308D02*
X7661015Y-17041308D01*
X7899110Y-17041308D02*
X7899110Y-16841308D01*
X7984825Y-17041308D02*
X7984825Y-16936546D01*
X7984825Y-16936546D02*
X7975301Y-16917499D01*
X7975301Y-16917499D02*
X7956253Y-16907975D01*
X7956253Y-16907975D02*
X7927682Y-16907975D01*
X7927682Y-16907975D02*
X7908634Y-16917499D01*
X7908634Y-16917499D02*
X7899110Y-16927023D01*
X8108634Y-17041308D02*
X8089587Y-17031785D01*
X8089587Y-17031785D02*
X8080063Y-17022261D01*
X8080063Y-17022261D02*
X8070539Y-17003213D01*
X8070539Y-17003213D02*
X8070539Y-16946070D01*
X8070539Y-16946070D02*
X8080063Y-16927023D01*
X8080063Y-16927023D02*
X8089587Y-16917499D01*
X8089587Y-16917499D02*
X8108634Y-16907975D01*
X8108634Y-16907975D02*
X8137206Y-16907975D01*
X8137206Y-16907975D02*
X8156253Y-16917499D01*
X8156253Y-16917499D02*
X8165777Y-16927023D01*
X8165777Y-16927023D02*
X8175301Y-16946070D01*
X8175301Y-16946070D02*
X8175301Y-17003213D01*
X8175301Y-17003213D02*
X8165777Y-17022261D01*
X8165777Y-17022261D02*
X8156253Y-17031785D01*
X8156253Y-17031785D02*
X8137206Y-17041308D01*
X8137206Y-17041308D02*
X8108634Y-17041308D01*
X8289587Y-17041308D02*
X8270539Y-17031785D01*
X8270539Y-17031785D02*
X8261015Y-17012737D01*
X8261015Y-17012737D02*
X8261015Y-16841308D01*
X8441968Y-17031785D02*
X8422920Y-17041308D01*
X8422920Y-17041308D02*
X8384825Y-17041308D01*
X8384825Y-17041308D02*
X8365777Y-17031785D01*
X8365777Y-17031785D02*
X8356253Y-17012737D01*
X8356253Y-17012737D02*
X8356253Y-16936546D01*
X8356253Y-16936546D02*
X8365777Y-16917499D01*
X8365777Y-16917499D02*
X8384825Y-16907975D01*
X8384825Y-16907975D02*
X8422920Y-16907975D01*
X8422920Y-16907975D02*
X8441968Y-16917499D01*
X8441968Y-16917499D02*
X8451492Y-16936546D01*
X8451492Y-16936546D02*
X8451492Y-16955594D01*
X8451492Y-16955594D02*
X8356253Y-16974642D01*
X8527682Y-17031785D02*
X8546730Y-17041308D01*
X8546730Y-17041308D02*
X8584825Y-17041308D01*
X8584825Y-17041308D02*
X8603873Y-17031785D01*
X8603873Y-17031785D02*
X8613396Y-17012737D01*
X8613396Y-17012737D02*
X8613396Y-17003213D01*
X8613396Y-17003213D02*
X8603873Y-16984165D01*
X8603873Y-16984165D02*
X8584825Y-16974642D01*
X8584825Y-16974642D02*
X8556253Y-16974642D01*
X8556253Y-16974642D02*
X8537206Y-16965118D01*
X8537206Y-16965118D02*
X8527682Y-16946070D01*
X8527682Y-16946070D02*
X8527682Y-16936546D01*
X8527682Y-16936546D02*
X8537206Y-16917499D01*
X8537206Y-16917499D02*
X8556253Y-16907975D01*
X8556253Y-16907975D02*
X8584825Y-16907975D01*
X8584825Y-16907975D02*
X8603873Y-16917499D01*
X8680063Y-17117499D02*
X8689587Y-17107975D01*
X8689587Y-17107975D02*
X8708634Y-17079404D01*
X8708634Y-17079404D02*
X8718158Y-17060356D01*
X8718158Y-17060356D02*
X8727682Y-17031785D01*
X8727682Y-17031785D02*
X8737206Y-16984165D01*
X8737206Y-16984165D02*
X8737206Y-16946070D01*
X8737206Y-16946070D02*
X8727682Y-16898451D01*
X8727682Y-16898451D02*
X8718158Y-16869880D01*
X8718158Y-16869880D02*
X8708634Y-16850832D01*
X8708634Y-16850832D02*
X8689587Y-16822261D01*
X8689587Y-16822261D02*
X8680063Y-16812737D01*
X9041968Y-17117499D02*
X9032444Y-17107975D01*
X9032444Y-17107975D02*
X9013396Y-17079404D01*
X9013396Y-17079404D02*
X9003873Y-17060356D01*
X9003873Y-17060356D02*
X8994349Y-17031785D01*
X8994349Y-17031785D02*
X8984825Y-16984165D01*
X8984825Y-16984165D02*
X8984825Y-16946070D01*
X8984825Y-16946070D02*
X8994349Y-16898451D01*
X8994349Y-16898451D02*
X9003873Y-16869880D01*
X9003873Y-16869880D02*
X9013396Y-16850832D01*
X9013396Y-16850832D02*
X9032444Y-16822261D01*
X9032444Y-16822261D02*
X9041968Y-16812737D01*
X9118158Y-16907975D02*
X9118158Y-17041308D01*
X9118158Y-16927023D02*
X9127682Y-16917499D01*
X9127682Y-16917499D02*
X9146730Y-16907975D01*
X9146730Y-16907975D02*
X9175301Y-16907975D01*
X9175301Y-16907975D02*
X9194349Y-16917499D01*
X9194349Y-16917499D02*
X9203873Y-16936546D01*
X9203873Y-16936546D02*
X9203873Y-17041308D01*
X9327682Y-17041308D02*
X9308634Y-17031785D01*
X9308634Y-17031785D02*
X9299111Y-17022261D01*
X9299111Y-17022261D02*
X9289587Y-17003213D01*
X9289587Y-17003213D02*
X9289587Y-16946070D01*
X9289587Y-16946070D02*
X9299111Y-16927023D01*
X9299111Y-16927023D02*
X9308634Y-16917499D01*
X9308634Y-16917499D02*
X9327682Y-16907975D01*
X9327682Y-16907975D02*
X9356254Y-16907975D01*
X9356254Y-16907975D02*
X9375301Y-16917499D01*
X9375301Y-16917499D02*
X9384825Y-16927023D01*
X9384825Y-16927023D02*
X9394349Y-16946070D01*
X9394349Y-16946070D02*
X9394349Y-17003213D01*
X9394349Y-17003213D02*
X9384825Y-17022261D01*
X9384825Y-17022261D02*
X9375301Y-17031785D01*
X9375301Y-17031785D02*
X9356254Y-17041308D01*
X9356254Y-17041308D02*
X9327682Y-17041308D01*
X9451492Y-16907975D02*
X9527682Y-16907975D01*
X9480063Y-16841308D02*
X9480063Y-17012737D01*
X9480063Y-17012737D02*
X9489587Y-17031785D01*
X9489587Y-17031785D02*
X9508634Y-17041308D01*
X9508634Y-17041308D02*
X9527682Y-17041308D01*
X9746730Y-16907975D02*
X9746730Y-17107975D01*
X9746730Y-16917499D02*
X9765777Y-16907975D01*
X9765777Y-16907975D02*
X9803873Y-16907975D01*
X9803873Y-16907975D02*
X9822920Y-16917499D01*
X9822920Y-16917499D02*
X9832444Y-16927023D01*
X9832444Y-16927023D02*
X9841968Y-16946070D01*
X9841968Y-16946070D02*
X9841968Y-17003213D01*
X9841968Y-17003213D02*
X9832444Y-17022261D01*
X9832444Y-17022261D02*
X9822920Y-17031785D01*
X9822920Y-17031785D02*
X9803873Y-17041308D01*
X9803873Y-17041308D02*
X9765777Y-17041308D01*
X9765777Y-17041308D02*
X9746730Y-17031785D01*
X9956254Y-17041308D02*
X9937206Y-17031785D01*
X9937206Y-17031785D02*
X9927682Y-17012737D01*
X9927682Y-17012737D02*
X9927682Y-16841308D01*
X10118158Y-17041308D02*
X10118158Y-16936546D01*
X10118158Y-16936546D02*
X10108635Y-16917499D01*
X10108635Y-16917499D02*
X10089587Y-16907975D01*
X10089587Y-16907975D02*
X10051492Y-16907975D01*
X10051492Y-16907975D02*
X10032444Y-16917499D01*
X10118158Y-17031785D02*
X10099111Y-17041308D01*
X10099111Y-17041308D02*
X10051492Y-17041308D01*
X10051492Y-17041308D02*
X10032444Y-17031785D01*
X10032444Y-17031785D02*
X10022920Y-17012737D01*
X10022920Y-17012737D02*
X10022920Y-16993689D01*
X10022920Y-16993689D02*
X10032444Y-16974642D01*
X10032444Y-16974642D02*
X10051492Y-16965118D01*
X10051492Y-16965118D02*
X10099111Y-16965118D01*
X10099111Y-16965118D02*
X10118158Y-16955594D01*
X10184825Y-16907975D02*
X10261015Y-16907975D01*
X10213396Y-16841308D02*
X10213396Y-17012737D01*
X10213396Y-17012737D02*
X10222920Y-17031785D01*
X10222920Y-17031785D02*
X10241968Y-17041308D01*
X10241968Y-17041308D02*
X10261015Y-17041308D01*
X10403873Y-17031785D02*
X10384825Y-17041308D01*
X10384825Y-17041308D02*
X10346730Y-17041308D01*
X10346730Y-17041308D02*
X10327682Y-17031785D01*
X10327682Y-17031785D02*
X10318158Y-17012737D01*
X10318158Y-17012737D02*
X10318158Y-16936546D01*
X10318158Y-16936546D02*
X10327682Y-16917499D01*
X10327682Y-16917499D02*
X10346730Y-16907975D01*
X10346730Y-16907975D02*
X10384825Y-16907975D01*
X10384825Y-16907975D02*
X10403873Y-16917499D01*
X10403873Y-16917499D02*
X10413396Y-16936546D01*
X10413396Y-16936546D02*
X10413396Y-16955594D01*
X10413396Y-16955594D02*
X10318158Y-16974642D01*
X10584825Y-17041308D02*
X10584825Y-16841308D01*
X10584825Y-17031785D02*
X10565777Y-17041308D01*
X10565777Y-17041308D02*
X10527682Y-17041308D01*
X10527682Y-17041308D02*
X10508635Y-17031785D01*
X10508635Y-17031785D02*
X10499111Y-17022261D01*
X10499111Y-17022261D02*
X10489587Y-17003213D01*
X10489587Y-17003213D02*
X10489587Y-16946070D01*
X10489587Y-16946070D02*
X10499111Y-16927023D01*
X10499111Y-16927023D02*
X10508635Y-16917499D01*
X10508635Y-16917499D02*
X10527682Y-16907975D01*
X10527682Y-16907975D02*
X10565777Y-16907975D01*
X10565777Y-16907975D02*
X10584825Y-16917499D01*
X10661016Y-17117499D02*
X10670539Y-17107975D01*
X10670539Y-17107975D02*
X10689587Y-17079404D01*
X10689587Y-17079404D02*
X10699111Y-17060356D01*
X10699111Y-17060356D02*
X10708635Y-17031785D01*
X10708635Y-17031785D02*
X10718158Y-16984165D01*
X10718158Y-16984165D02*
X10718158Y-16946070D01*
X10718158Y-16946070D02*
X10708635Y-16898451D01*
X10708635Y-16898451D02*
X10699111Y-16869880D01*
X10699111Y-16869880D02*
X10689587Y-16850832D01*
X10689587Y-16850832D02*
X10670539Y-16822261D01*
X10670539Y-16822261D02*
X10661016Y-16812737D01*
X3875711Y-17320536D02*
X3875711Y-17179113D01*
X3734289Y-17179113D01*
X3734289Y-17320536D01*
X3875711Y-17320536D01*
X4146729Y-17141308D02*
X4270539Y-17141308D01*
X4270539Y-17141308D02*
X4203872Y-17217499D01*
X4203872Y-17217499D02*
X4232444Y-17217499D01*
X4232444Y-17217499D02*
X4251491Y-17227023D01*
X4251491Y-17227023D02*
X4261015Y-17236546D01*
X4261015Y-17236546D02*
X4270539Y-17255594D01*
X4270539Y-17255594D02*
X4270539Y-17303213D01*
X4270539Y-17303213D02*
X4261015Y-17322261D01*
X4261015Y-17322261D02*
X4251491Y-17331785D01*
X4251491Y-17331785D02*
X4232444Y-17341308D01*
X4232444Y-17341308D02*
X4175301Y-17341308D01*
X4175301Y-17341308D02*
X4156253Y-17331785D01*
X4156253Y-17331785D02*
X4146729Y-17322261D01*
X4356253Y-17322261D02*
X4365777Y-17331785D01*
X4365777Y-17331785D02*
X4356253Y-17341308D01*
X4356253Y-17341308D02*
X4346729Y-17331785D01*
X4346729Y-17331785D02*
X4356253Y-17322261D01*
X4356253Y-17322261D02*
X4356253Y-17341308D01*
X4461015Y-17341308D02*
X4499110Y-17341308D01*
X4499110Y-17341308D02*
X4518158Y-17331785D01*
X4518158Y-17331785D02*
X4527682Y-17322261D01*
X4527682Y-17322261D02*
X4546729Y-17293689D01*
X4546729Y-17293689D02*
X4556253Y-17255594D01*
X4556253Y-17255594D02*
X4556253Y-17179404D01*
X4556253Y-17179404D02*
X4546729Y-17160356D01*
X4546729Y-17160356D02*
X4537205Y-17150832D01*
X4537205Y-17150832D02*
X4518158Y-17141308D01*
X4518158Y-17141308D02*
X4480063Y-17141308D01*
X4480063Y-17141308D02*
X4461015Y-17150832D01*
X4461015Y-17150832D02*
X4451491Y-17160356D01*
X4451491Y-17160356D02*
X4441967Y-17179404D01*
X4441967Y-17179404D02*
X4441967Y-17227023D01*
X4441967Y-17227023D02*
X4451491Y-17246070D01*
X4451491Y-17246070D02*
X4461015Y-17255594D01*
X4461015Y-17255594D02*
X4480063Y-17265118D01*
X4480063Y-17265118D02*
X4518158Y-17265118D01*
X4518158Y-17265118D02*
X4537205Y-17255594D01*
X4537205Y-17255594D02*
X4546729Y-17246070D01*
X4546729Y-17246070D02*
X4556253Y-17227023D01*
X4670539Y-17227023D02*
X4651491Y-17217499D01*
X4651491Y-17217499D02*
X4641967Y-17207975D01*
X4641967Y-17207975D02*
X4632444Y-17188927D01*
X4632444Y-17188927D02*
X4632444Y-17179404D01*
X4632444Y-17179404D02*
X4641967Y-17160356D01*
X4641967Y-17160356D02*
X4651491Y-17150832D01*
X4651491Y-17150832D02*
X4670539Y-17141308D01*
X4670539Y-17141308D02*
X4708634Y-17141308D01*
X4708634Y-17141308D02*
X4727682Y-17150832D01*
X4727682Y-17150832D02*
X4737205Y-17160356D01*
X4737205Y-17160356D02*
X4746729Y-17179404D01*
X4746729Y-17179404D02*
X4746729Y-17188927D01*
X4746729Y-17188927D02*
X4737205Y-17207975D01*
X4737205Y-17207975D02*
X4727682Y-17217499D01*
X4727682Y-17217499D02*
X4708634Y-17227023D01*
X4708634Y-17227023D02*
X4670539Y-17227023D01*
X4670539Y-17227023D02*
X4651491Y-17236546D01*
X4651491Y-17236546D02*
X4641967Y-17246070D01*
X4641967Y-17246070D02*
X4632444Y-17265118D01*
X4632444Y-17265118D02*
X4632444Y-17303213D01*
X4632444Y-17303213D02*
X4641967Y-17322261D01*
X4641967Y-17322261D02*
X4651491Y-17331785D01*
X4651491Y-17331785D02*
X4670539Y-17341308D01*
X4670539Y-17341308D02*
X4708634Y-17341308D01*
X4708634Y-17341308D02*
X4727682Y-17331785D01*
X4727682Y-17331785D02*
X4737205Y-17322261D01*
X4737205Y-17322261D02*
X4746729Y-17303213D01*
X4746729Y-17303213D02*
X4746729Y-17265118D01*
X4746729Y-17265118D02*
X4737205Y-17246070D01*
X4737205Y-17246070D02*
X4727682Y-17236546D01*
X4727682Y-17236546D02*
X4708634Y-17227023D01*
X4861015Y-17227023D02*
X4841967Y-17217499D01*
X4841967Y-17217499D02*
X4832444Y-17207975D01*
X4832444Y-17207975D02*
X4822920Y-17188927D01*
X4822920Y-17188927D02*
X4822920Y-17179404D01*
X4822920Y-17179404D02*
X4832444Y-17160356D01*
X4832444Y-17160356D02*
X4841967Y-17150832D01*
X4841967Y-17150832D02*
X4861015Y-17141308D01*
X4861015Y-17141308D02*
X4899110Y-17141308D01*
X4899110Y-17141308D02*
X4918158Y-17150832D01*
X4918158Y-17150832D02*
X4927682Y-17160356D01*
X4927682Y-17160356D02*
X4937205Y-17179404D01*
X4937205Y-17179404D02*
X4937205Y-17188927D01*
X4937205Y-17188927D02*
X4927682Y-17207975D01*
X4927682Y-17207975D02*
X4918158Y-17217499D01*
X4918158Y-17217499D02*
X4899110Y-17227023D01*
X4899110Y-17227023D02*
X4861015Y-17227023D01*
X4861015Y-17227023D02*
X4841967Y-17236546D01*
X4841967Y-17236546D02*
X4832444Y-17246070D01*
X4832444Y-17246070D02*
X4822920Y-17265118D01*
X4822920Y-17265118D02*
X4822920Y-17303213D01*
X4822920Y-17303213D02*
X4832444Y-17322261D01*
X4832444Y-17322261D02*
X4841967Y-17331785D01*
X4841967Y-17331785D02*
X4861015Y-17341308D01*
X4861015Y-17341308D02*
X4899110Y-17341308D01*
X4899110Y-17341308D02*
X4918158Y-17331785D01*
X4918158Y-17331785D02*
X4927682Y-17322261D01*
X4927682Y-17322261D02*
X4937205Y-17303213D01*
X4937205Y-17303213D02*
X4937205Y-17265118D01*
X4937205Y-17265118D02*
X4927682Y-17246070D01*
X4927682Y-17246070D02*
X4918158Y-17236546D01*
X4918158Y-17236546D02*
X4899110Y-17227023D01*
X5022920Y-17341308D02*
X5022920Y-17207975D01*
X5022920Y-17227023D02*
X5032444Y-17217499D01*
X5032444Y-17217499D02*
X5051491Y-17207975D01*
X5051491Y-17207975D02*
X5080063Y-17207975D01*
X5080063Y-17207975D02*
X5099110Y-17217499D01*
X5099110Y-17217499D02*
X5108634Y-17236546D01*
X5108634Y-17236546D02*
X5108634Y-17341308D01*
X5108634Y-17236546D02*
X5118158Y-17217499D01*
X5118158Y-17217499D02*
X5137205Y-17207975D01*
X5137205Y-17207975D02*
X5165777Y-17207975D01*
X5165777Y-17207975D02*
X5184825Y-17217499D01*
X5184825Y-17217499D02*
X5194348Y-17236546D01*
X5194348Y-17236546D02*
X5194348Y-17341308D01*
X5289586Y-17341308D02*
X5289586Y-17207975D01*
X5289586Y-17227023D02*
X5299110Y-17217499D01*
X5299110Y-17217499D02*
X5318158Y-17207975D01*
X5318158Y-17207975D02*
X5346729Y-17207975D01*
X5346729Y-17207975D02*
X5365777Y-17217499D01*
X5365777Y-17217499D02*
X5375301Y-17236546D01*
X5375301Y-17236546D02*
X5375301Y-17341308D01*
X5375301Y-17236546D02*
X5384825Y-17217499D01*
X5384825Y-17217499D02*
X5403872Y-17207975D01*
X5403872Y-17207975D02*
X5432444Y-17207975D01*
X5432444Y-17207975D02*
X5451491Y-17217499D01*
X5451491Y-17217499D02*
X5461015Y-17236546D01*
X5461015Y-17236546D02*
X5461015Y-17341308D01*
X5851491Y-17131785D02*
X5680063Y-17388927D01*
X6108634Y-17141308D02*
X6127682Y-17141308D01*
X6127682Y-17141308D02*
X6146729Y-17150832D01*
X6146729Y-17150832D02*
X6156253Y-17160356D01*
X6156253Y-17160356D02*
X6165777Y-17179404D01*
X6165777Y-17179404D02*
X6175301Y-17217499D01*
X6175301Y-17217499D02*
X6175301Y-17265118D01*
X6175301Y-17265118D02*
X6165777Y-17303213D01*
X6165777Y-17303213D02*
X6156253Y-17322261D01*
X6156253Y-17322261D02*
X6146729Y-17331785D01*
X6146729Y-17331785D02*
X6127682Y-17341308D01*
X6127682Y-17341308D02*
X6108634Y-17341308D01*
X6108634Y-17341308D02*
X6089586Y-17331785D01*
X6089586Y-17331785D02*
X6080063Y-17322261D01*
X6080063Y-17322261D02*
X6070539Y-17303213D01*
X6070539Y-17303213D02*
X6061015Y-17265118D01*
X6061015Y-17265118D02*
X6061015Y-17217499D01*
X6061015Y-17217499D02*
X6070539Y-17179404D01*
X6070539Y-17179404D02*
X6080063Y-17160356D01*
X6080063Y-17160356D02*
X6089586Y-17150832D01*
X6089586Y-17150832D02*
X6108634Y-17141308D01*
X6261015Y-17322261D02*
X6270539Y-17331785D01*
X6270539Y-17331785D02*
X6261015Y-17341308D01*
X6261015Y-17341308D02*
X6251491Y-17331785D01*
X6251491Y-17331785D02*
X6261015Y-17322261D01*
X6261015Y-17322261D02*
X6261015Y-17341308D01*
X6461015Y-17341308D02*
X6346729Y-17341308D01*
X6403872Y-17341308D02*
X6403872Y-17141308D01*
X6403872Y-17141308D02*
X6384825Y-17169880D01*
X6384825Y-17169880D02*
X6365777Y-17188927D01*
X6365777Y-17188927D02*
X6346729Y-17198451D01*
X6641967Y-17141308D02*
X6546729Y-17141308D01*
X6546729Y-17141308D02*
X6537206Y-17236546D01*
X6537206Y-17236546D02*
X6546729Y-17227023D01*
X6546729Y-17227023D02*
X6565777Y-17217499D01*
X6565777Y-17217499D02*
X6613396Y-17217499D01*
X6613396Y-17217499D02*
X6632444Y-17227023D01*
X6632444Y-17227023D02*
X6641967Y-17236546D01*
X6641967Y-17236546D02*
X6651491Y-17255594D01*
X6651491Y-17255594D02*
X6651491Y-17303213D01*
X6651491Y-17303213D02*
X6641967Y-17322261D01*
X6641967Y-17322261D02*
X6632444Y-17331785D01*
X6632444Y-17331785D02*
X6613396Y-17341308D01*
X6613396Y-17341308D02*
X6565777Y-17341308D01*
X6565777Y-17341308D02*
X6546729Y-17331785D01*
X6546729Y-17331785D02*
X6537206Y-17322261D01*
X6718158Y-17141308D02*
X6851491Y-17141308D01*
X6851491Y-17141308D02*
X6765777Y-17341308D01*
X6965777Y-17141308D02*
X6984825Y-17141308D01*
X6984825Y-17141308D02*
X7003872Y-17150832D01*
X7003872Y-17150832D02*
X7013396Y-17160356D01*
X7013396Y-17160356D02*
X7022920Y-17179404D01*
X7022920Y-17179404D02*
X7032444Y-17217499D01*
X7032444Y-17217499D02*
X7032444Y-17265118D01*
X7032444Y-17265118D02*
X7022920Y-17303213D01*
X7022920Y-17303213D02*
X7013396Y-17322261D01*
X7013396Y-17322261D02*
X7003872Y-17331785D01*
X7003872Y-17331785D02*
X6984825Y-17341308D01*
X6984825Y-17341308D02*
X6965777Y-17341308D01*
X6965777Y-17341308D02*
X6946729Y-17331785D01*
X6946729Y-17331785D02*
X6937206Y-17322261D01*
X6937206Y-17322261D02*
X6927682Y-17303213D01*
X6927682Y-17303213D02*
X6918158Y-17265118D01*
X6918158Y-17265118D02*
X6918158Y-17217499D01*
X6918158Y-17217499D02*
X6927682Y-17179404D01*
X6927682Y-17179404D02*
X6937206Y-17160356D01*
X6937206Y-17160356D02*
X6946729Y-17150832D01*
X6946729Y-17150832D02*
X6965777Y-17141308D01*
X7108634Y-17141308D02*
X7108634Y-17179404D01*
X7184825Y-17141308D02*
X7184825Y-17179404D01*
X7480063Y-17417499D02*
X7470539Y-17407975D01*
X7470539Y-17407975D02*
X7451491Y-17379404D01*
X7451491Y-17379404D02*
X7441968Y-17360356D01*
X7441968Y-17360356D02*
X7432444Y-17331785D01*
X7432444Y-17331785D02*
X7422920Y-17284165D01*
X7422920Y-17284165D02*
X7422920Y-17246070D01*
X7422920Y-17246070D02*
X7432444Y-17198451D01*
X7432444Y-17198451D02*
X7441968Y-17169880D01*
X7441968Y-17169880D02*
X7451491Y-17150832D01*
X7451491Y-17150832D02*
X7470539Y-17122261D01*
X7470539Y-17122261D02*
X7480063Y-17112737D01*
X7546729Y-17160356D02*
X7556253Y-17150832D01*
X7556253Y-17150832D02*
X7575301Y-17141308D01*
X7575301Y-17141308D02*
X7622920Y-17141308D01*
X7622920Y-17141308D02*
X7641968Y-17150832D01*
X7641968Y-17150832D02*
X7651491Y-17160356D01*
X7651491Y-17160356D02*
X7661015Y-17179404D01*
X7661015Y-17179404D02*
X7661015Y-17198451D01*
X7661015Y-17198451D02*
X7651491Y-17227023D01*
X7651491Y-17227023D02*
X7537206Y-17341308D01*
X7537206Y-17341308D02*
X7661015Y-17341308D01*
X7727682Y-17141308D02*
X7851491Y-17141308D01*
X7851491Y-17141308D02*
X7784825Y-17217499D01*
X7784825Y-17217499D02*
X7813396Y-17217499D01*
X7813396Y-17217499D02*
X7832444Y-17227023D01*
X7832444Y-17227023D02*
X7841968Y-17236546D01*
X7841968Y-17236546D02*
X7851491Y-17255594D01*
X7851491Y-17255594D02*
X7851491Y-17303213D01*
X7851491Y-17303213D02*
X7841968Y-17322261D01*
X7841968Y-17322261D02*
X7832444Y-17331785D01*
X7832444Y-17331785D02*
X7813396Y-17341308D01*
X7813396Y-17341308D02*
X7756253Y-17341308D01*
X7756253Y-17341308D02*
X7737206Y-17331785D01*
X7737206Y-17331785D02*
X7727682Y-17322261D01*
X8089587Y-17341308D02*
X8089587Y-17141308D01*
X8175301Y-17341308D02*
X8175301Y-17236546D01*
X8175301Y-17236546D02*
X8165777Y-17217499D01*
X8165777Y-17217499D02*
X8146730Y-17207975D01*
X8146730Y-17207975D02*
X8118158Y-17207975D01*
X8118158Y-17207975D02*
X8099110Y-17217499D01*
X8099110Y-17217499D02*
X8089587Y-17227023D01*
X8299110Y-17341308D02*
X8280063Y-17331785D01*
X8280063Y-17331785D02*
X8270539Y-17322261D01*
X8270539Y-17322261D02*
X8261015Y-17303213D01*
X8261015Y-17303213D02*
X8261015Y-17246070D01*
X8261015Y-17246070D02*
X8270539Y-17227023D01*
X8270539Y-17227023D02*
X8280063Y-17217499D01*
X8280063Y-17217499D02*
X8299110Y-17207975D01*
X8299110Y-17207975D02*
X8327682Y-17207975D01*
X8327682Y-17207975D02*
X8346730Y-17217499D01*
X8346730Y-17217499D02*
X8356253Y-17227023D01*
X8356253Y-17227023D02*
X8365777Y-17246070D01*
X8365777Y-17246070D02*
X8365777Y-17303213D01*
X8365777Y-17303213D02*
X8356253Y-17322261D01*
X8356253Y-17322261D02*
X8346730Y-17331785D01*
X8346730Y-17331785D02*
X8327682Y-17341308D01*
X8327682Y-17341308D02*
X8299110Y-17341308D01*
X8480063Y-17341308D02*
X8461015Y-17331785D01*
X8461015Y-17331785D02*
X8451492Y-17312737D01*
X8451492Y-17312737D02*
X8451492Y-17141308D01*
X8632444Y-17331785D02*
X8613396Y-17341308D01*
X8613396Y-17341308D02*
X8575301Y-17341308D01*
X8575301Y-17341308D02*
X8556253Y-17331785D01*
X8556253Y-17331785D02*
X8546730Y-17312737D01*
X8546730Y-17312737D02*
X8546730Y-17236546D01*
X8546730Y-17236546D02*
X8556253Y-17217499D01*
X8556253Y-17217499D02*
X8575301Y-17207975D01*
X8575301Y-17207975D02*
X8613396Y-17207975D01*
X8613396Y-17207975D02*
X8632444Y-17217499D01*
X8632444Y-17217499D02*
X8641968Y-17236546D01*
X8641968Y-17236546D02*
X8641968Y-17255594D01*
X8641968Y-17255594D02*
X8546730Y-17274642D01*
X8718158Y-17331785D02*
X8737206Y-17341308D01*
X8737206Y-17341308D02*
X8775301Y-17341308D01*
X8775301Y-17341308D02*
X8794349Y-17331785D01*
X8794349Y-17331785D02*
X8803873Y-17312737D01*
X8803873Y-17312737D02*
X8803873Y-17303213D01*
X8803873Y-17303213D02*
X8794349Y-17284165D01*
X8794349Y-17284165D02*
X8775301Y-17274642D01*
X8775301Y-17274642D02*
X8746730Y-17274642D01*
X8746730Y-17274642D02*
X8727682Y-17265118D01*
X8727682Y-17265118D02*
X8718158Y-17246070D01*
X8718158Y-17246070D02*
X8718158Y-17236546D01*
X8718158Y-17236546D02*
X8727682Y-17217499D01*
X8727682Y-17217499D02*
X8746730Y-17207975D01*
X8746730Y-17207975D02*
X8775301Y-17207975D01*
X8775301Y-17207975D02*
X8794349Y-17217499D01*
X8870539Y-17417499D02*
X8880063Y-17407975D01*
X8880063Y-17407975D02*
X8899111Y-17379404D01*
X8899111Y-17379404D02*
X8908634Y-17360356D01*
X8908634Y-17360356D02*
X8918158Y-17331785D01*
X8918158Y-17331785D02*
X8927682Y-17284165D01*
X8927682Y-17284165D02*
X8927682Y-17246070D01*
X8927682Y-17246070D02*
X8918158Y-17198451D01*
X8918158Y-17198451D02*
X8908634Y-17169880D01*
X8908634Y-17169880D02*
X8899111Y-17150832D01*
X8899111Y-17150832D02*
X8880063Y-17122261D01*
X8880063Y-17122261D02*
X8870539Y-17112737D01*
X9232444Y-17417499D02*
X9222920Y-17407975D01*
X9222920Y-17407975D02*
X9203873Y-17379404D01*
X9203873Y-17379404D02*
X9194349Y-17360356D01*
X9194349Y-17360356D02*
X9184825Y-17331785D01*
X9184825Y-17331785D02*
X9175301Y-17284165D01*
X9175301Y-17284165D02*
X9175301Y-17246070D01*
X9175301Y-17246070D02*
X9184825Y-17198451D01*
X9184825Y-17198451D02*
X9194349Y-17169880D01*
X9194349Y-17169880D02*
X9203873Y-17150832D01*
X9203873Y-17150832D02*
X9222920Y-17122261D01*
X9222920Y-17122261D02*
X9232444Y-17112737D01*
X9308634Y-17207975D02*
X9308634Y-17341308D01*
X9308634Y-17227023D02*
X9318158Y-17217499D01*
X9318158Y-17217499D02*
X9337206Y-17207975D01*
X9337206Y-17207975D02*
X9365777Y-17207975D01*
X9365777Y-17207975D02*
X9384825Y-17217499D01*
X9384825Y-17217499D02*
X9394349Y-17236546D01*
X9394349Y-17236546D02*
X9394349Y-17341308D01*
X9518158Y-17341308D02*
X9499111Y-17331785D01*
X9499111Y-17331785D02*
X9489587Y-17322261D01*
X9489587Y-17322261D02*
X9480063Y-17303213D01*
X9480063Y-17303213D02*
X9480063Y-17246070D01*
X9480063Y-17246070D02*
X9489587Y-17227023D01*
X9489587Y-17227023D02*
X9499111Y-17217499D01*
X9499111Y-17217499D02*
X9518158Y-17207975D01*
X9518158Y-17207975D02*
X9546730Y-17207975D01*
X9546730Y-17207975D02*
X9565777Y-17217499D01*
X9565777Y-17217499D02*
X9575301Y-17227023D01*
X9575301Y-17227023D02*
X9584825Y-17246070D01*
X9584825Y-17246070D02*
X9584825Y-17303213D01*
X9584825Y-17303213D02*
X9575301Y-17322261D01*
X9575301Y-17322261D02*
X9565777Y-17331785D01*
X9565777Y-17331785D02*
X9546730Y-17341308D01*
X9546730Y-17341308D02*
X9518158Y-17341308D01*
X9641968Y-17207975D02*
X9718158Y-17207975D01*
X9670539Y-17141308D02*
X9670539Y-17312737D01*
X9670539Y-17312737D02*
X9680063Y-17331785D01*
X9680063Y-17331785D02*
X9699111Y-17341308D01*
X9699111Y-17341308D02*
X9718158Y-17341308D01*
X9937206Y-17207975D02*
X9937206Y-17407975D01*
X9937206Y-17217499D02*
X9956254Y-17207975D01*
X9956254Y-17207975D02*
X9994349Y-17207975D01*
X9994349Y-17207975D02*
X10013396Y-17217499D01*
X10013396Y-17217499D02*
X10022920Y-17227023D01*
X10022920Y-17227023D02*
X10032444Y-17246070D01*
X10032444Y-17246070D02*
X10032444Y-17303213D01*
X10032444Y-17303213D02*
X10022920Y-17322261D01*
X10022920Y-17322261D02*
X10013396Y-17331785D01*
X10013396Y-17331785D02*
X9994349Y-17341308D01*
X9994349Y-17341308D02*
X9956254Y-17341308D01*
X9956254Y-17341308D02*
X9937206Y-17331785D01*
X10146730Y-17341308D02*
X10127682Y-17331785D01*
X10127682Y-17331785D02*
X10118158Y-17312737D01*
X10118158Y-17312737D02*
X10118158Y-17141308D01*
X10308635Y-17341308D02*
X10308635Y-17236546D01*
X10308635Y-17236546D02*
X10299111Y-17217499D01*
X10299111Y-17217499D02*
X10280063Y-17207975D01*
X10280063Y-17207975D02*
X10241968Y-17207975D01*
X10241968Y-17207975D02*
X10222920Y-17217499D01*
X10308635Y-17331785D02*
X10289587Y-17341308D01*
X10289587Y-17341308D02*
X10241968Y-17341308D01*
X10241968Y-17341308D02*
X10222920Y-17331785D01*
X10222920Y-17331785D02*
X10213396Y-17312737D01*
X10213396Y-17312737D02*
X10213396Y-17293689D01*
X10213396Y-17293689D02*
X10222920Y-17274642D01*
X10222920Y-17274642D02*
X10241968Y-17265118D01*
X10241968Y-17265118D02*
X10289587Y-17265118D01*
X10289587Y-17265118D02*
X10308635Y-17255594D01*
X10375301Y-17207975D02*
X10451492Y-17207975D01*
X10403873Y-17141308D02*
X10403873Y-17312737D01*
X10403873Y-17312737D02*
X10413396Y-17331785D01*
X10413396Y-17331785D02*
X10432444Y-17341308D01*
X10432444Y-17341308D02*
X10451492Y-17341308D01*
X10594349Y-17331785D02*
X10575301Y-17341308D01*
X10575301Y-17341308D02*
X10537206Y-17341308D01*
X10537206Y-17341308D02*
X10518158Y-17331785D01*
X10518158Y-17331785D02*
X10508635Y-17312737D01*
X10508635Y-17312737D02*
X10508635Y-17236546D01*
X10508635Y-17236546D02*
X10518158Y-17217499D01*
X10518158Y-17217499D02*
X10537206Y-17207975D01*
X10537206Y-17207975D02*
X10575301Y-17207975D01*
X10575301Y-17207975D02*
X10594349Y-17217499D01*
X10594349Y-17217499D02*
X10603873Y-17236546D01*
X10603873Y-17236546D02*
X10603873Y-17255594D01*
X10603873Y-17255594D02*
X10508635Y-17274642D01*
X10775301Y-17341308D02*
X10775301Y-17141308D01*
X10775301Y-17331785D02*
X10756254Y-17341308D01*
X10756254Y-17341308D02*
X10718158Y-17341308D01*
X10718158Y-17341308D02*
X10699111Y-17331785D01*
X10699111Y-17331785D02*
X10689587Y-17322261D01*
X10689587Y-17322261D02*
X10680063Y-17303213D01*
X10680063Y-17303213D02*
X10680063Y-17246070D01*
X10680063Y-17246070D02*
X10689587Y-17227023D01*
X10689587Y-17227023D02*
X10699111Y-17217499D01*
X10699111Y-17217499D02*
X10718158Y-17207975D01*
X10718158Y-17207975D02*
X10756254Y-17207975D01*
X10756254Y-17207975D02*
X10775301Y-17217499D01*
X10851492Y-17417499D02*
X10861016Y-17407975D01*
X10861016Y-17407975D02*
X10880063Y-17379404D01*
X10880063Y-17379404D02*
X10889587Y-17360356D01*
X10889587Y-17360356D02*
X10899111Y-17331785D01*
X10899111Y-17331785D02*
X10908635Y-17284165D01*
X10908635Y-17284165D02*
X10908635Y-17246070D01*
X10908635Y-17246070D02*
X10899111Y-17198451D01*
X10899111Y-17198451D02*
X10889587Y-17169880D01*
X10889587Y-17169880D02*
X10880063Y-17150832D01*
X10880063Y-17150832D02*
X10861016Y-17122261D01*
X10861016Y-17122261D02*
X10851492Y-17112737D01*
M02*
