G04 #@! TF.GenerationSoftware,KiCad,Pcbnew,7.0.10-7.0.10~ubuntu23.10.1*
G04 #@! TF.CreationDate,2024-01-07T16:56:53-05:00*
G04 #@! TF.ProjectId,design,64657369-676e-42e6-9b69-6361645f7063,rev?*
G04 #@! TF.SameCoordinates,Original*
G04 #@! TF.FileFunction,Soldermask,Bot*
G04 #@! TF.FilePolarity,Negative*
%FSLAX46Y46*%
G04 Gerber Fmt 4.6, Leading zero omitted, Abs format (unit mm)*
G04 Created by KiCad (PCBNEW 7.0.10-7.0.10~ubuntu23.10.1) date 2024-01-07 16:56:53*
%MOMM*%
%LPD*%
G01*
G04 APERTURE LIST*
%ADD10C,1.750000*%
%ADD11C,3.987800*%
%ADD12C,3.300000*%
%ADD13O,1.800000X1.800000*%
%ADD14O,1.500000X1.500000*%
%ADD15O,1.700000X1.700000*%
%ADD16R,1.700000X1.700000*%
%ADD17C,1.000000*%
%ADD18R,2.000000X2.100000*%
G04 APERTURE END LIST*
D10*
X131686194Y-120270398D03*
D11*
X136593097Y-121585199D03*
D10*
X141500000Y-122900000D03*
D12*
X140930675Y-120117848D03*
X135454446Y-116020895D03*
D10*
X101540000Y-72400000D03*
D11*
X106620000Y-72400000D03*
D10*
X111700000Y-72400000D03*
D12*
X110430000Y-69860000D03*
X104080000Y-67320000D03*
D10*
X110320000Y-118900000D03*
D11*
X115400000Y-118900000D03*
D10*
X120480000Y-118900000D03*
D12*
X119210000Y-116360000D03*
X112860000Y-113820000D03*
D10*
X63510000Y-82800000D03*
D11*
X68590000Y-82800000D03*
D10*
X73670000Y-82800000D03*
D12*
X72400000Y-80260000D03*
X66050000Y-77720000D03*
D10*
X82460000Y-58840000D03*
D11*
X87540000Y-58840000D03*
D10*
X92620000Y-58840000D03*
D12*
X91350000Y-56300000D03*
X85000000Y-53760000D03*
D10*
X82460000Y-77940000D03*
D11*
X87540000Y-77940000D03*
D10*
X92620000Y-77940000D03*
D12*
X91350000Y-75400000D03*
X85000000Y-72860000D03*
D10*
X139640000Y-79800000D03*
D11*
X144720000Y-79800000D03*
D10*
X149800000Y-79800000D03*
D12*
X148530000Y-77260000D03*
X142180000Y-74720000D03*
D10*
X120600000Y-96800000D03*
D11*
X125680000Y-96800000D03*
D10*
X130760000Y-96800000D03*
D12*
X129490000Y-94260000D03*
X123140000Y-91720000D03*
D10*
X82520000Y-97000000D03*
D11*
X87600000Y-97000000D03*
D10*
X92680000Y-97000000D03*
D12*
X91410000Y-94460000D03*
X85060000Y-91920000D03*
D10*
X139640000Y-60700000D03*
D11*
X144720000Y-60700000D03*
D10*
X149800000Y-60700000D03*
D12*
X148530000Y-58160000D03*
X142180000Y-55620000D03*
D10*
X44500000Y-87800000D03*
D11*
X49580000Y-87800000D03*
D10*
X54660000Y-87800000D03*
D12*
X53390000Y-85260000D03*
X47040000Y-82720000D03*
D10*
X120600000Y-58600000D03*
D11*
X125680000Y-58600000D03*
D10*
X130760000Y-58600000D03*
D12*
X129490000Y-56060000D03*
X123140000Y-53520000D03*
D10*
X44500000Y-49700000D03*
D11*
X49580000Y-49700000D03*
D10*
X54660000Y-49700000D03*
D12*
X53390000Y-47160000D03*
X47040000Y-44620000D03*
D13*
X169775000Y-47355000D03*
D14*
X170075000Y-50385000D03*
X174925000Y-50385000D03*
D13*
X175225000Y-47355000D03*
D15*
X163610000Y-47225000D03*
X163610000Y-49765000D03*
D16*
X163610000Y-52305000D03*
D15*
X163610000Y-54845000D03*
X163610000Y-57385000D03*
X163610000Y-59925000D03*
X163610000Y-62465000D03*
D16*
X163610000Y-65005000D03*
D15*
X163610000Y-67545000D03*
X163610000Y-70085000D03*
X163610000Y-72625000D03*
X163610000Y-75165000D03*
D16*
X163610000Y-77705000D03*
D15*
X163610000Y-80245000D03*
X163610000Y-82785000D03*
X163610000Y-85325000D03*
X163610000Y-87865000D03*
D16*
X163610000Y-90405000D03*
D15*
X163610000Y-92945000D03*
X163610000Y-95485000D03*
X181390000Y-95485000D03*
X181390000Y-92945000D03*
D16*
X181390000Y-90405000D03*
D15*
X181390000Y-87865000D03*
X181390000Y-85325000D03*
X181390000Y-82785000D03*
X181390000Y-80245000D03*
D16*
X181390000Y-77705000D03*
D15*
X181390000Y-75165000D03*
X181390000Y-72625000D03*
X181390000Y-70085000D03*
X181390000Y-67545000D03*
D16*
X181390000Y-65005000D03*
D15*
X181390000Y-62465000D03*
X181390000Y-59925000D03*
X181390000Y-57385000D03*
X181390000Y-54845000D03*
D16*
X181390000Y-52305000D03*
D15*
X181390000Y-49765000D03*
X181390000Y-47225000D03*
X169960000Y-95255000D03*
D16*
X172500000Y-95255000D03*
D15*
X175040000Y-95255000D03*
D10*
X44520000Y-106900000D03*
D11*
X49600000Y-106900000D03*
D10*
X54680000Y-106900000D03*
D12*
X53410000Y-104360000D03*
X47060000Y-101820000D03*
D10*
X63500000Y-63800000D03*
D11*
X68580000Y-63800000D03*
D10*
X73660000Y-63800000D03*
D12*
X72390000Y-61260000D03*
X66040000Y-58720000D03*
D10*
X101520000Y-53400000D03*
D11*
X106600000Y-53400000D03*
D10*
X111680000Y-53400000D03*
D12*
X110410000Y-50860000D03*
X104060000Y-48320000D03*
D10*
X63510000Y-101880000D03*
D11*
X68590000Y-101880000D03*
D10*
X73670000Y-101880000D03*
D12*
X72400000Y-99340000D03*
X66050000Y-96800000D03*
D10*
X152200591Y-127260000D03*
D11*
X156600000Y-129800000D03*
D10*
X160999409Y-132340000D03*
D12*
X161169557Y-129505295D03*
X156940295Y-124130591D03*
D10*
X120620000Y-77700000D03*
D11*
X125700000Y-77700000D03*
D10*
X130780000Y-77700000D03*
D12*
X129510000Y-75160000D03*
X123160000Y-72620000D03*
D17*
X167900000Y-118600000D03*
X170400000Y-118600000D03*
X172900000Y-118600000D03*
D18*
X164300000Y-111100000D03*
X175500000Y-111100000D03*
D17*
X167900000Y-104100000D03*
X172900000Y-104100000D03*
D10*
X170100000Y-139400000D03*
D11*
X173692102Y-142992102D03*
D10*
X177284204Y-146584204D03*
D12*
X178182230Y-143890128D03*
X175488153Y-137603948D03*
D10*
X139640000Y-98800000D03*
D11*
X144720000Y-98800000D03*
D10*
X149800000Y-98800000D03*
D12*
X148530000Y-96260000D03*
X142180000Y-93720000D03*
D10*
X44500000Y-68740000D03*
D11*
X49580000Y-68740000D03*
D10*
X54660000Y-68740000D03*
D12*
X53390000Y-66200000D03*
X47040000Y-63660000D03*
D10*
X101500000Y-91400000D03*
D11*
X106580000Y-91400000D03*
D10*
X111660000Y-91400000D03*
D12*
X110390000Y-88860000D03*
X104040000Y-86320000D03*
M02*
