G04 #@! TF.GenerationSoftware,KiCad,Pcbnew,7.0.10-7.0.10~ubuntu23.10.1*
G04 #@! TF.CreationDate,2024-01-07T16:56:52-05:00*
G04 #@! TF.ProjectId,design,64657369-676e-42e6-9b69-6361645f7063,rev?*
G04 #@! TF.SameCoordinates,Original*
G04 #@! TF.FileFunction,Legend,Top*
G04 #@! TF.FilePolarity,Positive*
%FSLAX46Y46*%
G04 Gerber Fmt 4.6, Leading zero omitted, Abs format (unit mm)*
G04 Created by KiCad (PCBNEW 7.0.10-7.0.10~ubuntu23.10.1) date 2024-01-07 16:56:52*
%MOMM*%
%LPD*%
G01*
G04 APERTURE LIST*
%ADD10C,0.150000*%
%ADD11C,0.120000*%
%ADD12C,0.152400*%
%ADD13C,0.100000*%
G04 APERTURE END LIST*
D10*
X131121260Y-118778154D02*
X131380079Y-117812229D01*
X131380079Y-117812229D02*
X131517184Y-118588449D01*
X131517184Y-118588449D02*
X132024030Y-117984775D01*
X132024030Y-117984775D02*
X131765211Y-118950700D01*
X132392002Y-118083372D02*
X132777133Y-119221844D01*
X133035952Y-118255918D02*
X132133183Y-119049298D01*
X133333278Y-118434184D02*
X133391599Y-118400513D01*
X133391599Y-118400513D02*
X133495917Y-118379166D01*
X133495917Y-118379166D02*
X133725899Y-118440789D01*
X133725899Y-118440789D02*
X133805567Y-118511435D01*
X133805567Y-118511435D02*
X133839239Y-118569756D01*
X133839239Y-118569756D02*
X133860586Y-118674074D01*
X133860586Y-118674074D02*
X133835937Y-118766067D01*
X133835937Y-118766067D02*
X133752966Y-118891732D01*
X133752966Y-118891732D02*
X133053112Y-119295793D01*
X133053112Y-119295793D02*
X133651066Y-119456014D01*
X134231860Y-118576361D02*
X134829814Y-118736582D01*
X134829814Y-118736582D02*
X134409241Y-119018281D01*
X134409241Y-119018281D02*
X134547231Y-119055255D01*
X134547231Y-119055255D02*
X134626899Y-119125901D01*
X134626899Y-119125901D02*
X134660571Y-119184222D01*
X134660571Y-119184222D02*
X134681918Y-119288540D01*
X134681918Y-119288540D02*
X134620294Y-119518522D01*
X134620294Y-119518522D02*
X134549648Y-119598191D01*
X134549648Y-119598191D02*
X134491327Y-119631862D01*
X134491327Y-119631862D02*
X134387010Y-119653209D01*
X134387010Y-119653209D02*
X134111031Y-119579261D01*
X134111031Y-119579261D02*
X134031363Y-119508615D01*
X134031363Y-119508615D02*
X133997691Y-119450294D01*
X66535714Y-105554819D02*
X66535714Y-104554819D01*
X66535714Y-104554819D02*
X66773809Y-104554819D01*
X66773809Y-104554819D02*
X66916666Y-104602438D01*
X66916666Y-104602438D02*
X67011904Y-104697676D01*
X67011904Y-104697676D02*
X67059523Y-104792914D01*
X67059523Y-104792914D02*
X67107142Y-104983390D01*
X67107142Y-104983390D02*
X67107142Y-105126247D01*
X67107142Y-105126247D02*
X67059523Y-105316723D01*
X67059523Y-105316723D02*
X67011904Y-105411961D01*
X67011904Y-105411961D02*
X66916666Y-105507200D01*
X66916666Y-105507200D02*
X66773809Y-105554819D01*
X66773809Y-105554819D02*
X66535714Y-105554819D01*
X67488095Y-104650057D02*
X67535714Y-104602438D01*
X67535714Y-104602438D02*
X67630952Y-104554819D01*
X67630952Y-104554819D02*
X67869047Y-104554819D01*
X67869047Y-104554819D02*
X67964285Y-104602438D01*
X67964285Y-104602438D02*
X68011904Y-104650057D01*
X68011904Y-104650057D02*
X68059523Y-104745295D01*
X68059523Y-104745295D02*
X68059523Y-104840533D01*
X68059523Y-104840533D02*
X68011904Y-104983390D01*
X68011904Y-104983390D02*
X67440476Y-105554819D01*
X67440476Y-105554819D02*
X68059523Y-105554819D01*
X68392857Y-104554819D02*
X69059523Y-104554819D01*
X69059523Y-104554819D02*
X68630952Y-105554819D01*
X100608095Y-71104819D02*
X100608095Y-70104819D01*
X100608095Y-70104819D02*
X100941428Y-70819104D01*
X100941428Y-70819104D02*
X101274761Y-70104819D01*
X101274761Y-70104819D02*
X101274761Y-71104819D01*
X101655714Y-70104819D02*
X102322380Y-71104819D01*
X102322380Y-70104819D02*
X101655714Y-71104819D01*
X103227142Y-71104819D02*
X102655714Y-71104819D01*
X102941428Y-71104819D02*
X102941428Y-70104819D01*
X102941428Y-70104819D02*
X102846190Y-70247676D01*
X102846190Y-70247676D02*
X102750952Y-70342914D01*
X102750952Y-70342914D02*
X102655714Y-70390533D01*
X103608095Y-70200057D02*
X103655714Y-70152438D01*
X103655714Y-70152438D02*
X103750952Y-70104819D01*
X103750952Y-70104819D02*
X103989047Y-70104819D01*
X103989047Y-70104819D02*
X104084285Y-70152438D01*
X104084285Y-70152438D02*
X104131904Y-70200057D01*
X104131904Y-70200057D02*
X104179523Y-70295295D01*
X104179523Y-70295295D02*
X104179523Y-70390533D01*
X104179523Y-70390533D02*
X104131904Y-70533390D01*
X104131904Y-70533390D02*
X103560476Y-71104819D01*
X103560476Y-71104819D02*
X104179523Y-71104819D01*
X87061905Y-61554819D02*
X87061905Y-60554819D01*
X87061905Y-60554819D02*
X87300000Y-60554819D01*
X87300000Y-60554819D02*
X87442857Y-60602438D01*
X87442857Y-60602438D02*
X87538095Y-60697676D01*
X87538095Y-60697676D02*
X87585714Y-60792914D01*
X87585714Y-60792914D02*
X87633333Y-60983390D01*
X87633333Y-60983390D02*
X87633333Y-61126247D01*
X87633333Y-61126247D02*
X87585714Y-61316723D01*
X87585714Y-61316723D02*
X87538095Y-61411961D01*
X87538095Y-61411961D02*
X87442857Y-61507200D01*
X87442857Y-61507200D02*
X87300000Y-61554819D01*
X87300000Y-61554819D02*
X87061905Y-61554819D01*
X87966667Y-60554819D02*
X88585714Y-60554819D01*
X88585714Y-60554819D02*
X88252381Y-60935771D01*
X88252381Y-60935771D02*
X88395238Y-60935771D01*
X88395238Y-60935771D02*
X88490476Y-60983390D01*
X88490476Y-60983390D02*
X88538095Y-61031009D01*
X88538095Y-61031009D02*
X88585714Y-61126247D01*
X88585714Y-61126247D02*
X88585714Y-61364342D01*
X88585714Y-61364342D02*
X88538095Y-61459580D01*
X88538095Y-61459580D02*
X88490476Y-61507200D01*
X88490476Y-61507200D02*
X88395238Y-61554819D01*
X88395238Y-61554819D02*
X88109524Y-61554819D01*
X88109524Y-61554819D02*
X88014286Y-61507200D01*
X88014286Y-61507200D02*
X87966667Y-61459580D01*
X124435714Y-80954819D02*
X124435714Y-79954819D01*
X124435714Y-79954819D02*
X124673809Y-79954819D01*
X124673809Y-79954819D02*
X124816666Y-80002438D01*
X124816666Y-80002438D02*
X124911904Y-80097676D01*
X124911904Y-80097676D02*
X124959523Y-80192914D01*
X124959523Y-80192914D02*
X125007142Y-80383390D01*
X125007142Y-80383390D02*
X125007142Y-80526247D01*
X125007142Y-80526247D02*
X124959523Y-80716723D01*
X124959523Y-80716723D02*
X124911904Y-80811961D01*
X124911904Y-80811961D02*
X124816666Y-80907200D01*
X124816666Y-80907200D02*
X124673809Y-80954819D01*
X124673809Y-80954819D02*
X124435714Y-80954819D01*
X125959523Y-80954819D02*
X125388095Y-80954819D01*
X125673809Y-80954819D02*
X125673809Y-79954819D01*
X125673809Y-79954819D02*
X125578571Y-80097676D01*
X125578571Y-80097676D02*
X125483333Y-80192914D01*
X125483333Y-80192914D02*
X125388095Y-80240533D01*
X126578571Y-79954819D02*
X126673809Y-79954819D01*
X126673809Y-79954819D02*
X126769047Y-80002438D01*
X126769047Y-80002438D02*
X126816666Y-80050057D01*
X126816666Y-80050057D02*
X126864285Y-80145295D01*
X126864285Y-80145295D02*
X126911904Y-80335771D01*
X126911904Y-80335771D02*
X126911904Y-80573866D01*
X126911904Y-80573866D02*
X126864285Y-80764342D01*
X126864285Y-80764342D02*
X126816666Y-80859580D01*
X126816666Y-80859580D02*
X126769047Y-80907200D01*
X126769047Y-80907200D02*
X126673809Y-80954819D01*
X126673809Y-80954819D02*
X126578571Y-80954819D01*
X126578571Y-80954819D02*
X126483333Y-80907200D01*
X126483333Y-80907200D02*
X126435714Y-80859580D01*
X126435714Y-80859580D02*
X126388095Y-80764342D01*
X126388095Y-80764342D02*
X126340476Y-80573866D01*
X126340476Y-80573866D02*
X126340476Y-80335771D01*
X126340476Y-80335771D02*
X126388095Y-80145295D01*
X126388095Y-80145295D02*
X126435714Y-80050057D01*
X126435714Y-80050057D02*
X126483333Y-80002438D01*
X126483333Y-80002438D02*
X126578571Y-79954819D01*
X109388095Y-117604819D02*
X109388095Y-116604819D01*
X109388095Y-116604819D02*
X109721428Y-117319104D01*
X109721428Y-117319104D02*
X110054761Y-116604819D01*
X110054761Y-116604819D02*
X110054761Y-117604819D01*
X110435714Y-116604819D02*
X111102380Y-117604819D01*
X111102380Y-116604819D02*
X110435714Y-117604819D01*
X111435714Y-116700057D02*
X111483333Y-116652438D01*
X111483333Y-116652438D02*
X111578571Y-116604819D01*
X111578571Y-116604819D02*
X111816666Y-116604819D01*
X111816666Y-116604819D02*
X111911904Y-116652438D01*
X111911904Y-116652438D02*
X111959523Y-116700057D01*
X111959523Y-116700057D02*
X112007142Y-116795295D01*
X112007142Y-116795295D02*
X112007142Y-116890533D01*
X112007142Y-116890533D02*
X111959523Y-117033390D01*
X111959523Y-117033390D02*
X111388095Y-117604819D01*
X111388095Y-117604819D02*
X112007142Y-117604819D01*
X112626190Y-116604819D02*
X112721428Y-116604819D01*
X112721428Y-116604819D02*
X112816666Y-116652438D01*
X112816666Y-116652438D02*
X112864285Y-116700057D01*
X112864285Y-116700057D02*
X112911904Y-116795295D01*
X112911904Y-116795295D02*
X112959523Y-116985771D01*
X112959523Y-116985771D02*
X112959523Y-117223866D01*
X112959523Y-117223866D02*
X112911904Y-117414342D01*
X112911904Y-117414342D02*
X112864285Y-117509580D01*
X112864285Y-117509580D02*
X112816666Y-117557200D01*
X112816666Y-117557200D02*
X112721428Y-117604819D01*
X112721428Y-117604819D02*
X112626190Y-117604819D01*
X112626190Y-117604819D02*
X112530952Y-117557200D01*
X112530952Y-117557200D02*
X112483333Y-117509580D01*
X112483333Y-117509580D02*
X112435714Y-117414342D01*
X112435714Y-117414342D02*
X112388095Y-117223866D01*
X112388095Y-117223866D02*
X112388095Y-116985771D01*
X112388095Y-116985771D02*
X112435714Y-116795295D01*
X112435714Y-116795295D02*
X112483333Y-116700057D01*
X112483333Y-116700057D02*
X112530952Y-116652438D01*
X112530952Y-116652438D02*
X112626190Y-116604819D01*
X48135714Y-90754819D02*
X48135714Y-89754819D01*
X48135714Y-89754819D02*
X48373809Y-89754819D01*
X48373809Y-89754819D02*
X48516666Y-89802438D01*
X48516666Y-89802438D02*
X48611904Y-89897676D01*
X48611904Y-89897676D02*
X48659523Y-89992914D01*
X48659523Y-89992914D02*
X48707142Y-90183390D01*
X48707142Y-90183390D02*
X48707142Y-90326247D01*
X48707142Y-90326247D02*
X48659523Y-90516723D01*
X48659523Y-90516723D02*
X48611904Y-90611961D01*
X48611904Y-90611961D02*
X48516666Y-90707200D01*
X48516666Y-90707200D02*
X48373809Y-90754819D01*
X48373809Y-90754819D02*
X48135714Y-90754819D01*
X49088095Y-89850057D02*
X49135714Y-89802438D01*
X49135714Y-89802438D02*
X49230952Y-89754819D01*
X49230952Y-89754819D02*
X49469047Y-89754819D01*
X49469047Y-89754819D02*
X49564285Y-89802438D01*
X49564285Y-89802438D02*
X49611904Y-89850057D01*
X49611904Y-89850057D02*
X49659523Y-89945295D01*
X49659523Y-89945295D02*
X49659523Y-90040533D01*
X49659523Y-90040533D02*
X49611904Y-90183390D01*
X49611904Y-90183390D02*
X49040476Y-90754819D01*
X49040476Y-90754819D02*
X49659523Y-90754819D01*
X50564285Y-89754819D02*
X50088095Y-89754819D01*
X50088095Y-89754819D02*
X50040476Y-90231009D01*
X50040476Y-90231009D02*
X50088095Y-90183390D01*
X50088095Y-90183390D02*
X50183333Y-90135771D01*
X50183333Y-90135771D02*
X50421428Y-90135771D01*
X50421428Y-90135771D02*
X50516666Y-90183390D01*
X50516666Y-90183390D02*
X50564285Y-90231009D01*
X50564285Y-90231009D02*
X50611904Y-90326247D01*
X50611904Y-90326247D02*
X50611904Y-90564342D01*
X50611904Y-90564342D02*
X50564285Y-90659580D01*
X50564285Y-90659580D02*
X50516666Y-90707200D01*
X50516666Y-90707200D02*
X50421428Y-90754819D01*
X50421428Y-90754819D02*
X50183333Y-90754819D01*
X50183333Y-90754819D02*
X50088095Y-90707200D01*
X50088095Y-90707200D02*
X50040476Y-90659580D01*
X86911905Y-100154819D02*
X86911905Y-99154819D01*
X86911905Y-99154819D02*
X87150000Y-99154819D01*
X87150000Y-99154819D02*
X87292857Y-99202438D01*
X87292857Y-99202438D02*
X87388095Y-99297676D01*
X87388095Y-99297676D02*
X87435714Y-99392914D01*
X87435714Y-99392914D02*
X87483333Y-99583390D01*
X87483333Y-99583390D02*
X87483333Y-99726247D01*
X87483333Y-99726247D02*
X87435714Y-99916723D01*
X87435714Y-99916723D02*
X87388095Y-100011961D01*
X87388095Y-100011961D02*
X87292857Y-100107200D01*
X87292857Y-100107200D02*
X87150000Y-100154819D01*
X87150000Y-100154819D02*
X86911905Y-100154819D01*
X88388095Y-99154819D02*
X87911905Y-99154819D01*
X87911905Y-99154819D02*
X87864286Y-99631009D01*
X87864286Y-99631009D02*
X87911905Y-99583390D01*
X87911905Y-99583390D02*
X88007143Y-99535771D01*
X88007143Y-99535771D02*
X88245238Y-99535771D01*
X88245238Y-99535771D02*
X88340476Y-99583390D01*
X88340476Y-99583390D02*
X88388095Y-99631009D01*
X88388095Y-99631009D02*
X88435714Y-99726247D01*
X88435714Y-99726247D02*
X88435714Y-99964342D01*
X88435714Y-99964342D02*
X88388095Y-100059580D01*
X88388095Y-100059580D02*
X88340476Y-100107200D01*
X88340476Y-100107200D02*
X88245238Y-100154819D01*
X88245238Y-100154819D02*
X88007143Y-100154819D01*
X88007143Y-100154819D02*
X87911905Y-100107200D01*
X87911905Y-100107200D02*
X87864286Y-100059580D01*
X63054286Y-81504819D02*
X63054286Y-80504819D01*
X63054286Y-80504819D02*
X63387619Y-81219104D01*
X63387619Y-81219104D02*
X63720952Y-80504819D01*
X63720952Y-80504819D02*
X63720952Y-81504819D01*
X64101905Y-80504819D02*
X64768571Y-81504819D01*
X64768571Y-80504819D02*
X64101905Y-81504819D01*
X65578095Y-80504819D02*
X65387619Y-80504819D01*
X65387619Y-80504819D02*
X65292381Y-80552438D01*
X65292381Y-80552438D02*
X65244762Y-80600057D01*
X65244762Y-80600057D02*
X65149524Y-80742914D01*
X65149524Y-80742914D02*
X65101905Y-80933390D01*
X65101905Y-80933390D02*
X65101905Y-81314342D01*
X65101905Y-81314342D02*
X65149524Y-81409580D01*
X65149524Y-81409580D02*
X65197143Y-81457200D01*
X65197143Y-81457200D02*
X65292381Y-81504819D01*
X65292381Y-81504819D02*
X65482857Y-81504819D01*
X65482857Y-81504819D02*
X65578095Y-81457200D01*
X65578095Y-81457200D02*
X65625714Y-81409580D01*
X65625714Y-81409580D02*
X65673333Y-81314342D01*
X65673333Y-81314342D02*
X65673333Y-81076247D01*
X65673333Y-81076247D02*
X65625714Y-80981009D01*
X65625714Y-80981009D02*
X65578095Y-80933390D01*
X65578095Y-80933390D02*
X65482857Y-80885771D01*
X65482857Y-80885771D02*
X65292381Y-80885771D01*
X65292381Y-80885771D02*
X65197143Y-80933390D01*
X65197143Y-80933390D02*
X65149524Y-80981009D01*
X65149524Y-80981009D02*
X65101905Y-81076247D01*
X82004286Y-57544819D02*
X82004286Y-56544819D01*
X82004286Y-56544819D02*
X82337619Y-57259104D01*
X82337619Y-57259104D02*
X82670952Y-56544819D01*
X82670952Y-56544819D02*
X82670952Y-57544819D01*
X83051905Y-56544819D02*
X83718571Y-57544819D01*
X83718571Y-56544819D02*
X83051905Y-57544819D01*
X84242381Y-56973390D02*
X84147143Y-56925771D01*
X84147143Y-56925771D02*
X84099524Y-56878152D01*
X84099524Y-56878152D02*
X84051905Y-56782914D01*
X84051905Y-56782914D02*
X84051905Y-56735295D01*
X84051905Y-56735295D02*
X84099524Y-56640057D01*
X84099524Y-56640057D02*
X84147143Y-56592438D01*
X84147143Y-56592438D02*
X84242381Y-56544819D01*
X84242381Y-56544819D02*
X84432857Y-56544819D01*
X84432857Y-56544819D02*
X84528095Y-56592438D01*
X84528095Y-56592438D02*
X84575714Y-56640057D01*
X84575714Y-56640057D02*
X84623333Y-56735295D01*
X84623333Y-56735295D02*
X84623333Y-56782914D01*
X84623333Y-56782914D02*
X84575714Y-56878152D01*
X84575714Y-56878152D02*
X84528095Y-56925771D01*
X84528095Y-56925771D02*
X84432857Y-56973390D01*
X84432857Y-56973390D02*
X84242381Y-56973390D01*
X84242381Y-56973390D02*
X84147143Y-57021009D01*
X84147143Y-57021009D02*
X84099524Y-57068628D01*
X84099524Y-57068628D02*
X84051905Y-57163866D01*
X84051905Y-57163866D02*
X84051905Y-57354342D01*
X84051905Y-57354342D02*
X84099524Y-57449580D01*
X84099524Y-57449580D02*
X84147143Y-57497200D01*
X84147143Y-57497200D02*
X84242381Y-57544819D01*
X84242381Y-57544819D02*
X84432857Y-57544819D01*
X84432857Y-57544819D02*
X84528095Y-57497200D01*
X84528095Y-57497200D02*
X84575714Y-57449580D01*
X84575714Y-57449580D02*
X84623333Y-57354342D01*
X84623333Y-57354342D02*
X84623333Y-57163866D01*
X84623333Y-57163866D02*
X84575714Y-57068628D01*
X84575714Y-57068628D02*
X84528095Y-57021009D01*
X84528095Y-57021009D02*
X84432857Y-56973390D01*
X153370988Y-131954690D02*
X153870988Y-131088665D01*
X153870988Y-131088665D02*
X154077184Y-131207713D01*
X154077184Y-131207713D02*
X154177093Y-131320381D01*
X154177093Y-131320381D02*
X154211952Y-131450478D01*
X154211952Y-131450478D02*
X154205572Y-131556766D01*
X154205572Y-131556766D02*
X154151574Y-131745533D01*
X154151574Y-131745533D02*
X154080145Y-131869251D01*
X154080145Y-131869251D02*
X153943668Y-132010399D01*
X153943668Y-132010399D02*
X153854809Y-132069068D01*
X153854809Y-132069068D02*
X153724712Y-132103927D01*
X153724712Y-132103927D02*
X153577184Y-132073738D01*
X153577184Y-132073738D02*
X153370988Y-131954690D01*
X154690645Y-132716595D02*
X154195774Y-132430881D01*
X154443210Y-132573738D02*
X154943210Y-131707713D01*
X154943210Y-131707713D02*
X154789302Y-131783812D01*
X154789302Y-131783812D02*
X154659205Y-131818671D01*
X154659205Y-131818671D02*
X154552917Y-131812291D01*
X155103039Y-132954690D02*
X155267996Y-133049929D01*
X155267996Y-133049929D02*
X155374284Y-133056308D01*
X155374284Y-133056308D02*
X155439333Y-133038879D01*
X155439333Y-133038879D02*
X155593240Y-132962780D01*
X155593240Y-132962780D02*
X155729717Y-132821632D01*
X155729717Y-132821632D02*
X155920193Y-132491718D01*
X155920193Y-132491718D02*
X155926573Y-132385429D01*
X155926573Y-132385429D02*
X155909143Y-132320381D01*
X155909143Y-132320381D02*
X155850474Y-132231522D01*
X155850474Y-132231522D02*
X155685517Y-132136284D01*
X155685517Y-132136284D02*
X155579229Y-132129904D01*
X155579229Y-132129904D02*
X155514180Y-132147334D01*
X155514180Y-132147334D02*
X155425322Y-132206003D01*
X155425322Y-132206003D02*
X155306274Y-132412200D01*
X155306274Y-132412200D02*
X155299894Y-132518488D01*
X155299894Y-132518488D02*
X155317324Y-132583537D01*
X155317324Y-132583537D02*
X155375993Y-132672395D01*
X155375993Y-132672395D02*
X155540951Y-132767633D01*
X155540951Y-132767633D02*
X155647239Y-132774013D01*
X155647239Y-132774013D02*
X155712287Y-132756583D01*
X155712287Y-132756583D02*
X155801146Y-132697914D01*
X67011905Y-86054819D02*
X67011905Y-85054819D01*
X67011905Y-85054819D02*
X67250000Y-85054819D01*
X67250000Y-85054819D02*
X67392857Y-85102438D01*
X67392857Y-85102438D02*
X67488095Y-85197676D01*
X67488095Y-85197676D02*
X67535714Y-85292914D01*
X67535714Y-85292914D02*
X67583333Y-85483390D01*
X67583333Y-85483390D02*
X67583333Y-85626247D01*
X67583333Y-85626247D02*
X67535714Y-85816723D01*
X67535714Y-85816723D02*
X67488095Y-85911961D01*
X67488095Y-85911961D02*
X67392857Y-86007200D01*
X67392857Y-86007200D02*
X67250000Y-86054819D01*
X67250000Y-86054819D02*
X67011905Y-86054819D01*
X68535714Y-86054819D02*
X67964286Y-86054819D01*
X68250000Y-86054819D02*
X68250000Y-85054819D01*
X68250000Y-85054819D02*
X68154762Y-85197676D01*
X68154762Y-85197676D02*
X68059524Y-85292914D01*
X68059524Y-85292914D02*
X67964286Y-85340533D01*
X48135714Y-110454819D02*
X48135714Y-109454819D01*
X48135714Y-109454819D02*
X48373809Y-109454819D01*
X48373809Y-109454819D02*
X48516666Y-109502438D01*
X48516666Y-109502438D02*
X48611904Y-109597676D01*
X48611904Y-109597676D02*
X48659523Y-109692914D01*
X48659523Y-109692914D02*
X48707142Y-109883390D01*
X48707142Y-109883390D02*
X48707142Y-110026247D01*
X48707142Y-110026247D02*
X48659523Y-110216723D01*
X48659523Y-110216723D02*
X48611904Y-110311961D01*
X48611904Y-110311961D02*
X48516666Y-110407200D01*
X48516666Y-110407200D02*
X48373809Y-110454819D01*
X48373809Y-110454819D02*
X48135714Y-110454819D01*
X49088095Y-109550057D02*
X49135714Y-109502438D01*
X49135714Y-109502438D02*
X49230952Y-109454819D01*
X49230952Y-109454819D02*
X49469047Y-109454819D01*
X49469047Y-109454819D02*
X49564285Y-109502438D01*
X49564285Y-109502438D02*
X49611904Y-109550057D01*
X49611904Y-109550057D02*
X49659523Y-109645295D01*
X49659523Y-109645295D02*
X49659523Y-109740533D01*
X49659523Y-109740533D02*
X49611904Y-109883390D01*
X49611904Y-109883390D02*
X49040476Y-110454819D01*
X49040476Y-110454819D02*
X49659523Y-110454819D01*
X50516666Y-109454819D02*
X50326190Y-109454819D01*
X50326190Y-109454819D02*
X50230952Y-109502438D01*
X50230952Y-109502438D02*
X50183333Y-109550057D01*
X50183333Y-109550057D02*
X50088095Y-109692914D01*
X50088095Y-109692914D02*
X50040476Y-109883390D01*
X50040476Y-109883390D02*
X50040476Y-110264342D01*
X50040476Y-110264342D02*
X50088095Y-110359580D01*
X50088095Y-110359580D02*
X50135714Y-110407200D01*
X50135714Y-110407200D02*
X50230952Y-110454819D01*
X50230952Y-110454819D02*
X50421428Y-110454819D01*
X50421428Y-110454819D02*
X50516666Y-110407200D01*
X50516666Y-110407200D02*
X50564285Y-110359580D01*
X50564285Y-110359580D02*
X50611904Y-110264342D01*
X50611904Y-110264342D02*
X50611904Y-110026247D01*
X50611904Y-110026247D02*
X50564285Y-109931009D01*
X50564285Y-109931009D02*
X50516666Y-109883390D01*
X50516666Y-109883390D02*
X50421428Y-109835771D01*
X50421428Y-109835771D02*
X50230952Y-109835771D01*
X50230952Y-109835771D02*
X50135714Y-109883390D01*
X50135714Y-109883390D02*
X50088095Y-109931009D01*
X50088095Y-109931009D02*
X50040476Y-110026247D01*
X158635714Y-102554819D02*
X158635714Y-101554819D01*
X158635714Y-101554819D02*
X158873809Y-101554819D01*
X158873809Y-101554819D02*
X159016666Y-101602438D01*
X159016666Y-101602438D02*
X159111904Y-101697676D01*
X159111904Y-101697676D02*
X159159523Y-101792914D01*
X159159523Y-101792914D02*
X159207142Y-101983390D01*
X159207142Y-101983390D02*
X159207142Y-102126247D01*
X159207142Y-102126247D02*
X159159523Y-102316723D01*
X159159523Y-102316723D02*
X159111904Y-102411961D01*
X159111904Y-102411961D02*
X159016666Y-102507200D01*
X159016666Y-102507200D02*
X158873809Y-102554819D01*
X158873809Y-102554819D02*
X158635714Y-102554819D01*
X160159523Y-102554819D02*
X159588095Y-102554819D01*
X159873809Y-102554819D02*
X159873809Y-101554819D01*
X159873809Y-101554819D02*
X159778571Y-101697676D01*
X159778571Y-101697676D02*
X159683333Y-101792914D01*
X159683333Y-101792914D02*
X159588095Y-101840533D01*
X161016666Y-101554819D02*
X160826190Y-101554819D01*
X160826190Y-101554819D02*
X160730952Y-101602438D01*
X160730952Y-101602438D02*
X160683333Y-101650057D01*
X160683333Y-101650057D02*
X160588095Y-101792914D01*
X160588095Y-101792914D02*
X160540476Y-101983390D01*
X160540476Y-101983390D02*
X160540476Y-102364342D01*
X160540476Y-102364342D02*
X160588095Y-102459580D01*
X160588095Y-102459580D02*
X160635714Y-102507200D01*
X160635714Y-102507200D02*
X160730952Y-102554819D01*
X160730952Y-102554819D02*
X160921428Y-102554819D01*
X160921428Y-102554819D02*
X161016666Y-102507200D01*
X161016666Y-102507200D02*
X161064285Y-102459580D01*
X161064285Y-102459580D02*
X161111904Y-102364342D01*
X161111904Y-102364342D02*
X161111904Y-102126247D01*
X161111904Y-102126247D02*
X161064285Y-102031009D01*
X161064285Y-102031009D02*
X161016666Y-101983390D01*
X161016666Y-101983390D02*
X160921428Y-101935771D01*
X160921428Y-101935771D02*
X160730952Y-101935771D01*
X160730952Y-101935771D02*
X160635714Y-101983390D01*
X160635714Y-101983390D02*
X160588095Y-102031009D01*
X160588095Y-102031009D02*
X160540476Y-102126247D01*
X82004286Y-76644819D02*
X82004286Y-75644819D01*
X82004286Y-75644819D02*
X82337619Y-76359104D01*
X82337619Y-76359104D02*
X82670952Y-75644819D01*
X82670952Y-75644819D02*
X82670952Y-76644819D01*
X83051905Y-75644819D02*
X83718571Y-76644819D01*
X83718571Y-75644819D02*
X83051905Y-76644819D01*
X84147143Y-76644819D02*
X84337619Y-76644819D01*
X84337619Y-76644819D02*
X84432857Y-76597200D01*
X84432857Y-76597200D02*
X84480476Y-76549580D01*
X84480476Y-76549580D02*
X84575714Y-76406723D01*
X84575714Y-76406723D02*
X84623333Y-76216247D01*
X84623333Y-76216247D02*
X84623333Y-75835295D01*
X84623333Y-75835295D02*
X84575714Y-75740057D01*
X84575714Y-75740057D02*
X84528095Y-75692438D01*
X84528095Y-75692438D02*
X84432857Y-75644819D01*
X84432857Y-75644819D02*
X84242381Y-75644819D01*
X84242381Y-75644819D02*
X84147143Y-75692438D01*
X84147143Y-75692438D02*
X84099524Y-75740057D01*
X84099524Y-75740057D02*
X84051905Y-75835295D01*
X84051905Y-75835295D02*
X84051905Y-76073390D01*
X84051905Y-76073390D02*
X84099524Y-76168628D01*
X84099524Y-76168628D02*
X84147143Y-76216247D01*
X84147143Y-76216247D02*
X84242381Y-76263866D01*
X84242381Y-76263866D02*
X84432857Y-76263866D01*
X84432857Y-76263866D02*
X84528095Y-76216247D01*
X84528095Y-76216247D02*
X84575714Y-76168628D01*
X84575714Y-76168628D02*
X84623333Y-76073390D01*
X106411905Y-75654819D02*
X106411905Y-74654819D01*
X106411905Y-74654819D02*
X106650000Y-74654819D01*
X106650000Y-74654819D02*
X106792857Y-74702438D01*
X106792857Y-74702438D02*
X106888095Y-74797676D01*
X106888095Y-74797676D02*
X106935714Y-74892914D01*
X106935714Y-74892914D02*
X106983333Y-75083390D01*
X106983333Y-75083390D02*
X106983333Y-75226247D01*
X106983333Y-75226247D02*
X106935714Y-75416723D01*
X106935714Y-75416723D02*
X106888095Y-75511961D01*
X106888095Y-75511961D02*
X106792857Y-75607200D01*
X106792857Y-75607200D02*
X106650000Y-75654819D01*
X106650000Y-75654819D02*
X106411905Y-75654819D01*
X107316667Y-74654819D02*
X107983333Y-74654819D01*
X107983333Y-74654819D02*
X107554762Y-75654819D01*
X67061905Y-67054819D02*
X67061905Y-66054819D01*
X67061905Y-66054819D02*
X67300000Y-66054819D01*
X67300000Y-66054819D02*
X67442857Y-66102438D01*
X67442857Y-66102438D02*
X67538095Y-66197676D01*
X67538095Y-66197676D02*
X67585714Y-66292914D01*
X67585714Y-66292914D02*
X67633333Y-66483390D01*
X67633333Y-66483390D02*
X67633333Y-66626247D01*
X67633333Y-66626247D02*
X67585714Y-66816723D01*
X67585714Y-66816723D02*
X67538095Y-66911961D01*
X67538095Y-66911961D02*
X67442857Y-67007200D01*
X67442857Y-67007200D02*
X67300000Y-67054819D01*
X67300000Y-67054819D02*
X67061905Y-67054819D01*
X68014286Y-66150057D02*
X68061905Y-66102438D01*
X68061905Y-66102438D02*
X68157143Y-66054819D01*
X68157143Y-66054819D02*
X68395238Y-66054819D01*
X68395238Y-66054819D02*
X68490476Y-66102438D01*
X68490476Y-66102438D02*
X68538095Y-66150057D01*
X68538095Y-66150057D02*
X68585714Y-66245295D01*
X68585714Y-66245295D02*
X68585714Y-66340533D01*
X68585714Y-66340533D02*
X68538095Y-66483390D01*
X68538095Y-66483390D02*
X67966667Y-67054819D01*
X67966667Y-67054819D02*
X68585714Y-67054819D01*
X138708095Y-78504819D02*
X138708095Y-77504819D01*
X138708095Y-77504819D02*
X139041428Y-78219104D01*
X139041428Y-78219104D02*
X139374761Y-77504819D01*
X139374761Y-77504819D02*
X139374761Y-78504819D01*
X139755714Y-77504819D02*
X140422380Y-78504819D01*
X140422380Y-77504819D02*
X139755714Y-78504819D01*
X141327142Y-78504819D02*
X140755714Y-78504819D01*
X141041428Y-78504819D02*
X141041428Y-77504819D01*
X141041428Y-77504819D02*
X140946190Y-77647676D01*
X140946190Y-77647676D02*
X140850952Y-77742914D01*
X140850952Y-77742914D02*
X140755714Y-77790533D01*
X141898571Y-77933390D02*
X141803333Y-77885771D01*
X141803333Y-77885771D02*
X141755714Y-77838152D01*
X141755714Y-77838152D02*
X141708095Y-77742914D01*
X141708095Y-77742914D02*
X141708095Y-77695295D01*
X141708095Y-77695295D02*
X141755714Y-77600057D01*
X141755714Y-77600057D02*
X141803333Y-77552438D01*
X141803333Y-77552438D02*
X141898571Y-77504819D01*
X141898571Y-77504819D02*
X142089047Y-77504819D01*
X142089047Y-77504819D02*
X142184285Y-77552438D01*
X142184285Y-77552438D02*
X142231904Y-77600057D01*
X142231904Y-77600057D02*
X142279523Y-77695295D01*
X142279523Y-77695295D02*
X142279523Y-77742914D01*
X142279523Y-77742914D02*
X142231904Y-77838152D01*
X142231904Y-77838152D02*
X142184285Y-77885771D01*
X142184285Y-77885771D02*
X142089047Y-77933390D01*
X142089047Y-77933390D02*
X141898571Y-77933390D01*
X141898571Y-77933390D02*
X141803333Y-77981009D01*
X141803333Y-77981009D02*
X141755714Y-78028628D01*
X141755714Y-78028628D02*
X141708095Y-78123866D01*
X141708095Y-78123866D02*
X141708095Y-78314342D01*
X141708095Y-78314342D02*
X141755714Y-78409580D01*
X141755714Y-78409580D02*
X141803333Y-78457200D01*
X141803333Y-78457200D02*
X141898571Y-78504819D01*
X141898571Y-78504819D02*
X142089047Y-78504819D01*
X142089047Y-78504819D02*
X142184285Y-78457200D01*
X142184285Y-78457200D02*
X142231904Y-78409580D01*
X142231904Y-78409580D02*
X142279523Y-78314342D01*
X142279523Y-78314342D02*
X142279523Y-78123866D01*
X142279523Y-78123866D02*
X142231904Y-78028628D01*
X142231904Y-78028628D02*
X142184285Y-77981009D01*
X142184285Y-77981009D02*
X142089047Y-77933390D01*
X124785714Y-100054819D02*
X124785714Y-99054819D01*
X124785714Y-99054819D02*
X125023809Y-99054819D01*
X125023809Y-99054819D02*
X125166666Y-99102438D01*
X125166666Y-99102438D02*
X125261904Y-99197676D01*
X125261904Y-99197676D02*
X125309523Y-99292914D01*
X125309523Y-99292914D02*
X125357142Y-99483390D01*
X125357142Y-99483390D02*
X125357142Y-99626247D01*
X125357142Y-99626247D02*
X125309523Y-99816723D01*
X125309523Y-99816723D02*
X125261904Y-99911961D01*
X125261904Y-99911961D02*
X125166666Y-100007200D01*
X125166666Y-100007200D02*
X125023809Y-100054819D01*
X125023809Y-100054819D02*
X124785714Y-100054819D01*
X126309523Y-100054819D02*
X125738095Y-100054819D01*
X126023809Y-100054819D02*
X126023809Y-99054819D01*
X126023809Y-99054819D02*
X125928571Y-99197676D01*
X125928571Y-99197676D02*
X125833333Y-99292914D01*
X125833333Y-99292914D02*
X125738095Y-99340533D01*
X127261904Y-100054819D02*
X126690476Y-100054819D01*
X126976190Y-100054819D02*
X126976190Y-99054819D01*
X126976190Y-99054819D02*
X126880952Y-99197676D01*
X126880952Y-99197676D02*
X126785714Y-99292914D01*
X126785714Y-99292914D02*
X126690476Y-99340533D01*
X119668095Y-95504819D02*
X119668095Y-94504819D01*
X119668095Y-94504819D02*
X120001428Y-95219104D01*
X120001428Y-95219104D02*
X120334761Y-94504819D01*
X120334761Y-94504819D02*
X120334761Y-95504819D01*
X120715714Y-94504819D02*
X121382380Y-95504819D01*
X121382380Y-94504819D02*
X120715714Y-95504819D01*
X122287142Y-95504819D02*
X121715714Y-95504819D01*
X122001428Y-95504819D02*
X122001428Y-94504819D01*
X122001428Y-94504819D02*
X121906190Y-94647676D01*
X121906190Y-94647676D02*
X121810952Y-94742914D01*
X121810952Y-94742914D02*
X121715714Y-94790533D01*
X123144285Y-94504819D02*
X122953809Y-94504819D01*
X122953809Y-94504819D02*
X122858571Y-94552438D01*
X122858571Y-94552438D02*
X122810952Y-94600057D01*
X122810952Y-94600057D02*
X122715714Y-94742914D01*
X122715714Y-94742914D02*
X122668095Y-94933390D01*
X122668095Y-94933390D02*
X122668095Y-95314342D01*
X122668095Y-95314342D02*
X122715714Y-95409580D01*
X122715714Y-95409580D02*
X122763333Y-95457200D01*
X122763333Y-95457200D02*
X122858571Y-95504819D01*
X122858571Y-95504819D02*
X123049047Y-95504819D01*
X123049047Y-95504819D02*
X123144285Y-95457200D01*
X123144285Y-95457200D02*
X123191904Y-95409580D01*
X123191904Y-95409580D02*
X123239523Y-95314342D01*
X123239523Y-95314342D02*
X123239523Y-95076247D01*
X123239523Y-95076247D02*
X123191904Y-94981009D01*
X123191904Y-94981009D02*
X123144285Y-94933390D01*
X123144285Y-94933390D02*
X123049047Y-94885771D01*
X123049047Y-94885771D02*
X122858571Y-94885771D01*
X122858571Y-94885771D02*
X122763333Y-94933390D01*
X122763333Y-94933390D02*
X122715714Y-94981009D01*
X122715714Y-94981009D02*
X122668095Y-95076247D01*
X81588095Y-95704819D02*
X81588095Y-94704819D01*
X81588095Y-94704819D02*
X81921428Y-95419104D01*
X81921428Y-95419104D02*
X82254761Y-94704819D01*
X82254761Y-94704819D02*
X82254761Y-95704819D01*
X82635714Y-94704819D02*
X83302380Y-95704819D01*
X83302380Y-94704819D02*
X82635714Y-95704819D01*
X84207142Y-95704819D02*
X83635714Y-95704819D01*
X83921428Y-95704819D02*
X83921428Y-94704819D01*
X83921428Y-94704819D02*
X83826190Y-94847676D01*
X83826190Y-94847676D02*
X83730952Y-94942914D01*
X83730952Y-94942914D02*
X83635714Y-94990533D01*
X84826190Y-94704819D02*
X84921428Y-94704819D01*
X84921428Y-94704819D02*
X85016666Y-94752438D01*
X85016666Y-94752438D02*
X85064285Y-94800057D01*
X85064285Y-94800057D02*
X85111904Y-94895295D01*
X85111904Y-94895295D02*
X85159523Y-95085771D01*
X85159523Y-95085771D02*
X85159523Y-95323866D01*
X85159523Y-95323866D02*
X85111904Y-95514342D01*
X85111904Y-95514342D02*
X85064285Y-95609580D01*
X85064285Y-95609580D02*
X85016666Y-95657200D01*
X85016666Y-95657200D02*
X84921428Y-95704819D01*
X84921428Y-95704819D02*
X84826190Y-95704819D01*
X84826190Y-95704819D02*
X84730952Y-95657200D01*
X84730952Y-95657200D02*
X84683333Y-95609580D01*
X84683333Y-95609580D02*
X84635714Y-95514342D01*
X84635714Y-95514342D02*
X84588095Y-95323866D01*
X84588095Y-95323866D02*
X84588095Y-95085771D01*
X84588095Y-95085771D02*
X84635714Y-94895295D01*
X84635714Y-94895295D02*
X84683333Y-94800057D01*
X84683333Y-94800057D02*
X84730952Y-94752438D01*
X84730952Y-94752438D02*
X84826190Y-94704819D01*
X170600704Y-144015487D02*
X171307811Y-143308381D01*
X171307811Y-143308381D02*
X171476170Y-143476739D01*
X171476170Y-143476739D02*
X171543513Y-143611426D01*
X171543513Y-143611426D02*
X171543513Y-143746113D01*
X171543513Y-143746113D02*
X171509841Y-143847129D01*
X171509841Y-143847129D02*
X171408826Y-144015487D01*
X171408826Y-144015487D02*
X171307811Y-144116503D01*
X171307811Y-144116503D02*
X171139452Y-144217518D01*
X171139452Y-144217518D02*
X171038437Y-144251190D01*
X171038437Y-144251190D02*
X170903750Y-144251190D01*
X170903750Y-144251190D02*
X170769063Y-144183846D01*
X170769063Y-144183846D02*
X170600704Y-144015487D01*
X171913902Y-144049159D02*
X171981246Y-144049159D01*
X171981246Y-144049159D02*
X172082261Y-144082831D01*
X172082261Y-144082831D02*
X172250620Y-144251190D01*
X172250620Y-144251190D02*
X172284292Y-144352205D01*
X172284292Y-144352205D02*
X172284292Y-144419548D01*
X172284292Y-144419548D02*
X172250620Y-144520564D01*
X172250620Y-144520564D02*
X172183276Y-144587907D01*
X172183276Y-144587907D02*
X172048589Y-144655251D01*
X172048589Y-144655251D02*
X171240467Y-144655251D01*
X171240467Y-144655251D02*
X171678200Y-145092983D01*
X172823040Y-144823610D02*
X172890383Y-144890953D01*
X172890383Y-144890953D02*
X172924055Y-144991968D01*
X172924055Y-144991968D02*
X172924055Y-145059312D01*
X172924055Y-145059312D02*
X172890383Y-145160327D01*
X172890383Y-145160327D02*
X172789368Y-145328686D01*
X172789368Y-145328686D02*
X172621009Y-145497045D01*
X172621009Y-145497045D02*
X172452651Y-145598060D01*
X172452651Y-145598060D02*
X172351635Y-145631732D01*
X172351635Y-145631732D02*
X172284292Y-145631732D01*
X172284292Y-145631732D02*
X172183277Y-145598060D01*
X172183277Y-145598060D02*
X172115933Y-145530716D01*
X172115933Y-145530716D02*
X172082261Y-145429701D01*
X172082261Y-145429701D02*
X172082261Y-145362358D01*
X172082261Y-145362358D02*
X172115933Y-145261342D01*
X172115933Y-145261342D02*
X172216948Y-145092984D01*
X172216948Y-145092984D02*
X172385307Y-144924625D01*
X172385307Y-144924625D02*
X172553666Y-144823610D01*
X172553666Y-144823610D02*
X172654681Y-144789938D01*
X172654681Y-144789938D02*
X172722025Y-144789938D01*
X172722025Y-144789938D02*
X172823040Y-144823610D01*
X138708095Y-59404819D02*
X138708095Y-58404819D01*
X138708095Y-58404819D02*
X139041428Y-59119104D01*
X139041428Y-59119104D02*
X139374761Y-58404819D01*
X139374761Y-58404819D02*
X139374761Y-59404819D01*
X139755714Y-58404819D02*
X140422380Y-59404819D01*
X140422380Y-58404819D02*
X139755714Y-59404819D01*
X141327142Y-59404819D02*
X140755714Y-59404819D01*
X141041428Y-59404819D02*
X141041428Y-58404819D01*
X141041428Y-58404819D02*
X140946190Y-58547676D01*
X140946190Y-58547676D02*
X140850952Y-58642914D01*
X140850952Y-58642914D02*
X140755714Y-58690533D01*
X141660476Y-58404819D02*
X142327142Y-58404819D01*
X142327142Y-58404819D02*
X141898571Y-59404819D01*
X105811905Y-57254819D02*
X105811905Y-56254819D01*
X105811905Y-56254819D02*
X106050000Y-56254819D01*
X106050000Y-56254819D02*
X106192857Y-56302438D01*
X106192857Y-56302438D02*
X106288095Y-56397676D01*
X106288095Y-56397676D02*
X106335714Y-56492914D01*
X106335714Y-56492914D02*
X106383333Y-56683390D01*
X106383333Y-56683390D02*
X106383333Y-56826247D01*
X106383333Y-56826247D02*
X106335714Y-57016723D01*
X106335714Y-57016723D02*
X106288095Y-57111961D01*
X106288095Y-57111961D02*
X106192857Y-57207200D01*
X106192857Y-57207200D02*
X106050000Y-57254819D01*
X106050000Y-57254819D02*
X105811905Y-57254819D01*
X107240476Y-56254819D02*
X107050000Y-56254819D01*
X107050000Y-56254819D02*
X106954762Y-56302438D01*
X106954762Y-56302438D02*
X106907143Y-56350057D01*
X106907143Y-56350057D02*
X106811905Y-56492914D01*
X106811905Y-56492914D02*
X106764286Y-56683390D01*
X106764286Y-56683390D02*
X106764286Y-57064342D01*
X106764286Y-57064342D02*
X106811905Y-57159580D01*
X106811905Y-57159580D02*
X106859524Y-57207200D01*
X106859524Y-57207200D02*
X106954762Y-57254819D01*
X106954762Y-57254819D02*
X107145238Y-57254819D01*
X107145238Y-57254819D02*
X107240476Y-57207200D01*
X107240476Y-57207200D02*
X107288095Y-57159580D01*
X107288095Y-57159580D02*
X107335714Y-57064342D01*
X107335714Y-57064342D02*
X107335714Y-56826247D01*
X107335714Y-56826247D02*
X107288095Y-56731009D01*
X107288095Y-56731009D02*
X107240476Y-56683390D01*
X107240476Y-56683390D02*
X107145238Y-56635771D01*
X107145238Y-56635771D02*
X106954762Y-56635771D01*
X106954762Y-56635771D02*
X106859524Y-56683390D01*
X106859524Y-56683390D02*
X106811905Y-56731009D01*
X106811905Y-56731009D02*
X106764286Y-56826247D01*
X143635714Y-83654819D02*
X143635714Y-82654819D01*
X143635714Y-82654819D02*
X143873809Y-82654819D01*
X143873809Y-82654819D02*
X144016666Y-82702438D01*
X144016666Y-82702438D02*
X144111904Y-82797676D01*
X144111904Y-82797676D02*
X144159523Y-82892914D01*
X144159523Y-82892914D02*
X144207142Y-83083390D01*
X144207142Y-83083390D02*
X144207142Y-83226247D01*
X144207142Y-83226247D02*
X144159523Y-83416723D01*
X144159523Y-83416723D02*
X144111904Y-83511961D01*
X144111904Y-83511961D02*
X144016666Y-83607200D01*
X144016666Y-83607200D02*
X143873809Y-83654819D01*
X143873809Y-83654819D02*
X143635714Y-83654819D01*
X145159523Y-83654819D02*
X144588095Y-83654819D01*
X144873809Y-83654819D02*
X144873809Y-82654819D01*
X144873809Y-82654819D02*
X144778571Y-82797676D01*
X144778571Y-82797676D02*
X144683333Y-82892914D01*
X144683333Y-82892914D02*
X144588095Y-82940533D01*
X145492857Y-82654819D02*
X146111904Y-82654819D01*
X146111904Y-82654819D02*
X145778571Y-83035771D01*
X145778571Y-83035771D02*
X145921428Y-83035771D01*
X145921428Y-83035771D02*
X146016666Y-83083390D01*
X146016666Y-83083390D02*
X146064285Y-83131009D01*
X146064285Y-83131009D02*
X146111904Y-83226247D01*
X146111904Y-83226247D02*
X146111904Y-83464342D01*
X146111904Y-83464342D02*
X146064285Y-83559580D01*
X146064285Y-83559580D02*
X146016666Y-83607200D01*
X146016666Y-83607200D02*
X145921428Y-83654819D01*
X145921428Y-83654819D02*
X145635714Y-83654819D01*
X145635714Y-83654819D02*
X145540476Y-83607200D01*
X145540476Y-83607200D02*
X145492857Y-83559580D01*
X44044286Y-86504819D02*
X44044286Y-85504819D01*
X44044286Y-85504819D02*
X44377619Y-86219104D01*
X44377619Y-86219104D02*
X44710952Y-85504819D01*
X44710952Y-85504819D02*
X44710952Y-86504819D01*
X45091905Y-85504819D02*
X45758571Y-86504819D01*
X45758571Y-85504819D02*
X45091905Y-86504819D01*
X46044286Y-85504819D02*
X46663333Y-85504819D01*
X46663333Y-85504819D02*
X46330000Y-85885771D01*
X46330000Y-85885771D02*
X46472857Y-85885771D01*
X46472857Y-85885771D02*
X46568095Y-85933390D01*
X46568095Y-85933390D02*
X46615714Y-85981009D01*
X46615714Y-85981009D02*
X46663333Y-86076247D01*
X46663333Y-86076247D02*
X46663333Y-86314342D01*
X46663333Y-86314342D02*
X46615714Y-86409580D01*
X46615714Y-86409580D02*
X46568095Y-86457200D01*
X46568095Y-86457200D02*
X46472857Y-86504819D01*
X46472857Y-86504819D02*
X46187143Y-86504819D01*
X46187143Y-86504819D02*
X46091905Y-86457200D01*
X46091905Y-86457200D02*
X46044286Y-86409580D01*
X142985714Y-63754819D02*
X142985714Y-62754819D01*
X142985714Y-62754819D02*
X143223809Y-62754819D01*
X143223809Y-62754819D02*
X143366666Y-62802438D01*
X143366666Y-62802438D02*
X143461904Y-62897676D01*
X143461904Y-62897676D02*
X143509523Y-62992914D01*
X143509523Y-62992914D02*
X143557142Y-63183390D01*
X143557142Y-63183390D02*
X143557142Y-63326247D01*
X143557142Y-63326247D02*
X143509523Y-63516723D01*
X143509523Y-63516723D02*
X143461904Y-63611961D01*
X143461904Y-63611961D02*
X143366666Y-63707200D01*
X143366666Y-63707200D02*
X143223809Y-63754819D01*
X143223809Y-63754819D02*
X142985714Y-63754819D01*
X144509523Y-63754819D02*
X143938095Y-63754819D01*
X144223809Y-63754819D02*
X144223809Y-62754819D01*
X144223809Y-62754819D02*
X144128571Y-62897676D01*
X144128571Y-62897676D02*
X144033333Y-62992914D01*
X144033333Y-62992914D02*
X143938095Y-63040533D01*
X144890476Y-62850057D02*
X144938095Y-62802438D01*
X144938095Y-62802438D02*
X145033333Y-62754819D01*
X145033333Y-62754819D02*
X145271428Y-62754819D01*
X145271428Y-62754819D02*
X145366666Y-62802438D01*
X145366666Y-62802438D02*
X145414285Y-62850057D01*
X145414285Y-62850057D02*
X145461904Y-62945295D01*
X145461904Y-62945295D02*
X145461904Y-63040533D01*
X145461904Y-63040533D02*
X145414285Y-63183390D01*
X145414285Y-63183390D02*
X144842857Y-63754819D01*
X144842857Y-63754819D02*
X145461904Y-63754819D01*
X119668095Y-57304819D02*
X119668095Y-56304819D01*
X119668095Y-56304819D02*
X120001428Y-57019104D01*
X120001428Y-57019104D02*
X120334761Y-56304819D01*
X120334761Y-56304819D02*
X120334761Y-57304819D01*
X120715714Y-56304819D02*
X121382380Y-57304819D01*
X121382380Y-56304819D02*
X120715714Y-57304819D01*
X122287142Y-57304819D02*
X121715714Y-57304819D01*
X122001428Y-57304819D02*
X122001428Y-56304819D01*
X122001428Y-56304819D02*
X121906190Y-56447676D01*
X121906190Y-56447676D02*
X121810952Y-56542914D01*
X121810952Y-56542914D02*
X121715714Y-56590533D01*
X123144285Y-56638152D02*
X123144285Y-57304819D01*
X122906190Y-56257200D02*
X122668095Y-56971485D01*
X122668095Y-56971485D02*
X123287142Y-56971485D01*
X105811905Y-94754819D02*
X105811905Y-93754819D01*
X105811905Y-93754819D02*
X106050000Y-93754819D01*
X106050000Y-93754819D02*
X106192857Y-93802438D01*
X106192857Y-93802438D02*
X106288095Y-93897676D01*
X106288095Y-93897676D02*
X106335714Y-93992914D01*
X106335714Y-93992914D02*
X106383333Y-94183390D01*
X106383333Y-94183390D02*
X106383333Y-94326247D01*
X106383333Y-94326247D02*
X106335714Y-94516723D01*
X106335714Y-94516723D02*
X106288095Y-94611961D01*
X106288095Y-94611961D02*
X106192857Y-94707200D01*
X106192857Y-94707200D02*
X106050000Y-94754819D01*
X106050000Y-94754819D02*
X105811905Y-94754819D01*
X106954762Y-94183390D02*
X106859524Y-94135771D01*
X106859524Y-94135771D02*
X106811905Y-94088152D01*
X106811905Y-94088152D02*
X106764286Y-93992914D01*
X106764286Y-93992914D02*
X106764286Y-93945295D01*
X106764286Y-93945295D02*
X106811905Y-93850057D01*
X106811905Y-93850057D02*
X106859524Y-93802438D01*
X106859524Y-93802438D02*
X106954762Y-93754819D01*
X106954762Y-93754819D02*
X107145238Y-93754819D01*
X107145238Y-93754819D02*
X107240476Y-93802438D01*
X107240476Y-93802438D02*
X107288095Y-93850057D01*
X107288095Y-93850057D02*
X107335714Y-93945295D01*
X107335714Y-93945295D02*
X107335714Y-93992914D01*
X107335714Y-93992914D02*
X107288095Y-94088152D01*
X107288095Y-94088152D02*
X107240476Y-94135771D01*
X107240476Y-94135771D02*
X107145238Y-94183390D01*
X107145238Y-94183390D02*
X106954762Y-94183390D01*
X106954762Y-94183390D02*
X106859524Y-94231009D01*
X106859524Y-94231009D02*
X106811905Y-94278628D01*
X106811905Y-94278628D02*
X106764286Y-94373866D01*
X106764286Y-94373866D02*
X106764286Y-94564342D01*
X106764286Y-94564342D02*
X106811905Y-94659580D01*
X106811905Y-94659580D02*
X106859524Y-94707200D01*
X106859524Y-94707200D02*
X106954762Y-94754819D01*
X106954762Y-94754819D02*
X107145238Y-94754819D01*
X107145238Y-94754819D02*
X107240476Y-94707200D01*
X107240476Y-94707200D02*
X107288095Y-94659580D01*
X107288095Y-94659580D02*
X107335714Y-94564342D01*
X107335714Y-94564342D02*
X107335714Y-94373866D01*
X107335714Y-94373866D02*
X107288095Y-94278628D01*
X107288095Y-94278628D02*
X107240476Y-94231009D01*
X107240476Y-94231009D02*
X107145238Y-94183390D01*
X44044286Y-48404819D02*
X44044286Y-47404819D01*
X44044286Y-47404819D02*
X44377619Y-48119104D01*
X44377619Y-48119104D02*
X44710952Y-47404819D01*
X44710952Y-47404819D02*
X44710952Y-48404819D01*
X45091905Y-47404819D02*
X45758571Y-48404819D01*
X45758571Y-47404819D02*
X45091905Y-48404819D01*
X46663333Y-48404819D02*
X46091905Y-48404819D01*
X46377619Y-48404819D02*
X46377619Y-47404819D01*
X46377619Y-47404819D02*
X46282381Y-47547676D01*
X46282381Y-47547676D02*
X46187143Y-47642914D01*
X46187143Y-47642914D02*
X46091905Y-47690533D01*
X189754813Y-114133334D02*
X190469098Y-114133334D01*
X190469098Y-114133334D02*
X190611955Y-114180953D01*
X190611955Y-114180953D02*
X190707194Y-114276191D01*
X190707194Y-114276191D02*
X190754813Y-114419048D01*
X190754813Y-114419048D02*
X190754813Y-114514286D01*
X190754813Y-113133334D02*
X190754813Y-113704762D01*
X190754813Y-113419048D02*
X189754813Y-113419048D01*
X189754813Y-113419048D02*
X189897670Y-113514286D01*
X189897670Y-113514286D02*
X189992908Y-113609524D01*
X189992908Y-113609524D02*
X190040527Y-113704762D01*
X144135714Y-102754819D02*
X144135714Y-101754819D01*
X144135714Y-101754819D02*
X144373809Y-101754819D01*
X144373809Y-101754819D02*
X144516666Y-101802438D01*
X144516666Y-101802438D02*
X144611904Y-101897676D01*
X144611904Y-101897676D02*
X144659523Y-101992914D01*
X144659523Y-101992914D02*
X144707142Y-102183390D01*
X144707142Y-102183390D02*
X144707142Y-102326247D01*
X144707142Y-102326247D02*
X144659523Y-102516723D01*
X144659523Y-102516723D02*
X144611904Y-102611961D01*
X144611904Y-102611961D02*
X144516666Y-102707200D01*
X144516666Y-102707200D02*
X144373809Y-102754819D01*
X144373809Y-102754819D02*
X144135714Y-102754819D01*
X145659523Y-102754819D02*
X145088095Y-102754819D01*
X145373809Y-102754819D02*
X145373809Y-101754819D01*
X145373809Y-101754819D02*
X145278571Y-101897676D01*
X145278571Y-101897676D02*
X145183333Y-101992914D01*
X145183333Y-101992914D02*
X145088095Y-102040533D01*
X146516666Y-102088152D02*
X146516666Y-102754819D01*
X146278571Y-101707200D02*
X146040476Y-102421485D01*
X146040476Y-102421485D02*
X146659523Y-102421485D01*
X171738095Y-70809819D02*
X171738095Y-71619342D01*
X171738095Y-71619342D02*
X171785714Y-71714580D01*
X171785714Y-71714580D02*
X171833333Y-71762200D01*
X171833333Y-71762200D02*
X171928571Y-71809819D01*
X171928571Y-71809819D02*
X172119047Y-71809819D01*
X172119047Y-71809819D02*
X172214285Y-71762200D01*
X172214285Y-71762200D02*
X172261904Y-71714580D01*
X172261904Y-71714580D02*
X172309523Y-71619342D01*
X172309523Y-71619342D02*
X172309523Y-70809819D01*
X173309523Y-71809819D02*
X172738095Y-71809819D01*
X173023809Y-71809819D02*
X173023809Y-70809819D01*
X173023809Y-70809819D02*
X172928571Y-70952676D01*
X172928571Y-70952676D02*
X172833333Y-71047914D01*
X172833333Y-71047914D02*
X172738095Y-71095533D01*
X184597998Y-75555868D02*
X184517185Y-75582805D01*
X184517185Y-75582805D02*
X184436373Y-75663618D01*
X184436373Y-75663618D02*
X184382498Y-75771367D01*
X184382498Y-75771367D02*
X184382498Y-75879117D01*
X184382498Y-75879117D02*
X184409436Y-75959929D01*
X184409436Y-75959929D02*
X184490248Y-76094616D01*
X184490248Y-76094616D02*
X184571060Y-76175428D01*
X184571060Y-76175428D02*
X184705747Y-76256241D01*
X184705747Y-76256241D02*
X184786560Y-76283178D01*
X184786560Y-76283178D02*
X184894309Y-76283178D01*
X184894309Y-76283178D02*
X185002059Y-76229303D01*
X185002059Y-76229303D02*
X185055934Y-76175428D01*
X185055934Y-76175428D02*
X185109808Y-76067679D01*
X185109808Y-76067679D02*
X185109808Y-76013804D01*
X185109808Y-76013804D02*
X184921247Y-75825242D01*
X184921247Y-75825242D02*
X184813497Y-75932992D01*
X185406120Y-75825242D02*
X184840434Y-75259557D01*
X184840434Y-75259557D02*
X185055934Y-75044057D01*
X185055934Y-75044057D02*
X185136746Y-75017120D01*
X185136746Y-75017120D02*
X185190621Y-75017120D01*
X185190621Y-75017120D02*
X185271433Y-75044057D01*
X185271433Y-75044057D02*
X185352245Y-75124870D01*
X185352245Y-75124870D02*
X185379182Y-75205682D01*
X185379182Y-75205682D02*
X185379182Y-75259557D01*
X185379182Y-75259557D02*
X185352245Y-75340369D01*
X185352245Y-75340369D02*
X185136746Y-75555868D01*
X185433057Y-74774683D02*
X185433057Y-74720809D01*
X185433057Y-74720809D02*
X185459995Y-74639996D01*
X185459995Y-74639996D02*
X185594682Y-74505309D01*
X185594682Y-74505309D02*
X185675494Y-74478372D01*
X185675494Y-74478372D02*
X185729369Y-74478372D01*
X185729369Y-74478372D02*
X185810181Y-74505309D01*
X185810181Y-74505309D02*
X185864056Y-74559184D01*
X185864056Y-74559184D02*
X185917930Y-74666934D01*
X185917930Y-74666934D02*
X185917930Y-75313431D01*
X185917930Y-75313431D02*
X186268117Y-74963245D01*
X185971805Y-74235935D02*
X185971805Y-74182060D01*
X185971805Y-74182060D02*
X185998743Y-74101248D01*
X185998743Y-74101248D02*
X186133430Y-73966561D01*
X186133430Y-73966561D02*
X186214242Y-73939624D01*
X186214242Y-73939624D02*
X186268117Y-73939624D01*
X186268117Y-73939624D02*
X186348929Y-73966561D01*
X186348929Y-73966561D02*
X186402804Y-74020436D01*
X186402804Y-74020436D02*
X186456679Y-74128186D01*
X186456679Y-74128186D02*
X186456679Y-74774683D01*
X186456679Y-74774683D02*
X186806865Y-74424497D01*
X184586435Y-52453431D02*
X184505623Y-52480368D01*
X184505623Y-52480368D02*
X184424811Y-52561180D01*
X184424811Y-52561180D02*
X184370936Y-52668930D01*
X184370936Y-52668930D02*
X184370936Y-52776680D01*
X184370936Y-52776680D02*
X184397873Y-52857492D01*
X184397873Y-52857492D02*
X184478685Y-52992179D01*
X184478685Y-52992179D02*
X184559498Y-53072991D01*
X184559498Y-53072991D02*
X184694185Y-53153803D01*
X184694185Y-53153803D02*
X184774997Y-53180741D01*
X184774997Y-53180741D02*
X184882746Y-53180741D01*
X184882746Y-53180741D02*
X184990496Y-53126866D01*
X184990496Y-53126866D02*
X185044371Y-53072991D01*
X185044371Y-53072991D02*
X185098246Y-52965241D01*
X185098246Y-52965241D02*
X185098246Y-52911367D01*
X185098246Y-52911367D02*
X184909684Y-52722805D01*
X184909684Y-52722805D02*
X184801934Y-52830554D01*
X185394557Y-52722805D02*
X184828872Y-52157119D01*
X184828872Y-52157119D02*
X185717806Y-52399556D01*
X185717806Y-52399556D02*
X185152120Y-51833871D01*
X185987180Y-52130182D02*
X185421494Y-51564497D01*
X185421494Y-51564497D02*
X185556181Y-51429810D01*
X185556181Y-51429810D02*
X185663931Y-51375935D01*
X185663931Y-51375935D02*
X185771680Y-51375935D01*
X185771680Y-51375935D02*
X185852493Y-51402872D01*
X185852493Y-51402872D02*
X185987180Y-51483685D01*
X185987180Y-51483685D02*
X186067992Y-51564497D01*
X186067992Y-51564497D02*
X186148804Y-51699184D01*
X186148804Y-51699184D02*
X186175741Y-51779996D01*
X186175741Y-51779996D02*
X186175741Y-51887746D01*
X186175741Y-51887746D02*
X186121867Y-51995495D01*
X186121867Y-51995495D02*
X185987180Y-52130182D01*
X158986435Y-77853431D02*
X158905623Y-77880368D01*
X158905623Y-77880368D02*
X158824811Y-77961180D01*
X158824811Y-77961180D02*
X158770936Y-78068930D01*
X158770936Y-78068930D02*
X158770936Y-78176680D01*
X158770936Y-78176680D02*
X158797873Y-78257492D01*
X158797873Y-78257492D02*
X158878685Y-78392179D01*
X158878685Y-78392179D02*
X158959498Y-78472991D01*
X158959498Y-78472991D02*
X159094185Y-78553803D01*
X159094185Y-78553803D02*
X159174997Y-78580741D01*
X159174997Y-78580741D02*
X159282746Y-78580741D01*
X159282746Y-78580741D02*
X159390496Y-78526866D01*
X159390496Y-78526866D02*
X159444371Y-78472991D01*
X159444371Y-78472991D02*
X159498246Y-78365241D01*
X159498246Y-78365241D02*
X159498246Y-78311367D01*
X159498246Y-78311367D02*
X159309684Y-78122805D01*
X159309684Y-78122805D02*
X159201934Y-78230554D01*
X159794557Y-78122805D02*
X159228872Y-77557119D01*
X159228872Y-77557119D02*
X160117806Y-77799556D01*
X160117806Y-77799556D02*
X159552120Y-77233871D01*
X160387180Y-77530182D02*
X159821494Y-76964497D01*
X159821494Y-76964497D02*
X159956181Y-76829810D01*
X159956181Y-76829810D02*
X160063931Y-76775935D01*
X160063931Y-76775935D02*
X160171680Y-76775935D01*
X160171680Y-76775935D02*
X160252493Y-76802872D01*
X160252493Y-76802872D02*
X160387180Y-76883685D01*
X160387180Y-76883685D02*
X160467992Y-76964497D01*
X160467992Y-76964497D02*
X160548804Y-77099184D01*
X160548804Y-77099184D02*
X160575741Y-77179996D01*
X160575741Y-77179996D02*
X160575741Y-77287746D01*
X160575741Y-77287746D02*
X160521867Y-77395495D01*
X160521867Y-77395495D02*
X160387180Y-77530182D01*
X159013372Y-72746494D02*
X158932560Y-72773431D01*
X158932560Y-72773431D02*
X158851748Y-72854243D01*
X158851748Y-72854243D02*
X158797873Y-72961993D01*
X158797873Y-72961993D02*
X158797873Y-73069742D01*
X158797873Y-73069742D02*
X158824810Y-73150555D01*
X158824810Y-73150555D02*
X158905623Y-73285242D01*
X158905623Y-73285242D02*
X158986435Y-73366054D01*
X158986435Y-73366054D02*
X159121122Y-73446866D01*
X159121122Y-73446866D02*
X159201934Y-73473803D01*
X159201934Y-73473803D02*
X159309684Y-73473803D01*
X159309684Y-73473803D02*
X159417433Y-73419929D01*
X159417433Y-73419929D02*
X159471308Y-73366054D01*
X159471308Y-73366054D02*
X159525183Y-73258304D01*
X159525183Y-73258304D02*
X159525183Y-73204429D01*
X159525183Y-73204429D02*
X159336621Y-73015868D01*
X159336621Y-73015868D02*
X159228871Y-73123617D01*
X159821494Y-73015868D02*
X159255809Y-72450182D01*
X159255809Y-72450182D02*
X159471308Y-72234683D01*
X159471308Y-72234683D02*
X159552120Y-72207746D01*
X159552120Y-72207746D02*
X159605995Y-72207746D01*
X159605995Y-72207746D02*
X159686807Y-72234683D01*
X159686807Y-72234683D02*
X159767619Y-72315495D01*
X159767619Y-72315495D02*
X159794557Y-72396307D01*
X159794557Y-72396307D02*
X159794557Y-72450182D01*
X159794557Y-72450182D02*
X159767619Y-72530994D01*
X159767619Y-72530994D02*
X159552120Y-72746494D01*
X160144743Y-72046121D02*
X160063931Y-72073059D01*
X160063931Y-72073059D02*
X160010056Y-72073059D01*
X160010056Y-72073059D02*
X159929244Y-72046121D01*
X159929244Y-72046121D02*
X159902306Y-72019184D01*
X159902306Y-72019184D02*
X159875369Y-71938372D01*
X159875369Y-71938372D02*
X159875369Y-71884497D01*
X159875369Y-71884497D02*
X159902306Y-71803685D01*
X159902306Y-71803685D02*
X160010056Y-71695935D01*
X160010056Y-71695935D02*
X160090868Y-71668998D01*
X160090868Y-71668998D02*
X160144743Y-71668998D01*
X160144743Y-71668998D02*
X160225555Y-71695935D01*
X160225555Y-71695935D02*
X160252493Y-71722872D01*
X160252493Y-71722872D02*
X160279430Y-71803685D01*
X160279430Y-71803685D02*
X160279430Y-71857559D01*
X160279430Y-71857559D02*
X160252493Y-71938372D01*
X160252493Y-71938372D02*
X160144743Y-72046121D01*
X160144743Y-72046121D02*
X160117806Y-72126933D01*
X160117806Y-72126933D02*
X160117806Y-72180808D01*
X160117806Y-72180808D02*
X160144743Y-72261620D01*
X160144743Y-72261620D02*
X160252493Y-72369370D01*
X160252493Y-72369370D02*
X160333305Y-72396307D01*
X160333305Y-72396307D02*
X160387180Y-72396307D01*
X160387180Y-72396307D02*
X160467992Y-72369370D01*
X160467992Y-72369370D02*
X160575741Y-72261620D01*
X160575741Y-72261620D02*
X160602679Y-72180808D01*
X160602679Y-72180808D02*
X160602679Y-72126933D01*
X160602679Y-72126933D02*
X160575741Y-72046121D01*
X160575741Y-72046121D02*
X160467992Y-71938372D01*
X160467992Y-71938372D02*
X160387180Y-71911434D01*
X160387180Y-71911434D02*
X160333305Y-71911434D01*
X160333305Y-71911434D02*
X160252493Y-71938372D01*
X184597998Y-83175868D02*
X184517185Y-83202805D01*
X184517185Y-83202805D02*
X184436373Y-83283618D01*
X184436373Y-83283618D02*
X184382498Y-83391367D01*
X184382498Y-83391367D02*
X184382498Y-83499117D01*
X184382498Y-83499117D02*
X184409436Y-83579929D01*
X184409436Y-83579929D02*
X184490248Y-83714616D01*
X184490248Y-83714616D02*
X184571060Y-83795428D01*
X184571060Y-83795428D02*
X184705747Y-83876241D01*
X184705747Y-83876241D02*
X184786560Y-83903178D01*
X184786560Y-83903178D02*
X184894309Y-83903178D01*
X184894309Y-83903178D02*
X185002059Y-83849303D01*
X185002059Y-83849303D02*
X185055934Y-83795428D01*
X185055934Y-83795428D02*
X185109808Y-83687679D01*
X185109808Y-83687679D02*
X185109808Y-83633804D01*
X185109808Y-83633804D02*
X184921247Y-83445242D01*
X184921247Y-83445242D02*
X184813497Y-83552992D01*
X185406120Y-83445242D02*
X184840434Y-82879557D01*
X184840434Y-82879557D02*
X185055934Y-82664057D01*
X185055934Y-82664057D02*
X185136746Y-82637120D01*
X185136746Y-82637120D02*
X185190621Y-82637120D01*
X185190621Y-82637120D02*
X185271433Y-82664057D01*
X185271433Y-82664057D02*
X185352245Y-82744870D01*
X185352245Y-82744870D02*
X185379182Y-82825682D01*
X185379182Y-82825682D02*
X185379182Y-82879557D01*
X185379182Y-82879557D02*
X185352245Y-82960369D01*
X185352245Y-82960369D02*
X185136746Y-83175868D01*
X185433057Y-82394683D02*
X185433057Y-82340809D01*
X185433057Y-82340809D02*
X185459995Y-82259996D01*
X185459995Y-82259996D02*
X185594682Y-82125309D01*
X185594682Y-82125309D02*
X185675494Y-82098372D01*
X185675494Y-82098372D02*
X185729369Y-82098372D01*
X185729369Y-82098372D02*
X185810181Y-82125309D01*
X185810181Y-82125309D02*
X185864056Y-82179184D01*
X185864056Y-82179184D02*
X185917930Y-82286934D01*
X185917930Y-82286934D02*
X185917930Y-82933431D01*
X185917930Y-82933431D02*
X186268117Y-82583245D01*
X186052618Y-81667373D02*
X186106492Y-81613499D01*
X186106492Y-81613499D02*
X186187305Y-81586561D01*
X186187305Y-81586561D02*
X186241179Y-81586561D01*
X186241179Y-81586561D02*
X186321992Y-81613499D01*
X186321992Y-81613499D02*
X186456679Y-81694311D01*
X186456679Y-81694311D02*
X186591366Y-81828998D01*
X186591366Y-81828998D02*
X186672178Y-81963685D01*
X186672178Y-81963685D02*
X186699115Y-82044497D01*
X186699115Y-82044497D02*
X186699115Y-82098372D01*
X186699115Y-82098372D02*
X186672178Y-82179184D01*
X186672178Y-82179184D02*
X186618303Y-82233059D01*
X186618303Y-82233059D02*
X186537491Y-82259996D01*
X186537491Y-82259996D02*
X186483616Y-82259996D01*
X186483616Y-82259996D02*
X186402804Y-82233059D01*
X186402804Y-82233059D02*
X186268117Y-82152247D01*
X186268117Y-82152247D02*
X186133430Y-82017560D01*
X186133430Y-82017560D02*
X186052618Y-81882873D01*
X186052618Y-81882873D02*
X186025680Y-81802060D01*
X186025680Y-81802060D02*
X186025680Y-81748186D01*
X186025680Y-81748186D02*
X186052618Y-81667373D01*
X158986435Y-52453431D02*
X158905623Y-52480368D01*
X158905623Y-52480368D02*
X158824811Y-52561180D01*
X158824811Y-52561180D02*
X158770936Y-52668930D01*
X158770936Y-52668930D02*
X158770936Y-52776680D01*
X158770936Y-52776680D02*
X158797873Y-52857492D01*
X158797873Y-52857492D02*
X158878685Y-52992179D01*
X158878685Y-52992179D02*
X158959498Y-53072991D01*
X158959498Y-53072991D02*
X159094185Y-53153803D01*
X159094185Y-53153803D02*
X159174997Y-53180741D01*
X159174997Y-53180741D02*
X159282746Y-53180741D01*
X159282746Y-53180741D02*
X159390496Y-53126866D01*
X159390496Y-53126866D02*
X159444371Y-53072991D01*
X159444371Y-53072991D02*
X159498246Y-52965241D01*
X159498246Y-52965241D02*
X159498246Y-52911367D01*
X159498246Y-52911367D02*
X159309684Y-52722805D01*
X159309684Y-52722805D02*
X159201934Y-52830554D01*
X159794557Y-52722805D02*
X159228872Y-52157119D01*
X159228872Y-52157119D02*
X160117806Y-52399556D01*
X160117806Y-52399556D02*
X159552120Y-51833871D01*
X160387180Y-52130182D02*
X159821494Y-51564497D01*
X159821494Y-51564497D02*
X159956181Y-51429810D01*
X159956181Y-51429810D02*
X160063931Y-51375935D01*
X160063931Y-51375935D02*
X160171680Y-51375935D01*
X160171680Y-51375935D02*
X160252493Y-51402872D01*
X160252493Y-51402872D02*
X160387180Y-51483685D01*
X160387180Y-51483685D02*
X160467992Y-51564497D01*
X160467992Y-51564497D02*
X160548804Y-51699184D01*
X160548804Y-51699184D02*
X160575741Y-51779996D01*
X160575741Y-51779996D02*
X160575741Y-51887746D01*
X160575741Y-51887746D02*
X160521867Y-51995495D01*
X160521867Y-51995495D02*
X160387180Y-52130182D01*
X184743998Y-87790868D02*
X184663185Y-87817805D01*
X184663185Y-87817805D02*
X184582373Y-87898618D01*
X184582373Y-87898618D02*
X184528498Y-88006367D01*
X184528498Y-88006367D02*
X184528498Y-88114117D01*
X184528498Y-88114117D02*
X184555436Y-88194929D01*
X184555436Y-88194929D02*
X184636248Y-88329616D01*
X184636248Y-88329616D02*
X184717060Y-88410428D01*
X184717060Y-88410428D02*
X184851747Y-88491241D01*
X184851747Y-88491241D02*
X184932560Y-88518178D01*
X184932560Y-88518178D02*
X185040309Y-88518178D01*
X185040309Y-88518178D02*
X185148059Y-88464303D01*
X185148059Y-88464303D02*
X185201934Y-88410428D01*
X185201934Y-88410428D02*
X185255808Y-88302679D01*
X185255808Y-88302679D02*
X185255808Y-88248804D01*
X185255808Y-88248804D02*
X185067247Y-88060242D01*
X185067247Y-88060242D02*
X184959497Y-88167992D01*
X185552120Y-88060242D02*
X184986434Y-87494557D01*
X184986434Y-87494557D02*
X185201934Y-87279057D01*
X185201934Y-87279057D02*
X185282746Y-87252120D01*
X185282746Y-87252120D02*
X185336621Y-87252120D01*
X185336621Y-87252120D02*
X185417433Y-87279057D01*
X185417433Y-87279057D02*
X185498245Y-87359870D01*
X185498245Y-87359870D02*
X185525182Y-87440682D01*
X185525182Y-87440682D02*
X185525182Y-87494557D01*
X185525182Y-87494557D02*
X185498245Y-87575369D01*
X185498245Y-87575369D02*
X185282746Y-87790868D01*
X186414117Y-87198245D02*
X186090868Y-87521494D01*
X186252492Y-87359870D02*
X185686807Y-86794184D01*
X185686807Y-86794184D02*
X185713744Y-86928871D01*
X185713744Y-86928871D02*
X185713744Y-87036621D01*
X185713744Y-87036621D02*
X185686807Y-87117433D01*
X186414117Y-86551747D02*
X186333305Y-86578685D01*
X186333305Y-86578685D02*
X186279430Y-86578685D01*
X186279430Y-86578685D02*
X186198618Y-86551747D01*
X186198618Y-86551747D02*
X186171680Y-86524810D01*
X186171680Y-86524810D02*
X186144743Y-86443998D01*
X186144743Y-86443998D02*
X186144743Y-86390123D01*
X186144743Y-86390123D02*
X186171680Y-86309311D01*
X186171680Y-86309311D02*
X186279430Y-86201561D01*
X186279430Y-86201561D02*
X186360242Y-86174624D01*
X186360242Y-86174624D02*
X186414117Y-86174624D01*
X186414117Y-86174624D02*
X186494929Y-86201561D01*
X186494929Y-86201561D02*
X186521866Y-86228499D01*
X186521866Y-86228499D02*
X186548804Y-86309311D01*
X186548804Y-86309311D02*
X186548804Y-86363186D01*
X186548804Y-86363186D02*
X186521866Y-86443998D01*
X186521866Y-86443998D02*
X186414117Y-86551747D01*
X186414117Y-86551747D02*
X186387179Y-86632560D01*
X186387179Y-86632560D02*
X186387179Y-86686434D01*
X186387179Y-86686434D02*
X186414117Y-86767247D01*
X186414117Y-86767247D02*
X186521866Y-86874996D01*
X186521866Y-86874996D02*
X186602679Y-86901934D01*
X186602679Y-86901934D02*
X186656553Y-86901934D01*
X186656553Y-86901934D02*
X186737366Y-86874996D01*
X186737366Y-86874996D02*
X186845115Y-86767247D01*
X186845115Y-86767247D02*
X186872053Y-86686434D01*
X186872053Y-86686434D02*
X186872053Y-86632560D01*
X186872053Y-86632560D02*
X186845115Y-86551747D01*
X186845115Y-86551747D02*
X186737366Y-86443998D01*
X186737366Y-86443998D02*
X186656553Y-86417060D01*
X186656553Y-86417060D02*
X186602679Y-86417060D01*
X186602679Y-86417060D02*
X186521866Y-86443998D01*
X184597998Y-62601868D02*
X184517185Y-62628805D01*
X184517185Y-62628805D02*
X184436373Y-62709618D01*
X184436373Y-62709618D02*
X184382498Y-62817367D01*
X184382498Y-62817367D02*
X184382498Y-62925117D01*
X184382498Y-62925117D02*
X184409436Y-63005929D01*
X184409436Y-63005929D02*
X184490248Y-63140616D01*
X184490248Y-63140616D02*
X184571060Y-63221428D01*
X184571060Y-63221428D02*
X184705747Y-63302241D01*
X184705747Y-63302241D02*
X184786560Y-63329178D01*
X184786560Y-63329178D02*
X184894309Y-63329178D01*
X184894309Y-63329178D02*
X185002059Y-63275303D01*
X185002059Y-63275303D02*
X185055934Y-63221428D01*
X185055934Y-63221428D02*
X185109808Y-63113679D01*
X185109808Y-63113679D02*
X185109808Y-63059804D01*
X185109808Y-63059804D02*
X184921247Y-62871242D01*
X184921247Y-62871242D02*
X184813497Y-62978992D01*
X185406120Y-62871242D02*
X184840434Y-62305557D01*
X184840434Y-62305557D02*
X185055934Y-62090057D01*
X185055934Y-62090057D02*
X185136746Y-62063120D01*
X185136746Y-62063120D02*
X185190621Y-62063120D01*
X185190621Y-62063120D02*
X185271433Y-62090057D01*
X185271433Y-62090057D02*
X185352245Y-62170870D01*
X185352245Y-62170870D02*
X185379182Y-62251682D01*
X185379182Y-62251682D02*
X185379182Y-62305557D01*
X185379182Y-62305557D02*
X185352245Y-62386369D01*
X185352245Y-62386369D02*
X185136746Y-62601868D01*
X185433057Y-61820683D02*
X185433057Y-61766809D01*
X185433057Y-61766809D02*
X185459995Y-61685996D01*
X185459995Y-61685996D02*
X185594682Y-61551309D01*
X185594682Y-61551309D02*
X185675494Y-61524372D01*
X185675494Y-61524372D02*
X185729369Y-61524372D01*
X185729369Y-61524372D02*
X185810181Y-61551309D01*
X185810181Y-61551309D02*
X185864056Y-61605184D01*
X185864056Y-61605184D02*
X185917930Y-61712934D01*
X185917930Y-61712934D02*
X185917930Y-62359431D01*
X185917930Y-62359431D02*
X186268117Y-62009245D01*
X186268117Y-61362747D02*
X186187305Y-61389685D01*
X186187305Y-61389685D02*
X186133430Y-61389685D01*
X186133430Y-61389685D02*
X186052618Y-61362747D01*
X186052618Y-61362747D02*
X186025680Y-61335810D01*
X186025680Y-61335810D02*
X185998743Y-61254998D01*
X185998743Y-61254998D02*
X185998743Y-61201123D01*
X185998743Y-61201123D02*
X186025680Y-61120311D01*
X186025680Y-61120311D02*
X186133430Y-61012561D01*
X186133430Y-61012561D02*
X186214242Y-60985624D01*
X186214242Y-60985624D02*
X186268117Y-60985624D01*
X186268117Y-60985624D02*
X186348929Y-61012561D01*
X186348929Y-61012561D02*
X186375866Y-61039499D01*
X186375866Y-61039499D02*
X186402804Y-61120311D01*
X186402804Y-61120311D02*
X186402804Y-61174186D01*
X186402804Y-61174186D02*
X186375866Y-61254998D01*
X186375866Y-61254998D02*
X186268117Y-61362747D01*
X186268117Y-61362747D02*
X186241179Y-61443560D01*
X186241179Y-61443560D02*
X186241179Y-61497434D01*
X186241179Y-61497434D02*
X186268117Y-61578247D01*
X186268117Y-61578247D02*
X186375866Y-61685996D01*
X186375866Y-61685996D02*
X186456679Y-61712934D01*
X186456679Y-61712934D02*
X186510553Y-61712934D01*
X186510553Y-61712934D02*
X186591366Y-61685996D01*
X186591366Y-61685996D02*
X186699115Y-61578247D01*
X186699115Y-61578247D02*
X186726053Y-61497434D01*
X186726053Y-61497434D02*
X186726053Y-61443560D01*
X186726053Y-61443560D02*
X186699115Y-61362747D01*
X186699115Y-61362747D02*
X186591366Y-61254998D01*
X186591366Y-61254998D02*
X186510553Y-61228060D01*
X186510553Y-61228060D02*
X186456679Y-61228060D01*
X186456679Y-61228060D02*
X186375866Y-61254998D01*
X159013372Y-67666494D02*
X158932560Y-67693431D01*
X158932560Y-67693431D02*
X158851748Y-67774243D01*
X158851748Y-67774243D02*
X158797873Y-67881993D01*
X158797873Y-67881993D02*
X158797873Y-67989742D01*
X158797873Y-67989742D02*
X158824810Y-68070555D01*
X158824810Y-68070555D02*
X158905623Y-68205242D01*
X158905623Y-68205242D02*
X158986435Y-68286054D01*
X158986435Y-68286054D02*
X159121122Y-68366866D01*
X159121122Y-68366866D02*
X159201934Y-68393803D01*
X159201934Y-68393803D02*
X159309684Y-68393803D01*
X159309684Y-68393803D02*
X159417433Y-68339929D01*
X159417433Y-68339929D02*
X159471308Y-68286054D01*
X159471308Y-68286054D02*
X159525183Y-68178304D01*
X159525183Y-68178304D02*
X159525183Y-68124429D01*
X159525183Y-68124429D02*
X159336621Y-67935868D01*
X159336621Y-67935868D02*
X159228871Y-68043617D01*
X159821494Y-67935868D02*
X159255809Y-67370182D01*
X159255809Y-67370182D02*
X159471308Y-67154683D01*
X159471308Y-67154683D02*
X159552120Y-67127746D01*
X159552120Y-67127746D02*
X159605995Y-67127746D01*
X159605995Y-67127746D02*
X159686807Y-67154683D01*
X159686807Y-67154683D02*
X159767619Y-67235495D01*
X159767619Y-67235495D02*
X159794557Y-67316307D01*
X159794557Y-67316307D02*
X159794557Y-67370182D01*
X159794557Y-67370182D02*
X159767619Y-67450994D01*
X159767619Y-67450994D02*
X159552120Y-67666494D01*
X160063931Y-66562060D02*
X159956181Y-66669810D01*
X159956181Y-66669810D02*
X159929244Y-66750622D01*
X159929244Y-66750622D02*
X159929244Y-66804497D01*
X159929244Y-66804497D02*
X159956181Y-66939184D01*
X159956181Y-66939184D02*
X160036993Y-67073871D01*
X160036993Y-67073871D02*
X160252493Y-67289370D01*
X160252493Y-67289370D02*
X160333305Y-67316307D01*
X160333305Y-67316307D02*
X160387180Y-67316307D01*
X160387180Y-67316307D02*
X160467992Y-67289370D01*
X160467992Y-67289370D02*
X160575741Y-67181620D01*
X160575741Y-67181620D02*
X160602679Y-67100808D01*
X160602679Y-67100808D02*
X160602679Y-67046933D01*
X160602679Y-67046933D02*
X160575741Y-66966121D01*
X160575741Y-66966121D02*
X160441054Y-66831434D01*
X160441054Y-66831434D02*
X160360242Y-66804497D01*
X160360242Y-66804497D02*
X160306367Y-66804497D01*
X160306367Y-66804497D02*
X160225555Y-66831434D01*
X160225555Y-66831434D02*
X160117806Y-66939184D01*
X160117806Y-66939184D02*
X160090868Y-67019996D01*
X160090868Y-67019996D02*
X160090868Y-67073871D01*
X160090868Y-67073871D02*
X160117806Y-67154683D01*
X184597998Y-93335868D02*
X184517185Y-93362805D01*
X184517185Y-93362805D02*
X184436373Y-93443618D01*
X184436373Y-93443618D02*
X184382498Y-93551367D01*
X184382498Y-93551367D02*
X184382498Y-93659117D01*
X184382498Y-93659117D02*
X184409436Y-93739929D01*
X184409436Y-93739929D02*
X184490248Y-93874616D01*
X184490248Y-93874616D02*
X184571060Y-93955428D01*
X184571060Y-93955428D02*
X184705747Y-94036241D01*
X184705747Y-94036241D02*
X184786560Y-94063178D01*
X184786560Y-94063178D02*
X184894309Y-94063178D01*
X184894309Y-94063178D02*
X185002059Y-94009303D01*
X185002059Y-94009303D02*
X185055934Y-93955428D01*
X185055934Y-93955428D02*
X185109808Y-93847679D01*
X185109808Y-93847679D02*
X185109808Y-93793804D01*
X185109808Y-93793804D02*
X184921247Y-93605242D01*
X184921247Y-93605242D02*
X184813497Y-93712992D01*
X185406120Y-93605242D02*
X184840434Y-93039557D01*
X184840434Y-93039557D02*
X185055934Y-92824057D01*
X185055934Y-92824057D02*
X185136746Y-92797120D01*
X185136746Y-92797120D02*
X185190621Y-92797120D01*
X185190621Y-92797120D02*
X185271433Y-92824057D01*
X185271433Y-92824057D02*
X185352245Y-92904870D01*
X185352245Y-92904870D02*
X185379182Y-92985682D01*
X185379182Y-92985682D02*
X185379182Y-93039557D01*
X185379182Y-93039557D02*
X185352245Y-93120369D01*
X185352245Y-93120369D02*
X185136746Y-93335868D01*
X186268117Y-92743245D02*
X185944868Y-93066494D01*
X186106492Y-92904870D02*
X185540807Y-92339184D01*
X185540807Y-92339184D02*
X185567744Y-92473871D01*
X185567744Y-92473871D02*
X185567744Y-92581621D01*
X185567744Y-92581621D02*
X185540807Y-92662433D01*
X185890993Y-91988998D02*
X186268117Y-91611874D01*
X186268117Y-91611874D02*
X186591366Y-92419996D01*
X159013372Y-47346494D02*
X158932560Y-47373431D01*
X158932560Y-47373431D02*
X158851748Y-47454243D01*
X158851748Y-47454243D02*
X158797873Y-47561993D01*
X158797873Y-47561993D02*
X158797873Y-47669742D01*
X158797873Y-47669742D02*
X158824810Y-47750555D01*
X158824810Y-47750555D02*
X158905623Y-47885242D01*
X158905623Y-47885242D02*
X158986435Y-47966054D01*
X158986435Y-47966054D02*
X159121122Y-48046866D01*
X159121122Y-48046866D02*
X159201934Y-48073803D01*
X159201934Y-48073803D02*
X159309684Y-48073803D01*
X159309684Y-48073803D02*
X159417433Y-48019929D01*
X159417433Y-48019929D02*
X159471308Y-47966054D01*
X159471308Y-47966054D02*
X159525183Y-47858304D01*
X159525183Y-47858304D02*
X159525183Y-47804429D01*
X159525183Y-47804429D02*
X159336621Y-47615868D01*
X159336621Y-47615868D02*
X159228871Y-47723617D01*
X159821494Y-47615868D02*
X159255809Y-47050182D01*
X159255809Y-47050182D02*
X159471308Y-46834683D01*
X159471308Y-46834683D02*
X159552120Y-46807746D01*
X159552120Y-46807746D02*
X159605995Y-46807746D01*
X159605995Y-46807746D02*
X159686807Y-46834683D01*
X159686807Y-46834683D02*
X159767619Y-46915495D01*
X159767619Y-46915495D02*
X159794557Y-46996307D01*
X159794557Y-46996307D02*
X159794557Y-47050182D01*
X159794557Y-47050182D02*
X159767619Y-47130994D01*
X159767619Y-47130994D02*
X159552120Y-47346494D01*
X159929244Y-46376747D02*
X159983119Y-46322872D01*
X159983119Y-46322872D02*
X160063931Y-46295935D01*
X160063931Y-46295935D02*
X160117806Y-46295935D01*
X160117806Y-46295935D02*
X160198618Y-46322872D01*
X160198618Y-46322872D02*
X160333305Y-46403685D01*
X160333305Y-46403685D02*
X160467992Y-46538372D01*
X160467992Y-46538372D02*
X160548804Y-46673059D01*
X160548804Y-46673059D02*
X160575741Y-46753871D01*
X160575741Y-46753871D02*
X160575741Y-46807746D01*
X160575741Y-46807746D02*
X160548804Y-46888558D01*
X160548804Y-46888558D02*
X160494929Y-46942433D01*
X160494929Y-46942433D02*
X160414117Y-46969370D01*
X160414117Y-46969370D02*
X160360242Y-46969370D01*
X160360242Y-46969370D02*
X160279430Y-46942433D01*
X160279430Y-46942433D02*
X160144743Y-46861620D01*
X160144743Y-46861620D02*
X160010056Y-46726933D01*
X160010056Y-46726933D02*
X159929244Y-46592246D01*
X159929244Y-46592246D02*
X159902306Y-46511434D01*
X159902306Y-46511434D02*
X159902306Y-46457559D01*
X159902306Y-46457559D02*
X159929244Y-46376747D01*
X158343998Y-85715868D02*
X158263185Y-85742805D01*
X158263185Y-85742805D02*
X158182373Y-85823618D01*
X158182373Y-85823618D02*
X158128498Y-85931367D01*
X158128498Y-85931367D02*
X158128498Y-86039117D01*
X158128498Y-86039117D02*
X158155436Y-86119929D01*
X158155436Y-86119929D02*
X158236248Y-86254616D01*
X158236248Y-86254616D02*
X158317060Y-86335428D01*
X158317060Y-86335428D02*
X158451747Y-86416241D01*
X158451747Y-86416241D02*
X158532560Y-86443178D01*
X158532560Y-86443178D02*
X158640309Y-86443178D01*
X158640309Y-86443178D02*
X158748059Y-86389303D01*
X158748059Y-86389303D02*
X158801934Y-86335428D01*
X158801934Y-86335428D02*
X158855808Y-86227679D01*
X158855808Y-86227679D02*
X158855808Y-86173804D01*
X158855808Y-86173804D02*
X158667247Y-85985242D01*
X158667247Y-85985242D02*
X158559497Y-86092992D01*
X159152120Y-85985242D02*
X158586434Y-85419557D01*
X158586434Y-85419557D02*
X158801934Y-85204057D01*
X158801934Y-85204057D02*
X158882746Y-85177120D01*
X158882746Y-85177120D02*
X158936621Y-85177120D01*
X158936621Y-85177120D02*
X159017433Y-85204057D01*
X159017433Y-85204057D02*
X159098245Y-85284870D01*
X159098245Y-85284870D02*
X159125182Y-85365682D01*
X159125182Y-85365682D02*
X159125182Y-85419557D01*
X159125182Y-85419557D02*
X159098245Y-85500369D01*
X159098245Y-85500369D02*
X158882746Y-85715868D01*
X160014117Y-85123245D02*
X159690868Y-85446494D01*
X159852492Y-85284870D02*
X159286807Y-84719184D01*
X159286807Y-84719184D02*
X159313744Y-84853871D01*
X159313744Y-84853871D02*
X159313744Y-84961621D01*
X159313744Y-84961621D02*
X159286807Y-85042433D01*
X159717805Y-84395935D02*
X159717805Y-84342060D01*
X159717805Y-84342060D02*
X159744743Y-84261248D01*
X159744743Y-84261248D02*
X159879430Y-84126561D01*
X159879430Y-84126561D02*
X159960242Y-84099624D01*
X159960242Y-84099624D02*
X160014117Y-84099624D01*
X160014117Y-84099624D02*
X160094929Y-84126561D01*
X160094929Y-84126561D02*
X160148804Y-84180436D01*
X160148804Y-84180436D02*
X160202679Y-84288186D01*
X160202679Y-84288186D02*
X160202679Y-84934683D01*
X160202679Y-84934683D02*
X160552865Y-84584497D01*
X158913372Y-49876494D02*
X158832560Y-49903431D01*
X158832560Y-49903431D02*
X158751748Y-49984243D01*
X158751748Y-49984243D02*
X158697873Y-50091993D01*
X158697873Y-50091993D02*
X158697873Y-50199742D01*
X158697873Y-50199742D02*
X158724810Y-50280555D01*
X158724810Y-50280555D02*
X158805623Y-50415242D01*
X158805623Y-50415242D02*
X158886435Y-50496054D01*
X158886435Y-50496054D02*
X159021122Y-50576866D01*
X159021122Y-50576866D02*
X159101934Y-50603803D01*
X159101934Y-50603803D02*
X159209684Y-50603803D01*
X159209684Y-50603803D02*
X159317433Y-50549929D01*
X159317433Y-50549929D02*
X159371308Y-50496054D01*
X159371308Y-50496054D02*
X159425183Y-50388304D01*
X159425183Y-50388304D02*
X159425183Y-50334429D01*
X159425183Y-50334429D02*
X159236621Y-50145868D01*
X159236621Y-50145868D02*
X159128871Y-50253617D01*
X159721494Y-50145868D02*
X159155809Y-49580182D01*
X159155809Y-49580182D02*
X159371308Y-49364683D01*
X159371308Y-49364683D02*
X159452120Y-49337746D01*
X159452120Y-49337746D02*
X159505995Y-49337746D01*
X159505995Y-49337746D02*
X159586807Y-49364683D01*
X159586807Y-49364683D02*
X159667619Y-49445495D01*
X159667619Y-49445495D02*
X159694557Y-49526307D01*
X159694557Y-49526307D02*
X159694557Y-49580182D01*
X159694557Y-49580182D02*
X159667619Y-49660994D01*
X159667619Y-49660994D02*
X159452120Y-49876494D01*
X160583491Y-49283871D02*
X160260242Y-49607120D01*
X160421867Y-49445495D02*
X159856181Y-48879810D01*
X159856181Y-48879810D02*
X159883119Y-49014497D01*
X159883119Y-49014497D02*
X159883119Y-49122246D01*
X159883119Y-49122246D02*
X159856181Y-49203059D01*
X158913372Y-54966494D02*
X158832560Y-54993431D01*
X158832560Y-54993431D02*
X158751748Y-55074243D01*
X158751748Y-55074243D02*
X158697873Y-55181993D01*
X158697873Y-55181993D02*
X158697873Y-55289742D01*
X158697873Y-55289742D02*
X158724810Y-55370555D01*
X158724810Y-55370555D02*
X158805623Y-55505242D01*
X158805623Y-55505242D02*
X158886435Y-55586054D01*
X158886435Y-55586054D02*
X159021122Y-55666866D01*
X159021122Y-55666866D02*
X159101934Y-55693803D01*
X159101934Y-55693803D02*
X159209684Y-55693803D01*
X159209684Y-55693803D02*
X159317433Y-55639929D01*
X159317433Y-55639929D02*
X159371308Y-55586054D01*
X159371308Y-55586054D02*
X159425183Y-55478304D01*
X159425183Y-55478304D02*
X159425183Y-55424429D01*
X159425183Y-55424429D02*
X159236621Y-55235868D01*
X159236621Y-55235868D02*
X159128871Y-55343617D01*
X159721494Y-55235868D02*
X159155809Y-54670182D01*
X159155809Y-54670182D02*
X159371308Y-54454683D01*
X159371308Y-54454683D02*
X159452120Y-54427746D01*
X159452120Y-54427746D02*
X159505995Y-54427746D01*
X159505995Y-54427746D02*
X159586807Y-54454683D01*
X159586807Y-54454683D02*
X159667619Y-54535495D01*
X159667619Y-54535495D02*
X159694557Y-54616307D01*
X159694557Y-54616307D02*
X159694557Y-54670182D01*
X159694557Y-54670182D02*
X159667619Y-54750994D01*
X159667619Y-54750994D02*
X159452120Y-54966494D01*
X159748432Y-54185309D02*
X159748432Y-54131434D01*
X159748432Y-54131434D02*
X159775369Y-54050622D01*
X159775369Y-54050622D02*
X159910056Y-53915935D01*
X159910056Y-53915935D02*
X159990868Y-53888998D01*
X159990868Y-53888998D02*
X160044743Y-53888998D01*
X160044743Y-53888998D02*
X160125555Y-53915935D01*
X160125555Y-53915935D02*
X160179430Y-53969810D01*
X160179430Y-53969810D02*
X160233305Y-54077559D01*
X160233305Y-54077559D02*
X160233305Y-54724057D01*
X160233305Y-54724057D02*
X160583491Y-54373871D01*
X184586435Y-77853431D02*
X184505623Y-77880368D01*
X184505623Y-77880368D02*
X184424811Y-77961180D01*
X184424811Y-77961180D02*
X184370936Y-78068930D01*
X184370936Y-78068930D02*
X184370936Y-78176680D01*
X184370936Y-78176680D02*
X184397873Y-78257492D01*
X184397873Y-78257492D02*
X184478685Y-78392179D01*
X184478685Y-78392179D02*
X184559498Y-78472991D01*
X184559498Y-78472991D02*
X184694185Y-78553803D01*
X184694185Y-78553803D02*
X184774997Y-78580741D01*
X184774997Y-78580741D02*
X184882746Y-78580741D01*
X184882746Y-78580741D02*
X184990496Y-78526866D01*
X184990496Y-78526866D02*
X185044371Y-78472991D01*
X185044371Y-78472991D02*
X185098246Y-78365241D01*
X185098246Y-78365241D02*
X185098246Y-78311367D01*
X185098246Y-78311367D02*
X184909684Y-78122805D01*
X184909684Y-78122805D02*
X184801934Y-78230554D01*
X185394557Y-78122805D02*
X184828872Y-77557119D01*
X184828872Y-77557119D02*
X185717806Y-77799556D01*
X185717806Y-77799556D02*
X185152120Y-77233871D01*
X185987180Y-77530182D02*
X185421494Y-76964497D01*
X185421494Y-76964497D02*
X185556181Y-76829810D01*
X185556181Y-76829810D02*
X185663931Y-76775935D01*
X185663931Y-76775935D02*
X185771680Y-76775935D01*
X185771680Y-76775935D02*
X185852493Y-76802872D01*
X185852493Y-76802872D02*
X185987180Y-76883685D01*
X185987180Y-76883685D02*
X186067992Y-76964497D01*
X186067992Y-76964497D02*
X186148804Y-77099184D01*
X186148804Y-77099184D02*
X186175741Y-77179996D01*
X186175741Y-77179996D02*
X186175741Y-77287746D01*
X186175741Y-77287746D02*
X186121867Y-77395495D01*
X186121867Y-77395495D02*
X185987180Y-77530182D01*
X184420749Y-50425242D02*
X185174996Y-50802366D01*
X185174996Y-50802366D02*
X184797873Y-50048118D01*
X185498245Y-50425242D02*
X185605995Y-50371367D01*
X185605995Y-50371367D02*
X185740682Y-50236680D01*
X185740682Y-50236680D02*
X185767619Y-50155868D01*
X185767619Y-50155868D02*
X185767619Y-50101993D01*
X185767619Y-50101993D02*
X185740682Y-50021181D01*
X185740682Y-50021181D02*
X185686807Y-49967306D01*
X185686807Y-49967306D02*
X185605995Y-49940369D01*
X185605995Y-49940369D02*
X185552120Y-49940369D01*
X185552120Y-49940369D02*
X185471308Y-49967306D01*
X185471308Y-49967306D02*
X185336621Y-50048118D01*
X185336621Y-50048118D02*
X185255808Y-50075056D01*
X185255808Y-50075056D02*
X185201934Y-50075056D01*
X185201934Y-50075056D02*
X185121121Y-50048118D01*
X185121121Y-50048118D02*
X185067247Y-49994244D01*
X185067247Y-49994244D02*
X185040309Y-49913431D01*
X185040309Y-49913431D02*
X185040309Y-49859557D01*
X185040309Y-49859557D02*
X185067247Y-49778744D01*
X185067247Y-49778744D02*
X185201934Y-49644057D01*
X185201934Y-49644057D02*
X185309683Y-49590183D01*
X185929244Y-49509370D02*
X186198618Y-49778744D01*
X185444370Y-49401621D02*
X185929244Y-49509370D01*
X185929244Y-49509370D02*
X185821494Y-49024497D01*
X186521866Y-49401621D02*
X186629616Y-49347746D01*
X186629616Y-49347746D02*
X186764303Y-49213059D01*
X186764303Y-49213059D02*
X186791240Y-49132247D01*
X186791240Y-49132247D02*
X186791240Y-49078372D01*
X186791240Y-49078372D02*
X186764303Y-48997560D01*
X186764303Y-48997560D02*
X186710428Y-48943685D01*
X186710428Y-48943685D02*
X186629616Y-48916748D01*
X186629616Y-48916748D02*
X186575741Y-48916748D01*
X186575741Y-48916748D02*
X186494929Y-48943685D01*
X186494929Y-48943685D02*
X186360242Y-49024497D01*
X186360242Y-49024497D02*
X186279430Y-49051435D01*
X186279430Y-49051435D02*
X186225555Y-49051435D01*
X186225555Y-49051435D02*
X186144743Y-49024497D01*
X186144743Y-49024497D02*
X186090868Y-48970622D01*
X186090868Y-48970622D02*
X186063930Y-48889810D01*
X186063930Y-48889810D02*
X186063930Y-48835935D01*
X186063930Y-48835935D02*
X186090868Y-48755123D01*
X186090868Y-48755123D02*
X186225555Y-48620436D01*
X186225555Y-48620436D02*
X186333304Y-48566561D01*
X184655064Y-60889049D02*
X184924438Y-60619675D01*
X184762813Y-61104549D02*
X184385690Y-60350301D01*
X184385690Y-60350301D02*
X185139937Y-60727425D01*
X185328499Y-60538863D02*
X184762813Y-59973178D01*
X184762813Y-59973178D02*
X184897500Y-59838491D01*
X184897500Y-59838491D02*
X185005250Y-59784616D01*
X185005250Y-59784616D02*
X185112999Y-59784616D01*
X185112999Y-59784616D02*
X185193812Y-59811553D01*
X185193812Y-59811553D02*
X185328499Y-59892366D01*
X185328499Y-59892366D02*
X185409311Y-59973178D01*
X185409311Y-59973178D02*
X185490123Y-60107865D01*
X185490123Y-60107865D02*
X185517060Y-60188677D01*
X185517060Y-60188677D02*
X185517060Y-60296427D01*
X185517060Y-60296427D02*
X185463186Y-60404176D01*
X185463186Y-60404176D02*
X185328499Y-60538863D01*
X186163558Y-59596054D02*
X186163558Y-59649929D01*
X186163558Y-59649929D02*
X186109683Y-59757679D01*
X186109683Y-59757679D02*
X186055808Y-59811553D01*
X186055808Y-59811553D02*
X185948059Y-59865428D01*
X185948059Y-59865428D02*
X185840309Y-59865428D01*
X185840309Y-59865428D02*
X185759497Y-59838491D01*
X185759497Y-59838491D02*
X185624810Y-59757679D01*
X185624810Y-59757679D02*
X185543998Y-59676866D01*
X185543998Y-59676866D02*
X185463186Y-59542179D01*
X185463186Y-59542179D02*
X185436248Y-59461367D01*
X185436248Y-59461367D02*
X185436248Y-59353618D01*
X185436248Y-59353618D02*
X185490123Y-59245868D01*
X185490123Y-59245868D02*
X185543998Y-59191993D01*
X185543998Y-59191993D02*
X185651747Y-59138118D01*
X185651747Y-59138118D02*
X185705622Y-59138118D01*
X186379057Y-59596054D02*
X186810056Y-59165056D01*
X186244370Y-58491621D02*
X186998618Y-58868744D01*
X186998618Y-58868744D02*
X186621494Y-58114497D01*
X187698990Y-58168372D02*
X187241054Y-58087560D01*
X187375741Y-58491621D02*
X186810056Y-57925935D01*
X186810056Y-57925935D02*
X187025555Y-57710436D01*
X187025555Y-57710436D02*
X187106367Y-57683499D01*
X187106367Y-57683499D02*
X187160242Y-57683499D01*
X187160242Y-57683499D02*
X187241054Y-57710436D01*
X187241054Y-57710436D02*
X187321866Y-57791248D01*
X187321866Y-57791248D02*
X187348804Y-57872061D01*
X187348804Y-57872061D02*
X187348804Y-57925935D01*
X187348804Y-57925935D02*
X187321866Y-58006748D01*
X187321866Y-58006748D02*
X187106367Y-58222247D01*
X187645115Y-57629624D02*
X187833677Y-57441062D01*
X188210800Y-57656561D02*
X187941426Y-57925935D01*
X187941426Y-57925935D02*
X187375741Y-57360250D01*
X187375741Y-57360250D02*
X187645115Y-57090876D01*
X188345488Y-56929251D02*
X188156926Y-57117813D01*
X188453237Y-57414125D02*
X187887552Y-56848439D01*
X187887552Y-56848439D02*
X188156926Y-56579065D01*
X158443998Y-93335868D02*
X158363185Y-93362805D01*
X158363185Y-93362805D02*
X158282373Y-93443618D01*
X158282373Y-93443618D02*
X158228498Y-93551367D01*
X158228498Y-93551367D02*
X158228498Y-93659117D01*
X158228498Y-93659117D02*
X158255436Y-93739929D01*
X158255436Y-93739929D02*
X158336248Y-93874616D01*
X158336248Y-93874616D02*
X158417060Y-93955428D01*
X158417060Y-93955428D02*
X158551747Y-94036241D01*
X158551747Y-94036241D02*
X158632560Y-94063178D01*
X158632560Y-94063178D02*
X158740309Y-94063178D01*
X158740309Y-94063178D02*
X158848059Y-94009303D01*
X158848059Y-94009303D02*
X158901934Y-93955428D01*
X158901934Y-93955428D02*
X158955808Y-93847679D01*
X158955808Y-93847679D02*
X158955808Y-93793804D01*
X158955808Y-93793804D02*
X158767247Y-93605242D01*
X158767247Y-93605242D02*
X158659497Y-93712992D01*
X159252120Y-93605242D02*
X158686434Y-93039557D01*
X158686434Y-93039557D02*
X158901934Y-92824057D01*
X158901934Y-92824057D02*
X158982746Y-92797120D01*
X158982746Y-92797120D02*
X159036621Y-92797120D01*
X159036621Y-92797120D02*
X159117433Y-92824057D01*
X159117433Y-92824057D02*
X159198245Y-92904870D01*
X159198245Y-92904870D02*
X159225182Y-92985682D01*
X159225182Y-92985682D02*
X159225182Y-93039557D01*
X159225182Y-93039557D02*
X159198245Y-93120369D01*
X159198245Y-93120369D02*
X158982746Y-93335868D01*
X160114117Y-92743245D02*
X159790868Y-93066494D01*
X159952492Y-92904870D02*
X159386807Y-92339184D01*
X159386807Y-92339184D02*
X159413744Y-92473871D01*
X159413744Y-92473871D02*
X159413744Y-92581621D01*
X159413744Y-92581621D02*
X159386807Y-92662433D01*
X160221866Y-91881248D02*
X160598990Y-92258372D01*
X159871680Y-91800436D02*
X160141054Y-92339184D01*
X160141054Y-92339184D02*
X160491240Y-91988998D01*
X184597998Y-95875868D02*
X184517185Y-95902805D01*
X184517185Y-95902805D02*
X184436373Y-95983618D01*
X184436373Y-95983618D02*
X184382498Y-96091367D01*
X184382498Y-96091367D02*
X184382498Y-96199117D01*
X184382498Y-96199117D02*
X184409436Y-96279929D01*
X184409436Y-96279929D02*
X184490248Y-96414616D01*
X184490248Y-96414616D02*
X184571060Y-96495428D01*
X184571060Y-96495428D02*
X184705747Y-96576241D01*
X184705747Y-96576241D02*
X184786560Y-96603178D01*
X184786560Y-96603178D02*
X184894309Y-96603178D01*
X184894309Y-96603178D02*
X185002059Y-96549303D01*
X185002059Y-96549303D02*
X185055934Y-96495428D01*
X185055934Y-96495428D02*
X185109808Y-96387679D01*
X185109808Y-96387679D02*
X185109808Y-96333804D01*
X185109808Y-96333804D02*
X184921247Y-96145242D01*
X184921247Y-96145242D02*
X184813497Y-96252992D01*
X185406120Y-96145242D02*
X184840434Y-95579557D01*
X184840434Y-95579557D02*
X185055934Y-95364057D01*
X185055934Y-95364057D02*
X185136746Y-95337120D01*
X185136746Y-95337120D02*
X185190621Y-95337120D01*
X185190621Y-95337120D02*
X185271433Y-95364057D01*
X185271433Y-95364057D02*
X185352245Y-95444870D01*
X185352245Y-95444870D02*
X185379182Y-95525682D01*
X185379182Y-95525682D02*
X185379182Y-95579557D01*
X185379182Y-95579557D02*
X185352245Y-95660369D01*
X185352245Y-95660369D02*
X185136746Y-95875868D01*
X186268117Y-95283245D02*
X185944868Y-95606494D01*
X186106492Y-95444870D02*
X185540807Y-94879184D01*
X185540807Y-94879184D02*
X185567744Y-95013871D01*
X185567744Y-95013871D02*
X185567744Y-95121621D01*
X185567744Y-95121621D02*
X185540807Y-95202433D01*
X186187305Y-94232686D02*
X186079555Y-94340436D01*
X186079555Y-94340436D02*
X186052618Y-94421248D01*
X186052618Y-94421248D02*
X186052618Y-94475123D01*
X186052618Y-94475123D02*
X186079555Y-94609810D01*
X186079555Y-94609810D02*
X186160367Y-94744497D01*
X186160367Y-94744497D02*
X186375866Y-94959996D01*
X186375866Y-94959996D02*
X186456679Y-94986934D01*
X186456679Y-94986934D02*
X186510553Y-94986934D01*
X186510553Y-94986934D02*
X186591366Y-94959996D01*
X186591366Y-94959996D02*
X186699115Y-94852247D01*
X186699115Y-94852247D02*
X186726053Y-94771434D01*
X186726053Y-94771434D02*
X186726053Y-94717560D01*
X186726053Y-94717560D02*
X186699115Y-94636747D01*
X186699115Y-94636747D02*
X186564428Y-94502060D01*
X186564428Y-94502060D02*
X186483616Y-94475123D01*
X186483616Y-94475123D02*
X186429741Y-94475123D01*
X186429741Y-94475123D02*
X186348929Y-94502060D01*
X186348929Y-94502060D02*
X186241179Y-94609810D01*
X186241179Y-94609810D02*
X186214242Y-94690622D01*
X186214242Y-94690622D02*
X186214242Y-94744497D01*
X186214242Y-94744497D02*
X186241179Y-94825309D01*
X184390123Y-57845868D02*
X184740309Y-57495682D01*
X184740309Y-57495682D02*
X184767247Y-57899743D01*
X184767247Y-57899743D02*
X184848059Y-57818931D01*
X184848059Y-57818931D02*
X184928871Y-57791993D01*
X184928871Y-57791993D02*
X184982746Y-57791993D01*
X184982746Y-57791993D02*
X185063558Y-57818931D01*
X185063558Y-57818931D02*
X185198245Y-57953618D01*
X185198245Y-57953618D02*
X185225182Y-58034430D01*
X185225182Y-58034430D02*
X185225182Y-58088305D01*
X185225182Y-58088305D02*
X185198245Y-58169117D01*
X185198245Y-58169117D02*
X185036621Y-58330741D01*
X185036621Y-58330741D02*
X184955808Y-58357679D01*
X184955808Y-58357679D02*
X184901934Y-58357679D01*
X184901934Y-57334057D02*
X185656181Y-57711181D01*
X185656181Y-57711181D02*
X185279057Y-56956934D01*
X185413744Y-56822247D02*
X185763930Y-56472061D01*
X185763930Y-56472061D02*
X185790868Y-56876122D01*
X185790868Y-56876122D02*
X185871680Y-56795309D01*
X185871680Y-56795309D02*
X185952492Y-56768372D01*
X185952492Y-56768372D02*
X186006367Y-56768372D01*
X186006367Y-56768372D02*
X186087179Y-56795309D01*
X186087179Y-56795309D02*
X186221866Y-56929996D01*
X186221866Y-56929996D02*
X186248804Y-57010809D01*
X186248804Y-57010809D02*
X186248804Y-57064683D01*
X186248804Y-57064683D02*
X186221866Y-57145496D01*
X186221866Y-57145496D02*
X186060242Y-57307120D01*
X186060242Y-57307120D02*
X185979430Y-57334057D01*
X185979430Y-57334057D02*
X185925555Y-57334057D01*
X158489998Y-80635868D02*
X158409185Y-80662805D01*
X158409185Y-80662805D02*
X158328373Y-80743618D01*
X158328373Y-80743618D02*
X158274498Y-80851367D01*
X158274498Y-80851367D02*
X158274498Y-80959117D01*
X158274498Y-80959117D02*
X158301436Y-81039929D01*
X158301436Y-81039929D02*
X158382248Y-81174616D01*
X158382248Y-81174616D02*
X158463060Y-81255428D01*
X158463060Y-81255428D02*
X158597747Y-81336241D01*
X158597747Y-81336241D02*
X158678560Y-81363178D01*
X158678560Y-81363178D02*
X158786309Y-81363178D01*
X158786309Y-81363178D02*
X158894059Y-81309303D01*
X158894059Y-81309303D02*
X158947934Y-81255428D01*
X158947934Y-81255428D02*
X159001808Y-81147679D01*
X159001808Y-81147679D02*
X159001808Y-81093804D01*
X159001808Y-81093804D02*
X158813247Y-80905242D01*
X158813247Y-80905242D02*
X158705497Y-81012992D01*
X159298120Y-80905242D02*
X158732434Y-80339557D01*
X158732434Y-80339557D02*
X158947934Y-80124057D01*
X158947934Y-80124057D02*
X159028746Y-80097120D01*
X159028746Y-80097120D02*
X159082621Y-80097120D01*
X159082621Y-80097120D02*
X159163433Y-80124057D01*
X159163433Y-80124057D02*
X159244245Y-80204870D01*
X159244245Y-80204870D02*
X159271182Y-80285682D01*
X159271182Y-80285682D02*
X159271182Y-80339557D01*
X159271182Y-80339557D02*
X159244245Y-80420369D01*
X159244245Y-80420369D02*
X159028746Y-80635868D01*
X160160117Y-80043245D02*
X159836868Y-80366494D01*
X159998492Y-80204870D02*
X159432807Y-79639184D01*
X159432807Y-79639184D02*
X159459744Y-79773871D01*
X159459744Y-79773871D02*
X159459744Y-79881621D01*
X159459744Y-79881621D02*
X159432807Y-79962433D01*
X159944618Y-79127373D02*
X159998492Y-79073499D01*
X159998492Y-79073499D02*
X160079305Y-79046561D01*
X160079305Y-79046561D02*
X160133179Y-79046561D01*
X160133179Y-79046561D02*
X160213992Y-79073499D01*
X160213992Y-79073499D02*
X160348679Y-79154311D01*
X160348679Y-79154311D02*
X160483366Y-79288998D01*
X160483366Y-79288998D02*
X160564178Y-79423685D01*
X160564178Y-79423685D02*
X160591115Y-79504497D01*
X160591115Y-79504497D02*
X160591115Y-79558372D01*
X160591115Y-79558372D02*
X160564178Y-79639184D01*
X160564178Y-79639184D02*
X160510303Y-79693059D01*
X160510303Y-79693059D02*
X160429491Y-79719996D01*
X160429491Y-79719996D02*
X160375616Y-79719996D01*
X160375616Y-79719996D02*
X160294804Y-79693059D01*
X160294804Y-79693059D02*
X160160117Y-79612247D01*
X160160117Y-79612247D02*
X160025430Y-79477560D01*
X160025430Y-79477560D02*
X159944618Y-79342873D01*
X159944618Y-79342873D02*
X159917680Y-79262060D01*
X159917680Y-79262060D02*
X159917680Y-79208186D01*
X159917680Y-79208186D02*
X159944618Y-79127373D01*
X159013372Y-57506494D02*
X158932560Y-57533431D01*
X158932560Y-57533431D02*
X158851748Y-57614243D01*
X158851748Y-57614243D02*
X158797873Y-57721993D01*
X158797873Y-57721993D02*
X158797873Y-57829742D01*
X158797873Y-57829742D02*
X158824810Y-57910555D01*
X158824810Y-57910555D02*
X158905623Y-58045242D01*
X158905623Y-58045242D02*
X158986435Y-58126054D01*
X158986435Y-58126054D02*
X159121122Y-58206866D01*
X159121122Y-58206866D02*
X159201934Y-58233803D01*
X159201934Y-58233803D02*
X159309684Y-58233803D01*
X159309684Y-58233803D02*
X159417433Y-58179929D01*
X159417433Y-58179929D02*
X159471308Y-58126054D01*
X159471308Y-58126054D02*
X159525183Y-58018304D01*
X159525183Y-58018304D02*
X159525183Y-57964429D01*
X159525183Y-57964429D02*
X159336621Y-57775868D01*
X159336621Y-57775868D02*
X159228871Y-57883617D01*
X159821494Y-57775868D02*
X159255809Y-57210182D01*
X159255809Y-57210182D02*
X159471308Y-56994683D01*
X159471308Y-56994683D02*
X159552120Y-56967746D01*
X159552120Y-56967746D02*
X159605995Y-56967746D01*
X159605995Y-56967746D02*
X159686807Y-56994683D01*
X159686807Y-56994683D02*
X159767619Y-57075495D01*
X159767619Y-57075495D02*
X159794557Y-57156307D01*
X159794557Y-57156307D02*
X159794557Y-57210182D01*
X159794557Y-57210182D02*
X159767619Y-57290994D01*
X159767619Y-57290994D02*
X159552120Y-57506494D01*
X159767619Y-56698372D02*
X160117806Y-56348185D01*
X160117806Y-56348185D02*
X160144743Y-56752246D01*
X160144743Y-56752246D02*
X160225555Y-56671434D01*
X160225555Y-56671434D02*
X160306367Y-56644497D01*
X160306367Y-56644497D02*
X160360242Y-56644497D01*
X160360242Y-56644497D02*
X160441054Y-56671434D01*
X160441054Y-56671434D02*
X160575741Y-56806121D01*
X160575741Y-56806121D02*
X160602679Y-56886933D01*
X160602679Y-56886933D02*
X160602679Y-56940808D01*
X160602679Y-56940808D02*
X160575741Y-57021620D01*
X160575741Y-57021620D02*
X160414117Y-57183245D01*
X160414117Y-57183245D02*
X160333305Y-57210182D01*
X160333305Y-57210182D02*
X160279430Y-57210182D01*
X184651873Y-66096240D02*
X184921247Y-65826866D01*
X184759623Y-66311739D02*
X184382499Y-65557492D01*
X184382499Y-65557492D02*
X185136746Y-65934615D01*
X185082871Y-64910994D02*
X185002059Y-64937932D01*
X185002059Y-64937932D02*
X184921247Y-65018744D01*
X184921247Y-65018744D02*
X184867372Y-65126494D01*
X184867372Y-65126494D02*
X184867372Y-65234243D01*
X184867372Y-65234243D02*
X184894310Y-65315055D01*
X184894310Y-65315055D02*
X184975122Y-65449742D01*
X184975122Y-65449742D02*
X185055934Y-65530555D01*
X185055934Y-65530555D02*
X185190621Y-65611367D01*
X185190621Y-65611367D02*
X185271433Y-65638304D01*
X185271433Y-65638304D02*
X185379183Y-65638304D01*
X185379183Y-65638304D02*
X185486932Y-65584429D01*
X185486932Y-65584429D02*
X185540807Y-65530555D01*
X185540807Y-65530555D02*
X185594682Y-65422805D01*
X185594682Y-65422805D02*
X185594682Y-65368930D01*
X185594682Y-65368930D02*
X185406120Y-65180368D01*
X185406120Y-65180368D02*
X185298371Y-65288118D01*
X185890993Y-65180368D02*
X185325308Y-64614683D01*
X185325308Y-64614683D02*
X186214242Y-64857120D01*
X186214242Y-64857120D02*
X185648557Y-64291434D01*
X186483616Y-64587746D02*
X185917931Y-64022060D01*
X185917931Y-64022060D02*
X186052618Y-63887373D01*
X186052618Y-63887373D02*
X186160367Y-63833498D01*
X186160367Y-63833498D02*
X186268117Y-63833498D01*
X186268117Y-63833498D02*
X186348929Y-63860436D01*
X186348929Y-63860436D02*
X186483616Y-63941248D01*
X186483616Y-63941248D02*
X186564428Y-64022060D01*
X186564428Y-64022060D02*
X186645241Y-64156747D01*
X186645241Y-64156747D02*
X186672178Y-64237560D01*
X186672178Y-64237560D02*
X186672178Y-64345309D01*
X186672178Y-64345309D02*
X186618303Y-64453059D01*
X186618303Y-64453059D02*
X186483616Y-64587746D01*
X158343998Y-83175868D02*
X158263185Y-83202805D01*
X158263185Y-83202805D02*
X158182373Y-83283618D01*
X158182373Y-83283618D02*
X158128498Y-83391367D01*
X158128498Y-83391367D02*
X158128498Y-83499117D01*
X158128498Y-83499117D02*
X158155436Y-83579929D01*
X158155436Y-83579929D02*
X158236248Y-83714616D01*
X158236248Y-83714616D02*
X158317060Y-83795428D01*
X158317060Y-83795428D02*
X158451747Y-83876241D01*
X158451747Y-83876241D02*
X158532560Y-83903178D01*
X158532560Y-83903178D02*
X158640309Y-83903178D01*
X158640309Y-83903178D02*
X158748059Y-83849303D01*
X158748059Y-83849303D02*
X158801934Y-83795428D01*
X158801934Y-83795428D02*
X158855808Y-83687679D01*
X158855808Y-83687679D02*
X158855808Y-83633804D01*
X158855808Y-83633804D02*
X158667247Y-83445242D01*
X158667247Y-83445242D02*
X158559497Y-83552992D01*
X159152120Y-83445242D02*
X158586434Y-82879557D01*
X158586434Y-82879557D02*
X158801934Y-82664057D01*
X158801934Y-82664057D02*
X158882746Y-82637120D01*
X158882746Y-82637120D02*
X158936621Y-82637120D01*
X158936621Y-82637120D02*
X159017433Y-82664057D01*
X159017433Y-82664057D02*
X159098245Y-82744870D01*
X159098245Y-82744870D02*
X159125182Y-82825682D01*
X159125182Y-82825682D02*
X159125182Y-82879557D01*
X159125182Y-82879557D02*
X159098245Y-82960369D01*
X159098245Y-82960369D02*
X158882746Y-83175868D01*
X160014117Y-82583245D02*
X159690868Y-82906494D01*
X159852492Y-82744870D02*
X159286807Y-82179184D01*
X159286807Y-82179184D02*
X159313744Y-82313871D01*
X159313744Y-82313871D02*
X159313744Y-82421621D01*
X159313744Y-82421621D02*
X159286807Y-82502433D01*
X160552865Y-82044497D02*
X160229616Y-82367746D01*
X160391240Y-82206121D02*
X159825555Y-81640436D01*
X159825555Y-81640436D02*
X159852492Y-81775123D01*
X159852492Y-81775123D02*
X159852492Y-81882873D01*
X159852492Y-81882873D02*
X159825555Y-81963685D01*
X184597998Y-80645868D02*
X184517185Y-80672805D01*
X184517185Y-80672805D02*
X184436373Y-80753618D01*
X184436373Y-80753618D02*
X184382498Y-80861367D01*
X184382498Y-80861367D02*
X184382498Y-80969117D01*
X184382498Y-80969117D02*
X184409436Y-81049929D01*
X184409436Y-81049929D02*
X184490248Y-81184616D01*
X184490248Y-81184616D02*
X184571060Y-81265428D01*
X184571060Y-81265428D02*
X184705747Y-81346241D01*
X184705747Y-81346241D02*
X184786560Y-81373178D01*
X184786560Y-81373178D02*
X184894309Y-81373178D01*
X184894309Y-81373178D02*
X185002059Y-81319303D01*
X185002059Y-81319303D02*
X185055934Y-81265428D01*
X185055934Y-81265428D02*
X185109808Y-81157679D01*
X185109808Y-81157679D02*
X185109808Y-81103804D01*
X185109808Y-81103804D02*
X184921247Y-80915242D01*
X184921247Y-80915242D02*
X184813497Y-81022992D01*
X185406120Y-80915242D02*
X184840434Y-80349557D01*
X184840434Y-80349557D02*
X185055934Y-80134057D01*
X185055934Y-80134057D02*
X185136746Y-80107120D01*
X185136746Y-80107120D02*
X185190621Y-80107120D01*
X185190621Y-80107120D02*
X185271433Y-80134057D01*
X185271433Y-80134057D02*
X185352245Y-80214870D01*
X185352245Y-80214870D02*
X185379182Y-80295682D01*
X185379182Y-80295682D02*
X185379182Y-80349557D01*
X185379182Y-80349557D02*
X185352245Y-80430369D01*
X185352245Y-80430369D02*
X185136746Y-80645868D01*
X185433057Y-79864683D02*
X185433057Y-79810809D01*
X185433057Y-79810809D02*
X185459995Y-79729996D01*
X185459995Y-79729996D02*
X185594682Y-79595309D01*
X185594682Y-79595309D02*
X185675494Y-79568372D01*
X185675494Y-79568372D02*
X185729369Y-79568372D01*
X185729369Y-79568372D02*
X185810181Y-79595309D01*
X185810181Y-79595309D02*
X185864056Y-79649184D01*
X185864056Y-79649184D02*
X185917930Y-79756934D01*
X185917930Y-79756934D02*
X185917930Y-80403431D01*
X185917930Y-80403431D02*
X186268117Y-80053245D01*
X186806865Y-79514497D02*
X186483616Y-79837746D01*
X186645240Y-79676121D02*
X186079555Y-79110436D01*
X186079555Y-79110436D02*
X186106492Y-79245123D01*
X186106492Y-79245123D02*
X186106492Y-79352873D01*
X186106492Y-79352873D02*
X186079555Y-79433685D01*
X158986435Y-90553431D02*
X158905623Y-90580368D01*
X158905623Y-90580368D02*
X158824811Y-90661180D01*
X158824811Y-90661180D02*
X158770936Y-90768930D01*
X158770936Y-90768930D02*
X158770936Y-90876680D01*
X158770936Y-90876680D02*
X158797873Y-90957492D01*
X158797873Y-90957492D02*
X158878685Y-91092179D01*
X158878685Y-91092179D02*
X158959498Y-91172991D01*
X158959498Y-91172991D02*
X159094185Y-91253803D01*
X159094185Y-91253803D02*
X159174997Y-91280741D01*
X159174997Y-91280741D02*
X159282746Y-91280741D01*
X159282746Y-91280741D02*
X159390496Y-91226866D01*
X159390496Y-91226866D02*
X159444371Y-91172991D01*
X159444371Y-91172991D02*
X159498246Y-91065241D01*
X159498246Y-91065241D02*
X159498246Y-91011367D01*
X159498246Y-91011367D02*
X159309684Y-90822805D01*
X159309684Y-90822805D02*
X159201934Y-90930554D01*
X159794557Y-90822805D02*
X159228872Y-90257119D01*
X159228872Y-90257119D02*
X160117806Y-90499556D01*
X160117806Y-90499556D02*
X159552120Y-89933871D01*
X160387180Y-90230182D02*
X159821494Y-89664497D01*
X159821494Y-89664497D02*
X159956181Y-89529810D01*
X159956181Y-89529810D02*
X160063931Y-89475935D01*
X160063931Y-89475935D02*
X160171680Y-89475935D01*
X160171680Y-89475935D02*
X160252493Y-89502872D01*
X160252493Y-89502872D02*
X160387180Y-89583685D01*
X160387180Y-89583685D02*
X160467992Y-89664497D01*
X160467992Y-89664497D02*
X160548804Y-89799184D01*
X160548804Y-89799184D02*
X160575741Y-89879996D01*
X160575741Y-89879996D02*
X160575741Y-89987746D01*
X160575741Y-89987746D02*
X160521867Y-90095495D01*
X160521867Y-90095495D02*
X160387180Y-90230182D01*
X164990475Y-97879200D02*
X165104761Y-97917295D01*
X165104761Y-97917295D02*
X165295237Y-97917295D01*
X165295237Y-97917295D02*
X165371428Y-97879200D01*
X165371428Y-97879200D02*
X165409523Y-97841104D01*
X165409523Y-97841104D02*
X165447618Y-97764914D01*
X165447618Y-97764914D02*
X165447618Y-97688723D01*
X165447618Y-97688723D02*
X165409523Y-97612533D01*
X165409523Y-97612533D02*
X165371428Y-97574438D01*
X165371428Y-97574438D02*
X165295237Y-97536342D01*
X165295237Y-97536342D02*
X165142856Y-97498247D01*
X165142856Y-97498247D02*
X165066666Y-97460152D01*
X165066666Y-97460152D02*
X165028571Y-97422057D01*
X165028571Y-97422057D02*
X164990475Y-97345866D01*
X164990475Y-97345866D02*
X164990475Y-97269676D01*
X164990475Y-97269676D02*
X165028571Y-97193485D01*
X165028571Y-97193485D02*
X165066666Y-97155390D01*
X165066666Y-97155390D02*
X165142856Y-97117295D01*
X165142856Y-97117295D02*
X165333333Y-97117295D01*
X165333333Y-97117295D02*
X165447618Y-97155390D01*
X165714285Y-97117295D02*
X165904761Y-97917295D01*
X165904761Y-97917295D02*
X166057142Y-97345866D01*
X166057142Y-97345866D02*
X166209523Y-97917295D01*
X166209523Y-97917295D02*
X166400000Y-97117295D01*
X167161905Y-97841104D02*
X167123809Y-97879200D01*
X167123809Y-97879200D02*
X167009524Y-97917295D01*
X167009524Y-97917295D02*
X166933333Y-97917295D01*
X166933333Y-97917295D02*
X166819047Y-97879200D01*
X166819047Y-97879200D02*
X166742857Y-97803009D01*
X166742857Y-97803009D02*
X166704762Y-97726819D01*
X166704762Y-97726819D02*
X166666666Y-97574438D01*
X166666666Y-97574438D02*
X166666666Y-97460152D01*
X166666666Y-97460152D02*
X166704762Y-97307771D01*
X166704762Y-97307771D02*
X166742857Y-97231580D01*
X166742857Y-97231580D02*
X166819047Y-97155390D01*
X166819047Y-97155390D02*
X166933333Y-97117295D01*
X166933333Y-97117295D02*
X167009524Y-97117295D01*
X167009524Y-97117295D02*
X167123809Y-97155390D01*
X167123809Y-97155390D02*
X167161905Y-97193485D01*
X167885714Y-97917295D02*
X167504762Y-97917295D01*
X167504762Y-97917295D02*
X167504762Y-97117295D01*
X168152381Y-97917295D02*
X168152381Y-97117295D01*
X168609524Y-97917295D02*
X168266666Y-97460152D01*
X168609524Y-97117295D02*
X168152381Y-97574438D01*
X184586435Y-90553431D02*
X184505623Y-90580368D01*
X184505623Y-90580368D02*
X184424811Y-90661180D01*
X184424811Y-90661180D02*
X184370936Y-90768930D01*
X184370936Y-90768930D02*
X184370936Y-90876680D01*
X184370936Y-90876680D02*
X184397873Y-90957492D01*
X184397873Y-90957492D02*
X184478685Y-91092179D01*
X184478685Y-91092179D02*
X184559498Y-91172991D01*
X184559498Y-91172991D02*
X184694185Y-91253803D01*
X184694185Y-91253803D02*
X184774997Y-91280741D01*
X184774997Y-91280741D02*
X184882746Y-91280741D01*
X184882746Y-91280741D02*
X184990496Y-91226866D01*
X184990496Y-91226866D02*
X185044371Y-91172991D01*
X185044371Y-91172991D02*
X185098246Y-91065241D01*
X185098246Y-91065241D02*
X185098246Y-91011367D01*
X185098246Y-91011367D02*
X184909684Y-90822805D01*
X184909684Y-90822805D02*
X184801934Y-90930554D01*
X185394557Y-90822805D02*
X184828872Y-90257119D01*
X184828872Y-90257119D02*
X185717806Y-90499556D01*
X185717806Y-90499556D02*
X185152120Y-89933871D01*
X185987180Y-90230182D02*
X185421494Y-89664497D01*
X185421494Y-89664497D02*
X185556181Y-89529810D01*
X185556181Y-89529810D02*
X185663931Y-89475935D01*
X185663931Y-89475935D02*
X185771680Y-89475935D01*
X185771680Y-89475935D02*
X185852493Y-89502872D01*
X185852493Y-89502872D02*
X185987180Y-89583685D01*
X185987180Y-89583685D02*
X186067992Y-89664497D01*
X186067992Y-89664497D02*
X186148804Y-89799184D01*
X186148804Y-89799184D02*
X186175741Y-89879996D01*
X186175741Y-89879996D02*
X186175741Y-89987746D01*
X186175741Y-89987746D02*
X186121867Y-90095495D01*
X186121867Y-90095495D02*
X185987180Y-90230182D01*
X184453406Y-47882585D02*
X185207653Y-48259709D01*
X185207653Y-48259709D02*
X184830529Y-47505462D01*
X185477027Y-47397712D02*
X185584776Y-47343838D01*
X185584776Y-47343838D02*
X185638651Y-47343838D01*
X185638651Y-47343838D02*
X185719463Y-47370775D01*
X185719463Y-47370775D02*
X185800276Y-47451587D01*
X185800276Y-47451587D02*
X185827213Y-47532399D01*
X185827213Y-47532399D02*
X185827213Y-47586274D01*
X185827213Y-47586274D02*
X185800276Y-47667086D01*
X185800276Y-47667086D02*
X185584776Y-47882586D01*
X185584776Y-47882586D02*
X185019091Y-47316900D01*
X185019091Y-47316900D02*
X185207653Y-47128338D01*
X185207653Y-47128338D02*
X185288465Y-47101401D01*
X185288465Y-47101401D02*
X185342340Y-47101401D01*
X185342340Y-47101401D02*
X185423152Y-47128338D01*
X185423152Y-47128338D02*
X185477027Y-47182213D01*
X185477027Y-47182213D02*
X185503964Y-47263025D01*
X185503964Y-47263025D02*
X185503964Y-47316900D01*
X185503964Y-47316900D02*
X185477027Y-47397712D01*
X185477027Y-47397712D02*
X185288465Y-47586274D01*
X185584776Y-46751215D02*
X186042712Y-47209151D01*
X186042712Y-47209151D02*
X186123524Y-47236088D01*
X186123524Y-47236088D02*
X186177399Y-47236088D01*
X186177399Y-47236088D02*
X186258211Y-47209151D01*
X186258211Y-47209151D02*
X186365961Y-47101401D01*
X186365961Y-47101401D02*
X186392898Y-47020589D01*
X186392898Y-47020589D02*
X186392898Y-46966714D01*
X186392898Y-46966714D02*
X186365961Y-46885902D01*
X186365961Y-46885902D02*
X185908025Y-46427966D01*
X186689210Y-46724277D02*
X186796959Y-46670403D01*
X186796959Y-46670403D02*
X186931646Y-46535716D01*
X186931646Y-46535716D02*
X186958584Y-46454903D01*
X186958584Y-46454903D02*
X186958584Y-46401029D01*
X186958584Y-46401029D02*
X186931646Y-46320216D01*
X186931646Y-46320216D02*
X186877771Y-46266342D01*
X186877771Y-46266342D02*
X186796959Y-46239404D01*
X186796959Y-46239404D02*
X186743084Y-46239404D01*
X186743084Y-46239404D02*
X186662272Y-46266342D01*
X186662272Y-46266342D02*
X186527585Y-46347154D01*
X186527585Y-46347154D02*
X186446773Y-46374091D01*
X186446773Y-46374091D02*
X186392898Y-46374091D01*
X186392898Y-46374091D02*
X186312086Y-46347154D01*
X186312086Y-46347154D02*
X186258211Y-46293279D01*
X186258211Y-46293279D02*
X186231274Y-46212467D01*
X186231274Y-46212467D02*
X186231274Y-46158592D01*
X186231274Y-46158592D02*
X186258211Y-46077780D01*
X186258211Y-46077780D02*
X186392898Y-45943093D01*
X186392898Y-45943093D02*
X186500648Y-45889218D01*
X159013372Y-60046494D02*
X158932560Y-60073431D01*
X158932560Y-60073431D02*
X158851748Y-60154243D01*
X158851748Y-60154243D02*
X158797873Y-60261993D01*
X158797873Y-60261993D02*
X158797873Y-60369742D01*
X158797873Y-60369742D02*
X158824810Y-60450555D01*
X158824810Y-60450555D02*
X158905623Y-60585242D01*
X158905623Y-60585242D02*
X158986435Y-60666054D01*
X158986435Y-60666054D02*
X159121122Y-60746866D01*
X159121122Y-60746866D02*
X159201934Y-60773803D01*
X159201934Y-60773803D02*
X159309684Y-60773803D01*
X159309684Y-60773803D02*
X159417433Y-60719929D01*
X159417433Y-60719929D02*
X159471308Y-60666054D01*
X159471308Y-60666054D02*
X159525183Y-60558304D01*
X159525183Y-60558304D02*
X159525183Y-60504429D01*
X159525183Y-60504429D02*
X159336621Y-60315868D01*
X159336621Y-60315868D02*
X159228871Y-60423617D01*
X159821494Y-60315868D02*
X159255809Y-59750182D01*
X159255809Y-59750182D02*
X159471308Y-59534683D01*
X159471308Y-59534683D02*
X159552120Y-59507746D01*
X159552120Y-59507746D02*
X159605995Y-59507746D01*
X159605995Y-59507746D02*
X159686807Y-59534683D01*
X159686807Y-59534683D02*
X159767619Y-59615495D01*
X159767619Y-59615495D02*
X159794557Y-59696307D01*
X159794557Y-59696307D02*
X159794557Y-59750182D01*
X159794557Y-59750182D02*
X159767619Y-59830994D01*
X159767619Y-59830994D02*
X159552120Y-60046494D01*
X160252493Y-59130622D02*
X160629616Y-59507746D01*
X159902306Y-59049810D02*
X160171680Y-59588558D01*
X160171680Y-59588558D02*
X160521867Y-59238372D01*
X158986435Y-65153431D02*
X158905623Y-65180368D01*
X158905623Y-65180368D02*
X158824811Y-65261180D01*
X158824811Y-65261180D02*
X158770936Y-65368930D01*
X158770936Y-65368930D02*
X158770936Y-65476680D01*
X158770936Y-65476680D02*
X158797873Y-65557492D01*
X158797873Y-65557492D02*
X158878685Y-65692179D01*
X158878685Y-65692179D02*
X158959498Y-65772991D01*
X158959498Y-65772991D02*
X159094185Y-65853803D01*
X159094185Y-65853803D02*
X159174997Y-65880741D01*
X159174997Y-65880741D02*
X159282746Y-65880741D01*
X159282746Y-65880741D02*
X159390496Y-65826866D01*
X159390496Y-65826866D02*
X159444371Y-65772991D01*
X159444371Y-65772991D02*
X159498246Y-65665241D01*
X159498246Y-65665241D02*
X159498246Y-65611367D01*
X159498246Y-65611367D02*
X159309684Y-65422805D01*
X159309684Y-65422805D02*
X159201934Y-65530554D01*
X159794557Y-65422805D02*
X159228872Y-64857119D01*
X159228872Y-64857119D02*
X160117806Y-65099556D01*
X160117806Y-65099556D02*
X159552120Y-64533871D01*
X160387180Y-64830182D02*
X159821494Y-64264497D01*
X159821494Y-64264497D02*
X159956181Y-64129810D01*
X159956181Y-64129810D02*
X160063931Y-64075935D01*
X160063931Y-64075935D02*
X160171680Y-64075935D01*
X160171680Y-64075935D02*
X160252493Y-64102872D01*
X160252493Y-64102872D02*
X160387180Y-64183685D01*
X160387180Y-64183685D02*
X160467992Y-64264497D01*
X160467992Y-64264497D02*
X160548804Y-64399184D01*
X160548804Y-64399184D02*
X160575741Y-64479996D01*
X160575741Y-64479996D02*
X160575741Y-64587746D01*
X160575741Y-64587746D02*
X160521867Y-64695495D01*
X160521867Y-64695495D02*
X160387180Y-64830182D01*
X159013372Y-62586494D02*
X158932560Y-62613431D01*
X158932560Y-62613431D02*
X158851748Y-62694243D01*
X158851748Y-62694243D02*
X158797873Y-62801993D01*
X158797873Y-62801993D02*
X158797873Y-62909742D01*
X158797873Y-62909742D02*
X158824810Y-62990555D01*
X158824810Y-62990555D02*
X158905623Y-63125242D01*
X158905623Y-63125242D02*
X158986435Y-63206054D01*
X158986435Y-63206054D02*
X159121122Y-63286866D01*
X159121122Y-63286866D02*
X159201934Y-63313803D01*
X159201934Y-63313803D02*
X159309684Y-63313803D01*
X159309684Y-63313803D02*
X159417433Y-63259929D01*
X159417433Y-63259929D02*
X159471308Y-63206054D01*
X159471308Y-63206054D02*
X159525183Y-63098304D01*
X159525183Y-63098304D02*
X159525183Y-63044429D01*
X159525183Y-63044429D02*
X159336621Y-62855868D01*
X159336621Y-62855868D02*
X159228871Y-62963617D01*
X159821494Y-62855868D02*
X159255809Y-62290182D01*
X159255809Y-62290182D02*
X159471308Y-62074683D01*
X159471308Y-62074683D02*
X159552120Y-62047746D01*
X159552120Y-62047746D02*
X159605995Y-62047746D01*
X159605995Y-62047746D02*
X159686807Y-62074683D01*
X159686807Y-62074683D02*
X159767619Y-62155495D01*
X159767619Y-62155495D02*
X159794557Y-62236307D01*
X159794557Y-62236307D02*
X159794557Y-62290182D01*
X159794557Y-62290182D02*
X159767619Y-62370994D01*
X159767619Y-62370994D02*
X159552120Y-62586494D01*
X160090868Y-61455123D02*
X159821494Y-61724497D01*
X159821494Y-61724497D02*
X160063931Y-62020808D01*
X160063931Y-62020808D02*
X160063931Y-61966933D01*
X160063931Y-61966933D02*
X160090868Y-61886121D01*
X160090868Y-61886121D02*
X160225555Y-61751434D01*
X160225555Y-61751434D02*
X160306367Y-61724497D01*
X160306367Y-61724497D02*
X160360242Y-61724497D01*
X160360242Y-61724497D02*
X160441054Y-61751434D01*
X160441054Y-61751434D02*
X160575741Y-61886121D01*
X160575741Y-61886121D02*
X160602679Y-61966933D01*
X160602679Y-61966933D02*
X160602679Y-62020808D01*
X160602679Y-62020808D02*
X160575741Y-62101620D01*
X160575741Y-62101620D02*
X160441054Y-62236307D01*
X160441054Y-62236307D02*
X160360242Y-62263245D01*
X160360242Y-62263245D02*
X160306367Y-62263245D01*
X159013372Y-75286494D02*
X158932560Y-75313431D01*
X158932560Y-75313431D02*
X158851748Y-75394243D01*
X158851748Y-75394243D02*
X158797873Y-75501993D01*
X158797873Y-75501993D02*
X158797873Y-75609742D01*
X158797873Y-75609742D02*
X158824810Y-75690555D01*
X158824810Y-75690555D02*
X158905623Y-75825242D01*
X158905623Y-75825242D02*
X158986435Y-75906054D01*
X158986435Y-75906054D02*
X159121122Y-75986866D01*
X159121122Y-75986866D02*
X159201934Y-76013803D01*
X159201934Y-76013803D02*
X159309684Y-76013803D01*
X159309684Y-76013803D02*
X159417433Y-75959929D01*
X159417433Y-75959929D02*
X159471308Y-75906054D01*
X159471308Y-75906054D02*
X159525183Y-75798304D01*
X159525183Y-75798304D02*
X159525183Y-75744429D01*
X159525183Y-75744429D02*
X159336621Y-75555868D01*
X159336621Y-75555868D02*
X159228871Y-75663617D01*
X159821494Y-75555868D02*
X159255809Y-74990182D01*
X159255809Y-74990182D02*
X159471308Y-74774683D01*
X159471308Y-74774683D02*
X159552120Y-74747746D01*
X159552120Y-74747746D02*
X159605995Y-74747746D01*
X159605995Y-74747746D02*
X159686807Y-74774683D01*
X159686807Y-74774683D02*
X159767619Y-74855495D01*
X159767619Y-74855495D02*
X159794557Y-74936307D01*
X159794557Y-74936307D02*
X159794557Y-74990182D01*
X159794557Y-74990182D02*
X159767619Y-75070994D01*
X159767619Y-75070994D02*
X159552120Y-75286494D01*
X160414117Y-74963245D02*
X160521867Y-74855495D01*
X160521867Y-74855495D02*
X160548804Y-74774683D01*
X160548804Y-74774683D02*
X160548804Y-74720808D01*
X160548804Y-74720808D02*
X160521867Y-74586121D01*
X160521867Y-74586121D02*
X160441054Y-74451434D01*
X160441054Y-74451434D02*
X160225555Y-74235935D01*
X160225555Y-74235935D02*
X160144743Y-74208998D01*
X160144743Y-74208998D02*
X160090868Y-74208998D01*
X160090868Y-74208998D02*
X160010056Y-74235935D01*
X160010056Y-74235935D02*
X159902306Y-74343685D01*
X159902306Y-74343685D02*
X159875369Y-74424497D01*
X159875369Y-74424497D02*
X159875369Y-74478372D01*
X159875369Y-74478372D02*
X159902306Y-74559184D01*
X159902306Y-74559184D02*
X160036993Y-74693871D01*
X160036993Y-74693871D02*
X160117806Y-74720808D01*
X160117806Y-74720808D02*
X160171680Y-74720808D01*
X160171680Y-74720808D02*
X160252493Y-74693871D01*
X160252493Y-74693871D02*
X160360242Y-74586121D01*
X160360242Y-74586121D02*
X160387180Y-74505309D01*
X160387180Y-74505309D02*
X160387180Y-74451434D01*
X160387180Y-74451434D02*
X160360242Y-74370622D01*
X184597998Y-67945868D02*
X184517185Y-67972805D01*
X184517185Y-67972805D02*
X184436373Y-68053618D01*
X184436373Y-68053618D02*
X184382498Y-68161367D01*
X184382498Y-68161367D02*
X184382498Y-68269117D01*
X184382498Y-68269117D02*
X184409436Y-68349929D01*
X184409436Y-68349929D02*
X184490248Y-68484616D01*
X184490248Y-68484616D02*
X184571060Y-68565428D01*
X184571060Y-68565428D02*
X184705747Y-68646241D01*
X184705747Y-68646241D02*
X184786560Y-68673178D01*
X184786560Y-68673178D02*
X184894309Y-68673178D01*
X184894309Y-68673178D02*
X185002059Y-68619303D01*
X185002059Y-68619303D02*
X185055934Y-68565428D01*
X185055934Y-68565428D02*
X185109808Y-68457679D01*
X185109808Y-68457679D02*
X185109808Y-68403804D01*
X185109808Y-68403804D02*
X184921247Y-68215242D01*
X184921247Y-68215242D02*
X184813497Y-68322992D01*
X185406120Y-68215242D02*
X184840434Y-67649557D01*
X184840434Y-67649557D02*
X185055934Y-67434057D01*
X185055934Y-67434057D02*
X185136746Y-67407120D01*
X185136746Y-67407120D02*
X185190621Y-67407120D01*
X185190621Y-67407120D02*
X185271433Y-67434057D01*
X185271433Y-67434057D02*
X185352245Y-67514870D01*
X185352245Y-67514870D02*
X185379182Y-67595682D01*
X185379182Y-67595682D02*
X185379182Y-67649557D01*
X185379182Y-67649557D02*
X185352245Y-67730369D01*
X185352245Y-67730369D02*
X185136746Y-67945868D01*
X185433057Y-67164683D02*
X185433057Y-67110809D01*
X185433057Y-67110809D02*
X185459995Y-67029996D01*
X185459995Y-67029996D02*
X185594682Y-66895309D01*
X185594682Y-66895309D02*
X185675494Y-66868372D01*
X185675494Y-66868372D02*
X185729369Y-66868372D01*
X185729369Y-66868372D02*
X185810181Y-66895309D01*
X185810181Y-66895309D02*
X185864056Y-66949184D01*
X185864056Y-66949184D02*
X185917930Y-67056934D01*
X185917930Y-67056934D02*
X185917930Y-67703431D01*
X185917930Y-67703431D02*
X186268117Y-67353245D01*
X185890993Y-66598998D02*
X186268117Y-66221874D01*
X186268117Y-66221874D02*
X186591366Y-67029996D01*
X184743998Y-85250868D02*
X184663185Y-85277805D01*
X184663185Y-85277805D02*
X184582373Y-85358618D01*
X184582373Y-85358618D02*
X184528498Y-85466367D01*
X184528498Y-85466367D02*
X184528498Y-85574117D01*
X184528498Y-85574117D02*
X184555436Y-85654929D01*
X184555436Y-85654929D02*
X184636248Y-85789616D01*
X184636248Y-85789616D02*
X184717060Y-85870428D01*
X184717060Y-85870428D02*
X184851747Y-85951241D01*
X184851747Y-85951241D02*
X184932560Y-85978178D01*
X184932560Y-85978178D02*
X185040309Y-85978178D01*
X185040309Y-85978178D02*
X185148059Y-85924303D01*
X185148059Y-85924303D02*
X185201934Y-85870428D01*
X185201934Y-85870428D02*
X185255808Y-85762679D01*
X185255808Y-85762679D02*
X185255808Y-85708804D01*
X185255808Y-85708804D02*
X185067247Y-85520242D01*
X185067247Y-85520242D02*
X184959497Y-85627992D01*
X185552120Y-85520242D02*
X184986434Y-84954557D01*
X184986434Y-84954557D02*
X185201934Y-84739057D01*
X185201934Y-84739057D02*
X185282746Y-84712120D01*
X185282746Y-84712120D02*
X185336621Y-84712120D01*
X185336621Y-84712120D02*
X185417433Y-84739057D01*
X185417433Y-84739057D02*
X185498245Y-84819870D01*
X185498245Y-84819870D02*
X185525182Y-84900682D01*
X185525182Y-84900682D02*
X185525182Y-84954557D01*
X185525182Y-84954557D02*
X185498245Y-85035369D01*
X185498245Y-85035369D02*
X185282746Y-85250868D01*
X186414117Y-84658245D02*
X186090868Y-84981494D01*
X186252492Y-84819870D02*
X185686807Y-84254184D01*
X185686807Y-84254184D02*
X185713744Y-84388871D01*
X185713744Y-84388871D02*
X185713744Y-84496621D01*
X185713744Y-84496621D02*
X185686807Y-84577433D01*
X186683491Y-84388871D02*
X186791240Y-84281121D01*
X186791240Y-84281121D02*
X186818178Y-84200309D01*
X186818178Y-84200309D02*
X186818178Y-84146434D01*
X186818178Y-84146434D02*
X186791240Y-84011747D01*
X186791240Y-84011747D02*
X186710428Y-83877060D01*
X186710428Y-83877060D02*
X186494929Y-83661561D01*
X186494929Y-83661561D02*
X186414117Y-83634624D01*
X186414117Y-83634624D02*
X186360242Y-83634624D01*
X186360242Y-83634624D02*
X186279430Y-83661561D01*
X186279430Y-83661561D02*
X186171680Y-83769311D01*
X186171680Y-83769311D02*
X186144743Y-83850123D01*
X186144743Y-83850123D02*
X186144743Y-83903998D01*
X186144743Y-83903998D02*
X186171680Y-83984810D01*
X186171680Y-83984810D02*
X186306367Y-84119497D01*
X186306367Y-84119497D02*
X186387179Y-84146434D01*
X186387179Y-84146434D02*
X186441054Y-84146434D01*
X186441054Y-84146434D02*
X186521866Y-84119497D01*
X186521866Y-84119497D02*
X186629616Y-84011747D01*
X186629616Y-84011747D02*
X186656553Y-83930935D01*
X186656553Y-83930935D02*
X186656553Y-83877060D01*
X186656553Y-83877060D02*
X186629616Y-83796248D01*
X176404761Y-97879200D02*
X176519047Y-97917295D01*
X176519047Y-97917295D02*
X176709523Y-97917295D01*
X176709523Y-97917295D02*
X176785714Y-97879200D01*
X176785714Y-97879200D02*
X176823809Y-97841104D01*
X176823809Y-97841104D02*
X176861904Y-97764914D01*
X176861904Y-97764914D02*
X176861904Y-97688723D01*
X176861904Y-97688723D02*
X176823809Y-97612533D01*
X176823809Y-97612533D02*
X176785714Y-97574438D01*
X176785714Y-97574438D02*
X176709523Y-97536342D01*
X176709523Y-97536342D02*
X176557142Y-97498247D01*
X176557142Y-97498247D02*
X176480952Y-97460152D01*
X176480952Y-97460152D02*
X176442857Y-97422057D01*
X176442857Y-97422057D02*
X176404761Y-97345866D01*
X176404761Y-97345866D02*
X176404761Y-97269676D01*
X176404761Y-97269676D02*
X176442857Y-97193485D01*
X176442857Y-97193485D02*
X176480952Y-97155390D01*
X176480952Y-97155390D02*
X176557142Y-97117295D01*
X176557142Y-97117295D02*
X176747619Y-97117295D01*
X176747619Y-97117295D02*
X176861904Y-97155390D01*
X177128571Y-97117295D02*
X177319047Y-97917295D01*
X177319047Y-97917295D02*
X177471428Y-97345866D01*
X177471428Y-97345866D02*
X177623809Y-97917295D01*
X177623809Y-97917295D02*
X177814286Y-97117295D01*
X178119048Y-97917295D02*
X178119048Y-97117295D01*
X178119048Y-97117295D02*
X178309524Y-97117295D01*
X178309524Y-97117295D02*
X178423810Y-97155390D01*
X178423810Y-97155390D02*
X178500000Y-97231580D01*
X178500000Y-97231580D02*
X178538095Y-97307771D01*
X178538095Y-97307771D02*
X178576191Y-97460152D01*
X178576191Y-97460152D02*
X178576191Y-97574438D01*
X178576191Y-97574438D02*
X178538095Y-97726819D01*
X178538095Y-97726819D02*
X178500000Y-97803009D01*
X178500000Y-97803009D02*
X178423810Y-97879200D01*
X178423810Y-97879200D02*
X178309524Y-97917295D01*
X178309524Y-97917295D02*
X178119048Y-97917295D01*
X178919048Y-97917295D02*
X178919048Y-97117295D01*
X179452381Y-97117295D02*
X179604762Y-97117295D01*
X179604762Y-97117295D02*
X179680952Y-97155390D01*
X179680952Y-97155390D02*
X179757143Y-97231580D01*
X179757143Y-97231580D02*
X179795238Y-97383961D01*
X179795238Y-97383961D02*
X179795238Y-97650628D01*
X179795238Y-97650628D02*
X179757143Y-97803009D01*
X179757143Y-97803009D02*
X179680952Y-97879200D01*
X179680952Y-97879200D02*
X179604762Y-97917295D01*
X179604762Y-97917295D02*
X179452381Y-97917295D01*
X179452381Y-97917295D02*
X179376190Y-97879200D01*
X179376190Y-97879200D02*
X179300000Y-97803009D01*
X179300000Y-97803009D02*
X179261904Y-97650628D01*
X179261904Y-97650628D02*
X179261904Y-97383961D01*
X179261904Y-97383961D02*
X179300000Y-97231580D01*
X179300000Y-97231580D02*
X179376190Y-97155390D01*
X179376190Y-97155390D02*
X179452381Y-97117295D01*
X158489998Y-88255868D02*
X158409185Y-88282805D01*
X158409185Y-88282805D02*
X158328373Y-88363618D01*
X158328373Y-88363618D02*
X158274498Y-88471367D01*
X158274498Y-88471367D02*
X158274498Y-88579117D01*
X158274498Y-88579117D02*
X158301436Y-88659929D01*
X158301436Y-88659929D02*
X158382248Y-88794616D01*
X158382248Y-88794616D02*
X158463060Y-88875428D01*
X158463060Y-88875428D02*
X158597747Y-88956241D01*
X158597747Y-88956241D02*
X158678560Y-88983178D01*
X158678560Y-88983178D02*
X158786309Y-88983178D01*
X158786309Y-88983178D02*
X158894059Y-88929303D01*
X158894059Y-88929303D02*
X158947934Y-88875428D01*
X158947934Y-88875428D02*
X159001808Y-88767679D01*
X159001808Y-88767679D02*
X159001808Y-88713804D01*
X159001808Y-88713804D02*
X158813247Y-88525242D01*
X158813247Y-88525242D02*
X158705497Y-88632992D01*
X159298120Y-88525242D02*
X158732434Y-87959557D01*
X158732434Y-87959557D02*
X158947934Y-87744057D01*
X158947934Y-87744057D02*
X159028746Y-87717120D01*
X159028746Y-87717120D02*
X159082621Y-87717120D01*
X159082621Y-87717120D02*
X159163433Y-87744057D01*
X159163433Y-87744057D02*
X159244245Y-87824870D01*
X159244245Y-87824870D02*
X159271182Y-87905682D01*
X159271182Y-87905682D02*
X159271182Y-87959557D01*
X159271182Y-87959557D02*
X159244245Y-88040369D01*
X159244245Y-88040369D02*
X159028746Y-88255868D01*
X160160117Y-87663245D02*
X159836868Y-87986494D01*
X159998492Y-87824870D02*
X159432807Y-87259184D01*
X159432807Y-87259184D02*
X159459744Y-87393871D01*
X159459744Y-87393871D02*
X159459744Y-87501621D01*
X159459744Y-87501621D02*
X159432807Y-87582433D01*
X159782993Y-86908998D02*
X160133179Y-86558812D01*
X160133179Y-86558812D02*
X160160117Y-86962873D01*
X160160117Y-86962873D02*
X160240929Y-86882060D01*
X160240929Y-86882060D02*
X160321741Y-86855123D01*
X160321741Y-86855123D02*
X160375616Y-86855123D01*
X160375616Y-86855123D02*
X160456428Y-86882060D01*
X160456428Y-86882060D02*
X160591115Y-87016747D01*
X160591115Y-87016747D02*
X160618053Y-87097560D01*
X160618053Y-87097560D02*
X160618053Y-87151434D01*
X160618053Y-87151434D02*
X160591115Y-87232247D01*
X160591115Y-87232247D02*
X160429491Y-87393871D01*
X160429491Y-87393871D02*
X160348679Y-87420808D01*
X160348679Y-87420808D02*
X160294804Y-87420808D01*
X184597998Y-70475868D02*
X184517185Y-70502805D01*
X184517185Y-70502805D02*
X184436373Y-70583618D01*
X184436373Y-70583618D02*
X184382498Y-70691367D01*
X184382498Y-70691367D02*
X184382498Y-70799117D01*
X184382498Y-70799117D02*
X184409436Y-70879929D01*
X184409436Y-70879929D02*
X184490248Y-71014616D01*
X184490248Y-71014616D02*
X184571060Y-71095428D01*
X184571060Y-71095428D02*
X184705747Y-71176241D01*
X184705747Y-71176241D02*
X184786560Y-71203178D01*
X184786560Y-71203178D02*
X184894309Y-71203178D01*
X184894309Y-71203178D02*
X185002059Y-71149303D01*
X185002059Y-71149303D02*
X185055934Y-71095428D01*
X185055934Y-71095428D02*
X185109808Y-70987679D01*
X185109808Y-70987679D02*
X185109808Y-70933804D01*
X185109808Y-70933804D02*
X184921247Y-70745242D01*
X184921247Y-70745242D02*
X184813497Y-70852992D01*
X185406120Y-70745242D02*
X184840434Y-70179557D01*
X184840434Y-70179557D02*
X185055934Y-69964057D01*
X185055934Y-69964057D02*
X185136746Y-69937120D01*
X185136746Y-69937120D02*
X185190621Y-69937120D01*
X185190621Y-69937120D02*
X185271433Y-69964057D01*
X185271433Y-69964057D02*
X185352245Y-70044870D01*
X185352245Y-70044870D02*
X185379182Y-70125682D01*
X185379182Y-70125682D02*
X185379182Y-70179557D01*
X185379182Y-70179557D02*
X185352245Y-70260369D01*
X185352245Y-70260369D02*
X185136746Y-70475868D01*
X185433057Y-69694683D02*
X185433057Y-69640809D01*
X185433057Y-69640809D02*
X185459995Y-69559996D01*
X185459995Y-69559996D02*
X185594682Y-69425309D01*
X185594682Y-69425309D02*
X185675494Y-69398372D01*
X185675494Y-69398372D02*
X185729369Y-69398372D01*
X185729369Y-69398372D02*
X185810181Y-69425309D01*
X185810181Y-69425309D02*
X185864056Y-69479184D01*
X185864056Y-69479184D02*
X185917930Y-69586934D01*
X185917930Y-69586934D02*
X185917930Y-70233431D01*
X185917930Y-70233431D02*
X186268117Y-69883245D01*
X186187305Y-68832686D02*
X186079555Y-68940436D01*
X186079555Y-68940436D02*
X186052618Y-69021248D01*
X186052618Y-69021248D02*
X186052618Y-69075123D01*
X186052618Y-69075123D02*
X186079555Y-69209810D01*
X186079555Y-69209810D02*
X186160367Y-69344497D01*
X186160367Y-69344497D02*
X186375866Y-69559996D01*
X186375866Y-69559996D02*
X186456679Y-69586934D01*
X186456679Y-69586934D02*
X186510553Y-69586934D01*
X186510553Y-69586934D02*
X186591366Y-69559996D01*
X186591366Y-69559996D02*
X186699115Y-69452247D01*
X186699115Y-69452247D02*
X186726053Y-69371434D01*
X186726053Y-69371434D02*
X186726053Y-69317560D01*
X186726053Y-69317560D02*
X186699115Y-69236747D01*
X186699115Y-69236747D02*
X186564428Y-69102060D01*
X186564428Y-69102060D02*
X186483616Y-69075123D01*
X186483616Y-69075123D02*
X186429741Y-69075123D01*
X186429741Y-69075123D02*
X186348929Y-69102060D01*
X186348929Y-69102060D02*
X186241179Y-69209810D01*
X186241179Y-69209810D02*
X186214242Y-69290622D01*
X186214242Y-69290622D02*
X186214242Y-69344497D01*
X186214242Y-69344497D02*
X186241179Y-69425309D01*
X185338651Y-73298710D02*
X184880716Y-73217898D01*
X185015403Y-73621959D02*
X184449717Y-73056274D01*
X184449717Y-73056274D02*
X184665216Y-72840775D01*
X184665216Y-72840775D02*
X184746029Y-72813837D01*
X184746029Y-72813837D02*
X184799903Y-72813837D01*
X184799903Y-72813837D02*
X184880716Y-72840775D01*
X184880716Y-72840775D02*
X184961528Y-72921587D01*
X184961528Y-72921587D02*
X184988465Y-73002399D01*
X184988465Y-73002399D02*
X184988465Y-73056274D01*
X184988465Y-73056274D02*
X184961528Y-73137086D01*
X184961528Y-73137086D02*
X184746029Y-73352585D01*
X185015403Y-72490588D02*
X185473338Y-72948524D01*
X185473338Y-72948524D02*
X185554151Y-72975462D01*
X185554151Y-72975462D02*
X185608025Y-72975462D01*
X185608025Y-72975462D02*
X185688838Y-72948524D01*
X185688838Y-72948524D02*
X185796587Y-72840775D01*
X185796587Y-72840775D02*
X185823525Y-72759962D01*
X185823525Y-72759962D02*
X185823525Y-72706088D01*
X185823525Y-72706088D02*
X185796587Y-72625275D01*
X185796587Y-72625275D02*
X185338651Y-72167340D01*
X186173711Y-72463651D02*
X185608025Y-71897966D01*
X185608025Y-71897966D02*
X186496959Y-72140402D01*
X186496959Y-72140402D02*
X185931274Y-71574717D01*
X158489998Y-95875868D02*
X158409185Y-95902805D01*
X158409185Y-95902805D02*
X158328373Y-95983618D01*
X158328373Y-95983618D02*
X158274498Y-96091367D01*
X158274498Y-96091367D02*
X158274498Y-96199117D01*
X158274498Y-96199117D02*
X158301436Y-96279929D01*
X158301436Y-96279929D02*
X158382248Y-96414616D01*
X158382248Y-96414616D02*
X158463060Y-96495428D01*
X158463060Y-96495428D02*
X158597747Y-96576241D01*
X158597747Y-96576241D02*
X158678560Y-96603178D01*
X158678560Y-96603178D02*
X158786309Y-96603178D01*
X158786309Y-96603178D02*
X158894059Y-96549303D01*
X158894059Y-96549303D02*
X158947934Y-96495428D01*
X158947934Y-96495428D02*
X159001808Y-96387679D01*
X159001808Y-96387679D02*
X159001808Y-96333804D01*
X159001808Y-96333804D02*
X158813247Y-96145242D01*
X158813247Y-96145242D02*
X158705497Y-96252992D01*
X159298120Y-96145242D02*
X158732434Y-95579557D01*
X158732434Y-95579557D02*
X158947934Y-95364057D01*
X158947934Y-95364057D02*
X159028746Y-95337120D01*
X159028746Y-95337120D02*
X159082621Y-95337120D01*
X159082621Y-95337120D02*
X159163433Y-95364057D01*
X159163433Y-95364057D02*
X159244245Y-95444870D01*
X159244245Y-95444870D02*
X159271182Y-95525682D01*
X159271182Y-95525682D02*
X159271182Y-95579557D01*
X159271182Y-95579557D02*
X159244245Y-95660369D01*
X159244245Y-95660369D02*
X159028746Y-95875868D01*
X160160117Y-95283245D02*
X159836868Y-95606494D01*
X159998492Y-95444870D02*
X159432807Y-94879184D01*
X159432807Y-94879184D02*
X159459744Y-95013871D01*
X159459744Y-95013871D02*
X159459744Y-95121621D01*
X159459744Y-95121621D02*
X159432807Y-95202433D01*
X160106242Y-94205749D02*
X159836868Y-94475123D01*
X159836868Y-94475123D02*
X160079305Y-94771434D01*
X160079305Y-94771434D02*
X160079305Y-94717560D01*
X160079305Y-94717560D02*
X160106242Y-94636747D01*
X160106242Y-94636747D02*
X160240929Y-94502060D01*
X160240929Y-94502060D02*
X160321741Y-94475123D01*
X160321741Y-94475123D02*
X160375616Y-94475123D01*
X160375616Y-94475123D02*
X160456428Y-94502060D01*
X160456428Y-94502060D02*
X160591115Y-94636747D01*
X160591115Y-94636747D02*
X160618053Y-94717560D01*
X160618053Y-94717560D02*
X160618053Y-94771434D01*
X160618053Y-94771434D02*
X160591115Y-94852247D01*
X160591115Y-94852247D02*
X160456428Y-94986934D01*
X160456428Y-94986934D02*
X160375616Y-95013871D01*
X160375616Y-95013871D02*
X160321741Y-95013871D01*
X44064286Y-105604819D02*
X44064286Y-104604819D01*
X44064286Y-104604819D02*
X44397619Y-105319104D01*
X44397619Y-105319104D02*
X44730952Y-104604819D01*
X44730952Y-104604819D02*
X44730952Y-105604819D01*
X45111905Y-104604819D02*
X45778571Y-105604819D01*
X45778571Y-104604819D02*
X45111905Y-105604819D01*
X46588095Y-104938152D02*
X46588095Y-105604819D01*
X46350000Y-104557200D02*
X46111905Y-105271485D01*
X46111905Y-105271485D02*
X46730952Y-105271485D01*
X63044286Y-62504819D02*
X63044286Y-61504819D01*
X63044286Y-61504819D02*
X63377619Y-62219104D01*
X63377619Y-62219104D02*
X63710952Y-61504819D01*
X63710952Y-61504819D02*
X63710952Y-62504819D01*
X64091905Y-61504819D02*
X64758571Y-62504819D01*
X64758571Y-61504819D02*
X64091905Y-62504819D01*
X65044286Y-61504819D02*
X65710952Y-61504819D01*
X65710952Y-61504819D02*
X65282381Y-62504819D01*
X48335714Y-53154819D02*
X48335714Y-52154819D01*
X48335714Y-52154819D02*
X48573809Y-52154819D01*
X48573809Y-52154819D02*
X48716666Y-52202438D01*
X48716666Y-52202438D02*
X48811904Y-52297676D01*
X48811904Y-52297676D02*
X48859523Y-52392914D01*
X48859523Y-52392914D02*
X48907142Y-52583390D01*
X48907142Y-52583390D02*
X48907142Y-52726247D01*
X48907142Y-52726247D02*
X48859523Y-52916723D01*
X48859523Y-52916723D02*
X48811904Y-53011961D01*
X48811904Y-53011961D02*
X48716666Y-53107200D01*
X48716666Y-53107200D02*
X48573809Y-53154819D01*
X48573809Y-53154819D02*
X48335714Y-53154819D01*
X49288095Y-52250057D02*
X49335714Y-52202438D01*
X49335714Y-52202438D02*
X49430952Y-52154819D01*
X49430952Y-52154819D02*
X49669047Y-52154819D01*
X49669047Y-52154819D02*
X49764285Y-52202438D01*
X49764285Y-52202438D02*
X49811904Y-52250057D01*
X49811904Y-52250057D02*
X49859523Y-52345295D01*
X49859523Y-52345295D02*
X49859523Y-52440533D01*
X49859523Y-52440533D02*
X49811904Y-52583390D01*
X49811904Y-52583390D02*
X49240476Y-53154819D01*
X49240476Y-53154819D02*
X49859523Y-53154819D01*
X50192857Y-52154819D02*
X50811904Y-52154819D01*
X50811904Y-52154819D02*
X50478571Y-52535771D01*
X50478571Y-52535771D02*
X50621428Y-52535771D01*
X50621428Y-52535771D02*
X50716666Y-52583390D01*
X50716666Y-52583390D02*
X50764285Y-52631009D01*
X50764285Y-52631009D02*
X50811904Y-52726247D01*
X50811904Y-52726247D02*
X50811904Y-52964342D01*
X50811904Y-52964342D02*
X50764285Y-53059580D01*
X50764285Y-53059580D02*
X50716666Y-53107200D01*
X50716666Y-53107200D02*
X50621428Y-53154819D01*
X50621428Y-53154819D02*
X50335714Y-53154819D01*
X50335714Y-53154819D02*
X50240476Y-53107200D01*
X50240476Y-53107200D02*
X50192857Y-53059580D01*
X100588095Y-52104819D02*
X100588095Y-51104819D01*
X100588095Y-51104819D02*
X100921428Y-51819104D01*
X100921428Y-51819104D02*
X101254761Y-51104819D01*
X101254761Y-51104819D02*
X101254761Y-52104819D01*
X101635714Y-51104819D02*
X102302380Y-52104819D01*
X102302380Y-51104819D02*
X101635714Y-52104819D01*
X103207142Y-52104819D02*
X102635714Y-52104819D01*
X102921428Y-52104819D02*
X102921428Y-51104819D01*
X102921428Y-51104819D02*
X102826190Y-51247676D01*
X102826190Y-51247676D02*
X102730952Y-51342914D01*
X102730952Y-51342914D02*
X102635714Y-51390533D01*
X104159523Y-52104819D02*
X103588095Y-52104819D01*
X103873809Y-52104819D02*
X103873809Y-51104819D01*
X103873809Y-51104819D02*
X103778571Y-51247676D01*
X103778571Y-51247676D02*
X103683333Y-51342914D01*
X103683333Y-51342914D02*
X103588095Y-51390533D01*
X63054286Y-100584819D02*
X63054286Y-99584819D01*
X63054286Y-99584819D02*
X63387619Y-100299104D01*
X63387619Y-100299104D02*
X63720952Y-99584819D01*
X63720952Y-99584819D02*
X63720952Y-100584819D01*
X64101905Y-99584819D02*
X64768571Y-100584819D01*
X64768571Y-99584819D02*
X64101905Y-100584819D01*
X65625714Y-99584819D02*
X65149524Y-99584819D01*
X65149524Y-99584819D02*
X65101905Y-100061009D01*
X65101905Y-100061009D02*
X65149524Y-100013390D01*
X65149524Y-100013390D02*
X65244762Y-99965771D01*
X65244762Y-99965771D02*
X65482857Y-99965771D01*
X65482857Y-99965771D02*
X65578095Y-100013390D01*
X65578095Y-100013390D02*
X65625714Y-100061009D01*
X65625714Y-100061009D02*
X65673333Y-100156247D01*
X65673333Y-100156247D02*
X65673333Y-100394342D01*
X65673333Y-100394342D02*
X65625714Y-100489580D01*
X65625714Y-100489580D02*
X65578095Y-100537200D01*
X65578095Y-100537200D02*
X65482857Y-100584819D01*
X65482857Y-100584819D02*
X65244762Y-100584819D01*
X65244762Y-100584819D02*
X65149524Y-100537200D01*
X65149524Y-100537200D02*
X65101905Y-100489580D01*
X134720790Y-124720240D02*
X134979609Y-123754314D01*
X134979609Y-123754314D02*
X135209591Y-123815937D01*
X135209591Y-123815937D02*
X135335256Y-123898908D01*
X135335256Y-123898908D02*
X135402599Y-124015550D01*
X135402599Y-124015550D02*
X135423946Y-124119868D01*
X135423946Y-124119868D02*
X135420644Y-124316179D01*
X135420644Y-124316179D02*
X135383670Y-124454168D01*
X135383670Y-124454168D02*
X135288374Y-124625829D01*
X135288374Y-124625829D02*
X135217729Y-124705497D01*
X135217729Y-124705497D02*
X135101086Y-124772841D01*
X135101086Y-124772841D02*
X134950772Y-124781863D01*
X134950772Y-124781863D02*
X134720790Y-124720240D01*
X136192677Y-125114631D02*
X135640719Y-124966734D01*
X135916698Y-125040682D02*
X136175517Y-124074756D01*
X136175517Y-124074756D02*
X136046550Y-124188096D01*
X136046550Y-124188096D02*
X135929907Y-124255440D01*
X135929907Y-124255440D02*
X135825590Y-124276787D01*
X136892531Y-124710570D02*
X136812863Y-124639924D01*
X136812863Y-124639924D02*
X136779191Y-124581603D01*
X136779191Y-124581603D02*
X136757844Y-124477285D01*
X136757844Y-124477285D02*
X136770169Y-124431288D01*
X136770169Y-124431288D02*
X136840815Y-124351620D01*
X136840815Y-124351620D02*
X136899136Y-124317948D01*
X136899136Y-124317948D02*
X137003453Y-124296601D01*
X137003453Y-124296601D02*
X137187439Y-124345900D01*
X137187439Y-124345900D02*
X137267107Y-124416546D01*
X137267107Y-124416546D02*
X137300779Y-124474867D01*
X137300779Y-124474867D02*
X137322126Y-124579185D01*
X137322126Y-124579185D02*
X137309802Y-124625181D01*
X137309802Y-124625181D02*
X137239156Y-124704850D01*
X137239156Y-124704850D02*
X137180834Y-124738521D01*
X137180834Y-124738521D02*
X137076517Y-124759868D01*
X137076517Y-124759868D02*
X136892531Y-124710570D01*
X136892531Y-124710570D02*
X136788213Y-124731917D01*
X136788213Y-124731917D02*
X136729892Y-124765588D01*
X136729892Y-124765588D02*
X136659246Y-124845257D01*
X136659246Y-124845257D02*
X136609947Y-125029242D01*
X136609947Y-125029242D02*
X136631294Y-125133560D01*
X136631294Y-125133560D02*
X136664966Y-125191881D01*
X136664966Y-125191881D02*
X136744634Y-125262527D01*
X136744634Y-125262527D02*
X136928620Y-125311826D01*
X136928620Y-125311826D02*
X137032938Y-125290479D01*
X137032938Y-125290479D02*
X137091259Y-125256807D01*
X137091259Y-125256807D02*
X137161905Y-125177139D01*
X137161905Y-125177139D02*
X137211204Y-124993153D01*
X137211204Y-124993153D02*
X137189857Y-124888836D01*
X137189857Y-124888836D02*
X137156185Y-124830514D01*
X137156185Y-124830514D02*
X137076517Y-124759868D01*
X152041128Y-125672388D02*
X152541128Y-124806363D01*
X152541128Y-124806363D02*
X152472660Y-125591619D01*
X152472660Y-125591619D02*
X153118478Y-125139696D01*
X153118478Y-125139696D02*
X152618478Y-126005721D01*
X153448392Y-125330172D02*
X153525743Y-126529531D01*
X154025743Y-125663505D02*
X152948392Y-126196197D01*
X154266799Y-125912651D02*
X154331848Y-125895221D01*
X154331848Y-125895221D02*
X154438136Y-125901601D01*
X154438136Y-125901601D02*
X154644332Y-126020648D01*
X154644332Y-126020648D02*
X154703001Y-126109507D01*
X154703001Y-126109507D02*
X154720431Y-126174555D01*
X154720431Y-126174555D02*
X154714051Y-126280844D01*
X154714051Y-126280844D02*
X154666432Y-126363322D01*
X154666432Y-126363322D02*
X154553764Y-126463231D01*
X154553764Y-126463231D02*
X153773178Y-126672388D01*
X153773178Y-126672388D02*
X154309289Y-126981912D01*
X155384930Y-126833133D02*
X155051597Y-127410483D01*
X155369210Y-126384171D02*
X154805871Y-126883713D01*
X154805871Y-126883713D02*
X155341981Y-127193237D01*
X119688095Y-76404819D02*
X119688095Y-75404819D01*
X119688095Y-75404819D02*
X120021428Y-76119104D01*
X120021428Y-76119104D02*
X120354761Y-75404819D01*
X120354761Y-75404819D02*
X120354761Y-76404819D01*
X120735714Y-75404819D02*
X121402380Y-76404819D01*
X121402380Y-75404819D02*
X120735714Y-76404819D01*
X122307142Y-76404819D02*
X121735714Y-76404819D01*
X122021428Y-76404819D02*
X122021428Y-75404819D01*
X122021428Y-75404819D02*
X121926190Y-75547676D01*
X121926190Y-75547676D02*
X121830952Y-75642914D01*
X121830952Y-75642914D02*
X121735714Y-75690533D01*
X123211904Y-75404819D02*
X122735714Y-75404819D01*
X122735714Y-75404819D02*
X122688095Y-75881009D01*
X122688095Y-75881009D02*
X122735714Y-75833390D01*
X122735714Y-75833390D02*
X122830952Y-75785771D01*
X122830952Y-75785771D02*
X123069047Y-75785771D01*
X123069047Y-75785771D02*
X123164285Y-75833390D01*
X123164285Y-75833390D02*
X123211904Y-75881009D01*
X123211904Y-75881009D02*
X123259523Y-75976247D01*
X123259523Y-75976247D02*
X123259523Y-76214342D01*
X123259523Y-76214342D02*
X123211904Y-76309580D01*
X123211904Y-76309580D02*
X123164285Y-76357200D01*
X123164285Y-76357200D02*
X123069047Y-76404819D01*
X123069047Y-76404819D02*
X122830952Y-76404819D01*
X122830952Y-76404819D02*
X122735714Y-76357200D01*
X122735714Y-76357200D02*
X122688095Y-76309580D01*
X170356874Y-137825211D02*
X171063981Y-137118105D01*
X171063981Y-137118105D02*
X170794607Y-137858883D01*
X170794607Y-137858883D02*
X171535385Y-137589509D01*
X171535385Y-137589509D02*
X170828279Y-138296616D01*
X171804759Y-137858883D02*
X171569057Y-139037394D01*
X172276164Y-138330287D02*
X171097652Y-138565990D01*
X172444523Y-138633333D02*
X172511866Y-138633333D01*
X172511866Y-138633333D02*
X172612881Y-138667005D01*
X172612881Y-138667005D02*
X172781240Y-138835364D01*
X172781240Y-138835364D02*
X172814912Y-138936379D01*
X172814912Y-138936379D02*
X172814912Y-139003723D01*
X172814912Y-139003723D02*
X172781240Y-139104738D01*
X172781240Y-139104738D02*
X172713897Y-139172081D01*
X172713897Y-139172081D02*
X172579210Y-139239425D01*
X172579210Y-139239425D02*
X171771088Y-139239425D01*
X171771088Y-139239425D02*
X172208820Y-139677158D01*
X173555690Y-139609814D02*
X173218973Y-139273097D01*
X173218973Y-139273097D02*
X172848584Y-139576142D01*
X172848584Y-139576142D02*
X172915927Y-139576142D01*
X172915927Y-139576142D02*
X173016942Y-139609814D01*
X173016942Y-139609814D02*
X173185301Y-139778173D01*
X173185301Y-139778173D02*
X173218973Y-139879188D01*
X173218973Y-139879188D02*
X173218973Y-139946532D01*
X173218973Y-139946532D02*
X173185301Y-140047547D01*
X173185301Y-140047547D02*
X173016942Y-140215906D01*
X173016942Y-140215906D02*
X172915927Y-140249577D01*
X172915927Y-140249577D02*
X172848584Y-140249577D01*
X172848584Y-140249577D02*
X172747568Y-140215906D01*
X172747568Y-140215906D02*
X172579210Y-140047547D01*
X172579210Y-140047547D02*
X172545538Y-139946532D01*
X172545538Y-139946532D02*
X172545538Y-139879188D01*
X86411905Y-81254819D02*
X86411905Y-80254819D01*
X86411905Y-80254819D02*
X86650000Y-80254819D01*
X86650000Y-80254819D02*
X86792857Y-80302438D01*
X86792857Y-80302438D02*
X86888095Y-80397676D01*
X86888095Y-80397676D02*
X86935714Y-80492914D01*
X86935714Y-80492914D02*
X86983333Y-80683390D01*
X86983333Y-80683390D02*
X86983333Y-80826247D01*
X86983333Y-80826247D02*
X86935714Y-81016723D01*
X86935714Y-81016723D02*
X86888095Y-81111961D01*
X86888095Y-81111961D02*
X86792857Y-81207200D01*
X86792857Y-81207200D02*
X86650000Y-81254819D01*
X86650000Y-81254819D02*
X86411905Y-81254819D01*
X87840476Y-80588152D02*
X87840476Y-81254819D01*
X87602381Y-80207200D02*
X87364286Y-80921485D01*
X87364286Y-80921485D02*
X87983333Y-80921485D01*
X138708095Y-97504819D02*
X138708095Y-96504819D01*
X138708095Y-96504819D02*
X139041428Y-97219104D01*
X139041428Y-97219104D02*
X139374761Y-96504819D01*
X139374761Y-96504819D02*
X139374761Y-97504819D01*
X139755714Y-96504819D02*
X140422380Y-97504819D01*
X140422380Y-96504819D02*
X139755714Y-97504819D01*
X141327142Y-97504819D02*
X140755714Y-97504819D01*
X141041428Y-97504819D02*
X141041428Y-96504819D01*
X141041428Y-96504819D02*
X140946190Y-96647676D01*
X140946190Y-96647676D02*
X140850952Y-96742914D01*
X140850952Y-96742914D02*
X140755714Y-96790533D01*
X141803333Y-97504819D02*
X141993809Y-97504819D01*
X141993809Y-97504819D02*
X142089047Y-97457200D01*
X142089047Y-97457200D02*
X142136666Y-97409580D01*
X142136666Y-97409580D02*
X142231904Y-97266723D01*
X142231904Y-97266723D02*
X142279523Y-97076247D01*
X142279523Y-97076247D02*
X142279523Y-96695295D01*
X142279523Y-96695295D02*
X142231904Y-96600057D01*
X142231904Y-96600057D02*
X142184285Y-96552438D01*
X142184285Y-96552438D02*
X142089047Y-96504819D01*
X142089047Y-96504819D02*
X141898571Y-96504819D01*
X141898571Y-96504819D02*
X141803333Y-96552438D01*
X141803333Y-96552438D02*
X141755714Y-96600057D01*
X141755714Y-96600057D02*
X141708095Y-96695295D01*
X141708095Y-96695295D02*
X141708095Y-96933390D01*
X141708095Y-96933390D02*
X141755714Y-97028628D01*
X141755714Y-97028628D02*
X141803333Y-97076247D01*
X141803333Y-97076247D02*
X141898571Y-97123866D01*
X141898571Y-97123866D02*
X142089047Y-97123866D01*
X142089047Y-97123866D02*
X142184285Y-97076247D01*
X142184285Y-97076247D02*
X142231904Y-97028628D01*
X142231904Y-97028628D02*
X142279523Y-96933390D01*
X125011905Y-62054819D02*
X125011905Y-61054819D01*
X125011905Y-61054819D02*
X125250000Y-61054819D01*
X125250000Y-61054819D02*
X125392857Y-61102438D01*
X125392857Y-61102438D02*
X125488095Y-61197676D01*
X125488095Y-61197676D02*
X125535714Y-61292914D01*
X125535714Y-61292914D02*
X125583333Y-61483390D01*
X125583333Y-61483390D02*
X125583333Y-61626247D01*
X125583333Y-61626247D02*
X125535714Y-61816723D01*
X125535714Y-61816723D02*
X125488095Y-61911961D01*
X125488095Y-61911961D02*
X125392857Y-62007200D01*
X125392857Y-62007200D02*
X125250000Y-62054819D01*
X125250000Y-62054819D02*
X125011905Y-62054819D01*
X126059524Y-62054819D02*
X126250000Y-62054819D01*
X126250000Y-62054819D02*
X126345238Y-62007200D01*
X126345238Y-62007200D02*
X126392857Y-61959580D01*
X126392857Y-61959580D02*
X126488095Y-61816723D01*
X126488095Y-61816723D02*
X126535714Y-61626247D01*
X126535714Y-61626247D02*
X126535714Y-61245295D01*
X126535714Y-61245295D02*
X126488095Y-61150057D01*
X126488095Y-61150057D02*
X126440476Y-61102438D01*
X126440476Y-61102438D02*
X126345238Y-61054819D01*
X126345238Y-61054819D02*
X126154762Y-61054819D01*
X126154762Y-61054819D02*
X126059524Y-61102438D01*
X126059524Y-61102438D02*
X126011905Y-61150057D01*
X126011905Y-61150057D02*
X125964286Y-61245295D01*
X125964286Y-61245295D02*
X125964286Y-61483390D01*
X125964286Y-61483390D02*
X126011905Y-61578628D01*
X126011905Y-61578628D02*
X126059524Y-61626247D01*
X126059524Y-61626247D02*
X126154762Y-61673866D01*
X126154762Y-61673866D02*
X126345238Y-61673866D01*
X126345238Y-61673866D02*
X126440476Y-61626247D01*
X126440476Y-61626247D02*
X126488095Y-61578628D01*
X126488095Y-61578628D02*
X126535714Y-61483390D01*
X44044286Y-67444819D02*
X44044286Y-66444819D01*
X44044286Y-66444819D02*
X44377619Y-67159104D01*
X44377619Y-67159104D02*
X44710952Y-66444819D01*
X44710952Y-66444819D02*
X44710952Y-67444819D01*
X45091905Y-66444819D02*
X45758571Y-67444819D01*
X45758571Y-66444819D02*
X45091905Y-67444819D01*
X46091905Y-66540057D02*
X46139524Y-66492438D01*
X46139524Y-66492438D02*
X46234762Y-66444819D01*
X46234762Y-66444819D02*
X46472857Y-66444819D01*
X46472857Y-66444819D02*
X46568095Y-66492438D01*
X46568095Y-66492438D02*
X46615714Y-66540057D01*
X46615714Y-66540057D02*
X46663333Y-66635295D01*
X46663333Y-66635295D02*
X46663333Y-66730533D01*
X46663333Y-66730533D02*
X46615714Y-66873390D01*
X46615714Y-66873390D02*
X46044286Y-67444819D01*
X46044286Y-67444819D02*
X46663333Y-67444819D01*
X100568095Y-90104819D02*
X100568095Y-89104819D01*
X100568095Y-89104819D02*
X100901428Y-89819104D01*
X100901428Y-89819104D02*
X101234761Y-89104819D01*
X101234761Y-89104819D02*
X101234761Y-90104819D01*
X101615714Y-89104819D02*
X102282380Y-90104819D01*
X102282380Y-89104819D02*
X101615714Y-90104819D01*
X103187142Y-90104819D02*
X102615714Y-90104819D01*
X102901428Y-90104819D02*
X102901428Y-89104819D01*
X102901428Y-89104819D02*
X102806190Y-89247676D01*
X102806190Y-89247676D02*
X102710952Y-89342914D01*
X102710952Y-89342914D02*
X102615714Y-89390533D01*
X103520476Y-89104819D02*
X104139523Y-89104819D01*
X104139523Y-89104819D02*
X103806190Y-89485771D01*
X103806190Y-89485771D02*
X103949047Y-89485771D01*
X103949047Y-89485771D02*
X104044285Y-89533390D01*
X104044285Y-89533390D02*
X104091904Y-89581009D01*
X104091904Y-89581009D02*
X104139523Y-89676247D01*
X104139523Y-89676247D02*
X104139523Y-89914342D01*
X104139523Y-89914342D02*
X104091904Y-90009580D01*
X104091904Y-90009580D02*
X104044285Y-90057200D01*
X104044285Y-90057200D02*
X103949047Y-90104819D01*
X103949047Y-90104819D02*
X103663333Y-90104819D01*
X103663333Y-90104819D02*
X103568095Y-90057200D01*
X103568095Y-90057200D02*
X103520476Y-90009580D01*
X114535714Y-122554819D02*
X114535714Y-121554819D01*
X114535714Y-121554819D02*
X114773809Y-121554819D01*
X114773809Y-121554819D02*
X114916666Y-121602438D01*
X114916666Y-121602438D02*
X115011904Y-121697676D01*
X115011904Y-121697676D02*
X115059523Y-121792914D01*
X115059523Y-121792914D02*
X115107142Y-121983390D01*
X115107142Y-121983390D02*
X115107142Y-122126247D01*
X115107142Y-122126247D02*
X115059523Y-122316723D01*
X115059523Y-122316723D02*
X115011904Y-122411961D01*
X115011904Y-122411961D02*
X114916666Y-122507200D01*
X114916666Y-122507200D02*
X114773809Y-122554819D01*
X114773809Y-122554819D02*
X114535714Y-122554819D01*
X116059523Y-122554819D02*
X115488095Y-122554819D01*
X115773809Y-122554819D02*
X115773809Y-121554819D01*
X115773809Y-121554819D02*
X115678571Y-121697676D01*
X115678571Y-121697676D02*
X115583333Y-121792914D01*
X115583333Y-121792914D02*
X115488095Y-121840533D01*
X116964285Y-121554819D02*
X116488095Y-121554819D01*
X116488095Y-121554819D02*
X116440476Y-122031009D01*
X116440476Y-122031009D02*
X116488095Y-121983390D01*
X116488095Y-121983390D02*
X116583333Y-121935771D01*
X116583333Y-121935771D02*
X116821428Y-121935771D01*
X116821428Y-121935771D02*
X116916666Y-121983390D01*
X116916666Y-121983390D02*
X116964285Y-122031009D01*
X116964285Y-122031009D02*
X117011904Y-122126247D01*
X117011904Y-122126247D02*
X117011904Y-122364342D01*
X117011904Y-122364342D02*
X116964285Y-122459580D01*
X116964285Y-122459580D02*
X116916666Y-122507200D01*
X116916666Y-122507200D02*
X116821428Y-122554819D01*
X116821428Y-122554819D02*
X116583333Y-122554819D01*
X116583333Y-122554819D02*
X116488095Y-122507200D01*
X116488095Y-122507200D02*
X116440476Y-122459580D01*
X47635714Y-72154819D02*
X47635714Y-71154819D01*
X47635714Y-71154819D02*
X47873809Y-71154819D01*
X47873809Y-71154819D02*
X48016666Y-71202438D01*
X48016666Y-71202438D02*
X48111904Y-71297676D01*
X48111904Y-71297676D02*
X48159523Y-71392914D01*
X48159523Y-71392914D02*
X48207142Y-71583390D01*
X48207142Y-71583390D02*
X48207142Y-71726247D01*
X48207142Y-71726247D02*
X48159523Y-71916723D01*
X48159523Y-71916723D02*
X48111904Y-72011961D01*
X48111904Y-72011961D02*
X48016666Y-72107200D01*
X48016666Y-72107200D02*
X47873809Y-72154819D01*
X47873809Y-72154819D02*
X47635714Y-72154819D01*
X48588095Y-71250057D02*
X48635714Y-71202438D01*
X48635714Y-71202438D02*
X48730952Y-71154819D01*
X48730952Y-71154819D02*
X48969047Y-71154819D01*
X48969047Y-71154819D02*
X49064285Y-71202438D01*
X49064285Y-71202438D02*
X49111904Y-71250057D01*
X49111904Y-71250057D02*
X49159523Y-71345295D01*
X49159523Y-71345295D02*
X49159523Y-71440533D01*
X49159523Y-71440533D02*
X49111904Y-71583390D01*
X49111904Y-71583390D02*
X48540476Y-72154819D01*
X48540476Y-72154819D02*
X49159523Y-72154819D01*
X50016666Y-71488152D02*
X50016666Y-72154819D01*
X49778571Y-71107200D02*
X49540476Y-71821485D01*
X49540476Y-71821485D02*
X50159523Y-71821485D01*
X133641123Y-113805878D02*
X133581595Y-114028041D01*
X132843961Y-116780930D02*
X132722316Y-117234915D01*
X133075869Y-117847287D02*
X137485151Y-119028751D01*
X135138308Y-114207048D02*
X133641123Y-113805878D01*
X142286159Y-116122309D02*
X136587197Y-114595276D01*
X143493318Y-119344539D02*
X143700373Y-118571798D01*
X142755684Y-122097428D02*
X142693567Y-122329250D01*
X132722317Y-117234915D02*
G75*
G03*
X133075869Y-117847287I482963J-129409D01*
G01*
X139225067Y-121399868D02*
G75*
G03*
X137485151Y-119028752I-2347132J101613D01*
G01*
X143700376Y-118571799D02*
G75*
G03*
X142286159Y-116122309I-1931851J517638D01*
G01*
D11*
X65390000Y-106100000D02*
X65390000Y-108100000D01*
X65390000Y-106100000D02*
X69400000Y-106100000D01*
X65390000Y-108100000D02*
X69400000Y-108100000D01*
D10*
X101755176Y-65649780D02*
X101755176Y-65879780D01*
X101755176Y-68729780D02*
X101755176Y-69199780D01*
X102255176Y-69699780D02*
X106820000Y-69699780D01*
X103305176Y-65649780D02*
X101755176Y-65649780D01*
X110705176Y-65649780D02*
X104805176Y-65649780D01*
X112705176Y-68449780D02*
X112705176Y-67649780D01*
X112705176Y-71299780D02*
X112705176Y-71539780D01*
X101755176Y-69199780D02*
G75*
G03*
X102255176Y-69699780I500001J1D01*
G01*
X109114322Y-71539780D02*
G75*
G03*
X106820000Y-69699780I-2293456J-509332D01*
G01*
X112705180Y-67649780D02*
G75*
G03*
X110705176Y-65649780I-2000000J0D01*
G01*
D11*
X85440000Y-62100000D02*
X85440000Y-64100000D01*
X85440000Y-62100000D02*
X89450000Y-62100000D01*
X85440000Y-64100000D02*
X89450000Y-64100000D01*
X123290000Y-81500000D02*
X123290000Y-83500000D01*
X123290000Y-81500000D02*
X127300000Y-81500000D01*
X123290000Y-83500000D02*
X127300000Y-83500000D01*
D10*
X110535176Y-112149780D02*
X110535176Y-112379780D01*
X110535176Y-115229780D02*
X110535176Y-115699780D01*
X111035176Y-116199780D02*
X115600000Y-116199780D01*
X112085176Y-112149780D02*
X110535176Y-112149780D01*
X119485176Y-112149780D02*
X113585176Y-112149780D01*
X121485176Y-114949780D02*
X121485176Y-114149780D01*
X121485176Y-117799780D02*
X121485176Y-118039780D01*
X110535176Y-115699780D02*
G75*
G03*
X111035176Y-116199780I500001J1D01*
G01*
X117894322Y-118039780D02*
G75*
G03*
X115600000Y-116199780I-2293456J-509332D01*
G01*
X121485180Y-114149780D02*
G75*
G03*
X119485176Y-112149780I-2000000J0D01*
G01*
D11*
X46990000Y-91300000D02*
X46990000Y-93300000D01*
X46990000Y-91300000D02*
X51000000Y-91300000D01*
X46990000Y-93300000D02*
X51000000Y-93300000D01*
X85290000Y-100700000D02*
X85290000Y-102700000D01*
X85290000Y-100700000D02*
X89300000Y-100700000D01*
X85290000Y-102700000D02*
X89300000Y-102700000D01*
D10*
X63725176Y-76049780D02*
X63725176Y-76279780D01*
X63725176Y-79129780D02*
X63725176Y-79599780D01*
X64225176Y-80099780D02*
X68790000Y-80099780D01*
X65275176Y-76049780D02*
X63725176Y-76049780D01*
X72675176Y-76049780D02*
X66775176Y-76049780D01*
X74675176Y-78849780D02*
X74675176Y-78049780D01*
X74675176Y-81699780D02*
X74675176Y-81939780D01*
X63725176Y-79599780D02*
G75*
G03*
X64225176Y-80099780I500001J1D01*
G01*
X71084322Y-81939780D02*
G75*
G03*
X68790000Y-80099780I-2293456J-509332D01*
G01*
X74675180Y-78049780D02*
G75*
G03*
X72675176Y-76049780I-2000000J0D01*
G01*
X82675176Y-52089780D02*
X82675176Y-52319780D01*
X82675176Y-55169780D02*
X82675176Y-55639780D01*
X83175176Y-56139780D02*
X87740000Y-56139780D01*
X84225176Y-52089780D02*
X82675176Y-52089780D01*
X91625176Y-52089780D02*
X85725176Y-52089780D01*
X93625176Y-54889780D02*
X93625176Y-54089780D01*
X93625176Y-57739780D02*
X93625176Y-57979780D01*
X82675176Y-55639780D02*
G75*
G03*
X83175176Y-56139780I500001J1D01*
G01*
X90034322Y-57979780D02*
G75*
G03*
X87740000Y-56139780I-2293456J-509332D01*
G01*
X93625180Y-54089780D02*
G75*
G03*
X91625176Y-52089780I-2000000J0D01*
G01*
D11*
X152106180Y-131853975D02*
X151106180Y-133586025D01*
X152106180Y-131853975D02*
X155578942Y-133858975D01*
X151106180Y-133586025D02*
X154578942Y-135591025D01*
X65390000Y-86600000D02*
X65390000Y-88600000D01*
X65390000Y-86600000D02*
X69400000Y-86600000D01*
X65390000Y-88600000D02*
X69400000Y-88600000D01*
X46990000Y-111000000D02*
X46990000Y-113000000D01*
X46990000Y-111000000D02*
X51000000Y-111000000D01*
X46990000Y-113000000D02*
X51000000Y-113000000D01*
X157490000Y-103100000D02*
X157490000Y-105100000D01*
X157490000Y-103100000D02*
X161500000Y-103100000D01*
X157490000Y-105100000D02*
X161500000Y-105100000D01*
D10*
X82675176Y-71189780D02*
X82675176Y-71419780D01*
X82675176Y-74269780D02*
X82675176Y-74739780D01*
X83175176Y-75239780D02*
X87740000Y-75239780D01*
X84225176Y-71189780D02*
X82675176Y-71189780D01*
X91625176Y-71189780D02*
X85725176Y-71189780D01*
X93625176Y-73989780D02*
X93625176Y-73189780D01*
X93625176Y-76839780D02*
X93625176Y-77079780D01*
X82675176Y-74739780D02*
G75*
G03*
X83175176Y-75239780I500001J1D01*
G01*
X90034322Y-77079780D02*
G75*
G03*
X87740000Y-75239780I-2293456J-509332D01*
G01*
X93625180Y-73189780D02*
G75*
G03*
X91625176Y-71189780I-2000000J0D01*
G01*
D11*
X104790000Y-76200000D02*
X104790000Y-78200000D01*
X104790000Y-76200000D02*
X108800000Y-76200000D01*
X104790000Y-78200000D02*
X108800000Y-78200000D01*
X65440000Y-67600000D02*
X65440000Y-69600000D01*
X65440000Y-67600000D02*
X69450000Y-67600000D01*
X65440000Y-69600000D02*
X69450000Y-69600000D01*
D10*
X139855176Y-73049780D02*
X139855176Y-73279780D01*
X139855176Y-76129780D02*
X139855176Y-76599780D01*
X140355176Y-77099780D02*
X144920000Y-77099780D01*
X141405176Y-73049780D02*
X139855176Y-73049780D01*
X148805176Y-73049780D02*
X142905176Y-73049780D01*
X150805176Y-75849780D02*
X150805176Y-75049780D01*
X150805176Y-78699780D02*
X150805176Y-78939780D01*
X139855176Y-76599780D02*
G75*
G03*
X140355176Y-77099780I500001J1D01*
G01*
X147214322Y-78939780D02*
G75*
G03*
X144920000Y-77099780I-2293456J-509332D01*
G01*
X150805180Y-75049780D02*
G75*
G03*
X148805176Y-73049780I-2000000J0D01*
G01*
D11*
X123640000Y-100600000D02*
X123640000Y-102600000D01*
X123640000Y-100600000D02*
X127650000Y-100600000D01*
X123640000Y-102600000D02*
X127650000Y-102600000D01*
D10*
X120815176Y-90049780D02*
X120815176Y-90279780D01*
X120815176Y-93129780D02*
X120815176Y-93599780D01*
X121315176Y-94099780D02*
X125880000Y-94099780D01*
X122365176Y-90049780D02*
X120815176Y-90049780D01*
X129765176Y-90049780D02*
X123865176Y-90049780D01*
X131765176Y-92849780D02*
X131765176Y-92049780D01*
X131765176Y-95699780D02*
X131765176Y-95939780D01*
X120815176Y-93599780D02*
G75*
G03*
X121315176Y-94099780I500001J1D01*
G01*
X128174322Y-95939780D02*
G75*
G03*
X125880000Y-94099780I-2293456J-509332D01*
G01*
X131765180Y-92049780D02*
G75*
G03*
X129765176Y-90049780I-2000000J0D01*
G01*
X82735176Y-90249780D02*
X82735176Y-90479780D01*
X82735176Y-93329780D02*
X82735176Y-93799780D01*
X83235176Y-94299780D02*
X87800000Y-94299780D01*
X84285176Y-90249780D02*
X82735176Y-90249780D01*
X91685176Y-90249780D02*
X85785176Y-90249780D01*
X93685176Y-93049780D02*
X93685176Y-92249780D01*
X93685176Y-95899780D02*
X93685176Y-96139780D01*
X82735176Y-93799780D02*
G75*
G03*
X83235176Y-94299780I500001J1D01*
G01*
X90094322Y-96139780D02*
G75*
G03*
X87800000Y-94299780I-2293456J-509332D01*
G01*
X93685180Y-92249780D02*
G75*
G03*
X91685176Y-90249780I-2000000J0D01*
G01*
D11*
X169405061Y-143590847D02*
X167990847Y-145005061D01*
X169405061Y-143590847D02*
X172240559Y-146426345D01*
X167990847Y-145005061D02*
X170826345Y-147840559D01*
D10*
X139855176Y-53949780D02*
X139855176Y-54179780D01*
X139855176Y-57029780D02*
X139855176Y-57499780D01*
X140355176Y-57999780D02*
X144920000Y-57999780D01*
X141405176Y-53949780D02*
X139855176Y-53949780D01*
X148805176Y-53949780D02*
X142905176Y-53949780D01*
X150805176Y-56749780D02*
X150805176Y-55949780D01*
X150805176Y-59599780D02*
X150805176Y-59839780D01*
X139855176Y-57499780D02*
G75*
G03*
X140355176Y-57999780I500001J1D01*
G01*
X147214322Y-59839780D02*
G75*
G03*
X144920000Y-57999780I-2293456J-509332D01*
G01*
X150805180Y-55949780D02*
G75*
G03*
X148805176Y-53949780I-2000000J0D01*
G01*
D11*
X104190000Y-57800000D02*
X104190000Y-59800000D01*
X104190000Y-57800000D02*
X108200000Y-57800000D01*
X104190000Y-59800000D02*
X108200000Y-59800000D01*
X142490000Y-84200000D02*
X142490000Y-86200000D01*
X142490000Y-84200000D02*
X146500000Y-84200000D01*
X142490000Y-86200000D02*
X146500000Y-86200000D01*
D10*
X44715176Y-81049780D02*
X44715176Y-81279780D01*
X44715176Y-84129780D02*
X44715176Y-84599780D01*
X45215176Y-85099780D02*
X49780000Y-85099780D01*
X46265176Y-81049780D02*
X44715176Y-81049780D01*
X53665176Y-81049780D02*
X47765176Y-81049780D01*
X55665176Y-83849780D02*
X55665176Y-83049780D01*
X55665176Y-86699780D02*
X55665176Y-86939780D01*
X44715176Y-84599780D02*
G75*
G03*
X45215176Y-85099780I500001J1D01*
G01*
X52074322Y-86939780D02*
G75*
G03*
X49780000Y-85099780I-2293456J-509332D01*
G01*
X55665180Y-83049780D02*
G75*
G03*
X53665176Y-81049780I-2000000J0D01*
G01*
D11*
X141840000Y-64300000D02*
X141840000Y-66300000D01*
X141840000Y-64300000D02*
X145850000Y-64300000D01*
X141840000Y-66300000D02*
X145850000Y-66300000D01*
D10*
X120815176Y-51849780D02*
X120815176Y-52079780D01*
X120815176Y-54929780D02*
X120815176Y-55399780D01*
X121315176Y-55899780D02*
X125880000Y-55899780D01*
X122365176Y-51849780D02*
X120815176Y-51849780D01*
X129765176Y-51849780D02*
X123865176Y-51849780D01*
X131765176Y-54649780D02*
X131765176Y-53849780D01*
X131765176Y-57499780D02*
X131765176Y-57739780D01*
X120815176Y-55399780D02*
G75*
G03*
X121315176Y-55899780I500001J1D01*
G01*
X128174322Y-57739780D02*
G75*
G03*
X125880000Y-55899780I-2293456J-509332D01*
G01*
X131765180Y-53849780D02*
G75*
G03*
X129765176Y-51849780I-2000000J0D01*
G01*
D11*
X104190000Y-95300000D02*
X104190000Y-97300000D01*
X104190000Y-95300000D02*
X108200000Y-95300000D01*
X104190000Y-97300000D02*
X108200000Y-97300000D01*
D10*
X44715176Y-42949780D02*
X44715176Y-43179780D01*
X44715176Y-46029780D02*
X44715176Y-46499780D01*
X45215176Y-46999780D02*
X49780000Y-46999780D01*
X46265176Y-42949780D02*
X44715176Y-42949780D01*
X53665176Y-42949780D02*
X47765176Y-42949780D01*
X55665176Y-45749780D02*
X55665176Y-44949780D01*
X55665176Y-48599780D02*
X55665176Y-48839780D01*
X44715176Y-46499780D02*
G75*
G03*
X45215176Y-46999780I500001J1D01*
G01*
X52074322Y-48839780D02*
G75*
G03*
X49780000Y-46999780I-2293456J-509332D01*
G01*
X55665180Y-44949780D02*
G75*
G03*
X53665176Y-42949780I-2000000J0D01*
G01*
D12*
X190680994Y-107988001D02*
G75*
G03*
X189918994Y-107988001I-381000J0D01*
G01*
X189918994Y-107988001D02*
G75*
G03*
X190680994Y-107988001I381000J0D01*
G01*
X185123007Y-118977001D02*
X185617253Y-118977001D01*
X188482733Y-118977001D02*
X190577005Y-118977001D01*
X190577005Y-118977001D02*
X190577005Y-117532742D01*
X190577005Y-110067260D02*
X190577005Y-108623001D01*
X185123007Y-108623001D02*
X185123007Y-118977001D01*
X185617253Y-108623001D02*
X185123007Y-108623001D01*
X190577005Y-108623001D02*
X188482733Y-108623001D01*
D11*
X142990000Y-103300000D02*
X142990000Y-105300000D01*
X142990000Y-103300000D02*
X147000000Y-103300000D01*
X142990000Y-105300000D02*
X147000000Y-105300000D01*
X162000000Y-45855000D02*
X162000000Y-46155000D01*
X162000000Y-45855000D02*
X183000000Y-45855000D01*
X162000000Y-48255000D02*
X162000000Y-48655000D01*
X162000000Y-48522000D02*
X165007000Y-48522000D01*
X162000000Y-50855000D02*
X162000000Y-51255000D01*
X162000000Y-53355000D02*
X162000000Y-53755000D01*
X162000000Y-55955000D02*
X162000000Y-56355000D01*
X162000000Y-58455000D02*
X162000000Y-58855000D01*
X162000000Y-60955000D02*
X162000000Y-61355000D01*
X162000000Y-63555000D02*
X162000000Y-63955000D01*
X162000000Y-66055000D02*
X162000000Y-66455000D01*
X162000000Y-68655000D02*
X162000000Y-69055000D01*
X162000000Y-71155000D02*
X162000000Y-71555000D01*
X162000000Y-73655000D02*
X162000000Y-74055000D01*
X162000000Y-76255000D02*
X162000000Y-76655000D01*
X162000000Y-78755000D02*
X162000000Y-79155000D01*
X162000000Y-81355000D02*
X162000000Y-81755000D01*
X162000000Y-83855000D02*
X162000000Y-84255000D01*
X162000000Y-86455000D02*
X162000000Y-86855000D01*
X162000000Y-88955000D02*
X162000000Y-89355000D01*
X162000000Y-91455000D02*
X162000000Y-91855000D01*
X162000000Y-94055000D02*
X162000000Y-94455000D01*
X165007000Y-48522000D02*
X165007000Y-45855000D01*
X168800000Y-96855000D02*
X162000000Y-96855000D01*
X171000000Y-96855000D02*
X171400000Y-96855000D01*
X173600000Y-96855000D02*
X174000000Y-96855000D01*
X183000000Y-45855000D02*
X183000000Y-46155000D01*
X183000000Y-48255000D02*
X183000000Y-48655000D01*
X183000000Y-50855000D02*
X183000000Y-51255000D01*
X183000000Y-53355000D02*
X183000000Y-53755000D01*
X183000000Y-55955000D02*
X183000000Y-56355000D01*
X183000000Y-58455000D02*
X183000000Y-58855000D01*
X183000000Y-60955000D02*
X183000000Y-61355000D01*
X183000000Y-63555000D02*
X183000000Y-63955000D01*
X183000000Y-66055000D02*
X183000000Y-66455000D01*
X183000000Y-68655000D02*
X183000000Y-69055000D01*
X183000000Y-71155000D02*
X183000000Y-71555000D01*
X183000000Y-73655000D02*
X183000000Y-74055000D01*
X183000000Y-76255000D02*
X183000000Y-76655000D01*
X183000000Y-78755000D02*
X183000000Y-79155000D01*
X183000000Y-81355000D02*
X183000000Y-81755000D01*
X183000000Y-83855000D02*
X183000000Y-84255000D01*
X183000000Y-86455000D02*
X183000000Y-86855000D01*
X183000000Y-88955000D02*
X183000000Y-89355000D01*
X183000000Y-91455000D02*
X183000000Y-91855000D01*
X183000000Y-94055000D02*
X183000000Y-94455000D01*
X183000000Y-96855000D02*
X176200000Y-96855000D01*
D10*
X44735176Y-100149780D02*
X44735176Y-100379780D01*
X44735176Y-103229780D02*
X44735176Y-103699780D01*
X45235176Y-104199780D02*
X49800000Y-104199780D01*
X46285176Y-100149780D02*
X44735176Y-100149780D01*
X53685176Y-100149780D02*
X47785176Y-100149780D01*
X55685176Y-102949780D02*
X55685176Y-102149780D01*
X55685176Y-105799780D02*
X55685176Y-106039780D01*
X44735176Y-103699780D02*
G75*
G03*
X45235176Y-104199780I500001J1D01*
G01*
X52094322Y-106039780D02*
G75*
G03*
X49800000Y-104199780I-2293456J-509332D01*
G01*
X55685180Y-102149780D02*
G75*
G03*
X53685176Y-100149780I-2000000J0D01*
G01*
X63715176Y-57049780D02*
X63715176Y-57279780D01*
X63715176Y-60129780D02*
X63715176Y-60599780D01*
X64215176Y-61099780D02*
X68780000Y-61099780D01*
X65265176Y-57049780D02*
X63715176Y-57049780D01*
X72665176Y-57049780D02*
X66765176Y-57049780D01*
X74665176Y-59849780D02*
X74665176Y-59049780D01*
X74665176Y-62699780D02*
X74665176Y-62939780D01*
X63715176Y-60599780D02*
G75*
G03*
X64215176Y-61099780I500001J1D01*
G01*
X71074322Y-62939780D02*
G75*
G03*
X68780000Y-61099780I-2293456J-509332D01*
G01*
X74665180Y-59049780D02*
G75*
G03*
X72665176Y-57049780I-2000000J0D01*
G01*
D11*
X47190000Y-53700000D02*
X47190000Y-55700000D01*
X47190000Y-53700000D02*
X51200000Y-53700000D01*
X47190000Y-55700000D02*
X51200000Y-55700000D01*
D10*
X101735176Y-46649780D02*
X101735176Y-46879780D01*
X101735176Y-49729780D02*
X101735176Y-50199780D01*
X102235176Y-50699780D02*
X106800000Y-50699780D01*
X103285176Y-46649780D02*
X101735176Y-46649780D01*
X110685176Y-46649780D02*
X104785176Y-46649780D01*
X112685176Y-49449780D02*
X112685176Y-48649780D01*
X112685176Y-52299780D02*
X112685176Y-52539780D01*
X101735176Y-50199780D02*
G75*
G03*
X102235176Y-50699780I500001J1D01*
G01*
X109094322Y-52539780D02*
G75*
G03*
X106800000Y-50699780I-2293456J-509332D01*
G01*
X112685180Y-48649780D02*
G75*
G03*
X110685176Y-46649780I-2000000J0D01*
G01*
X63725176Y-95129780D02*
X63725176Y-95359780D01*
X63725176Y-98209780D02*
X63725176Y-98679780D01*
X64225176Y-99179780D02*
X68790000Y-99179780D01*
X65275176Y-95129780D02*
X63725176Y-95129780D01*
X72675176Y-95129780D02*
X66775176Y-95129780D01*
X74675176Y-97929780D02*
X74675176Y-97129780D01*
X74675176Y-100779780D02*
X74675176Y-101019780D01*
X63725176Y-98679780D02*
G75*
G03*
X64225176Y-99179780I500001J1D01*
G01*
X71084322Y-101019780D02*
G75*
G03*
X68790000Y-99179780I-2293456J-509332D01*
G01*
X74675180Y-97129780D02*
G75*
G03*
X72675176Y-95129780I-2000000J0D01*
G01*
D11*
X133473012Y-124950312D02*
X132955374Y-126882164D01*
X133473012Y-124950312D02*
X137346375Y-125988177D01*
X132955374Y-126882164D02*
X136828737Y-127920028D01*
D10*
X155762049Y-121521726D02*
X155647049Y-121720912D01*
X154222049Y-124189084D02*
X153987049Y-124596116D01*
X154170062Y-125279129D02*
X158123315Y-127561541D01*
X157104388Y-122296726D02*
X155762049Y-121521726D01*
X163512976Y-125996726D02*
X158403426Y-123046726D01*
X163845027Y-129421597D02*
X164245027Y-128728777D01*
X162420027Y-131889770D02*
X162300027Y-132097616D01*
X153987050Y-124596117D02*
G75*
G03*
X154170062Y-125279128I433013J-249999D01*
G01*
X159190255Y-130302189D02*
G75*
G03*
X158123315Y-127561542I-2240856J705634D01*
G01*
X164245030Y-128728779D02*
G75*
G03*
X163512976Y-125996727I-1732050J1000000D01*
G01*
X120835176Y-70949780D02*
X120835176Y-71179780D01*
X120835176Y-74029780D02*
X120835176Y-74499780D01*
X121335176Y-74999780D02*
X125900000Y-74999780D01*
X122385176Y-70949780D02*
X120835176Y-70949780D01*
X129785176Y-70949780D02*
X123885176Y-70949780D01*
X131785176Y-73749780D02*
X131785176Y-72949780D01*
X131785176Y-76599780D02*
X131785176Y-76839780D01*
X120835176Y-74499780D02*
G75*
G03*
X121335176Y-74999780I500001J1D01*
G01*
X128194322Y-76839780D02*
G75*
G03*
X125900000Y-74999780I-2293456J-509332D01*
G01*
X131785180Y-72949780D02*
G75*
G03*
X129785176Y-70949780I-2000000J0D01*
G01*
D13*
X163700000Y-104700000D02*
X163700000Y-118100000D01*
X163700000Y-104700000D02*
X176100000Y-104700000D01*
X163700000Y-118100000D02*
X176100000Y-118100000D01*
X176100000Y-104700000D02*
X176100000Y-118100000D01*
D10*
X175025278Y-134779026D02*
X174862644Y-134941660D01*
X172847389Y-136956915D02*
X172515049Y-137289255D01*
X172515049Y-137996361D02*
X175742867Y-141224179D01*
X176121294Y-135875041D02*
X175025278Y-134779026D01*
X181353884Y-141107631D02*
X177181954Y-136935701D01*
X180788199Y-144501744D02*
X181353884Y-143936058D01*
X178772944Y-146516998D02*
X178603239Y-146686704D01*
X172515050Y-137289256D02*
G75*
G03*
X172515050Y-137996360I353554J-353552D01*
G01*
X176064121Y-144147587D02*
G75*
G03*
X175742867Y-141224179I-1981870J1261567D01*
G01*
X181353887Y-143936061D02*
G75*
G03*
X181353884Y-141107631I-1414214J1414213D01*
G01*
D11*
X84790000Y-81800000D02*
X84790000Y-83800000D01*
X84790000Y-81800000D02*
X88800000Y-81800000D01*
X84790000Y-83800000D02*
X88800000Y-83800000D01*
D10*
X139855176Y-92049780D02*
X139855176Y-92279780D01*
X139855176Y-95129780D02*
X139855176Y-95599780D01*
X140355176Y-96099780D02*
X144920000Y-96099780D01*
X141405176Y-92049780D02*
X139855176Y-92049780D01*
X148805176Y-92049780D02*
X142905176Y-92049780D01*
X150805176Y-94849780D02*
X150805176Y-94049780D01*
X150805176Y-97699780D02*
X150805176Y-97939780D01*
X139855176Y-95599780D02*
G75*
G03*
X140355176Y-96099780I500001J1D01*
G01*
X147214322Y-97939780D02*
G75*
G03*
X144920000Y-96099780I-2293456J-509332D01*
G01*
X150805180Y-94049780D02*
G75*
G03*
X148805176Y-92049780I-2000000J0D01*
G01*
D11*
X123390000Y-62600000D02*
X123390000Y-64600000D01*
X123390000Y-62600000D02*
X127400000Y-62600000D01*
X123390000Y-64600000D02*
X127400000Y-64600000D01*
D10*
X44715176Y-61989780D02*
X44715176Y-62219780D01*
X44715176Y-65069780D02*
X44715176Y-65539780D01*
X45215176Y-66039780D02*
X49780000Y-66039780D01*
X46265176Y-61989780D02*
X44715176Y-61989780D01*
X53665176Y-61989780D02*
X47765176Y-61989780D01*
X55665176Y-64789780D02*
X55665176Y-63989780D01*
X55665176Y-67639780D02*
X55665176Y-67879780D01*
X44715176Y-65539780D02*
G75*
G03*
X45215176Y-66039780I500001J1D01*
G01*
X52074322Y-67879780D02*
G75*
G03*
X49780000Y-66039780I-2293456J-509332D01*
G01*
X55665180Y-63989780D02*
G75*
G03*
X53665176Y-61989780I-2000000J0D01*
G01*
X101715176Y-84649780D02*
X101715176Y-84879780D01*
X101715176Y-87729780D02*
X101715176Y-88199780D01*
X102215176Y-88699780D02*
X106780000Y-88699780D01*
X103265176Y-84649780D02*
X101715176Y-84649780D01*
X110665176Y-84649780D02*
X104765176Y-84649780D01*
X112665176Y-87449780D02*
X112665176Y-86649780D01*
X112665176Y-90299780D02*
X112665176Y-90539780D01*
X101715176Y-88199780D02*
G75*
G03*
X102215176Y-88699780I500001J1D01*
G01*
X109074322Y-90539780D02*
G75*
G03*
X106780000Y-88699780I-2293456J-509332D01*
G01*
X112665180Y-86649780D02*
G75*
G03*
X110665176Y-84649780I-2000000J0D01*
G01*
D11*
X113390000Y-123100000D02*
X113390000Y-125100000D01*
X113390000Y-123100000D02*
X117400000Y-123100000D01*
X113390000Y-125100000D02*
X117400000Y-125100000D01*
X46490000Y-72700000D02*
X46490000Y-74700000D01*
X46490000Y-72700000D02*
X50500000Y-72700000D01*
X46490000Y-74700000D02*
X50500000Y-74700000D01*
M02*
