M48
; DRILL file {KiCad 7.0.10-7.0.10~ubuntu23.10.1} date Sun 07 Jan 2024 04:58:07 PM EST
; FORMAT={-:-/ absolute / metric / decimal}
; #@! TF.CreationDate,2024-01-07T16:58:07-05:00
; #@! TF.GenerationSoftware,Kicad,Pcbnew,7.0.10-7.0.10~ubuntu23.10.1
; #@! TF.FileFunction,NonPlated,1,2,NPTH
FMAT,2
METRIC
; #@! TA.AperFunction,NonPlated,NPTH,ComponentDrill
T1C1.500
; #@! TA.AperFunction,NonPlated,NPTH,ComponentDrill
T2C1.750
; #@! TA.AperFunction,NonPlated,NPTH,ComponentDrill
T3C1.800
; #@! TA.AperFunction,NonPlated,NPTH,ComponentDrill
T4C3.988
%
G90
G05
T1
X170.075Y-50.385
X174.925Y-50.385
T2
X44.5Y-49.7
X44.5Y-68.74
X44.5Y-87.8
X44.52Y-106.9
X54.66Y-49.7
X54.66Y-68.74
X54.66Y-87.8
X54.68Y-106.9
X63.5Y-63.8
X63.51Y-82.8
X63.51Y-101.88
X73.66Y-63.8
X73.67Y-82.8
X73.67Y-101.88
X82.46Y-58.84
X82.46Y-77.94
X82.52Y-97.0
X92.62Y-58.84
X92.62Y-77.94
X92.68Y-97.0
X101.5Y-91.4
X101.52Y-53.4
X101.54Y-72.4
X110.32Y-118.9
X111.66Y-91.4
X111.68Y-53.4
X111.7Y-72.4
X120.48Y-118.9
X120.6Y-58.6
X120.6Y-96.8
X120.62Y-77.7
X130.76Y-58.6
X130.76Y-96.8
X130.78Y-77.7
X131.686Y-120.27
X139.64Y-60.7
X139.64Y-79.8
X139.64Y-98.8
X141.5Y-122.9
X149.8Y-60.7
X149.8Y-79.8
X149.8Y-98.8
X152.201Y-127.26
X160.999Y-132.34
X170.1Y-139.4
X177.284Y-146.584
T3
X169.775Y-47.355
X175.225Y-47.355
T4
X49.58Y-49.7
X49.58Y-68.74
X49.58Y-87.8
X49.6Y-106.9
X68.58Y-63.8
X68.59Y-82.8
X68.59Y-101.88
X87.54Y-58.84
X87.54Y-77.94
X87.6Y-97.0
X106.58Y-91.4
X106.6Y-53.4
X106.62Y-72.4
X115.4Y-118.9
X125.68Y-58.6
X125.68Y-96.8
X125.7Y-77.7
X136.593Y-121.585
X144.72Y-60.7
X144.72Y-79.8
X144.72Y-98.8
X156.6Y-129.8
X173.692Y-142.992
M30
