M48
; DRILL file {KiCad 7.0.10-7.0.10~ubuntu23.10.1} date Sun 07 Jan 2024 04:58:07 PM EST
; FORMAT={-:-/ absolute / metric / decimal}
; #@! TF.CreationDate,2024-01-07T16:58:07-05:00
; #@! TF.GenerationSoftware,Kicad,Pcbnew,7.0.10-7.0.10~ubuntu23.10.1
; #@! TF.FileFunction,Plated,1,2,PTH
FMAT,2
METRIC
; #@! TA.AperFunction,Plated,PTH,ViaDrill
T1C0.400
; #@! TA.AperFunction,Plated,PTH,ComponentDrill
T2C0.762
; #@! TA.AperFunction,Plated,PTH,ComponentDrill
T3C1.020
; #@! TA.AperFunction,Plated,PTH,ComponentDrill
T4C3.000
%
G90
G05
T1
X93.1Y-88.3
X149.3Y-132.7
X164.5Y-124.0
X181.4Y-124.1
T2
X164.3Y-111.1
X167.9Y-104.1
X167.9Y-118.6
X170.4Y-118.6
X172.9Y-104.1
X172.9Y-118.6
X175.5Y-111.1
T3
X163.61Y-47.225
X163.61Y-49.765
X163.61Y-52.305
X163.61Y-54.845
X163.61Y-57.385
X163.61Y-59.925
X163.61Y-62.465
X163.61Y-65.005
X163.61Y-67.545
X163.61Y-70.085
X163.61Y-72.625
X163.61Y-75.165
X163.61Y-77.705
X163.61Y-80.245
X163.61Y-82.785
X163.61Y-85.325
X163.61Y-87.865
X163.61Y-90.405
X163.61Y-92.945
X163.61Y-95.485
X169.96Y-95.255
X172.5Y-95.255
X175.04Y-95.255
X181.39Y-47.225
X181.39Y-49.765
X181.39Y-52.305
X181.39Y-54.845
X181.39Y-57.385
X181.39Y-59.925
X181.39Y-62.465
X181.39Y-65.005
X181.39Y-67.545
X181.39Y-70.085
X181.39Y-72.625
X181.39Y-75.165
X181.39Y-77.705
X181.39Y-80.245
X181.39Y-82.785
X181.39Y-85.325
X181.39Y-87.865
X181.39Y-90.405
X181.39Y-92.945
X181.39Y-95.485
T4
X47.04Y-44.62
X47.04Y-63.66
X47.04Y-82.72
X47.06Y-101.82
X53.39Y-47.16
X53.39Y-66.2
X53.39Y-85.26
X53.41Y-104.36
X66.04Y-58.72
X66.05Y-77.72
X66.05Y-96.8
X72.39Y-61.26
X72.4Y-80.26
X72.4Y-99.34
X85.0Y-53.76
X85.0Y-72.86
X85.06Y-91.92
X91.35Y-56.3
X91.35Y-75.4
X91.41Y-94.46
X104.04Y-86.32
X104.06Y-48.32
X104.08Y-67.32
X110.39Y-88.86
X110.41Y-50.86
X110.43Y-69.86
X112.86Y-113.82
X119.21Y-116.36
X123.14Y-53.52
X123.14Y-91.72
X123.16Y-72.62
X129.49Y-56.06
X129.49Y-94.26
X129.51Y-75.16
X135.454Y-116.021
X140.931Y-120.118
X142.18Y-55.62
X142.18Y-74.72
X142.18Y-93.72
X148.53Y-58.16
X148.53Y-77.26
X148.53Y-96.26
X156.94Y-124.131
X161.17Y-129.505
X175.488Y-137.604
X178.182Y-143.89
M30
